<?xml version="1.0" standalone="no"?>
<!DOCTYPE svg PUBLIC "-//W3C//DTD SVG 1.1//EN" "http://www.w3.org/Graphics/SVG/1.1/DTD/svg11.dtd" >
<svg xmlns="http://www.w3.org/2000/svg" xmlns:xlink="http://www.w3.org/1999/xlink" version="1.1">
<metadata>
Created by FontForge 20170910 at Thu Mar 22 16:26:46 2018
 By Jimmy Wärting
VTB Group typeface, based on FreeSet typeface by ParaType,  is made for exclusive use by VTB Group (PJSC) only. The typeface may only be used in projects relating to VTB Group (PJSC). All rights reserved.
</metadata>
<defs>
<font id="VTBGroup-Book" horiz-adv-x="550" >
  <font-face 
    font-family="VTB Group Book"
    font-weight="400"
    font-stretch="normal"
    units-per-em="1000"
    panose-1="2 11 5 3 4 5 4 2 2 4"
    ascent="773"
    descent="-227"
    x-height="510"
    cap-height="700"
    bbox="-480 -248 1130 1000"
    underline-thickness="50"
    underline-position="-100"
    stemh="76"
    stemv="94"
    unicode-range="U+0020-FB02"
  />
<missing-glyph horiz-adv-x="233" 
 />
    <glyph glyph-name="IJ" unicode="IJ" horiz-adv-x="660" 
d="M94 0v700h100v-700h-100zM292 2v86c32 -9 53 -10 63 -10c45 0 73 14 88 32c24 27 26 69 26 105v485h100v-517c0 -36 -5 -103 -55 -148c-32 -29 -83 -45 -144 -45c-40 0 -65 7 -78 12z" />
    <glyph glyph-name="ij" unicode="ij" horiz-adv-x="520" 
d="M80 0v510h94v-510h-94zM180 720v-106h-106v106h106zM269 -228c-16 0 -40 5 -40 5v80s15 -4 35 -4c45 0 70 25 70 103v554h94v-554c0 -144 -40 -184 -159 -184zM328 617v106h106v-106h-106z" />
    <glyph glyph-name="afii10017.var.accented" unicode="&#x410;`" horiz-adv-x="684" 
d="M12 0l277 700h106l277 -700h-110l-67 180h-310l-67 -180h-106zM215 260h250l-123 335h-2zM374 870h130l-114 -120h-96z" />
    <glyph glyph-name="afii10022.var.accented" unicode="&#x415;`" horiz-adv-x="554" 
d="M94 0v700h391v-88h-291v-205h265v-88h-265v-231h291v-88h-391zM320 870h130l-114 -120h-96z" />
    <glyph glyph-name="afii10026.var.accented" unicode="&#x418;`" horiz-adv-x="738" 
d="M94 0v700h100v-570h2l322 570h126v-700h-100v570h-2l-322 -570h-126zM401 870h130l-114 -120h-96z" />
    <glyph glyph-name="afii10032.var.accented" unicode="&#x41e;`" horiz-adv-x="778" 
d="M389 710c112 0 193 -40 250 -106c52 -59 86 -147 86 -254c0 -109 -36 -198 -86 -255c-44 -51 -122 -105 -250 -105s-206 54 -250 105c-50 57 -86 146 -86 255c0 107 34 195 86 254c57 66 138 106 250 106zM389 622c-82 0 -139 -39 -171 -80c-36 -46 -59 -120 -59 -192
c0 -59 16 -137 59 -192c34 -44 87 -80 171 -80s137 36 171 80c43 55 59 133 59 192c0 72 -23 146 -59 192c-32 41 -89 80 -171 80zM368 870h130l-114 -120h-96z" />
    <glyph glyph-name="afii10037.var.accented" unicode="&#x423;`" horiz-adv-x="576" 
d="M165 -10c-40 0 -80 14 -80 14v98s30 -20 70 -20c41 0 58 13 77 54l25 55l-247 509h113l185 -390h4l171 390h97l-264 -595c-32 -72 -68 -115 -151 -115zM327 870h130l-114 -120h-96z" />
    <glyph glyph-name="afii10045.var.accented" unicode="&#x42b;`" horiz-adv-x="831" 
d="M637 0v700h100v-700h-100zM194 88h100c99 0 144 45 144 132s-45 132 -144 132h-100v-264zM94 0v700h100v-260h100c170 0 250 -80 250 -220s-80 -220 -250 -220h-200zM447 870h130l-114 -120h-96z" />
    <glyph glyph-name="afii10047.var.accented" unicode="&#x42d;`" horiz-adv-x="636" 
d="M193 316v88h280c-20 136 -116 218 -250 218c-107 0 -170 -40 -170 -40v98s63 30 170 30c220 0 360 -140 360 -360s-140 -360 -370 -360c-97 0 -160 25 -160 25v98s63 -35 160 -35c150 0 249 89 262 238h-282zM259 870h130l-114 -120h-96z" />
    <glyph glyph-name="afii10048.var.accented" unicode="&#x42e;`" horiz-adv-x="1030" 
d="M194 407h120c7 67 33 141 81 197c56 66 135 106 246 106s193 -41 250 -106c52 -59 86 -147 86 -254c0 -109 -36 -198 -86 -255c-44 -51 -122 -105 -250 -105c-127 0 -202 54 -246 105c-51 59 -80 145 -84 224h-117v-319h-100v700h100v-293zM641 622
c-82 0 -139 -39 -171 -80c-36 -46 -59 -120 -59 -192c0 -59 16 -137 59 -192c34 -44 87 -80 171 -80s137 36 171 80c43 55 59 133 59 192c0 72 -23 146 -59 192c-32 41 -89 80 -171 80zM494 870h130l-114 -120h-96z" />
    <glyph glyph-name="afii10049.var.accented" unicode="&#x42f;`" horiz-adv-x="627" 
d="M54 0l167 283c-87 31 -128 99 -128 197c0 140 80 220 250 220h190v-700h-100v265h-110l-148 -265h-121zM343 348h90v264h-90c-99 0 -144 -45 -144 -132s45 -132 144 -132zM374 870h130l-114 -120h-96z" />
    <glyph glyph-name="afii10023.var.accented" unicode="&#x401;`" horiz-adv-x="554" 
d="M94 0v700h391v-88h-291v-205h265v-88h-265v-231h291v-88h-391zM126 857h108v-105h-108v105zM345 857h108v-105h-108v105zM252 856l89 144h109l-131 -144h-67z" />
    <glyph glyph-name="afii10065.var.accented" unicode="&#x430;`" horiz-adv-x="556" 
d="M224 -8c-115 0 -178 61 -178 153c0 100 70 170 270 170h66v25c0 67 -35 102 -106 102c-60 0 -111 -12 -171 -50v82c55 31 121 44 171 44c140 0 200 -60 200 -208v-310h-84v70h-2c-42 -58 -108 -78 -166 -78zM246 68c79 0 136 55 136 132v45h-66
c-130 0 -170 -40 -170 -100c0 -44 33 -77 100 -77zM236 610l78 130h120l-118 -130h-80z" />
    <glyph glyph-name="afii10070.var.accented" unicode="&#x435;`" horiz-adv-x="552" 
d="M306 -8c-160 0 -260 100 -260 265c0 161 100 261 230 261c145 0 230 -85 230 -258v-26h-360c7 -97 65 -166 170 -166c60 0 117 24 155 51v-94c-32 -15 -75 -33 -165 -33zM276 442c-70 0 -130 -60 -130 -138h260c0 88 -50 138 -130 138zM212 610l78 130h120l-118 -130h-80
z" />
    <glyph glyph-name="afii10074.var.accented" unicode="&#x438;`" horiz-adv-x="622" 
d="M199 0h-119v510h94v-400h2l247 400h119v-510h-94v400h-2zM271 610l78 130h120l-118 -130h-80z" />
    <glyph glyph-name="afii10080.var.accented" unicode="&#x43e;`" horiz-adv-x="612" 
d="M306 -8c-153 0 -260 107 -260 263s107 263 260 263s260 -107 260 -263s-107 -263 -260 -263zM306 68c87 0 160 73 160 187s-74 187 -160 187c-87 0 -160 -73 -160 -187s73 -187 160 -187zM266 610l78 130h120l-118 -130h-80z" />
    <glyph glyph-name="afii10085.var.accented" unicode="&#x443;`" horiz-adv-x="490" 
d="M35 -219v82s25 -11 45 -11c61 0 82 36 105 98l11 30l-191 530h103l139 -410h4l139 410h95l-194 -530c-55 -150 -91 -204 -201 -204c-30 0 -55 5 -55 5zM205 610l78 130h120l-118 -130h-80z" />
    <glyph glyph-name="afii10093.var.accented" unicode="&#x44b;`" horiz-adv-x="742" 
d="M80 510h94v-180h96c145 0 210 -65 210 -165s-65 -165 -210 -165h-190v510zM174 254v-178h96c79 0 114 35 114 89s-35 89 -114 89h-96zM568 0v510h94v-510h-94zM331 610l78 130h120l-118 -130h-80z" />
    <glyph glyph-name="afii10095.var.accented" unicode="&#x44d;`" horiz-adv-x="487" 
d="M131 222v76h207c-13 94 -71 140 -167 140c-75 0 -125 -29 -125 -29v86s50 23 125 23c170 0 270 -100 270 -263s-100 -263 -270 -263c-80 0 -130 23 -130 23v88s50 -31 130 -31c99 0 158 49 168 150h-208zM151 610l78 130h120l-118 -130h-80z" />
    <glyph glyph-name="afii10096.var.accented" unicode="&#x44e;`" horiz-adv-x="822" 
d="M174 303h91c10 76 48 126 82 156c50 44 107 59 170 59c98 0 158 -41 193 -80c45 -50 66 -118 66 -183s-21 -133 -66 -183c-35 -38 -95 -80 -193 -80c-103 0 -164 46 -196 84c-33 39 -54 95 -59 151h-88v-227h-94v510h94v-207zM517 442c-50 0 -93 -26 -120 -60
c-27 -35 -39 -82 -39 -127c0 -52 15 -96 39 -127c41 -55 97 -60 120 -60s79 5 120 60c24 31 39 75 39 127s-15 96 -39 127c-31 41 -76 60 -120 60zM345 610l78 130h120l-118 -130h-80z" />
    <glyph glyph-name="afii10097.var.accented" unicode="&#x44f;`" horiz-adv-x="526" 
d="M45 0l107 197c-64 25 -96 78 -96 148c0 100 65 165 200 165h190v-510h-94v180h-106l-90 -180h-111zM352 256v178h-96c-70 0 -104 -35 -104 -89s35 -89 104 -89h96zM237 610l78 130h120l-118 -130h-80z" />
    <glyph glyph-name="afii10071.var.accented" unicode="&#x451;`" horiz-adv-x="552" 
d="M306 -8c-160 0 -260 100 -260 265c0 161 100 261 230 261c145 0 230 -85 230 -258v-26h-360c7 -97 65 -166 170 -166c60 0 117 24 155 51v-94c-32 -15 -75 -33 -165 -33zM276 442c-70 0 -130 -60 -130 -138h260c0 88 -50 138 -130 138zM104 700h109v-105h-109v105z
M342 700h108v-105h-108v105zM239 700l89 144h109l-131 -144h-67z" />
    <glyph glyph-name="fi" unicode="fi" horiz-adv-x="635" 
d="M121 0v434h-110v76h110v61c0 142 55 197 170 197c40 0 70 -8 70 -8v-76s-25 8 -60 8c-58 0 -86 -28 -86 -121v-61h141v-76h-141v-434h-94zM461 0v510h94v-510h-94zM561 720v-106h-106v106h106z" />
    <glyph glyph-name="fl" unicode="fl" horiz-adv-x="636" 
d="M121 0v434h-110v76h110v61c0 142 55 197 170 197c40 0 70 -8 70 -8v-76s-25 8 -60 8c-58 0 -86 -28 -86 -121v-61h141v-76h-141v-434h-94zM462 0v762h94v-762h-94z" />
    <glyph glyph-name=".notdef" horiz-adv-x="233" 
 />
    <glyph glyph-name="space" unicode=" " horiz-adv-x="233" 
 />
    <glyph glyph-name="exclam" unicode="!" horiz-adv-x="389" 
d="M251 700l-16 -504h-80l-16 504h112zM139 0v112h112v-112h-112z" />
    <glyph glyph-name="quotedbl" unicode="&#x22;" horiz-adv-x="556" 
d="M309 455v245h88v-245h-88zM159 455v245h88v-245h-88z" />
    <glyph glyph-name="numbersign" unicode="#" 
d="M90 0l28 197h-93v76h103l22 154h-97v76h108l28 197h76l-28 -197h119l28 197h76l-28 -197h93v-76h-104l-22 -154h98v-76h-108l-28 -197h-76l28 197h-119l-28 -197h-76zM204 273h119l22 154h-119z" />
    <glyph glyph-name="dollar" unicode="$" 
d="M247 -100v92h-9c-48 0 -102 6 -165 29v92c43 -19 111 -33 167 -33h7v239c-4 1 -8 3 -11 5c-117 54 -171 100 -171 197s61 169 182 184v95h58v-92c68 -2 117 -18 137 -25v-92c-48 21 -103 28 -137 29v-212c5 -3 10 -6 16 -8c89 -44 164 -92 164 -205
c0 -101 -62 -177 -180 -197v-98h-58zM305 90c48 18 74 57 74 102s-31 74 -74 98v-200zM171 530c0 -42 34 -70 76 -94v180c-54 -11 -76 -43 -76 -86z" />
    <glyph glyph-name="percent" unicode="%" horiz-adv-x="823" 
d="M201 0h-72l493 700h72zM233 368c-108 0 -163 63 -163 171c0 104 57 171 163 171c110 0 165 -63 165 -171c0 -103 -59 -171 -165 -171zM233 428c60 0 90 33 90 111c0 77 -28 111 -90 111c-55 0 -88 -34 -88 -111c0 -79 35 -111 88 -111zM588 -10c-108 0 -163 63 -163 171
c0 104 57 171 163 171c110 0 165 -63 165 -171c0 -103 -59 -171 -165 -171zM588 50c60 0 90 33 90 111c0 77 -28 111 -90 111c-55 0 -88 -34 -88 -111c0 -79 35 -111 88 -111z" />
    <glyph glyph-name="ampersand" unicode="&#x26;" horiz-adv-x="722" 
d="M554 377h94c-9 -113 -40 -178 -80 -239l122 -138h-125l-57 68c-50 -55 -111 -78 -200 -78c-138 0 -225 78 -225 193c0 106 62 166 156 204c-37 45 -72 92 -72 159c0 112 82 164 182 164c91 0 173 -48 173 -158c0 -89 -79 -149 -153 -182l142 -162c27 43 38 89 43 169z
M455 131l-168 197c-53 -36 -98 -69 -98 -138c0 -75 65 -124 137 -124c65 0 107 40 129 65zM323 426c42 20 105 63 105 122c0 64 -35 86 -83 86c-46 0 -84 -30 -84 -90c0 -47 32 -85 62 -118z" />
    <glyph glyph-name="quotesingle" unicode="'" horiz-adv-x="278" 
d="M95 455v245h88v-245h-88z" />
    <glyph glyph-name="parenleft" unicode="(" horiz-adv-x="333" 
d="M319 -140h-90c-153 212 -164 382 -164 448c0 72 14 232 164 448h90c-66 -108 -154 -283 -154 -448c0 -167 86 -339 154 -448z" />
    <glyph glyph-name="parenright" unicode=")" horiz-adv-x="333" 
d="M14 756h90c153 -212 164 -382 164 -448c0 -72 -14 -232 -164 -448h-90c66 108 154 283 154 448c0 167 -86 339 -154 448z" />
    <glyph glyph-name="asterisk" unicode="*" 
d="M193 312l-74 50l110 123l-159 33l28 85l150 -62l-16 159h91l-15 -159l145 62l27 -85l-156 -33l107 -123l-75 -50l-81 138z" />
    <glyph glyph-name="plus" unicode="+" 
d="M231 125v181h-181v88h181v181h88v-181h181v-88h-181v-181h-88z" />
    <glyph glyph-name="comma" unicode="," horiz-adv-x="278" 
d="M53 -133l63 245h111l-85 -245h-89z" />
    <glyph glyph-name="hyphen" unicode="-" horiz-adv-x="400" 
d="M50 256v88h300v-88h-300z" />
    <glyph glyph-name="period" unicode="." horiz-adv-x="278" 
d="M83 0v112h112v-112h-112z" />
    <glyph glyph-name="slash" unicode="/" horiz-adv-x="320" 
d="M-20 0l270 700h90l-270 -700h-90z" />
    <glyph glyph-name="zero" unicode="0" 
d="M275 -8c-146 0 -240 111 -240 358c0 249 97 358 238 358c148 0 242 -109 242 -358c0 -256 -101 -358 -240 -358zM275 76c90 0 144 73 144 274c0 207 -57 274 -146 274c-83 0 -142 -65 -142 -274c0 -206 63 -274 144 -274z" />
    <glyph glyph-name="one" unicode="1" 
d="M276 0v585l-134 -119l-53 68l198 166h89v-700h-100z" />
    <glyph glyph-name="two" unicode="2" 
d="M484 0h-442v87l131 118c131 118 205 194 205 286c0 90 -60 129 -144 129c-70 0 -122 -22 -165 -49v96c69 32 131 41 178 41c122 0 227 -62 227 -197c0 -150 -124 -262 -292 -400l-32 -26v-1h334v-84z" />
    <glyph glyph-name="three" unicode="3" 
d="M53 25v92c48 -23 103 -37 167 -37c104 0 167 45 167 119c0 82 -80 124 -189 124h-61v82h56c117 0 178 45 178 113c0 63 -52 102 -149 102c-60 0 -116 -14 -157 -34v91c49 21 101 31 171 31c144 0 231 -64 231 -184c0 -79 -59 -142 -145 -157v-2c113 -16 161 -88 161 -159
c0 -161 -133 -214 -247 -214c-63 0 -123 10 -183 33z" />
    <glyph glyph-name="four" unicode="4" 
d="M117 241h224v377h-2zM341 0v159h-325v83l282 458h143v-459h88v-82h-88v-159h-100z" />
    <glyph glyph-name="five" unicode="5" 
d="M81 18v91c59 -23 91 -29 139 -29c106 0 179 45 179 143c0 94 -59 139 -165 139c-41 0 -100 -9 -146 -26l20 364h367v-88h-288l-10 -178c35 7 53 10 85 10c142 0 233 -79 233 -216c0 -157 -104 -236 -271 -236c-44 0 -98 8 -143 26z" />
    <glyph glyph-name="six" unicode="6" 
d="M463 689v-92c-38 15 -77 23 -125 23c-135 0 -207 -112 -205 -262c33 47 73 83 170 83c122 0 207 -82 207 -218c0 -130 -78 -231 -217 -231c-186 0 -247 175 -247 334c0 219 91 382 292 382c46 0 87 -6 125 -19zM285 74c95 0 129 62 129 147c0 80 -41 138 -121 138
c-92 0 -141 -59 -141 -123c0 -88 54 -162 133 -162z" />
    <glyph glyph-name="seven" unicode="7" 
d="M120 0l266 618h-340v82h442v-82l-258 -618h-110z" />
    <glyph glyph-name="eight" unicode="8" 
d="M183 368v2c-30 11 -71 33 -96 65c-22 27 -35 67 -35 109c0 41 20 96 83 133c39 23 89 33 137 33c65 0 119 -14 163 -48c34 -27 59 -62 59 -113c0 -45 -15 -84 -41 -113c-22 -25 -60 -49 -85 -62c35 -12 74 -35 99 -61c34 -36 48 -81 48 -123c0 -67 -25 -114 -65 -146
c-31 -25 -85 -54 -172 -54c-83 0 -138 27 -174 55c-47 37 -69 84 -69 140c0 55 25 103 60 134c25 22 63 40 88 49zM266 416l30 -13c68 47 92 83 92 130c0 33 -9 55 -38 74c-22 15 -49 21 -80 21c-36 0 -65 -12 -86 -29c-27 -22 -32 -49 -32 -69c0 -28 15 -49 34 -65
c17 -15 54 -38 80 -49zM257 331l-31 -20c-38 -24 -85 -52 -85 -120c0 -41 18 -68 40 -86c27 -22 68 -33 101 -33c36 0 69 11 91 31c15 14 36 41 36 88c0 76 -54 96 -116 124z" />
    <glyph glyph-name="nine" unicode="9" 
d="M87 11v92c38 -15 77 -23 125 -23c135 0 207 112 205 262c-33 -47 -73 -83 -170 -83c-122 0 -207 82 -207 218c0 130 78 231 217 231c186 0 247 -175 247 -334c0 -217 -91 -382 -292 -382c-46 0 -87 6 -125 19zM265 626c-95 0 -129 -62 -129 -147c0 -80 41 -138 121 -138
c92 0 141 59 141 123c0 88 -54 162 -133 162z" />
    <glyph glyph-name="colon" unicode=":" horiz-adv-x="278" 
d="M195 510v-112h-112v112h112zM83 0v112h112v-112h-112z" />
    <glyph glyph-name="semicolon" unicode=";" horiz-adv-x="278" 
d="M20 -133l63 245h112l-85 -245h-90zM195 510v-112h-112v112h112z" />
    <glyph glyph-name="less" unicode="&#x3c;" 
d="M490 75l-450 225v100l450 225v-100l-355 -175l355 -175v-100z" />
    <glyph glyph-name="equal" unicode="=" 
d="M50 411v88h450v-88h-450zM50 201v88h450v-88h-450z" />
    <glyph glyph-name="greater" unicode="&#x3e;" 
d="M60 75v100l355 175l-355 175v100l450 -225v-100z" />
    <glyph glyph-name="question" unicode="?" horiz-adv-x="500" 
d="M204 195v20c0 59 14 93 62 148c69 79 84 107 84 157c0 62 -46 106 -114 106c-27 0 -94 -2 -160 -43v92c61 27 122 33 160 33c142 0 220 -76 220 -178c0 -70 -27 -107 -105 -198c-35 -40 -53 -80 -53 -122v-15h-94zM195 0v112h112v-112h-112z" />
    <glyph glyph-name="at" unicode="@" horiz-adv-x="840" 
d="M463 -135c-267 0 -413 174 -413 404c0 226 158 401 386 401c234 0 364 -160 364 -331c0 -194 -114 -273 -210 -273c-57 0 -82 25 -82 70c-33 -45 -76 -70 -137 -70c-78 0 -144 73 -144 177c0 115 80 221 206 221c52 0 90 -21 106 -59h2l13 53h71l-39 -220
c-6 -33 -11 -60 -11 -70c0 -13 4 -31 32 -31c55 0 123 59 123 202c0 135 -100 261 -295 261c-190 0 -310 -141 -310 -333c0 -191 113 -332 331 -332c65 0 133 14 165 30v-69c-28 -15 -94 -31 -158 -31zM400 139c88 0 120 81 120 167c0 52 -33 86 -90 86
c-82 0 -123 -77 -123 -149c0 -57 36 -104 93 -104z" />
    <glyph glyph-name="A" unicode="A" horiz-adv-x="684" 
d="M12 0l277 700h106l277 -700h-110l-67 180h-310l-67 -180h-106zM215 260h250l-123 335h-2z" />
    <glyph glyph-name="B" unicode="B" horiz-adv-x="600" 
d="M94 0v700h180c180 0 250 -70 250 -180c0 -76 -39 -133 -129 -157v-2c107 -23 149 -84 149 -170c0 -121 -70 -191 -250 -191h-200zM194 82h100c100 0 144 44 144 119c0 74 -44 118 -144 118h-100v-237zM194 401h80c107 0 149 42 149 109c0 66 -42 108 -149 108h-80v-217z
" />
    <glyph glyph-name="C" unicode="C" horiz-adv-x="628" 
d="M423 -8c-230 0 -370 140 -370 358c0 213 145 358 370 358c90 0 160 -28 160 -28v-96s-70 36 -160 36c-161 0 -264 -103 -264 -270s103 -270 264 -270c90 0 160 31 160 31v-96s-70 -23 -160 -23z" />
    <glyph glyph-name="D" unicode="D" horiz-adv-x="725" 
d="M94 0v700h206c75 0 183 -14 271 -98c52 -49 101 -128 101 -254c0 -77 -21 -156 -61 -213c-82 -116 -215 -135 -311 -135h-206zM194 88h105c76 0 159 12 217 86c16 20 50 72 50 166c0 100 -36 166 -73 203c-30 29 -89 69 -182 69h-117v-524z" />
    <glyph glyph-name="E" unicode="E" horiz-adv-x="554" 
d="M94 0v700h391v-88h-291v-205h265v-88h-265v-231h291v-88h-391z" />
    <glyph glyph-name="F" unicode="F" horiz-adv-x="511" 
d="M94 0v700h371v-88h-271v-205h259v-88h-259v-319h-100z" />
    <glyph glyph-name="G" unicode="G" horiz-adv-x="721" 
d="M423 -8c-230 0 -370 138 -370 358c0 218 140 358 370 358c127 0 200 -40 200 -40v-96s-73 48 -200 48c-161 0 -264 -103 -264 -270c0 -169 103 -270 264 -270c46 0 80 3 110 9v210h-146v82h246v-360c-50 -16 -110 -29 -210 -29z" />
    <glyph glyph-name="H" unicode="H" horiz-adv-x="722" 
d="M94 0v700h100v-293h334v293h100v-700h-100v319h-334v-319h-100z" />
    <glyph glyph-name="I" unicode="I" horiz-adv-x="288" 
d="M94 0v700h100v-700h-100z" />
    <glyph glyph-name="J" unicode="J" horiz-adv-x="389" 
d="M21 2v86c32 -9 53 -10 63 -10c45 0 73 14 88 32c24 27 26 69 26 105v485h100v-517c0 -36 -5 -103 -55 -148c-32 -29 -83 -45 -144 -45c-40 0 -65 7 -78 12z" />
    <glyph glyph-name="K" unicode="K" horiz-adv-x="667" 
d="M94 0v700h100v-308l298 308h133l-328 -331l354 -369h-146l-311 343v-343h-100z" />
    <glyph glyph-name="L" unicode="L" horiz-adv-x="506" 
d="M94 0v700h100v-612h292v-88h-392z" />
    <glyph glyph-name="M" unicode="M" horiz-adv-x="858" 
d="M94 0v700h159l178 -403l179 403h154v-700h-100v600h-2l-183 -400h-100l-183 400h-2v-600h-100z" />
    <glyph glyph-name="N" unicode="N" horiz-adv-x="738" 
d="M94 0v700h132l316 -570h2v570h100v-700h-132l-316 570h-2v-570h-100z" />
    <glyph glyph-name="O" unicode="O" horiz-adv-x="778" 
d="M389 710c112 0 193 -40 250 -106c52 -59 86 -147 86 -254c0 -109 -36 -198 -86 -255c-44 -51 -122 -105 -250 -105s-206 54 -250 105c-50 57 -86 146 -86 255c0 107 34 195 86 254c57 66 138 106 250 106zM389 622c-82 0 -139 -39 -171 -80c-36 -46 -59 -120 -59 -192
c0 -59 16 -137 59 -192c34 -44 87 -80 171 -80s137 36 171 80c43 55 59 133 59 192c0 72 -23 146 -59 192c-32 41 -89 80 -171 80z" />
    <glyph glyph-name="P" unicode="P" horiz-adv-x="572" 
d="M194 348h100c99 0 144 45 144 132s-45 132 -144 132h-100v-264zM94 0v700h200c170 0 250 -80 250 -220s-80 -220 -250 -220h-100v-260h-100z" />
    <glyph glyph-name="Q" unicode="Q" horiz-adv-x="778" 
d="M575 -126l-130 120c-6 -1 -13 -1 -19 -2s-11 -2 -17 -2h-20c-81 3 -175 19 -250 105c-50 57 -86 145 -86 255c0 107 34 194 86 254c57 66 138 106 250 106c111 0 193 -40 250 -106c51 -59 86 -147 86 -254c0 -29 -3 -134 -61 -222c-43 -66 -100 -96 -127 -108l162 -146
h-124zM389 622c-82 0 -139 -39 -171 -80c-36 -46 -59 -120 -59 -192c0 -59 16 -137 59 -192c34 -44 87 -80 171 -80s137 36 171 80c43 55 59 133 59 192c0 72 -23 146 -59 192c-32 41 -89 80 -171 80z" />
    <glyph glyph-name="R" unicode="R" horiz-adv-x="594" 
d="M584 0h-121l-121 268c-18 -2 -37 -3 -58 -3h-90v-265h-100v700h190c170 0 250 -80 250 -220c0 -85 -32 -148 -98 -183zM194 348h90c99 0 144 45 144 132s-45 132 -144 132h-90v-264z" />
    <glyph glyph-name="S" unicode="S" horiz-adv-x="504" 
d="M210 -8c-38 0 -92 6 -155 29v92c43 -19 111 -33 157 -33c89 0 139 50 139 112c0 69 -59 98 -133 132c-117 54 -171 100 -171 197c0 109 78 187 230 187c73 0 126 -17 147 -25v-92c-53 24 -114 29 -147 29c-89 0 -124 -35 -124 -90c0 -66 83 -97 150 -130
c89 -44 154 -92 154 -205c0 -118 -85 -203 -247 -203z" />
    <glyph glyph-name="T" unicode="T" horiz-adv-x="556" 
d="M228 0v612h-217v88h534v-88h-217v-612h-100z" />
    <glyph glyph-name="U" unicode="U" horiz-adv-x="720" 
d="M360 -8c-170 0 -270 100 -270 298v410h100v-400c0 -160 60 -220 170 -220s170 60 170 220v400h100v-410c0 -198 -100 -298 -270 -298z" />
    <glyph glyph-name="V" unicode="V" horiz-adv-x="667" 
d="M661 700l-267 -700h-125l-263 700h112l215 -612h2l221 612h105z" />
    <glyph glyph-name="W" unicode="W" horiz-adv-x="1000" 
d="M213 0l-211 700h110l167 -600h2l149 600h142l151 -600h2l167 600h106l-215 -700h-129l-152 612h-2l-153 -612h-134z" />
    <glyph glyph-name="X" unicode="X" horiz-adv-x="667" 
d="M8 0l257 364l-234 336h120l186 -269l185 269h114l-235 -334l258 -366h-126l-206 297l-199 -297h-120z" />
    <glyph glyph-name="Y" unicode="Y" horiz-adv-x="667" 
d="M284 0v293l-273 407h117l208 -314l203 314h117l-272 -407v-293h-100z" />
    <glyph glyph-name="Z" unicode="Z" horiz-adv-x="556" 
d="M32 0v90l362 522h-350v88h465v-90l-361 -522h367v-88h-483z" />
    <glyph glyph-name="bracketleft" unicode="[" horiz-adv-x="333" 
d="M95 -140v896h189v-70h-101v-756h101v-70h-189z" />
    <glyph glyph-name="backslash" unicode="\" horiz-adv-x="320" 
d="M250 0l-270 700h90l270 -700h-90z" />
    <glyph glyph-name="bracketright" unicode="]" horiz-adv-x="333" 
d="M238 756v-896h-189v70h101v756h-101v70h189z" />
    <glyph glyph-name="asciicircum" unicode="^" horiz-adv-x="600" 
d="M50 300l205 400h90l205 -400h-90l-160 320l-160 -320h-90z" />
    <glyph glyph-name="underscore" unicode="_" horiz-adv-x="500" 
d="M0 -125v50h500v-50h-500z" />
    <glyph glyph-name="grave" unicode="`" horiz-adv-x="238" 
d="M140 740l78 -130h-80l-118 130h120z" />
    <glyph glyph-name="a" unicode="a" horiz-adv-x="556" 
d="M224 -8c-115 0 -178 61 -178 153c0 100 70 170 270 170h66v25c0 67 -35 102 -106 102c-60 0 -111 -12 -171 -50v82c55 31 121 44 171 44c140 0 200 -60 200 -208v-310h-84v70h-2c-42 -58 -108 -78 -166 -78zM246 68c79 0 136 55 136 132v45h-66
c-130 0 -170 -40 -170 -100c0 -44 33 -77 100 -77z" />
    <glyph glyph-name="b" unicode="b" horiz-adv-x="611" 
d="M80 0v762h94v-322h2c14 20 32 39 59 53c31 16 67 25 105 25c89 0 141 -39 172 -79c37 -48 53 -113 53 -175c0 -58 -13 -131 -49 -184c-27 -40 -79 -88 -170 -88c-43 0 -81 11 -112 27c-25 13 -44 28 -62 53h-2v-72h-90zM174 254c0 -54 16 -97 37 -127
c35 -50 82 -59 113 -59c28 0 70 9 103 55c27 37 38 90 38 140c0 54 -14 95 -34 124c-21 30 -54 55 -106 55s-87 -26 -107 -50c-31 -37 -44 -90 -44 -138z" />
    <glyph glyph-name="c" unicode="c" horiz-adv-x="454" 
d="M426 495v-82s-40 29 -110 29c-102 0 -170 -68 -170 -187s68 -187 170 -187c70 0 110 29 110 29v-82s-40 -23 -120 -23c-154 0 -260 106 -260 263s106 263 260 263c80 0 120 -23 120 -23z" />
    <glyph glyph-name="d" unicode="d" horiz-adv-x="611" 
d="M437 762h94v-762h-90v72h-2c-17 -23 -34 -37 -59 -51c-34 -19 -67 -29 -113 -29c-80 0 -131 35 -163 75c-38 47 -58 114 -58 194c0 64 13 135 68 193c47 50 97 64 152 64c51 0 81 -9 112 -27c23 -13 41 -28 57 -51h2v322zM437 254c0 46 -12 92 -37 128
c-26 36 -62 60 -114 60c-38 0 -74 -13 -102 -49c-22 -29 -38 -73 -38 -136c0 -39 7 -85 32 -125c33 -53 78 -64 109 -64c37 0 77 14 107 51c28 35 43 88 43 135z" />
    <glyph glyph-name="e" unicode="e" horiz-adv-x="552" 
d="M306 -8c-160 0 -260 100 -260 265c0 161 100 261 230 261c145 0 230 -85 230 -258v-26h-360c7 -97 65 -166 170 -166c60 0 117 24 155 51v-94c-32 -15 -75 -33 -165 -33zM276 442c-70 0 -130 -60 -130 -138h260c0 88 -50 138 -130 138z" />
    <glyph glyph-name="f" unicode="f" horiz-adv-x="375" 
d="M125 0v434h-110v76h110v61c0 142 55 197 170 197c40 0 70 -8 70 -8v-76s-25 8 -60 8c-58 0 -86 -28 -86 -121v-61h141v-76h-141v-434h-94z" />
    <glyph glyph-name="g" unicode="g" horiz-adv-x="610" 
d="M266 0c-126 0 -220 94 -220 250c0 168 100 268 235 268c79 0 135 -38 160 -84h2v76h87v-484c0 -169 -84 -254 -270 -254c-94 0 -169 34 -169 34v90s75 -48 169 -48c119 0 176 58 176 178v53h-2c-33 -49 -98 -79 -168 -79zM286 76c87 0 150 64 150 178
c0 123 -64 188 -145 188c-80 0 -145 -65 -145 -192c0 -107 67 -174 140 -174z" />
    <glyph glyph-name="h" unicode="h" horiz-adv-x="603" 
d="M80 0v760h94v-323h2c37 54 96 81 164 81c120 0 190 -70 190 -218v-300h-94v270c0 132 -40 172 -116 172c-82 0 -146 -65 -146 -202v-240h-94z" />
    <glyph glyph-name="i" unicode="i" horiz-adv-x="254" 
d="M80 0v510h94v-510h-94zM180 720v-106h-106v106h106z" />
    <glyph glyph-name="j" unicode="j" horiz-adv-x="254" 
d="M15 -228c-16 0 -40 5 -40 5v80s15 -4 35 -4c45 0 70 25 70 103v554h94v-554c0 -144 -40 -184 -159 -184zM74 617v106h106v-106h-106z" />
    <glyph glyph-name="k" unicode="k" horiz-adv-x="546" 
d="M80 0v762h94v-459l208 207h122l-235 -221l264 -289h-127l-232 262v-262h-94z" />
    <glyph glyph-name="l" unicode="l" horiz-adv-x="254" 
d="M80 0v762h94v-762h-94z" />
    <glyph glyph-name="m" unicode="m" horiz-adv-x="885" 
d="M80 0v510h88v-74h2c13 22 34 46 68 62c27 13 63 20 90 20c33 0 63 -7 89 -24c21 -14 45 -38 60 -75c21 39 49 63 74 77c27 15 56 22 93 22c33 0 89 -7 127 -54c25 -31 41 -78 41 -137v-327h-94v304c0 36 -5 80 -25 106c-10 14 -31 32 -69 32c-25 0 -63 -7 -94 -49
c-32 -43 -37 -99 -37 -136v-257h-94v304c0 34 -3 75 -24 104c-15 20 -37 34 -70 34c-50 0 -80 -30 -94 -49c-24 -32 -37 -80 -37 -136v-257h-94z" />
    <glyph glyph-name="n" unicode="n" horiz-adv-x="603" 
d="M80 0v510h94v-73h2c37 54 96 81 164 81c120 0 190 -70 190 -218v-300h-94v270c0 132 -40 172 -116 172c-82 0 -146 -65 -146 -202v-240h-94z" />
    <glyph glyph-name="o" unicode="o" horiz-adv-x="612" 
d="M306 -8c-153 0 -260 107 -260 263s107 263 260 263s260 -107 260 -263s-107 -263 -260 -263zM306 68c87 0 160 73 160 187s-74 187 -160 187c-87 0 -160 -73 -160 -187s73 -187 160 -187z" />
    <glyph glyph-name="p" unicode="p" horiz-adv-x="610" 
d="M80 -220v730h90v-73h2c52 73 130 81 168 81c129 0 224 -95 224 -263s-95 -263 -224 -263c-62 0 -129 24 -164 75h-2v-287h-94zM325 68c74 0 139 65 139 187c0 127 -60 187 -139 187c-81 0 -151 -70 -151 -188s68 -186 151 -186z" />
    <glyph glyph-name="q" unicode="q" horiz-adv-x="611" 
d="M531 510v-734h-94v291h-2c-13 -19 -31 -36 -58 -50c-34 -18 -73 -25 -112 -25c-83 0 -133 41 -160 75c-40 50 -59 125 -59 192c0 81 25 148 62 191c42 48 97 68 162 68c38 0 117 -8 169 -81h2v73h90zM437 254c0 45 -9 89 -37 128c-18 26 -51 60 -114 60
c-42 0 -75 -17 -98 -44c-36 -41 -42 -96 -42 -136c0 -68 19 -120 47 -151c20 -22 51 -43 96 -43c49 0 87 25 109 55c27 36 39 87 39 131z" />
    <glyph glyph-name="r" unicode="r" horiz-adv-x="379" 
d="M80 510h88v-83h2c27 55 79 91 136 91c13 0 39 -3 50 -5l9 -2v-84c-19 7 -36 9 -52 9c-34 0 -63 -10 -90 -42c-45 -52 -49 -126 -49 -166v-228h-94v510z" />
    <glyph glyph-name="s" unicode="s" horiz-adv-x="405" 
d="M48 20v83c59 -31 104 -35 124 -35c63 0 93 30 93 71c0 35 -21 52 -92 86c-79 38 -128 66 -128 140c0 89 64 153 180 153c56 0 103 -15 117 -20v-80c-38 16 -71 24 -106 24c-63 0 -91 -28 -91 -60c0 -39 28 -57 92 -86c90 -40 128 -72 128 -151c0 -89 -64 -153 -180 -153
c-61 0 -104 13 -137 28z" />
    <glyph glyph-name="t" unicode="t" horiz-adv-x="375" 
d="M118 628l94 30v-148h141v-76h-141v-275c0 -19 3 -45 22 -66c11 -12 30 -25 61 -25c20 0 41 6 60 18v-80c-26 -9 -55 -14 -83 -14c-39 0 -82 10 -110 34c-38 32 -44 78 -44 114v294h-111v76h111v118z" />
    <glyph glyph-name="u" unicode="u" horiz-adv-x="603" 
d="M263 -8c-120 0 -190 70 -190 218v300h94v-270c0 -132 40 -172 116 -172c82 0 146 65 146 202v240h94v-510h-94v73h-2c-37 -54 -96 -81 -164 -81z" />
    <glyph glyph-name="v" unicode="v" horiz-adv-x="500" 
d="M489 510l-183 -510h-112l-183 510h103l138 -416h2l141 416h94z" />
    <glyph glyph-name="w" unicode="w" horiz-adv-x="833" 
d="M821 510l-164 -510h-109l-132 428h-2l-129 -428h-109l-164 510h103l117 -422h2l130 422h111l128 -422h2l124 422h92z" />
    <glyph glyph-name="x" unicode="x" horiz-adv-x="500" 
d="M10 0l184 267l-166 243h117l111 -182l113 182h105l-164 -243l180 -267h-116l-126 200l-126 -200h-112z" />
    <glyph glyph-name="y" unicode="y" horiz-adv-x="490" 
d="M35 -219v82s25 -11 45 -11c61 0 82 36 105 98l11 30l-191 530h103l139 -410h4l139 410h95l-194 -530c-55 -150 -91 -204 -201 -204c-30 0 -55 5 -55 5z" />
    <glyph glyph-name="z" unicode="z" horiz-adv-x="500" 
d="M43 0v82l294 352h-280v76h389v-82l-294 -352h305v-76h-414z" />
    <glyph glyph-name="braceleft" unicode="{" horiz-adv-x="317" 
d="M253 -140c-80 0 -130 50 -130 139v177c0 62 -29 94 -86 100v68c57 6 86 38 86 100v177c0 89 50 139 130 139h44v-70h-30c-38 0 -58 -20 -58 -76v-184c0 -32 -7 -66 -38 -94c-17 -16 -35 -23 -52 -26c17 -3 35 -10 52 -26c31 -28 38 -62 38 -94v-184c0 -56 20 -76 58 -76
h30v-70h-44z" />
    <glyph glyph-name="bar" unicode="|" horiz-adv-x="222" 
d="M67 -138v894h88v-894h-88z" />
    <glyph glyph-name="braceright" unicode="}" horiz-adv-x="317" 
d="M20 -140v70h30c38 0 58 20 58 76v184c0 32 7 66 38 94c17 16 35 23 52 26c-17 3 -35 10 -52 26c-31 28 -38 62 -38 94v184c0 56 -20 76 -58 76h-30v70h44c80 0 130 -50 130 -139v-177c0 -62 29 -94 86 -100v-68c-57 -6 -86 -38 -86 -100v-177c0 -89 -50 -139 -130 -139
h-44z" />
    <glyph glyph-name="asciitilde" unicode="~" horiz-adv-x="600" 
d="M406 275c-27 0 -53 6 -111 31l-25 11c-31 14 -54 26 -77 26c-42 0 -73 -46 -88 -73l-36 70c20 42 58 85 125 85c27 0 53 -6 111 -31l25 -11c31 -14 54 -26 77 -26c42 0 73 46 88 73l36 -70c-20 -42 -58 -85 -125 -85z" />
    <glyph glyph-name="uni00A0" unicode="&#xa0;" horiz-adv-x="233" 
 />
    <glyph glyph-name="exclamdown" unicode="&#xa1;" horiz-adv-x="389" 
d="M139 -220l16 534h80l16 -534h-112zM139 398v112h112v-112h-112z" />
    <glyph glyph-name="cent" unicode="&#xa2;" 
d="M490 495v-82s-40 29 -130 29c-112 0 -180 -68 -180 -187s68 -187 180 -187c90 0 130 29 130 29v-82s-36 -20 -121 -23v-98h-58v101c-142 15 -231 116 -231 260s89 245 231 260v103h58v-100c86 -3 121 -23 121 -23z" />
    <glyph glyph-name="sterling" unicode="&#xa3;" 
d="M56 0v88h91v260h-79v58h79v54c0 158 90 248 243 248c66 0 104 -14 116 -19v-93c-40 17 -73 24 -116 24c-92 0 -143 -50 -143 -160v-54h161v-58h-161v-260h249v-88h-440z" />
    <glyph glyph-name="currency" unicode="&#xa4;" 
d="M21 147l56 57c-21 25 -50 70 -50 146c0 81 32 127 50 148l-56 54l51 52l55 -55c55 41 114 49 148 49c65 0 115 -23 150 -49l54 55l50 -52l-54 -54c15 -19 48 -65 48 -148c0 -43 -10 -98 -48 -146l54 -57l-50 -51l-54 57c-21 -18 -66 -51 -150 -51c-82 0 -127 33 -148 51
l-55 -57zM115 350c0 -92 72 -166 160 -166c92 0 160 77 160 166c0 88 -68 166 -160 166c-89 0 -160 -76 -160 -166z" />
    <glyph glyph-name="yen" unicode="&#xa5;" 
d="M226 0v162h-141v58h141v72l-8 16h-133v58h101l-183 334h111l164 -315l158 315h111l-181 -334h101v-58h-133l-8 -16v-72h141v-58h-141v-162h-100z" />
    <glyph glyph-name="brokenbar" unicode="&#xa6;" horiz-adv-x="222" 
d="M67 -138v360h88v-360h-88zM67 396v360h88v-360h-88z" />
    <glyph glyph-name="section" unicode="&#xa7;" horiz-adv-x="556" 
d="M89 -94l9 91c69 -35 145 -35 165 -35c31 0 57 7 80 22c30 19 39 47 39 69c0 27 -18 42 -33 51c-20 12 -42 18 -85 34l-62 24c-30 12 -66 30 -90 62s-28 67 -28 83c0 29 7 57 26 84c13 18 28 30 47 39c-18 10 -33 24 -44 39c-15 20 -25 47 -25 80c0 28 10 86 73 125
c52 32 115 36 143 36c55 0 109 -11 138 -19l-9 -91c-59 25 -102 28 -122 28c-18 0 -52 -1 -83 -14c-43 -18 -46 -51 -46 -63c0 -15 7 -31 17 -42c17 -19 49 -32 110 -53l31 -11c34 -12 80 -31 109 -64c25 -28 34 -60 34 -93c0 -22 -5 -74 -71 -119c39 -26 64 -67 64 -113
c0 -45 -19 -94 -63 -127c-58 -43 -140 -48 -163 -48c-37 0 -96 2 -161 25zM314 217l45 -16c22 20 36 51 36 74c0 15 -7 35 -16 47c-13 19 -33 29 -52 36l-41 15c-47 17 -60 22 -77 31c-25 -18 -37 -45 -37 -69c0 -22 9 -45 22 -59c24 -27 67 -40 120 -59z" />
    <glyph glyph-name="dieresis" unicode="&#xa8;" horiz-adv-x="300" 
d="M20 620v100h94v-100h-94zM186 620v100h94v-100h-94z" />
    <glyph glyph-name="copyright" unicode="&#xa9;" horiz-adv-x="879" 
d="M440 -10c-199 0 -360 164 -360 360c0 199 161 360 360 360s359 -161 359 -360c0 -195 -161 -360 -359 -360zM440 56c163 0 294 131 294 294s-132 295 -294 295c-161 0 -295 -132 -295 -295s133 -294 295 -294zM447 152c-139 0 -194 106 -194 202c0 115 78 196 188 196
c40 0 74 -6 101 -15v-60c-30 13 -64 15 -91 15c-75 0 -117 -60 -117 -136c0 -92 56 -140 119 -140c26 0 65 6 92 17v-61c-30 -12 -60 -18 -98 -18z" />
    <glyph glyph-name="ordfeminine" unicode="&#xaa;" horiz-adv-x="360" 
d="M63 626v63c29 10 70 21 124 21c32 0 73 -4 104 -25c38 -26 43 -60 43 -102v-187h-81v38h-2c-20 -34 -59 -46 -98 -46c-90 0 -130 40 -130 96c0 62 40 102 177 102h52v7c0 15 -4 31 -20 44c-18 15 -37 16 -58 16c-25 0 -64 -4 -111 -27zM252 506v29h-52
c-75 0 -95 -20 -95 -54c0 -18 17 -35 59 -35c63 0 88 25 88 60z" />
    <glyph glyph-name="guillemotleft" unicode="&#xab;" horiz-adv-x="556" 
d="M194 97l-143 202l143 202h88l-130 -202l130 -202h-88zM396 97l-143 202l143 202h88l-130 -202l130 -202h-88z" />
    <glyph glyph-name="logicalnot" unicode="&#xac;" 
d="M50 411v88h450v-298h-88v210h-362z" />
    <glyph glyph-name="uni00AD" unicode="&#xad;" horiz-adv-x="420" 
d="M80 334h260v-100h-260v100z" />
    <glyph glyph-name="registered" unicode="&#xae;" horiz-adv-x="879" 
d="M440 -10c-199 0 -360 164 -360 360c0 199 161 360 360 360s359 -161 359 -360c0 -195 -161 -360 -359 -360zM440 56c163 0 294 131 294 294s-132 295 -294 295c-161 0 -295 -132 -295 -295s133 -294 295 -294zM519 151l-60 151c-9 -1 -19 -1 -29 -1h-50v-150h-73v396h123
c107 0 152 -45 152 -124c0 -49 -18 -85 -59 -105l74 -167h-78zM380 356h50c56 0 82 25 82 67c0 41 -26 66 -82 66h-50v-133z" />
    <glyph glyph-name="macron" unicode="&#xaf;" horiz-adv-x="340" 
d="M20 655v70h300v-70h-300z" />
    <glyph glyph-name="degree" unicode="&#xb0;" horiz-adv-x="400" 
d="M57 567c0 79 64 143 143 143s143 -64 143 -143s-64 -143 -143 -143s-143 64 -143 143zM121 567c0 -43 36 -79 79 -79s79 36 79 79s-36 79 -79 79s-79 -36 -79 -79z" />
    <glyph glyph-name="plusminus" unicode="&#xb1;" 
d="M50 368v88h181v147h88v-147h181v-88h-181v-147h-88v147h-181zM50 97v88h450v-88h-450z" />
    <glyph glyph-name="twosuperior" unicode="&#xb2;" horiz-adv-x="361" 
d="M31 282v76c109 82 204 152 204 222c0 35 -25 60 -74 60c-41 0 -80 -11 -110 -29v74c40 17 77 25 120 25c102 0 152 -50 152 -130s-88 -156 -192 -226v-2h199v-70h-299z" />
    <glyph glyph-name="threesuperior" unicode="&#xb3;" horiz-adv-x="361" 
d="M93 466v70h46c37 0 99 17 99 57c0 37 -55 47 -89 47c-37 0 -73 -10 -101 -22v72c30 11 76 20 123 20c79 0 155 -33 155 -113c0 -56 -51 -86 -100 -95v-2c59 -8 104 -43 104 -105c0 -101 -98 -119 -185 -119c-45 0 -84 8 -113 16v76c20 -11 65 -22 104 -22
c37 0 106 10 106 53c0 46 -57 67 -100 67h-49z" />
    <glyph glyph-name="acute" unicode="&#xb4;" horiz-adv-x="238" 
d="M20 610l78 130h120l-118 -130h-80z" />
    <glyph glyph-name="mu" unicode="&#xb5;" 
d="M50 -220v730h94v-280c2 -124 42 -162 116 -162c82 0 146 65 146 202v240h94v-510h-94v73h-2c-37 -54 -96 -81 -164 -81c-37 0 -69 7 -96 20v-232h-94z" />
    <glyph glyph-name="paragraph" unicode="&#xb6;" horiz-adv-x="603" 
d="M240 -140v490h-45c-97 0 -175 79 -175 175c0 97 78 175 175 175h335v-840h-88v768h-114v-768h-88z" />
    <glyph glyph-name="periodcentered" unicode="&#xb7;" horiz-adv-x="278" 
d="M83 244v112h112v-112h-112z" />
    <glyph glyph-name="cedilla" unicode="&#xb8;" horiz-adv-x="285" 
d="M100 9h57l-5 -40c25 -1 46 -11 59 -24c14 -14 24 -36 24 -67c0 -25 -13 -51 -31 -68c-10 -9 -35 -25 -81 -25c-30 0 -53 11 -73 25l25 46c13 -10 29 -17 45 -17c14 0 26 4 34 12c5 5 12 14 12 27s-4 25 -12 32c-10 10 -25 12 -37 12c-10 0 -19 0 -29 -2z" />
    <glyph glyph-name="onesuperior" unicode="&#xb9;" horiz-adv-x="361" 
d="M154 282v342l-80 -65l-34 46l121 95h81v-418h-88z" />
    <glyph glyph-name="ordmasculine" unicode="&#xba;" horiz-adv-x="397" 
d="M198 388c-97 0 -172 66 -172 161c0 74 50 161 172 161c104 0 172 -67 172 -161s-72 -161 -172 -161zM108 549c0 -60 27 -103 90 -103c84 0 90 73 90 103c0 76 -45 103 -90 103c-44 0 -90 -28 -90 -103z" />
    <glyph glyph-name="guillemotright" unicode="&#xbb;" horiz-adv-x="556" 
d="M72 97l130 202l-130 202h88l143 -202l-143 -202h-88zM274 97l130 202l-130 202h88l143 -202l-143 -202h-88z" />
    <glyph glyph-name="onequarter" unicode="&#xbc;" horiz-adv-x="834" 
d="M137 282v342l-80 -65l-34 46l121 95h81v-418h-88zM140 0l488 700h72l-488 -700h-72zM530 153h130v199h-2zM660 0v83h-212v61l184 278h116v-269h52v-70h-52v-83h-88z" />
    <glyph glyph-name="onehalf" unicode="&#xbd;" horiz-adv-x="834" 
d="M137 282v342l-80 -65l-34 46l121 95h81v-418h-88zM110 0l488 700h72l-488 -700h-72zM502 0v76c109 82 204 152 204 222c0 35 -25 60 -74 60c-41 0 -80 -11 -110 -29v74c40 17 77 25 120 25c102 0 152 -50 152 -130s-88 -156 -192 -226v-2h199v-70h-299z" />
    <glyph glyph-name="threequarters" unicode="&#xbe;" horiz-adv-x="834" 
d="M93 466v70h46c37 0 99 17 99 57c0 37 -55 47 -89 47c-37 0 -73 -10 -101 -22v72c30 11 76 20 123 20c79 0 155 -33 155 -113c0 -56 -51 -86 -100 -95v-2c59 -8 104 -43 104 -105c0 -101 -98 -119 -185 -119c-45 0 -84 8 -113 16v76c20 -11 65 -22 104 -22
c37 0 106 10 106 53c0 46 -57 67 -100 67h-49zM160 0l488 700h72l-488 -700h-72zM530 153h130v199h-2zM660 0v83h-212v61l184 278h116v-269h52v-70h-52v-83h-88z" />
    <glyph glyph-name="questiondown" unicode="&#xbf;" horiz-adv-x="500" 
d="M296 315v-30c0 -67 -14 -101 -62 -156c-69 -79 -84 -107 -84 -162c0 -67 46 -113 114 -113c27 0 94 7 160 48v-97c-61 -27 -122 -33 -160 -33c-142 0 -220 78 -220 185c0 75 27 112 105 203c35 40 53 80 53 130v25h94zM305 510v-112h-112v112h112z" />
    <glyph glyph-name="Agrave" unicode="&#xc0;" horiz-adv-x="684" 
d="M12 0l277 700h106l277 -700h-110l-67 180h-310l-67 -180h-106zM215 260h250l-123 335h-2zM180 870h130l80 -120h-96z" />
    <glyph glyph-name="Aacute" unicode="&#xc1;" horiz-adv-x="684" 
d="M12 0l277 700h106l277 -700h-110l-67 180h-310l-67 -180h-106zM215 260h250l-123 335h-2zM374 870h130l-114 -120h-96z" />
    <glyph glyph-name="Acircumflex" unicode="&#xc2;" horiz-adv-x="684" 
d="M12 0l277 700h106l277 -700h-110l-67 180h-310l-67 -180h-106zM215 260h250l-123 335h-2zM287 870h110l104 -120h-90l-69 70l-69 -70h-90z" />
    <glyph glyph-name="Atilde" unicode="&#xc3;" horiz-adv-x="684" 
d="M12 0l277 700h106l277 -700h-110l-67 180h-310l-67 -180h-106zM215 260h250l-123 335h-2zM210 748h-46c2 26 11 53 24 73c22 33 52 39 72 39c18 0 37 -6 53 -13l29 -12c25 -10 46 -21 70 -21c17 0 28 5 36 18c4 7 8 18 10 28h46c-3 -20 -10 -49 -19 -66
c-17 -32 -47 -46 -76 -46c-19 0 -39 7 -54 13l-29 12c-25 10 -46 21 -70 21c-15 0 -26 -5 -34 -15c-6 -8 -10 -21 -12 -31z" />
    <glyph glyph-name="Adieresis" unicode="&#xc4;" horiz-adv-x="684" 
d="M12 0l277 700h106l277 -700h-110l-67 180h-310l-67 -180h-106zM215 260h250l-123 335h-2zM182 750v100h106v-100h-106zM396 750v100h106v-100h-106z" />
    <glyph glyph-name="Aring" unicode="&#xc5;" horiz-adv-x="684" 
d="M12 0l277 700h106l277 -700h-110l-67 180h-310l-67 -180h-106zM215 260h250l-123 335h-2zM241 827c0 55 46 101 101 101s101 -46 101 -101s-46 -101 -101 -101s-101 46 -101 101zM287 827c0 -32 23 -55 55 -55s55 23 55 55s-23 55 -55 55s-55 -23 -55 -55z" />
    <glyph glyph-name="AE" unicode="&#xc6;" horiz-adv-x="944" 
d="M2 0l422 700h439v-88h-277l13 -206h246v-88h-241l14 -230h255v-88h-347l-11 176h-297l-105 -176h-111zM510 258l-22 370h-2l-220 -370h244z" />
    <glyph glyph-name="Ccedilla" unicode="&#xc7;" horiz-adv-x="628" 
d="M423 -8h-1l-3 -25c31 0 52 -15 62 -25c17 -17 26 -42 26 -70c0 -26 -14 -54 -33 -71c-22 -20 -56 -27 -85 -27c-20 0 -49 7 -77 27l27 48c16 -13 33 -18 47 -18c17 0 28 6 36 13c8 8 12 17 12 28c0 13 -4 27 -12 34c-10 10 -27 12 -39 12c-10 0 -21 0 -31 -2l11 80
c-194 22 -310 156 -310 354c0 213 145 358 370 358c90 0 160 -28 160 -28v-96s-70 36 -160 36c-161 0 -264 -103 -264 -270s103 -270 264 -270c90 0 160 31 160 31v-96s-70 -23 -160 -23z" />
    <glyph glyph-name="Egrave" unicode="&#xc8;" horiz-adv-x="554" 
d="M94 0v700h391v-88h-291v-205h265v-88h-265v-231h291v-88h-391zM170 870h130l80 -120h-96z" />
    <glyph glyph-name="Eacute" unicode="&#xc9;" horiz-adv-x="554" 
d="M94 0v700h391v-88h-291v-205h265v-88h-265v-231h291v-88h-391zM320 870h130l-114 -120h-96z" />
    <glyph glyph-name="Ecircumflex" unicode="&#xca;" horiz-adv-x="554" 
d="M94 0v700h391v-88h-291v-205h265v-88h-265v-231h291v-88h-391zM234 870h110l104 -120h-90l-69 70l-69 -70h-90z" />
    <glyph glyph-name="Edieresis" unicode="&#xcb;" horiz-adv-x="554" 
d="M94 0v700h391v-88h-291v-205h265v-88h-265v-231h291v-88h-391zM130 750v100h106v-100h-106zM344 750v100h106v-100h-106z" />
    <glyph glyph-name="Igrave" unicode="&#xcc;" horiz-adv-x="288" 
d="M94 0v700h100v-700h-100zM28 870h130l80 -120h-96z" />
    <glyph glyph-name="Iacute" unicode="&#xcd;" horiz-adv-x="288" 
d="M94 0v700h100v-700h-100zM123 870h130l-114 -120h-96z" />
    <glyph glyph-name="Icircumflex" unicode="&#xce;" horiz-adv-x="288" 
d="M94 0v700h100v-700h-100zM89 870h110l104 -120h-90l-69 70l-69 -70h-90z" />
    <glyph glyph-name="Idieresis" unicode="&#xcf;" horiz-adv-x="288" 
d="M94 0v700h100v-700h-100zM-18 750v100h106v-100h-106zM196 750v100h106v-100h-106z" />
    <glyph glyph-name="Eth" unicode="&#xd0;" horiz-adv-x="725" 
d="M193 612v-205h183v-64h-183v-255h105c172 0 268 83 268 264c0 150 -104 260 -258 260h-115zM93 0v343h-68v64h68v293h206c207 0 373 -128 373 -344c0 -235 -142 -356 -373 -356h-206z" />
    <glyph glyph-name="Ntilde" unicode="&#xd1;" horiz-adv-x="738" 
d="M94 0v700h132l316 -570h2v570h100v-700h-132l-316 570h-2v-570h-100zM245 748h-46c2 26 11 53 24 73c22 33 52 39 72 39c18 0 37 -6 53 -13l29 -12c25 -10 46 -21 70 -21c17 0 28 5 36 18c4 7 8 18 10 28h46c-3 -20 -10 -49 -19 -66c-17 -32 -47 -46 -76 -46
c-19 0 -39 7 -54 13l-29 12c-25 10 -46 21 -70 21c-15 0 -26 -5 -34 -15c-6 -8 -10 -21 -12 -31z" />
    <glyph glyph-name="Ograve" unicode="&#xd2;" horiz-adv-x="778" 
d="M389 710c112 0 193 -40 250 -106c52 -59 86 -147 86 -254c0 -109 -36 -198 -86 -255c-44 -51 -122 -105 -250 -105s-206 54 -250 105c-50 57 -86 146 -86 255c0 107 34 195 86 254c57 66 138 106 250 106zM389 622c-82 0 -139 -39 -171 -80c-36 -46 -59 -120 -59 -192
c0 -59 16 -137 59 -192c34 -44 87 -80 171 -80s137 36 171 80c43 55 59 133 59 192c0 72 -23 146 -59 192c-32 41 -89 80 -171 80zM273 870h130l80 -120h-96z" />
    <glyph glyph-name="Oacute" unicode="&#xd3;" horiz-adv-x="778" 
d="M389 710c112 0 193 -40 250 -106c52 -59 86 -147 86 -254c0 -109 -36 -198 -86 -255c-44 -51 -122 -105 -250 -105s-206 54 -250 105c-50 57 -86 146 -86 255c0 107 34 195 86 254c57 66 138 106 250 106zM389 622c-82 0 -139 -39 -171 -80c-36 -46 -59 -120 -59 -192
c0 -59 16 -137 59 -192c34 -44 87 -80 171 -80s137 36 171 80c43 55 59 133 59 192c0 72 -23 146 -59 192c-32 41 -89 80 -171 80zM368 870h130l-114 -120h-96z" />
    <glyph glyph-name="Ocircumflex" unicode="&#xd4;" horiz-adv-x="778" 
d="M389 710c112 0 193 -40 250 -106c52 -59 86 -147 86 -254c0 -109 -36 -198 -86 -255c-44 -51 -122 -105 -250 -105s-206 54 -250 105c-50 57 -86 146 -86 255c0 107 34 195 86 254c57 66 138 106 250 106zM389 622c-82 0 -139 -39 -171 -80c-36 -46 -59 -120 -59 -192
c0 -59 16 -137 59 -192c34 -44 87 -80 171 -80s137 36 171 80c43 55 59 133 59 192c0 72 -23 146 -59 192c-32 41 -89 80 -171 80zM334 870h110l104 -120h-90l-69 70l-69 -70h-90z" />
    <glyph glyph-name="Otilde" unicode="&#xd5;" horiz-adv-x="778" 
d="M389 710c112 0 193 -40 250 -106c52 -59 86 -147 86 -254c0 -109 -36 -198 -86 -255c-44 -51 -122 -105 -250 -105s-206 54 -250 105c-50 57 -86 146 -86 255c0 107 34 195 86 254c57 66 138 106 250 106zM389 622c-82 0 -139 -39 -171 -80c-36 -46 -59 -120 -59 -192
c0 -59 16 -137 59 -192c34 -44 87 -80 171 -80s137 36 171 80c43 55 59 133 59 192c0 72 -23 146 -59 192c-32 41 -89 80 -171 80zM265 748h-46c2 26 11 53 24 73c22 33 52 39 72 39c18 0 37 -6 53 -13l29 -12c25 -10 46 -21 70 -21c17 0 28 5 36 18c4 7 8 18 10 28h46
c-3 -20 -10 -49 -19 -66c-17 -32 -47 -46 -76 -46c-19 0 -39 7 -54 13l-29 12c-25 10 -46 21 -70 21c-15 0 -26 -5 -34 -15c-6 -8 -10 -21 -12 -31z" />
    <glyph glyph-name="Odieresis" unicode="&#xd6;" horiz-adv-x="778" 
d="M389 710c112 0 193 -40 250 -106c52 -59 86 -147 86 -254c0 -109 -36 -198 -86 -255c-44 -51 -122 -105 -250 -105s-206 54 -250 105c-50 57 -86 146 -86 255c0 107 34 195 86 254c57 66 138 106 250 106zM389 622c-82 0 -139 -39 -171 -80c-36 -46 -59 -120 -59 -192
c0 -59 16 -137 59 -192c34 -44 87 -80 171 -80s137 36 171 80c43 55 59 133 59 192c0 72 -23 146 -59 192c-32 41 -89 80 -171 80zM227 750v100h106v-100h-106zM441 750v100h106v-100h-106z" />
    <glyph glyph-name="multiply" unicode="&#xd7;" 
d="M213 350l-163 163l62 62l163 -164l163 164l62 -62l-164 -163l164 -163l-62 -62l-163 164l-163 -164l-62 62z" />
    <glyph glyph-name="Oslash" unicode="&#xd8;" horiz-adv-x="778" 
d="M214 162l318 412c-36 31 -83 51 -143 50c-154 1 -230 -131 -230 -273c0 -69 17 -138 55 -189zM94 7l57 74c-64 64 -98 158 -98 270c0 207 124 361 336 361c80 0 148 -23 202 -62l53 69l36 -28l-54 -71c65 -66 99 -160 99 -269c0 -212 -123 -361 -336 -361
c-81 0 -149 21 -203 61l-54 -70zM563 539l-317 -411c35 -31 83 -50 143 -50c161 0 230 134 230 273c0 70 -19 138 -56 188z" />
    <glyph glyph-name="Ugrave" unicode="&#xd9;" horiz-adv-x="720" 
d="M360 -8c-170 0 -270 100 -270 298v410h100v-400c0 -160 60 -220 170 -220s170 60 170 220v400h100v-410c0 -198 -100 -298 -270 -298zM198 870h130l80 -120h-96z" />
    <glyph glyph-name="Uacute" unicode="&#xda;" horiz-adv-x="720" 
d="M360 -8c-170 0 -270 100 -270 298v410h100v-400c0 -160 60 -220 170 -220s170 60 170 220v400h100v-410c0 -198 -100 -298 -270 -298zM392 870h130l-114 -120h-96z" />
    <glyph glyph-name="Ucircumflex" unicode="&#xdb;" horiz-adv-x="720" 
d="M360 -8c-170 0 -270 100 -270 298v410h100v-400c0 -160 60 -220 170 -220s170 60 170 220v400h100v-410c0 -198 -100 -298 -270 -298zM305 870h110l104 -120h-90l-69 70l-69 -70h-90z" />
    <glyph glyph-name="Udieresis" unicode="&#xdc;" horiz-adv-x="720" 
d="M360 -8c-170 0 -270 100 -270 298v410h100v-400c0 -160 60 -220 170 -220s170 60 170 220v400h100v-410c0 -198 -100 -298 -270 -298zM200 750v100h106v-100h-106zM414 750v100h106v-100h-106z" />
    <glyph glyph-name="Yacute" unicode="&#xdd;" horiz-adv-x="667" 
d="M284 0v293l-273 407h117l208 -314l203 314h117l-272 -407v-293h-100zM312 870h130l-114 -120h-96z" />
    <glyph glyph-name="Thorn" unicode="&#xde;" horiz-adv-x="572" 
d="M194 228h100c99 0 144 45 144 132s-45 132 -144 132h-100v-264zM94 0v700h100v-120h100c170 0 250 -80 250 -220s-80 -220 -250 -220h-100v-140h-100z" />
    <glyph glyph-name="germandbls" unicode="&#xdf;" horiz-adv-x="611" 
d="M174 0h-94v474c0 181 65 288 245 288c96 0 203 -65 203 -196c0 -83 -39 -139 -117 -163v-2c95 -11 149 -97 149 -184c0 -123 -80 -223 -221 -223c-33 0 -63 4 -97 14v79c25 -11 52 -17 79 -17c76 0 139 50 139 143c0 116 -78 144 -188 144v76c94 0 156 28 156 130
c0 64 -40 123 -112 123c-113 0 -142 -107 -142 -197v-489z" />
    <glyph glyph-name="agrave" unicode="&#xe0;" horiz-adv-x="556" 
d="M224 -8c-115 0 -178 61 -178 153c0 100 70 170 270 170h66v25c0 67 -35 102 -106 102c-60 0 -111 -12 -171 -50v82c55 31 121 44 171 44c140 0 200 -60 200 -208v-310h-84v70h-2c-42 -58 -108 -78 -166 -78zM246 68c79 0 136 55 136 132v45h-66
c-130 0 -170 -40 -170 -100c0 -44 33 -77 100 -77zM238 740l78 -130h-80l-118 130h120z" />
    <glyph glyph-name="aacute" unicode="&#xe1;" horiz-adv-x="556" 
d="M224 -8c-115 0 -178 61 -178 153c0 100 70 170 270 170h66v25c0 67 -35 102 -106 102c-60 0 -111 -12 -171 -50v82c55 31 121 44 171 44c140 0 200 -60 200 -208v-310h-84v70h-2c-42 -58 -108 -78 -166 -78zM246 68c79 0 136 55 136 132v45h-66
c-130 0 -170 -40 -170 -100c0 -44 33 -77 100 -77zM236 610l78 130h120l-118 -130h-80z" />
    <glyph glyph-name="acircumflex" unicode="&#xe2;" horiz-adv-x="556" 
d="M224 -8c-115 0 -178 61 -178 153c0 100 70 170 270 170h66v25c0 67 -35 102 -106 102c-60 0 -111 -12 -171 -50v82c55 31 121 44 171 44c140 0 200 -60 200 -208v-310h-84v70h-2c-42 -58 -108 -78 -166 -78zM246 68c79 0 136 55 136 132v45h-66
c-130 0 -170 -40 -170 -100c0 -44 33 -77 100 -77zM131 610l100 130h90l100 -130h-76l-69 84l-69 -84h-76z" />
    <glyph glyph-name="atilde" unicode="&#xe3;" horiz-adv-x="556" 
d="M224 -8c-115 0 -178 61 -178 153c0 100 70 170 270 170h66v25c0 67 -35 102 -106 102c-60 0 -111 -12 -171 -50v82c55 31 121 44 171 44c140 0 200 -60 200 -208v-310h-84v70h-2c-42 -58 -108 -78 -166 -78zM246 68c79 0 136 55 136 132v45h-66
c-130 0 -170 -40 -170 -100c0 -44 33 -77 100 -77zM158 586h-43c2 26 10 53 22 73c20 33 49 39 69 39c18 0 35 -7 50 -13l28 -12c17 -7 40 -21 66 -21c20 0 28 7 34 18c4 7 8 17 10 28h44c-3 -21 -10 -48 -19 -66c-19 -37 -49 -46 -72 -46c-19 0 -37 7 -51 13l-28 12
c-17 7 -40 21 -66 21c-18 0 -26 -6 -32 -15s-10 -20 -12 -31z" />
    <glyph glyph-name="adieresis" unicode="&#xe4;" horiz-adv-x="556" 
d="M224 -8c-115 0 -178 61 -178 153c0 100 70 170 270 170h66v25c0 67 -35 102 -106 102c-60 0 -111 -12 -171 -50v82c55 31 121 44 171 44c140 0 200 -60 200 -208v-310h-84v70h-2c-42 -58 -108 -78 -166 -78zM246 68c79 0 136 55 136 132v45h-66
c-130 0 -170 -40 -170 -100c0 -44 33 -77 100 -77zM146 620v100h94v-100h-94zM312 620v100h94v-100h-94z" />
    <glyph glyph-name="aring" unicode="&#xe5;" horiz-adv-x="556" 
d="M224 -8c-115 0 -178 61 -178 153c0 100 70 170 270 170h66v25c0 67 -35 102 -106 102c-60 0 -111 -12 -171 -50v82c55 31 121 44 171 44c140 0 200 -60 200 -208v-310h-84v70h-2c-42 -58 -108 -78 -166 -78zM246 68c79 0 136 55 136 132v45h-66
c-130 0 -170 -40 -170 -100c0 -44 33 -77 100 -77zM174 678c0 56 46 102 102 102s102 -46 102 -102s-46 -102 -102 -102s-102 46 -102 102zM214 678c0 -35 27 -62 62 -62s62 27 62 62s-27 62 -62 62s-62 -27 -62 -62z" />
    <glyph glyph-name="ae" unicode="&#xe6;" horiz-adv-x="889" 
d="M103 392l-1 78c44 27 103 48 169 48c68 0 141 -25 176 -88c41 61 104 88 176 88c173 0 225 -137 225 -279h-361c0 -102 70 -172 167 -172c50 0 105 24 141 52v-93c-44 -20 -96 -34 -146 -34c-96 0 -179 31 -220 122h-2c-37 -84 -117 -122 -196 -122
c-122 0 -190 68 -190 153c0 94 70 162 260 164l92 1c0 98 -64 133 -144 133c-49 0 -107 -23 -146 -51zM141 145c0 -53 48 -78 90 -78c104 0 162 58 162 173h-92c-120 0 -160 -40 -160 -95zM487 308h261c-2 86 -54 134 -125 134c-82 0 -133 -61 -136 -134z" />
    <glyph glyph-name="ccedilla" unicode="&#xe7;" horiz-adv-x="454" 
d="M426 495v-82s-40 29 -110 29c-102 0 -170 -68 -170 -187s68 -187 170 -187c70 0 110 29 110 29v-82s-38 -21 -111 -23l-3 -23c25 -1 46 -11 59 -24c14 -14 24 -36 24 -67c0 -25 -13 -51 -31 -68c-10 -9 -35 -25 -81 -25c-30 0 -53 11 -73 25l25 46c13 -10 29 -17 45 -17
c14 0 26 4 34 12c5 5 12 14 12 27s-4 25 -12 32c-10 10 -25 12 -37 12c-10 0 -19 0 -29 -2l10 76c-128 19 -212 119 -212 259c0 157 106 263 260 263c80 0 120 -23 120 -23z" />
    <glyph glyph-name="egrave" unicode="&#xe8;" horiz-adv-x="552" 
d="M306 -8c-160 0 -260 100 -260 265c0 161 100 261 230 261c145 0 230 -85 230 -258v-26h-360c7 -97 65 -166 170 -166c60 0 117 24 155 51v-94c-32 -15 -75 -33 -165 -33zM276 442c-70 0 -130 -60 -130 -138h260c0 88 -50 138 -130 138zM287 740l78 -130h-80l-118 130h120
z" />
    <glyph glyph-name="eacute" unicode="&#xe9;" horiz-adv-x="552" 
d="M306 -8c-160 0 -260 100 -260 265c0 161 100 261 230 261c145 0 230 -85 230 -258v-26h-360c7 -97 65 -166 170 -166c60 0 117 24 155 51v-94c-32 -15 -75 -33 -165 -33zM276 442c-70 0 -130 -60 -130 -138h260c0 88 -50 138 -130 138zM212 610l78 130h120l-118 -130h-80
z" />
    <glyph glyph-name="ecircumflex" unicode="&#xea;" horiz-adv-x="552" 
d="M306 -8c-160 0 -260 100 -260 265c0 161 100 261 230 261c145 0 230 -85 230 -258v-26h-360c7 -97 65 -166 170 -166c60 0 117 24 155 51v-94c-32 -15 -75 -33 -165 -33zM276 442c-70 0 -130 -60 -130 -138h260c0 88 -50 138 -130 138zM133 610l100 130h90l100 -130h-76
l-69 84l-69 -84h-76z" />
    <glyph glyph-name="edieresis" unicode="&#xeb;" horiz-adv-x="552" 
d="M306 -8c-160 0 -260 100 -260 265c0 161 100 261 230 261c145 0 230 -85 230 -258v-26h-360c7 -97 65 -166 170 -166c60 0 117 24 155 51v-94c-32 -15 -75 -33 -165 -33zM276 442c-70 0 -130 -60 -130 -138h260c0 88 -50 138 -130 138zM149 620v100h94v-100h-94zM315 620
v100h94v-100h-94z" />
    <glyph glyph-name="igrave" unicode="&#xec;" horiz-adv-x="254" 
d="M109 740l78 -130h-80l-118 130h120zM80 0v510h94v-510h-94z" />
    <glyph glyph-name="iacute" unicode="&#xed;" horiz-adv-x="254" 
d="M55 610l78 130h120l-118 -130h-80zM80 0v510h94v-510h-94z" />
    <glyph glyph-name="icircumflex" unicode="&#xee;" horiz-adv-x="254" 
d="M-18 610l100 130h90l100 -130h-76l-69 84l-69 -84h-76zM80 0v510h94v-510h-94z" />
    <glyph glyph-name="idieresis" unicode="&#xef;" horiz-adv-x="254" 
d="M-3 620v100h94v-100h-94zM163 620v100h94v-100h-94zM80 0v510h94v-510h-94z" />
    <glyph glyph-name="eth" unicode="&#xf0;" horiz-adv-x="611" 
d="M146 255c0 -43 12 -90 35 -123c30 -43 80 -65 127 -65c46 0 91 21 119 60c24 33 38 85 38 128c0 45 -13 95 -45 134c-38 46 -85 54 -114 54c-57 0 -91 -28 -109 -48c-30 -33 -51 -78 -51 -140zM108 587l110 58c-59 35 -104 50 -125 57l72 53c71 -27 104 -44 137 -65
l122 65l46 -53l-104 -55c37 -27 90 -74 132 -146c41 -70 67 -156 67 -238c0 -87 -31 -148 -66 -188c-33 -37 -93 -83 -193 -83c-59 0 -138 18 -199 91c-28 34 -61 88 -61 172c0 96 39 156 78 194c28 27 82 69 182 69c27 0 52 -4 84 -21h2c-20 28 -51 63 -109 106l-129 -68z
" />
    <glyph glyph-name="ntilde" unicode="&#xf1;" horiz-adv-x="603" 
d="M80 0v510h94v-73h2c37 54 96 81 164 81c120 0 190 -70 190 -218v-300h-94v270c0 132 -40 172 -116 172c-82 0 -146 -65 -146 -202v-240h-94zM203 586h-43c2 26 10 53 22 73c20 33 49 39 69 39c18 0 35 -7 50 -13l28 -12c17 -7 40 -21 66 -21c20 0 28 7 34 18
c4 7 8 17 10 28h44c-3 -21 -10 -48 -19 -66c-19 -37 -49 -46 -72 -46c-19 0 -37 7 -51 13l-28 12c-17 7 -40 21 -66 21c-18 0 -26 -6 -32 -15s-10 -20 -12 -31z" />
    <glyph glyph-name="ograve" unicode="&#xf2;" horiz-adv-x="612" 
d="M306 -8c-153 0 -260 107 -260 263s107 263 260 263s260 -107 260 -263s-107 -263 -260 -263zM306 68c87 0 160 73 160 187s-74 187 -160 187c-87 0 -160 -73 -160 -187s73 -187 160 -187zM268 740l78 -130h-80l-118 130h120z" />
    <glyph glyph-name="oacute" unicode="&#xf3;" horiz-adv-x="612" 
d="M306 -8c-153 0 -260 107 -260 263s107 263 260 263s260 -107 260 -263s-107 -263 -260 -263zM306 68c87 0 160 73 160 187s-74 187 -160 187c-87 0 -160 -73 -160 -187s73 -187 160 -187zM266 610l78 130h120l-118 -130h-80z" />
    <glyph glyph-name="ocircumflex" unicode="&#xf4;" horiz-adv-x="612" 
d="M306 -8c-153 0 -260 107 -260 263s107 263 260 263s260 -107 260 -263s-107 -263 -260 -263zM306 68c87 0 160 73 160 187s-74 187 -160 187c-87 0 -160 -73 -160 -187s73 -187 160 -187zM161 610l100 130h90l100 -130h-76l-69 84l-69 -84h-76z" />
    <glyph glyph-name="otilde" unicode="&#xf5;" horiz-adv-x="612" 
d="M306 -8c-153 0 -260 107 -260 263s107 263 260 263s260 -107 260 -263s-107 -263 -260 -263zM306 68c87 0 160 73 160 187s-74 187 -160 187c-87 0 -160 -73 -160 -187s73 -187 160 -187zM188 586h-43c2 26 10 53 22 73c20 33 49 39 69 39c18 0 35 -7 50 -13l28 -12
c17 -7 40 -21 66 -21c20 0 28 7 34 18c4 7 8 17 10 28h44c-3 -21 -10 -48 -19 -66c-19 -37 -49 -46 -72 -46c-19 0 -37 7 -51 13l-28 12c-17 7 -40 21 -66 21c-18 0 -26 -6 -32 -15s-10 -20 -12 -31z" />
    <glyph glyph-name="odieresis" unicode="&#xf6;" horiz-adv-x="612" 
d="M306 -8c-153 0 -260 107 -260 263s107 263 260 263s260 -107 260 -263s-107 -263 -260 -263zM306 68c87 0 160 73 160 187s-74 187 -160 187c-87 0 -160 -73 -160 -187s73 -187 160 -187zM176 620v100h94v-100h-94zM342 620v100h94v-100h-94z" />
    <glyph glyph-name="divide" unicode="&#xf7;" 
d="M50 306v88h450v-88h-450zM199 538c0 41 36 77 77 77c39 0 76 -36 76 -77c0 -39 -36 -76 -75 -76c-43 0 -78 37 -78 76zM199 162c0 42 36 76 77 76c39 0 76 -35 76 -76c0 -39 -36 -77 -75 -77c-42 0 -78 37 -78 77z" />
    <glyph glyph-name="oslash" unicode="&#xf8;" horiz-adv-x="611" 
d="M179 137l224 269c-25 24 -57 37 -97 37c-101 0 -160 -92 -160 -188c0 -40 10 -84 33 -118zM429 376l-225 -271c25 -23 59 -38 102 -38c110 0 159 99 159 188c0 45 -13 88 -36 121zM64 -2l57 70c-48 48 -75 114 -75 187c0 153 104 263 260 263c59 0 112 -16 153 -45l53 64
l30 -25l-53 -64c49 -47 76 -114 76 -193c0 -144 -106 -263 -259 -263c-61 0 -114 19 -155 49l-57 -68z" />
    <glyph glyph-name="ugrave" unicode="&#xf9;" horiz-adv-x="603" 
d="M263 -8c-120 0 -190 70 -190 218v300h94v-270c0 -132 40 -172 116 -172c82 0 146 65 146 202v240h94v-510h-94v73h-2c-37 -54 -96 -81 -164 -81zM260 740l78 -130h-80l-118 130h120z" />
    <glyph glyph-name="uacute" unicode="&#xfa;" horiz-adv-x="603" 
d="M263 -8c-120 0 -190 70 -190 218v300h94v-270c0 -132 40 -172 116 -172c82 0 146 65 146 202v240h94v-510h-94v73h-2c-37 -54 -96 -81 -164 -81zM258 610l78 130h120l-118 -130h-80z" />
    <glyph glyph-name="ucircumflex" unicode="&#xfb;" horiz-adv-x="603" 
d="M263 -8c-120 0 -190 70 -190 218v300h94v-270c0 -132 40 -172 116 -172c82 0 146 65 146 202v240h94v-510h-94v73h-2c-37 -54 -96 -81 -164 -81zM153 610l100 130h90l100 -130h-76l-69 84l-69 -84h-76z" />
    <glyph glyph-name="udieresis" unicode="&#xfc;" horiz-adv-x="603" 
d="M263 -8c-120 0 -190 70 -190 218v300h94v-270c0 -132 40 -172 116 -172c82 0 146 65 146 202v240h94v-510h-94v73h-2c-37 -54 -96 -81 -164 -81zM168 620v100h94v-100h-94zM334 620v100h94v-100h-94z" />
    <glyph glyph-name="yacute" unicode="&#xfd;" horiz-adv-x="490" 
d="M35 -219v82s25 -11 45 -11c61 0 82 36 105 98l11 30l-191 530h103l139 -410h4l139 410h95l-194 -530c-55 -150 -91 -204 -201 -204c-30 0 -55 5 -55 5zM193 610l78 130h120l-118 -130h-80z" />
    <glyph glyph-name="thorn" unicode="&#xfe;" horiz-adv-x="610" 
d="M80 -220v980h94v-323h2c48 73 126 81 164 81c129 0 224 -95 224 -263s-95 -263 -224 -263c-62 0 -129 24 -164 75h-2v-287h-94zM325 68c74 0 139 65 139 187c0 127 -60 187 -139 187c-81 0 -151 -70 -151 -188s68 -186 151 -186z" />
    <glyph glyph-name="ydieresis" unicode="&#xff;" horiz-adv-x="490" 
d="M35 -219v82s25 -11 45 -11c61 0 82 36 105 98l11 30l-191 530h103l139 -410h4l139 410h95l-194 -530c-55 -150 -91 -204 -201 -204c-30 0 -55 5 -55 5zM115 620v100h94v-100h-94zM281 620v100h94v-100h-94z" />
    <glyph glyph-name="Amacron" unicode="&#x100;" horiz-adv-x="684" 
d="M12 0l277 700h106l277 -700h-110l-67 180h-310l-67 -180h-106zM215 260h250l-123 335h-2zM182 840h320v-70h-320v70z" />
    <glyph glyph-name="amacron" unicode="&#x101;" horiz-adv-x="556" 
d="M224 -8c-115 0 -178 61 -178 153c0 100 70 170 270 170h66v25c0 67 -35 102 -106 102c-60 0 -111 -12 -171 -50v82c55 31 121 44 171 44c140 0 200 -60 200 -208v-310h-84v70h-2c-42 -58 -108 -78 -166 -78zM246 68c79 0 136 55 136 132v45h-66
c-130 0 -170 -40 -170 -100c0 -44 33 -77 100 -77zM126 655v70h300v-70h-300z" />
    <glyph glyph-name="Abreve" unicode="&#x102;" horiz-adv-x="684" 
d="M12 0l277 700h106l277 -700h-110l-67 180h-310l-67 -180h-106zM215 260h250l-123 335h-2zM174 870h70c8 -23 29 -56 98 -56s90 33 98 56h70c-23 -87 -93 -126 -168 -126s-145 39 -168 126z" />
    <glyph glyph-name="abreve" unicode="&#x103;" horiz-adv-x="556" 
d="M224 -8c-115 0 -178 61 -178 153c0 100 70 170 270 170h66v25c0 67 -35 102 -106 102c-60 0 -111 -12 -171 -50v82c55 31 121 44 171 44c140 0 200 -60 200 -208v-310h-84v70h-2c-42 -58 -108 -78 -166 -78zM246 68c79 0 136 55 136 132v45h-66
c-130 0 -170 -40 -170 -100c0 -44 33 -77 100 -77zM122 740h60c7 -33 30 -72 94 -72s87 39 94 72h60c-7 -87 -69 -142 -154 -142s-147 55 -154 142z" />
    <glyph glyph-name="Aogonek" unicode="&#x104;" horiz-adv-x="684" 
d="M592 -228c-75 0 -110 35 -110 88c0 54 37 101 97 140h-17l-67 180h-310l-67 -180h-106l277 700h106l277 -700c-85 -55 -109 -100 -109 -135c0 -25 15 -40 49 -40c15 0 32 2 50 10v-50c-19 -8 -40 -13 -70 -13zM215 260h250l-123 335h-2z" />
    <glyph glyph-name="aogonek" unicode="&#x105;" horiz-adv-x="556" 
d="M397 -228c-75 0 -110 35 -110 88c0 57 40 104 105 144v66h-2c-42 -58 -108 -78 -166 -78c-115 0 -178 61 -178 153c0 100 70 170 270 170h66v25c0 67 -35 102 -106 102c-60 0 -111 -12 -171 -50v82c55 31 121 44 171 44c140 0 200 -60 200 -208v-310h1
c-85 -55 -109 -100 -109 -135c0 -25 15 -40 49 -40c15 0 32 2 50 10v-50c-19 -8 -40 -13 -70 -13zM246 68c79 0 136 55 136 132v45h-66c-130 0 -170 -40 -170 -100c0 -44 33 -77 100 -77z" />
    <glyph glyph-name="Cacute" unicode="&#x106;" horiz-adv-x="628" 
d="M423 -8c-230 0 -370 140 -370 358c0 213 145 358 370 358c90 0 160 -28 160 -28v-96s-70 36 -160 36c-161 0 -264 -103 -264 -270s103 -270 264 -270c90 0 160 31 160 31v-96s-70 -23 -160 -23zM425 870h130l-114 -120h-96z" />
    <glyph glyph-name="cacute" unicode="&#x107;" horiz-adv-x="454" 
d="M426 495v-82s-40 29 -110 29c-102 0 -170 -68 -170 -187s68 -187 170 -187c70 0 110 29 110 29v-82s-40 -23 -120 -23c-154 0 -260 106 -260 263s106 263 260 263c80 0 120 -23 120 -23zM246 610l78 130h120l-118 -130h-80z" />
    <glyph glyph-name="Ccircumflex" unicode="&#x108;" horiz-adv-x="628" 
d="M423 -8c-230 0 -370 140 -370 358c0 213 145 358 370 358c90 0 160 -28 160 -28v-96s-70 36 -160 36c-161 0 -264 -103 -264 -270s103 -270 264 -270c90 0 160 31 160 31v-96s-70 -23 -160 -23zM338 870h110l104 -120h-90l-69 70l-69 -70h-90z" />
    <glyph glyph-name="ccircumflex" unicode="&#x109;" horiz-adv-x="454" 
d="M426 495v-82s-40 29 -110 29c-102 0 -170 -68 -170 -187s68 -187 170 -187c70 0 110 29 110 29v-82s-40 -23 -120 -23c-154 0 -260 106 -260 263s106 263 260 263c80 0 120 -23 120 -23zM141 610l100 130h90l100 -130h-76l-69 84l-69 -84h-76z" />
    <glyph glyph-name="Cdotaccent" unicode="&#x10a;" horiz-adv-x="628" 
d="M423 -8c-230 0 -370 140 -370 358c0 213 145 358 370 358c90 0 160 -28 160 -28v-96s-70 36 -160 36c-161 0 -264 -103 -264 -270s103 -270 264 -270c90 0 160 31 160 31v-96s-70 -23 -160 -23zM449 854v-102h-112v102h112z" />
    <glyph glyph-name="cdotaccent" unicode="&#x10b;" horiz-adv-x="454" 
d="M426 495v-82s-40 29 -110 29c-102 0 -170 -68 -170 -187s68 -187 170 -187c70 0 110 29 110 29v-82s-40 -23 -120 -23c-154 0 -260 106 -260 263s106 263 260 263c80 0 120 -23 120 -23zM339 720v-106h-106v106h106z" />
    <glyph glyph-name="Ccaron" unicode="&#x10c;" horiz-adv-x="628" 
d="M423 -8c-230 0 -370 140 -370 358c0 213 145 358 370 358c90 0 160 -28 160 -28v-96s-70 36 -160 36c-161 0 -264 -103 -264 -270s103 -270 264 -270c90 0 160 31 160 31v-96s-70 -23 -160 -23zM448 750h-110l-104 120h90l69 -70l69 70h90z" />
    <glyph glyph-name="ccaron" unicode="&#x10d;" horiz-adv-x="454" 
d="M426 495v-82s-40 29 -110 29c-102 0 -170 -68 -170 -187s68 -187 170 -187c70 0 110 29 110 29v-82s-40 -23 -120 -23c-154 0 -260 106 -260 263s106 263 260 263c80 0 120 -23 120 -23zM431 740l-100 -130h-90l-100 130h76l69 -84l69 84h76z" />
    <glyph glyph-name="Dcaron" unicode="&#x10e;" horiz-adv-x="725" 
d="M94 0v700h206c75 0 183 -14 271 -98c52 -49 101 -128 101 -254c0 -77 -21 -156 -61 -213c-82 -116 -215 -135 -311 -135h-206zM194 88h105c76 0 159 12 217 86c16 20 50 72 50 166c0 100 -36 166 -73 203c-30 29 -89 69 -182 69h-117v-524zM374 750h-110l-104 120h90
l69 -70l69 70h90z" />
    <glyph glyph-name="dcaron" unicode="&#x10f;" horiz-adv-x="674" 
d="M437 762h94v-762h-90v72h-2c-17 -23 -34 -37 -59 -51c-34 -19 -67 -29 -113 -29c-80 0 -131 35 -163 75c-38 47 -58 114 -58 194c0 64 13 135 68 193c47 50 97 64 152 64c51 0 81 -9 112 -27c23 -13 41 -28 57 -51h2v322zM437 254c0 46 -12 92 -37 128
c-26 36 -62 60 -114 60c-38 0 -74 -13 -102 -49c-22 -29 -38 -73 -38 -136c0 -39 7 -85 32 -125c33 -53 78 -64 109 -64c37 0 77 14 107 51c28 35 43 88 43 135zM574 594l40 168h100l-70 -168h-70z" />
    <glyph glyph-name="Dcroat" unicode="&#x110;" horiz-adv-x="725" 
d="M193 612v-205h183v-64h-183v-255h105c172 0 268 83 268 264c0 150 -104 260 -258 260h-115zM93 0v343h-68v64h68v293h206c207 0 373 -128 373 -344c0 -235 -142 -356 -373 -356h-206z" />
    <glyph glyph-name="dcroat" unicode="&#x111;" horiz-adv-x="611" 
d="M437 762h94v-107h75v-54h-75v-601h-90v72h-2c-17 -23 -34 -37 -59 -51c-34 -19 -67 -29 -113 -29c-80 0 -131 35 -163 75c-38 47 -58 114 -58 194c0 64 13 135 68 193c47 50 97 64 152 64c51 0 81 -9 112 -27c23 -13 41 -28 57 -51h2v161h-203v54h203v107zM437 254
c0 46 -12 92 -37 128c-26 36 -62 60 -114 60c-38 0 -74 -13 -102 -49c-22 -29 -38 -73 -38 -136c0 -39 7 -85 32 -125c33 -53 78 -64 109 -64c37 0 77 14 107 51c28 35 43 88 43 135z" />
    <glyph glyph-name="Emacron" unicode="&#x112;" horiz-adv-x="554" 
d="M94 0v700h391v-88h-291v-205h265v-88h-265v-231h291v-88h-391zM130 840h320v-70h-320v70z" />
    <glyph glyph-name="emacron" unicode="&#x113;" horiz-adv-x="552" 
d="M306 -8c-160 0 -260 100 -260 265c0 161 100 261 230 261c145 0 230 -85 230 -258v-26h-360c7 -97 65 -166 170 -166c60 0 117 24 155 51v-94c-32 -15 -75 -33 -165 -33zM276 442c-70 0 -130 -60 -130 -138h260c0 88 -50 138 -130 138zM130 655v70h300v-70h-300z" />
    <glyph glyph-name="Edotaccent" unicode="&#x116;" horiz-adv-x="554" 
d="M94 0v700h391v-88h-291v-205h265v-88h-265v-231h291v-88h-391zM348 854v-102h-112v102h112z" />
    <glyph glyph-name="edotaccent" unicode="&#x117;" horiz-adv-x="552" 
d="M306 -8c-160 0 -260 100 -260 265c0 161 100 261 230 261c145 0 230 -85 230 -258v-26h-360c7 -97 65 -166 170 -166c60 0 117 24 155 51v-94c-32 -15 -75 -33 -165 -33zM276 442c-70 0 -130 -60 -130 -138h260c0 88 -50 138 -130 138zM331 720v-106h-106v106h106z" />
    <glyph glyph-name="Eogonek" unicode="&#x118;" horiz-adv-x="554" 
d="M94 0v700h391v-88h-291v-205h265v-88h-265v-231h291v-88c-85 -55 -109 -100 -109 -135c0 -25 15 -40 49 -40c15 0 32 2 50 10v-50c-19 -8 -40 -13 -70 -13c-75 0 -110 35 -110 88c0 54 37 101 97 140h-298z" />
    <glyph glyph-name="eogonek" unicode="&#x119;" horiz-adv-x="552" 
d="M306 -8c-160 0 -260 100 -260 265c0 161 100 261 230 261c145 0 230 -85 230 -258v-26h-360c7 -97 65 -166 170 -166c60 0 117 24 155 51v-94c-109 -65 -133 -110 -133 -160c0 -25 15 -40 49 -40c15 0 32 2 50 10v-50c-19 -8 -40 -13 -70 -13c-75 0 -110 35 -110 88
s33 96 86 133c-11 0 -24 -1 -37 -1zM276 442c-70 0 -130 -60 -130 -138h260c0 88 -50 138 -130 138z" />
    <glyph glyph-name="Ecaron" unicode="&#x11a;" horiz-adv-x="554" 
d="M94 0v700h391v-88h-291v-205h265v-88h-265v-231h291v-88h-391zM344 750h-110l-104 120h90l69 -70l69 70h90z" />
    <glyph glyph-name="ecaron" unicode="&#x11b;" horiz-adv-x="552" 
d="M306 -8c-160 0 -260 100 -260 265c0 161 100 261 230 261c145 0 230 -85 230 -258v-26h-360c7 -97 65 -166 170 -166c60 0 117 24 155 51v-94c-32 -15 -75 -33 -165 -33zM276 442c-70 0 -130 -60 -130 -138h260c0 88 -50 138 -130 138zM423 740l-100 -130h-90l-100 130
h76l69 -84l69 84h76z" />
    <glyph glyph-name="Gcircumflex" unicode="&#x11c;" horiz-adv-x="721" 
d="M423 -8c-230 0 -370 138 -370 358c0 218 140 358 370 358c127 0 200 -40 200 -40v-96s-73 48 -200 48c-161 0 -264 -103 -264 -270c0 -169 103 -270 264 -270c46 0 80 3 110 9v210h-146v82h246v-360c-50 -16 -110 -29 -210 -29zM348 870h110l104 -120h-90l-69 70l-69 -70
h-90z" />
    <glyph glyph-name="gcircumflex" unicode="&#x11d;" horiz-adv-x="610" 
d="M266 0c-126 0 -220 94 -220 250c0 168 100 268 235 268c79 0 135 -38 160 -84h2v76h87v-484c0 -169 -84 -254 -270 -254c-94 0 -169 34 -169 34v90s75 -48 169 -48c119 0 176 58 176 178v53h-2c-33 -49 -98 -79 -168 -79zM286 76c87 0 150 64 150 178
c0 123 -64 188 -145 188c-80 0 -145 -65 -145 -192c0 -107 67 -174 140 -174zM143 610l100 130h90l100 -130h-76l-69 84l-69 -84h-76z" />
    <glyph glyph-name="Gbreve" unicode="&#x11e;" horiz-adv-x="721" 
d="M423 -8c-230 0 -370 138 -370 358c0 218 140 358 370 358c127 0 200 -40 200 -40v-96s-73 48 -200 48c-161 0 -264 -103 -264 -270c0 -169 103 -270 264 -270c46 0 80 3 110 9v210h-146v82h246v-360c-50 -16 -110 -29 -210 -29zM235 870h70c8 -23 29 -56 98 -56
s90 33 98 56h70c-23 -87 -93 -126 -168 -126s-145 39 -168 126z" />
    <glyph glyph-name="gbreve" unicode="&#x11f;" horiz-adv-x="610" 
d="M266 0c-126 0 -220 94 -220 250c0 168 100 268 235 268c79 0 135 -38 160 -84h2v76h87v-484c0 -169 -84 -254 -270 -254c-94 0 -169 34 -169 34v90s75 -48 169 -48c119 0 176 58 176 178v53h-2c-33 -49 -98 -79 -168 -79zM286 76c87 0 150 64 150 178
c0 123 -64 188 -145 188c-80 0 -145 -65 -145 -192c0 -107 67 -174 140 -174zM134 740h60c7 -33 30 -72 94 -72s87 39 94 72h60c-7 -87 -69 -142 -154 -142s-147 55 -154 142z" />
    <glyph glyph-name="Gdotaccent" unicode="&#x120;" horiz-adv-x="721" 
d="M423 -8c-230 0 -370 138 -370 358c0 218 140 358 370 358c127 0 200 -40 200 -40v-96s-73 48 -200 48c-161 0 -264 -103 -264 -270c0 -169 103 -270 264 -270c46 0 80 3 110 9v210h-146v82h246v-360c-50 -16 -110 -29 -210 -29zM459 854v-102h-112v102h112z" />
    <glyph glyph-name="gdotaccent" unicode="&#x121;" horiz-adv-x="610" 
d="M266 0c-126 0 -220 94 -220 250c0 168 100 268 235 268c79 0 135 -38 160 -84h2v76h87v-484c0 -169 -84 -254 -270 -254c-94 0 -169 34 -169 34v90s75 -48 169 -48c119 0 176 58 176 178v53h-2c-33 -49 -98 -79 -168 -79zM286 76c87 0 150 64 150 178
c0 123 -64 188 -145 188c-80 0 -145 -65 -145 -192c0 -107 67 -174 140 -174zM341 720v-106h-106v106h106z" />
    <glyph glyph-name="Gcommaaccent" unicode="&#x122;" horiz-adv-x="721" 
d="M423 -8c-230 0 -370 138 -370 358c0 218 140 358 370 358c127 0 200 -40 200 -40v-96s-73 48 -200 48c-161 0 -264 -103 -264 -270c0 -169 103 -270 264 -270c46 0 80 3 110 9v210h-146v82h246v-360c-50 -16 -110 -29 -210 -29zM308 -248l40 198h110l-70 -198h-80z" />
    <glyph glyph-name="gcommaaccent" unicode="&#x123;" horiz-adv-x="610" 
d="M266 0c-126 0 -220 94 -220 250c0 168 100 268 235 268c79 0 135 -38 160 -84h2v76h87v-484c0 -169 -84 -254 -270 -254c-94 0 -169 34 -169 34v90s75 -48 169 -48c119 0 176 58 176 178v53h-2c-33 -49 -98 -79 -168 -79zM286 76c87 0 150 64 150 178
c0 123 -64 188 -145 188c-80 0 -145 -65 -145 -192c0 -107 67 -174 140 -174zM378 760l-40 -170h-100l70 170h70z" />
    <glyph glyph-name="Hcircumflex" unicode="&#x124;" horiz-adv-x="722" 
d="M94 0v700h100v-293h334v293h100v-700h-100v319h-334v-319h-100zM306 870h110l104 -120h-90l-69 70l-69 -70h-90z" />
    <glyph glyph-name="hcircumflex" unicode="&#x125;" horiz-adv-x="603" 
d="M80 0v760h94v-323h2c37 54 96 81 164 81c120 0 190 -70 190 -218v-300h-94v270c0 132 -40 172 -116 172c-82 0 -146 -65 -146 -202v-240h-94zM-18 800l100 130h90l100 -130h-76l-69 84l-69 -84h-76z" />
    <glyph glyph-name="Hbar" unicode="&#x126;" horiz-adv-x="722" 
d="M94 0v514h-70v64h70v122h100v-122h334v122h100v-122h70v-64h-70v-514h-100v319h-334v-319h-100zM528 514h-334v-107h334v107z" />
    <glyph glyph-name="hbar" unicode="&#x127;" horiz-adv-x="603" 
d="M5 602v56h75v102h94v-102h206v-56h-206v-165h2c37 54 96 81 164 81c120 0 190 -70 190 -218v-300h-94v270c0 132 -40 172 -116 172c-82 0 -146 -65 -146 -202v-240h-94v602h-75z" />
    <glyph glyph-name="Imacron" unicode="&#x12a;" horiz-adv-x="288" 
d="M94 0v700h100v-700h-100zM-16 840h320v-70h-320v70z" />
    <glyph glyph-name="imacron" unicode="&#x12b;" horiz-adv-x="254" 
d="M-23 655v70h300v-70h-300zM80 0v510h94v-510h-94z" />
    <glyph glyph-name="Iogonek" unicode="&#x12e;" horiz-adv-x="288" 
d="M94 0v700h100v-700c-85 -55 -109 -100 -109 -135c0 -25 15 -40 49 -40c15 0 32 2 50 10v-50c-19 -8 -40 -13 -70 -13c-75 0 -110 35 -110 88c0 54 37 101 97 140h-7z" />
    <glyph glyph-name="iogonek" unicode="&#x12f;" horiz-adv-x="254" 
d="M80 0v510h94v-510h-1c-85 -55 -109 -100 -109 -135c0 -25 15 -40 49 -40c15 0 32 2 50 10v-50c-19 -8 -40 -13 -70 -13c-75 0 -110 35 -110 88c0 54 37 101 97 140zM180 720v-106h-106v106h106z" />
    <glyph glyph-name="Idotaccent" unicode="&#x130;" horiz-adv-x="288" 
d="M94 0v700h100v-700h-100zM200 854v-102h-112v102h112z" />
    <glyph glyph-name="dotlessi" unicode="&#x131;" horiz-adv-x="254" 
d="M80 0v510h94v-510h-94z" />
    <glyph glyph-name="Jcircumflex" unicode="&#x134;" horiz-adv-x="389" 
d="M21 2v86c32 -9 53 -10 63 -10c45 0 73 14 88 32c24 27 26 69 26 105v485h100v-517c0 -36 -5 -103 -55 -148c-32 -29 -83 -45 -144 -45c-40 0 -65 7 -78 12zM193 870h110l104 -120h-90l-69 70l-69 -70h-90z" />
    <glyph glyph-name="jcircumflex" unicode="&#x135;" horiz-adv-x="254" 
d="M-25 -219v80s15 -7 35 -7c45 0 70 29 70 96v560h94v-560c0 -130 -44 -174 -159 -174c-16 0 -40 5 -40 5zM-44 610l100 130h90l100 -130h-76l-69 84l-69 -84h-76z" />
    <glyph glyph-name="Kcommaaccent" unicode="&#x136;" horiz-adv-x="667" 
d="M94 0v700h100v-308l298 308h133l-328 -331l354 -369h-146l-311 343v-343h-100zM252 -248l40 198h110l-70 -198h-80z" />
    <glyph glyph-name="kcommaaccent" unicode="&#x137;" horiz-adv-x="546" 
d="M80 0v762h94v-459l208 207h122l-235 -221l264 -289h-127l-232 262v-262h-94zM202 -220l40 170h100l-70 -170h-70z" />
    <glyph glyph-name="Lacute" unicode="&#x139;" horiz-adv-x="506" 
d="M94 0v700h100v-612h292v-88h-392zM195 870h130l-114 -120h-96z" />
    <glyph glyph-name="lacute" unicode="&#x13a;" horiz-adv-x="254" 
d="M80 0v762h94v-762h-94zM73 800l78 130h120l-118 -130h-80z" />
    <glyph glyph-name="Lcommaaccent" unicode="&#x13b;" horiz-adv-x="506" 
d="M94 0v700h100v-612h292v-88h-392zM212 -248l40 198h110l-70 -198h-80z" />
    <glyph glyph-name="lcommaaccent" unicode="&#x13c;" horiz-adv-x="254" 
d="M80 0v762h94v-762h-94zM57 -220l40 170h100l-70 -170h-70z" />
    <glyph glyph-name="Lcaron" unicode="&#x13d;" horiz-adv-x="506" 
d="M94 0v700h100v-612h292v-88h-392zM332 500l40 200h110l-74 -200h-76z" />
    <glyph glyph-name="lcaron" unicode="&#x13e;" horiz-adv-x="310" 
d="M80 0v762h94v-762h-94zM210 594l40 168h100l-70 -168h-70z" />
    <glyph glyph-name="Ldot" unicode="&#x13f;" horiz-adv-x="506" 
d="M94 0v700h100v-612h292v-88h-392zM339 320v112h112v-112h-112z" />
    <glyph glyph-name="ldot" unicode="&#x140;" horiz-adv-x="366" 
d="M80 0v762h94v-762h-94zM254 333v112h112v-112h-112z" />
    <glyph glyph-name="Lslash" unicode="&#x141;" horiz-adv-x="522" 
d="M0 225v78l110 60v337h100v-283l170 93v-78l-170 -93v-251h292v-88h-392v285z" />
    <glyph glyph-name="lslash" unicode="&#x142;" horiz-adv-x="276" 
d="M28 294v71l63 34v363h94v-311l63 35v-71l-63 -35v-380h-94v328z" />
    <glyph glyph-name="Nacute" unicode="&#x143;" horiz-adv-x="738" 
d="M94 0v700h132l316 -570h2v570h100v-700h-132l-316 570h-2v-570h-100zM401 870h130l-114 -120h-96z" />
    <glyph glyph-name="nacute" unicode="&#x144;" horiz-adv-x="603" 
d="M80 0v510h94v-73h2c37 54 96 81 164 81c120 0 190 -70 190 -218v-300h-94v270c0 132 -40 172 -116 172c-82 0 -146 -65 -146 -202v-240h-94zM273 610l78 130h120l-118 -130h-80z" />
    <glyph glyph-name="Ncommaaccent" unicode="&#x145;" horiz-adv-x="738" 
d="M94 0v700h132l316 -570h2v570h100v-700h-132l-316 570h-2v-570h-100zM258 -248l40 198h110l-70 -198h-80z" />
    <glyph glyph-name="ncommaaccent" unicode="&#x146;" horiz-adv-x="603" 
d="M80 0v510h94v-73h2c37 54 96 81 164 81c120 0 190 -70 190 -218v-300h-94v270c0 132 -40 172 -116 172c-82 0 -146 -65 -146 -202v-240h-94zM222 -220l40 170h100l-70 -170h-70z" />
    <glyph glyph-name="Ncaron" unicode="&#x147;" horiz-adv-x="738" 
d="M94 0v700h132l316 -570h2v570h100v-700h-132l-316 570h-2v-570h-100zM424 750h-110l-104 120h90l69 -70l69 70h90z" />
    <glyph glyph-name="ncaron" unicode="&#x148;" horiz-adv-x="603" 
d="M80 0v510h94v-73h2c37 54 96 81 164 81c120 0 190 -70 190 -218v-300h-94v270c0 132 -40 172 -116 172c-82 0 -146 -65 -146 -202v-240h-94zM464 740l-100 -130h-90l-100 130h76l69 -84l69 84h76z" />
    <glyph glyph-name="Omacron" unicode="&#x14c;" horiz-adv-x="778" 
d="M389 710c112 0 193 -40 250 -106c52 -59 86 -147 86 -254c0 -109 -36 -198 -86 -255c-44 -51 -122 -105 -250 -105s-206 54 -250 105c-50 57 -86 146 -86 255c0 107 34 195 86 254c57 66 138 106 250 106zM389 622c-82 0 -139 -39 -171 -80c-36 -46 -59 -120 -59 -192
c0 -59 16 -137 59 -192c34 -44 87 -80 171 -80s137 36 171 80c43 55 59 133 59 192c0 72 -23 146 -59 192c-32 41 -89 80 -171 80zM230 840h320v-70h-320v70z" />
    <glyph glyph-name="omacron" unicode="&#x14d;" horiz-adv-x="612" 
d="M306 -8c-153 0 -260 107 -260 263s107 263 260 263s260 -107 260 -263s-107 -263 -260 -263zM306 68c87 0 160 73 160 187s-74 187 -160 187c-87 0 -160 -73 -160 -187s73 -187 160 -187zM156 655v70h300v-70h-300z" />
    <glyph glyph-name="Obreve" unicode="&#x14e;" horiz-adv-x="778" 
d="M389 710c112 0 193 -40 250 -106c52 -59 86 -147 86 -254c0 -109 -36 -198 -86 -255c-44 -51 -122 -105 -250 -105s-206 54 -250 105c-50 57 -86 146 -86 255c0 107 34 195 86 254c57 66 138 106 250 106zM389 622c-82 0 -139 -39 -171 -80c-36 -46 -59 -120 -59 -192
c0 -59 16 -137 59 -192c34 -44 87 -80 171 -80s137 36 171 80c43 55 59 133 59 192c0 72 -23 146 -59 192c-32 41 -89 80 -171 80zM221 870h70c8 -23 29 -56 98 -56s90 33 98 56h70c-23 -87 -93 -126 -168 -126s-145 39 -168 126z" />
    <glyph glyph-name="obreve" unicode="&#x14f;" horiz-adv-x="612" 
d="M306 -8c-153 0 -260 107 -260 263s107 263 260 263s260 -107 260 -263s-107 -263 -260 -263zM306 68c87 0 160 73 160 187s-74 187 -160 187c-87 0 -160 -73 -160 -187s73 -187 160 -187zM152 740h60c7 -33 30 -72 94 -72s87 39 94 72h60c-7 -87 -69 -142 -154 -142
s-147 55 -154 142z" />
    <glyph glyph-name="Ohungarumlaut" unicode="&#x150;" horiz-adv-x="778" 
d="M389 710c112 0 193 -40 250 -106c52 -59 86 -147 86 -254c0 -109 -36 -198 -86 -255c-44 -51 -122 -105 -250 -105s-206 54 -250 105c-50 57 -86 146 -86 255c0 107 34 195 86 254c57 66 138 106 250 106zM389 622c-82 0 -139 -39 -171 -80c-36 -46 -59 -120 -59 -192
c0 -59 16 -137 59 -192c34 -44 87 -80 171 -80s137 36 171 80c43 55 59 133 59 192c0 72 -23 146 -59 192c-32 41 -89 80 -171 80zM356 870h120l-130 -120h-76zM514 870h120l-130 -120h-76z" />
    <glyph glyph-name="ohungarumlaut" unicode="&#x151;" horiz-adv-x="612" 
d="M306 -8c-153 0 -260 107 -260 263s107 263 260 263s260 -107 260 -263s-107 -263 -260 -263zM306 68c87 0 160 73 160 187s-74 187 -160 187c-87 0 -160 -73 -160 -187s73 -187 160 -187zM181 610l88 130h110l-128 -130h-70zM362 610l88 130h110l-128 -130h-70z" />
    <glyph glyph-name="OE" unicode="&#x152;" horiz-adv-x="944" 
d="M389 -8c-201 0 -336 135 -336 358s135 358 336 358c44 0 84 -2 124 -8h371v-88h-291v-205h265v-88h-265v-231h291v-88h-371c-40 -6 -80 -8 -124 -8zM389 80c44 0 74 2 104 8v524c-30 7 -60 8 -104 8c-130 0 -230 -100 -230 -270s100 -270 230 -270z" />
    <glyph glyph-name="oe" unicode="&#x153;" horiz-adv-x="954" 
d="M299 -8c-157 0 -253 112 -253 263c0 135 96 263 253 263c93 0 167 -33 203 -98c32 66 100 98 182 98c173 0 224 -137 224 -284h-361c0 -92 70 -167 167 -167c50 0 105 24 141 52v-93c-44 -20 -96 -34 -146 -34c-97 0 -175 34 -210 109c-37 -79 -126 -109 -200 -109z
M300 67c99 0 153 99 153 188c0 83 -47 188 -153 188c-107 0 -154 -105 -154 -188c0 -97 43 -188 154 -188zM547 303h261c0 66 -48 140 -125 140c-82 0 -136 -62 -136 -140z" />
    <glyph glyph-name="Racute" unicode="&#x154;" horiz-adv-x="594" 
d="M584 0h-121l-121 268c-18 -2 -37 -3 -58 -3h-90v-265h-100v700h190c170 0 250 -80 250 -220c0 -85 -32 -148 -98 -183zM194 348h90c99 0 144 45 144 132s-45 132 -144 132h-90v-264zM312 870h130l-114 -120h-96z" />
    <glyph glyph-name="racute" unicode="&#x155;" horiz-adv-x="379" 
d="M80 510h88v-83h2c27 55 79 91 136 91c13 0 39 -3 50 -5l9 -2v-84c-19 7 -36 9 -52 9c-34 0 -63 -10 -90 -42c-45 -52 -49 -126 -49 -166v-228h-94v510zM173 610l78 130h120l-118 -130h-80z" />
    <glyph glyph-name="Rcommaaccent" unicode="&#x156;" horiz-adv-x="594" 
d="M584 0h-121l-121 268c-18 -2 -37 -3 -58 -3h-90v-265h-100v700h190c170 0 250 -80 250 -220c0 -85 -32 -148 -98 -183zM194 348h90c99 0 144 45 144 132s-45 132 -144 132h-90v-264zM244 -248l40 198h110l-70 -198h-80z" />
    <glyph glyph-name="rcommaaccent" unicode="&#x157;" horiz-adv-x="379" 
d="M80 510h88v-83h2c27 55 79 91 136 91c13 0 39 -3 50 -5l9 -2v-84c-19 7 -36 9 -52 9c-34 0 -63 -10 -90 -42c-45 -52 -49 -126 -49 -166v-228h-94v510zM82 -220l40 170h100l-70 -170h-70z" />
    <glyph glyph-name="Rcaron" unicode="&#x158;" horiz-adv-x="594" 
d="M584 0h-121l-121 268c-18 -2 -37 -3 -58 -3h-90v-265h-100v700h190c170 0 250 -80 250 -220c0 -85 -32 -148 -98 -183zM194 348h90c99 0 144 45 144 132s-45 132 -144 132h-90v-264zM335 750h-110l-104 120h90l69 -70l69 70h90z" />
    <glyph glyph-name="rcaron" unicode="&#x159;" horiz-adv-x="379" 
d="M80 510h88v-83h2c27 55 79 91 136 91c13 0 39 -3 50 -5l9 -2v-84c-19 7 -36 9 -52 9c-34 0 -63 -10 -90 -42c-45 -52 -49 -126 -49 -166v-228h-94v510zM364 740l-100 -130h-90l-100 130h76l69 -84l69 84h76z" />
    <glyph glyph-name="Sacute" unicode="&#x15a;" horiz-adv-x="504" 
d="M210 -8c-38 0 -92 6 -155 29v92c43 -19 111 -33 157 -33c89 0 139 50 139 112c0 69 -59 98 -133 132c-117 54 -171 100 -171 197c0 109 78 187 230 187c73 0 126 -17 147 -25v-92c-53 24 -114 29 -147 29c-89 0 -124 -35 -124 -90c0 -66 83 -97 150 -130
c89 -44 154 -92 154 -205c0 -118 -85 -203 -247 -203zM299 870h130l-114 -120h-96z" />
    <glyph glyph-name="sacute" unicode="&#x15b;" horiz-adv-x="405" 
d="M48 20v83c59 -31 104 -35 124 -35c63 0 93 30 93 71c0 35 -21 52 -92 86c-79 38 -128 66 -128 140c0 89 64 153 180 153c56 0 103 -15 117 -20v-80c-38 16 -71 24 -106 24c-63 0 -91 -28 -91 -60c0 -39 28 -57 92 -86c90 -40 128 -72 128 -151c0 -89 -64 -153 -180 -153
c-61 0 -104 13 -137 28zM175 610l78 130h120l-118 -130h-80z" />
    <glyph glyph-name="Scircumflex" unicode="&#x15c;" horiz-adv-x="504" 
d="M210 -8c-38 0 -92 6 -155 29v92c43 -19 111 -33 157 -33c89 0 139 50 139 112c0 69 -59 98 -133 132c-117 54 -171 100 -171 197c0 109 78 187 230 187c73 0 126 -17 147 -25v-92c-53 24 -114 29 -147 29c-89 0 -124 -35 -124 -90c0 -66 83 -97 150 -130
c89 -44 154 -92 154 -205c0 -118 -85 -203 -247 -203zM212 870h110l104 -120h-90l-69 70l-69 -70h-90z" />
    <glyph glyph-name="scircumflex" unicode="&#x15d;" horiz-adv-x="405" 
d="M48 20v83c59 -31 104 -35 124 -35c63 0 93 30 93 71c0 35 -21 52 -92 86c-79 38 -128 66 -128 140c0 89 64 153 180 153c56 0 103 -15 117 -20v-80c-38 16 -71 24 -106 24c-63 0 -91 -28 -91 -60c0 -39 28 -57 92 -86c90 -40 128 -72 128 -151c0 -89 -64 -153 -180 -153
c-61 0 -104 13 -137 28zM70 610l100 130h90l100 -130h-76l-69 84l-69 -84h-76z" />
    <glyph glyph-name="Scedilla" unicode="&#x15e;" horiz-adv-x="504" 
d="M457 195c0 -105 -67 -184 -196 -200l-4 -28c31 0 52 -15 62 -25c17 -17 26 -42 26 -70c0 -26 -14 -54 -33 -71c-22 -20 -56 -27 -85 -27c-20 0 -49 7 -77 27l27 48c16 -13 33 -18 47 -18c17 0 28 6 36 13c8 8 12 17 12 28c0 13 -4 27 -12 34c-10 10 -27 12 -39 12
c-10 0 -21 0 -31 -2l10 76c-37 1 -87 8 -145 29v92c43 -19 111 -33 157 -33c89 0 139 50 139 112c0 69 -59 98 -133 132c-117 54 -171 100 -171 197c0 109 78 187 230 187c73 0 126 -17 147 -25v-92c-53 24 -114 29 -147 29c-89 0 -124 -35 -124 -90c0 -66 83 -97 150 -130
c89 -44 154 -92 154 -205z" />
    <glyph glyph-name="scedilla" unicode="&#x15f;" horiz-adv-x="405" 
d="M48 20v83c59 -31 104 -35 124 -35c63 0 93 30 93 71c0 35 -21 52 -92 86c-79 38 -128 66 -128 140c0 89 64 153 180 153c56 0 103 -15 117 -20v-80c-38 16 -71 24 -106 24c-63 0 -91 -28 -91 -60c0 -39 28 -57 92 -86c90 -40 128 -72 128 -151c0 -83 -56 -144 -157 -152
l-3 -24c25 -1 46 -11 59 -24c14 -14 24 -36 24 -67c0 -25 -13 -51 -31 -68c-10 -9 -35 -25 -81 -25c-30 0 -53 11 -73 25l25 46c13 -10 29 -17 45 -17c14 0 26 4 34 12c5 5 12 14 12 27s-4 25 -12 32c-10 10 -25 12 -37 12c-10 0 -19 0 -29 -2l10 74c-44 4 -77 14 -103 26z
" />
    <glyph glyph-name="Scaron" unicode="&#x160;" horiz-adv-x="504" 
d="M210 -8c-38 0 -92 6 -155 29v92c43 -19 111 -33 157 -33c89 0 139 50 139 112c0 69 -59 98 -133 132c-117 54 -171 100 -171 197c0 109 78 187 230 187c73 0 126 -17 147 -25v-92c-53 24 -114 29 -147 29c-89 0 -124 -35 -124 -90c0 -66 83 -97 150 -130
c89 -44 154 -92 154 -205c0 -118 -85 -203 -247 -203zM322 750h-110l-104 120h90l69 -70l69 70h90z" />
    <glyph glyph-name="scaron" unicode="&#x161;" horiz-adv-x="405" 
d="M48 20v83c59 -31 104 -35 124 -35c63 0 93 30 93 71c0 35 -21 52 -92 86c-79 38 -128 66 -128 140c0 89 64 153 180 153c56 0 103 -15 117 -20v-80c-38 16 -71 24 -106 24c-63 0 -91 -28 -91 -60c0 -39 28 -57 92 -86c90 -40 128 -72 128 -151c0 -89 -64 -153 -180 -153
c-61 0 -104 13 -137 28zM360 740l-100 -130h-90l-100 130h76l69 -84l69 84h76z" />
    <glyph glyph-name="Tcedilla" unicode="&#x162;" horiz-adv-x="556" 
d="M228 0v612h-217v88h534v-88h-217v-612h-23l-5 -33c31 0 52 -15 62 -25c17 -17 26 -42 26 -70c0 -26 -14 -54 -33 -71c-22 -20 -56 -27 -85 -27c-20 0 -49 7 -77 27l27 48c16 -13 33 -18 47 -18c17 0 28 6 36 13c8 8 12 17 12 28c0 13 -4 27 -12 34c-10 10 -27 12 -39 12
c-10 0 -21 0 -31 -2l12 84h-17z" />
    <glyph glyph-name="tcedilla" unicode="&#x163;" horiz-adv-x="375" 
d="M118 628l94 30v-148h141v-76h-141v-275c0 -19 3 -45 22 -66c11 -12 30 -25 61 -25c20 0 41 6 60 18v-80c-27 -9 -55 -14 -88 -14h-9l-3 -23c25 -1 46 -11 59 -24c14 -14 24 -36 24 -67c0 -25 -13 -51 -31 -68c-10 -9 -35 -25 -81 -25c-30 0 -53 11 -73 25l25 46
c13 -10 29 -17 45 -17c14 0 26 4 34 12c5 5 12 14 12 27s-4 25 -12 32c-10 10 -25 12 -37 12c-10 0 -19 0 -29 -2l11 84c-56 18 -84 67 -84 136v294h-111v76h111v118z" />
    <glyph glyph-name="Tcaron" unicode="&#x164;" horiz-adv-x="556" 
d="M228 0v612h-217v88h534v-88h-217v-612h-100zM333 750h-110l-104 120h90l69 -70l69 70h90z" />
    <glyph glyph-name="tcaron" unicode="&#x165;" horiz-adv-x="375" 
d="M118 628l94 30v-148h141v-76h-141v-275c0 -19 3 -45 22 -66c11 -12 30 -25 61 -25c20 0 41 6 60 18v-80c-26 -9 -55 -14 -83 -14c-39 0 -82 10 -110 34c-38 32 -44 78 -44 114v294h-111v76h111v118zM260 594l40 168h100l-70 -168h-70z" />
    <glyph glyph-name="Umacron" unicode="&#x16a;" horiz-adv-x="720" 
d="M360 -8c-170 0 -270 100 -270 298v410h100v-400c0 -160 60 -220 170 -220s170 60 170 220v400h100v-410c0 -198 -100 -298 -270 -298zM200 840h320v-70h-320v70z" />
    <glyph glyph-name="umacron" unicode="&#x16b;" horiz-adv-x="603" 
d="M263 -8c-120 0 -190 70 -190 218v300h94v-270c0 -132 40 -172 116 -172c82 0 146 65 146 202v240h94v-510h-94v73h-2c-37 -54 -96 -81 -164 -81zM148 655v70h300v-70h-300z" />
    <glyph glyph-name="Ubreve" unicode="&#x16c;" horiz-adv-x="720" 
d="M360 -8c-170 0 -270 100 -270 298v410h100v-400c0 -160 60 -220 170 -220s170 60 170 220v400h100v-410c0 -198 -100 -298 -270 -298zM192 870h70c8 -23 29 -56 98 -56s90 33 98 56h70c-23 -87 -93 -126 -168 -126s-145 39 -168 126z" />
    <glyph glyph-name="ubreve" unicode="&#x16d;" horiz-adv-x="603" 
d="M263 -8c-120 0 -190 70 -190 218v300h94v-270c0 -132 40 -172 116 -172c82 0 146 65 146 202v240h94v-510h-94v73h-2c-37 -54 -96 -81 -164 -81zM144 740h60c7 -33 30 -72 94 -72s87 39 94 72h60c-7 -87 -69 -142 -154 -142s-147 55 -154 142z" />
    <glyph glyph-name="Uring" unicode="&#x16e;" horiz-adv-x="720" 
d="M360 -8c-170 0 -270 100 -270 298v410h100v-400c0 -160 60 -220 170 -220s170 60 170 220v400h100v-410c0 -198 -100 -298 -270 -298zM259 827c0 55 46 101 101 101s101 -46 101 -101s-46 -101 -101 -101s-101 46 -101 101zM305 827c0 -32 23 -55 55 -55s55 23 55 55
s-23 55 -55 55s-55 -23 -55 -55z" />
    <glyph glyph-name="uring" unicode="&#x16f;" horiz-adv-x="603" 
d="M263 -8c-120 0 -190 70 -190 218v300h94v-270c0 -132 40 -172 116 -172c82 0 146 65 146 202v240h94v-510h-94v73h-2c-37 -54 -96 -81 -164 -81zM196 678c0 56 46 102 102 102s102 -46 102 -102s-46 -102 -102 -102s-102 46 -102 102zM236 678c0 -35 27 -62 62 -62
s62 27 62 62s-27 62 -62 62s-62 -27 -62 -62z" />
    <glyph glyph-name="Uhungarumlaut" unicode="&#x170;" horiz-adv-x="720" 
d="M360 -8c-170 0 -270 100 -270 298v410h100v-400c0 -160 60 -220 170 -220s170 60 170 220v400h100v-410c0 -198 -100 -298 -270 -298zM329 870h120l-130 -120h-76zM487 870h120l-130 -120h-76z" />
    <glyph glyph-name="uhungarumlaut" unicode="&#x171;" horiz-adv-x="603" 
d="M263 -8c-120 0 -190 70 -190 218v300h94v-270c0 -132 40 -172 116 -172c82 0 146 65 146 202v240h94v-510h-94v73h-2c-37 -54 -96 -81 -164 -81zM163 610l88 130h110l-128 -130h-70zM344 610l88 130h110l-128 -130h-70z" />
    <glyph glyph-name="Uogonek" unicode="&#x172;" horiz-adv-x="720" 
d="M360 -8c-170 0 -270 100 -270 298v410h100v-400c0 -160 60 -220 170 -220s170 60 170 220v400h100v-410c0 -141 -51 -233 -142 -274c-93 -73 -117 -116 -117 -151c0 -25 15 -40 49 -40c15 0 32 2 50 10v-50c-19 -8 -40 -13 -70 -13c-75 0 -110 35 -110 88
c0 47 33 90 87 132h-17z" />
    <glyph glyph-name="uogonek" unicode="&#x173;" horiz-adv-x="603" 
d="M443 -228c-75 0 -110 35 -110 88c0 54 37 101 97 140h-1v73h-2c-37 -54 -96 -81 -164 -81c-120 0 -190 70 -190 218v300h94v-270c0 -132 40 -172 116 -172c82 0 146 65 146 202v240h94v-510c-85 -55 -109 -100 -109 -135c0 -25 15 -40 49 -40c15 0 32 2 50 10v-50
c-19 -8 -40 -13 -70 -13z" />
    <glyph glyph-name="Ydieresis" unicode="&#x178;" horiz-adv-x="667" 
d="M284 0v293l-273 407h117l208 -314l203 314h117l-272 -407v-293h-100zM171 750v100h106v-100h-106zM385 750v100h106v-100h-106z" />
    <glyph glyph-name="Zacute" unicode="&#x179;" horiz-adv-x="556" 
d="M32 0v90l362 522h-350v88h465v-90l-361 -522h367v-88h-483zM280 870h130l-114 -120h-96z" />
    <glyph glyph-name="zacute" unicode="&#x17a;" horiz-adv-x="500" 
d="M43 0v82l294 352h-280v76h389v-82l-294 -352h305v-76h-414zM184 610l78 130h120l-118 -130h-80z" />
    <glyph glyph-name="Zdotaccent" unicode="&#x17b;" horiz-adv-x="556" 
d="M32 0v90l362 522h-350v88h465v-90l-361 -522h367v-88h-483zM332 854v-102h-112v102h112z" />
    <glyph glyph-name="zdotaccent" unicode="&#x17c;" horiz-adv-x="500" 
d="M43 0v82l294 352h-280v76h389v-82l-294 -352h305v-76h-414zM303 720v-106h-106v106h106z" />
    <glyph glyph-name="Zcaron" unicode="&#x17d;" horiz-adv-x="556" 
d="M32 0v90l362 522h-350v88h465v-90l-361 -522h367v-88h-483zM333 750h-110l-104 120h90l69 -70l69 70h90z" />
    <glyph glyph-name="zcaron" unicode="&#x17e;" horiz-adv-x="500" 
d="M43 0v82l294 352h-280v76h389v-82l-294 -352h305v-76h-414zM395 740l-100 -130h-90l-100 130h76l69 -84l69 84h76z" />
    <glyph glyph-name="uni018F" unicode="&#x18f;" horiz-adv-x="666" 
d="M53 375h454c0 11 0 103 -54 170c-35 43 -92 77 -164 77c-70 0 -138 -32 -188 -70v113l17 7c41 17 85 38 179 38c77 0 167 -15 237 -100c66 -80 79 -185 79 -263c0 -86 -15 -197 -94 -278c-47 -48 -110 -79 -191 -79s-153 26 -206 99c-44 60 -69 149 -69 253v33zM507 287
h-344c0 -48 14 -103 40 -141c21 -31 62 -68 131 -68c44 0 94 17 132 76c24 37 38 88 41 133z" />
    <glyph glyph-name="florin" unicode="&#x192;" 
d="M122 344l13 70h113l20 106c23 119 64 188 179 188c30 0 53 -3 77 -8l-14 -80c-14 3 -33 6 -49 6c-64 0 -78 -28 -93 -106l-20 -106h124l-13 -70h-125l-72 -384c-25 -132 -72 -188 -179 -188c-29 0 -50 3 -59 5l16 81c12 -3 29 -4 35 -4c47 0 75 42 87 106l72 384h-112z
" />
    <glyph glyph-name="uni01CF" unicode="&#x1cf;" horiz-adv-x="288" 
d="M94 0v700h100v-700h-100zM199 750h-110l-104 120h90l69 -70l69 70h90z" />
    <glyph glyph-name="uni01D0" unicode="&#x1d0;" horiz-adv-x="254" 
d="M80 0v510h94v-510h-94zM272 740l-100 -130h-90l-100 130h76l69 -84l69 84h76z" />
    <glyph glyph-name="uni01DD" unicode="&#x1dd;" horiz-adv-x="556" 
d="M46 276h364c-1 45 -18 86 -43 113c-27 30 -71 53 -128 53c-54 0 -116 -24 -154 -51v94l14 5c28 10 63 28 147 28c62 0 140 -11 198 -73c31 -33 66 -94 66 -192c0 -108 -42 -170 -79 -203c-31 -28 -82 -58 -160 -58c-89 0 -140 36 -169 72c-38 47 -56 120 -56 185v27z
M410 206h-264c-1 -36 11 -69 29 -92c16 -20 47 -46 101 -46c48 0 81 23 102 51c18 25 29 57 32 87z" />
    <glyph glyph-name="Gcaron" unicode="&#x1e6;" horiz-adv-x="721" 
d="M423 -8c-230 0 -370 138 -370 358c0 218 140 358 370 358c127 0 200 -40 200 -40v-96s-73 48 -200 48c-161 0 -264 -103 -264 -270c0 -169 103 -270 264 -270c46 0 80 3 110 9v210h-146v82h246v-360c-50 -16 -110 -29 -210 -29zM458 750h-110l-104 120h90l69 -70l69 70
h90z" />
    <glyph glyph-name="gcaron" unicode="&#x1e7;" horiz-adv-x="610" 
d="M266 0c-126 0 -220 94 -220 250c0 168 100 268 235 268c79 0 135 -38 160 -84h2v76h87v-484c0 -169 -84 -254 -270 -254c-94 0 -169 34 -169 34v90s75 -48 169 -48c119 0 176 58 176 178v53h-2c-33 -49 -98 -79 -168 -79zM286 76c87 0 150 64 150 178
c0 123 -64 188 -145 188c-80 0 -145 -65 -145 -192c0 -107 67 -174 140 -174zM433 740l-100 -130h-90l-100 130h76l69 -84l69 84h76z" />
    <glyph glyph-name="Scommaaccent" unicode="&#x218;" horiz-adv-x="504" 
d="M210 -8c-38 0 -92 6 -155 29v92c43 -19 111 -33 157 -33c89 0 139 50 139 112c0 69 -59 98 -133 132c-117 54 -171 100 -171 197c0 109 78 187 230 187c73 0 126 -17 147 -25v-92c-53 24 -114 29 -147 29c-89 0 -124 -35 -124 -90c0 -66 83 -97 150 -130
c89 -44 154 -92 154 -205c0 -118 -85 -203 -247 -203zM152 -248l40 198h110l-70 -198h-80z" />
    <glyph glyph-name="scommaaccent" unicode="&#x219;" horiz-adv-x="405" 
d="M48 20v83c59 -31 104 -35 124 -35c63 0 93 30 93 71c0 35 -21 52 -92 86c-79 38 -128 66 -128 140c0 89 64 153 180 153c56 0 103 -15 117 -20v-80c-38 16 -71 24 -106 24c-63 0 -91 -28 -91 -60c0 -39 28 -57 92 -86c90 -40 128 -72 128 -151c0 -89 -64 -153 -180 -153
c-61 0 -104 13 -137 28zM105 -220l40 170h100l-70 -170h-70z" />
    <glyph glyph-name="Tcommaaccent" unicode="&#x21a;" horiz-adv-x="556" 
d="M228 0v612h-217v88h534v-88h-217v-612h-100zM222 -248l40 198h110l-70 -198h-80z" />
    <glyph glyph-name="tcommaaccent" unicode="&#x21b;" horiz-adv-x="375" 
d="M118 628l94 30v-148h141v-76h-141v-275c0 -19 3 -45 22 -66c11 -12 30 -25 61 -25c20 0 41 6 60 18v-80c-26 -9 -55 -14 -83 -14c-39 0 -82 10 -110 34c-38 32 -44 78 -44 114v294h-111v76h111v118zM134 -220l40 170h100l-70 -170h-70z" />
    <glyph glyph-name="uni0259" unicode="&#x259;" horiz-adv-x="556" 
d="M46 276h364c-1 45 -18 86 -43 113c-27 30 -71 53 -128 53c-54 0 -116 -24 -154 -51v94l14 5c28 10 63 28 147 28c62 0 140 -11 198 -73c31 -33 66 -94 66 -192c0 -108 -42 -170 -79 -203c-31 -28 -82 -58 -160 -58c-89 0 -140 36 -169 72c-38 47 -56 120 -56 185v27z
M410 206h-264c-1 -36 11 -69 29 -92c16 -20 47 -46 101 -46c48 0 81 23 102 51c18 25 29 57 32 87z" />
    <glyph glyph-name="afii57929" unicode="&#x2bc;" horiz-adv-x="180" 
d="M0 594l40 168h100l-70 -168h-70z" />
    <glyph glyph-name="circumflex" unicode="&#x2c6;" horiz-adv-x="330" 
d="M20 610l100 130h90l100 -130h-76l-69 84l-69 -84h-76z" />
    <glyph glyph-name="caron" unicode="&#x2c7;" horiz-adv-x="330" 
d="M310 740l-100 -130h-90l-100 130h76l69 -84l69 84h76z" />
    <glyph glyph-name="uni02C9" unicode="&#x2c9;" horiz-adv-x="340" 
d="M20 655v70h300v-70h-300z" />
    <glyph glyph-name="breve" unicode="&#x2d8;" horiz-adv-x="348" 
d="M20 740h60c7 -33 30 -72 94 -72s87 39 94 72h60c-7 -87 -69 -142 -154 -142s-147 55 -154 142z" />
    <glyph glyph-name="dotaccent" unicode="&#x2d9;" horiz-adv-x="146" 
d="M126 720v-106h-106v106h106z" />
    <glyph glyph-name="ring" unicode="&#x2da;" horiz-adv-x="244" 
d="M20 678c0 56 46 102 102 102s102 -46 102 -102s-46 -102 -102 -102s-102 46 -102 102zM60 678c0 -35 27 -62 62 -62s62 27 62 62s-27 62 -62 62s-62 -27 -62 -62z" />
    <glyph glyph-name="ogonek" unicode="&#x2db;" horiz-adv-x="190" 
d="M110 -228c-75 0 -110 35 -110 88c0 66 55 120 140 165l50 -25c-85 -55 -109 -100 -109 -135c0 -25 15 -40 49 -40c15 0 32 2 50 10v-50c-19 -8 -40 -13 -70 -13z" />
    <glyph glyph-name="tilde" unicode="&#x2dc;" horiz-adv-x="363" 
d="M63 586h-43c2 26 10 53 22 73c20 33 49 39 69 39c18 0 35 -7 50 -13l28 -12c17 -7 40 -21 66 -21c20 0 28 7 34 18c4 7 8 17 10 28h44c-3 -21 -10 -48 -19 -66c-19 -37 -49 -46 -72 -46c-19 0 -37 7 -51 13l-28 12c-17 7 -40 21 -66 21c-18 0 -26 -6 -32 -15
s-10 -20 -12 -31z" />
    <glyph glyph-name="hungarumlaut" unicode="&#x2dd;" horiz-adv-x="419" 
d="M20 610l88 130h110l-128 -130h-70zM201 610l88 130h110l-128 -130h-70z" />
    <glyph glyph-name="gravecomb" unicode="&#x300;" horiz-adv-x="2" 
d="M-263 740l78 -130h-80l-118 130h120z" />
    <glyph glyph-name="acutecomb" unicode="&#x301;" horiz-adv-x="2" 
d="M-327 610l78 130h120l-118 -130h-80z" />
    <glyph glyph-name="uni037E" unicode="&#x37e;" horiz-adv-x="278" 
d="M20 -133l63 245h112l-85 -245h-90zM195 510v-112h-112v112h112z" />
    <glyph glyph-name="uni0394" unicode="&#x394;" horiz-adv-x="712" 
d="M12 0l293 700h105l290 -700h-688zM559 82l-205 524l-204 -524h409z" />
    <glyph glyph-name="uni03A9" unicode="&#x3a9;" horiz-adv-x="761" 
d="M424 0v164c56 8 97 38 121 66c29 34 51 86 51 164c0 60 -13 116 -56 163c-40 44 -93 65 -159 65c-69 0 -116 -23 -147 -51c-59 -52 -68 -121 -68 -177c0 -42 4 -110 50 -164c24 -28 65 -58 122 -66v-164h-272l-12 147l79 5l6 -72h116v44c-54 13 -95 41 -125 75
c-25 28 -70 91 -70 199c0 88 25 171 99 237c69 62 140 75 222 75c86 0 156 -16 222 -75c55 -49 99 -125 99 -237c0 -82 -29 -151 -71 -199c-41 -47 -86 -66 -125 -75v-44h117l5 72l80 -5l-13 -147h-271z" />
    <glyph glyph-name="uni03BC" unicode="&#x3bc;" horiz-adv-x="611" 
d="M531 510v-510h-91v81h-2c-14 -25 -37 -51 -63 -67c-28 -17 -65 -26 -104 -26c-17 0 -39 2 -61 11c-15 6 -26 14 -36 24v-247h-94v734h94v-264c0 -50 -1 -98 24 -137c20 -32 49 -45 84 -45c66 0 101 33 119 60c34 51 36 119 36 150v236h94z" />
    <glyph glyph-name="pi" unicode="&#x3c0;" horiz-adv-x="669" 
d="M257 434v-434h-94v434h-9c-13 0 -63 -1 -94 -54l-45 59c42 62 101 71 175 71h464v-76h-70v-434h-94v434h-233z" />
    <glyph glyph-name="afii10023" unicode="&#x401;" horiz-adv-x="554" 
d="M94 0v700h391v-88h-291v-205h265v-88h-265v-231h291v-88h-391zM130 750v100h106v-100h-106zM344 750v100h106v-100h-106z" />
    <glyph glyph-name="afii10051" unicode="&#x402;" horiz-adv-x="799" 
d="M219 0v612h-204v88h534v-88h-230v-208c52 37 119 54 186 54c134 0 214 -80 214 -223c0 -170 -75 -245 -209 -245c-29 0 -56 4 -85 13v82c24 -10 60 -14 85 -14c65 0 105 40 105 164c0 93 -50 143 -130 143c-63 0 -118 -18 -166 -55v-323h-100z" />
    <glyph glyph-name="afii10052" unicode="&#x403;" horiz-adv-x="475" 
d="M94 0v700h371v-88h-271v-612h-100zM280 870h130l-114 -120h-96z" />
    <glyph glyph-name="afii10053" unicode="&#x404;" horiz-adv-x="636" 
d="M583 680v-98s-63 40 -160 40c-143 0 -241 -82 -261 -218h281v-88h-283c13 -149 114 -238 273 -238c87 0 150 35 150 35v-98s-63 -25 -150 -25c-240 0 -380 140 -380 360s140 360 370 360c97 0 160 -30 160 -30z" />
    <glyph glyph-name="afii10054" unicode="&#x405;" horiz-adv-x="504" 
d="M210 -8c-38 0 -92 6 -155 29v92c43 -19 111 -33 157 -33c89 0 139 50 139 112c0 69 -59 98 -133 132c-117 54 -171 100 -171 197c0 109 78 187 230 187c73 0 126 -17 147 -25v-92c-53 24 -114 29 -147 29c-89 0 -124 -35 -124 -90c0 -66 83 -97 150 -130
c89 -44 154 -92 154 -205c0 -118 -85 -203 -247 -203z" />
    <glyph glyph-name="afii10055" unicode="&#x406;" horiz-adv-x="288" 
d="M94 0v700h100v-700h-100z" />
    <glyph glyph-name="afii10056" unicode="&#x407;" horiz-adv-x="288" 
d="M94 0v700h100v-700h-100zM25 852h90v-100h-90v100zM173 852h90v-100h-90v100z" />
    <glyph glyph-name="afii10057" unicode="&#x408;" horiz-adv-x="389" 
d="M21 2v86c32 -9 53 -10 63 -10c45 0 73 14 88 32c24 27 26 69 26 105v485h100v-517c0 -36 -5 -103 -55 -148c-32 -29 -83 -45 -144 -45c-40 0 -65 7 -78 12z" />
    <glyph glyph-name="afii10058" unicode="&#x409;" horiz-adv-x="955" 
d="M60 -10c-30 0 -50 8 -50 8v87s15 -5 30 -5c75 0 120 80 120 500v120h410v-260h100c170 0 250 -80 250 -220s-80 -220 -260 -220h-190v612h-214v-32c0 -480 -55 -590 -196 -590zM570 88h90c109 0 154 45 154 132s-45 132 -144 132h-100v-264z" />
    <glyph glyph-name="afii10059" unicode="&#x40a;" horiz-adv-x="1003" 
d="M94 0v700h100v-276h324v276h100v-276h100c170 0 250 -80 250 -212s-80 -212 -260 -212h-190v336h-324v-336h-100zM618 88h90c109 0 154 45 154 124s-45 124 -144 124h-100v-248z" />
    <glyph glyph-name="afii10060" unicode="&#x40b;" horiz-adv-x="796" 
d="M219 0v612h-204v88h534v-88h-230v-208c31 17 54 26 82 35c39 13 63 19 109 19c39 0 100 -4 146 -41c53 -42 60 -98 60 -143v-274h-100v246c0 38 1 71 -32 101c-22 20 -56 31 -95 31c-37 0 -65 -9 -93 -19c-25 -9 -47 -18 -77 -36v-323h-100z" />
    <glyph glyph-name="afii10061" unicode="&#x40c;" horiz-adv-x="667" 
d="M94 0v700h100v-308l298 308h133l-328 -331l354 -369h-146l-311 343v-343h-100zM360 870h130l-114 -120h-96z" />
    <glyph glyph-name="afii10062" unicode="&#x40e;" horiz-adv-x="576" 
d="M165 -10c-40 0 -80 14 -80 14v98s30 -20 70 -20c41 0 58 13 77 54l25 55l-247 509h113l185 -390h4l171 390h97l-264 -595c-32 -72 -68 -115 -151 -115zM295 750c-91 0 -160 43 -165 132l75 8c5 -48 37 -70 90 -70s85 22 90 70l75 -8c-5 -89 -74 -132 -165 -132z" />
    <glyph glyph-name="afii10145" unicode="&#x40f;" horiz-adv-x="708" 
d="M94 700h100v-612h320v612h100v-700h-211v-156h-98v156h-211v700z" />
    <glyph glyph-name="afii10017" unicode="&#x410;" horiz-adv-x="684" 
d="M12 0l277 700h106l277 -700h-110l-67 180h-310l-67 -180h-106zM215 260h250l-123 335h-2z" />
    <glyph glyph-name="afii10018" unicode="&#x411;" horiz-adv-x="590" 
d="M194 88h96c108 0 153 45 153 122s-45 122 -143 122h-106v-244zM94 0v700h400v-88h-300v-192h106c169 0 249 -80 249 -210s-80 -210 -259 -210h-196z" />
    <glyph glyph-name="afii10019" unicode="&#x412;" horiz-adv-x="600" 
d="M94 0v700h180c180 0 250 -70 250 -180c0 -76 -39 -133 -129 -157v-2c107 -23 149 -84 149 -170c0 -121 -70 -191 -250 -191h-200zM194 82h100c100 0 144 44 144 119c0 74 -44 118 -144 118h-100v-237zM194 401h80c107 0 149 42 149 109c0 66 -42 108 -149 108h-80v-217z
" />
    <glyph glyph-name="afii10020" unicode="&#x413;" horiz-adv-x="475" 
d="M94 0v700h371v-88h-271v-612h-100z" />
    <glyph glyph-name="afii10021" unicode="&#x414;" horiz-adv-x="675" 
d="M10 88h59c48 82 67 155 75 193c9 43 18 110 22 240l5 179h404v-612h80v-244h-98v156h-449v-156h-98v244zM475 612h-215l-6 -148c-3 -69 -5 -127 -22 -206c-14 -64 -32 -115 -65 -170h308v524z" />
    <glyph glyph-name="afii10022" unicode="&#x415;" horiz-adv-x="554" 
d="M94 0v700h391v-88h-291v-205h265v-88h-265v-231h291v-88h-391z" />
    <glyph glyph-name="afii10024" unicode="&#x416;" horiz-adv-x="932" 
d="M515 700v-308h7l251 308h118l-273 -331l298 -369h-130l-264 343h-7v-343h-100v343h-7l-264 -343h-130l298 369l-273 331h118l251 -308h7v308h100z" />
    <glyph glyph-name="afii10025" unicode="&#x417;" horiz-adv-x="573" 
d="M267 -10c-120 0 -210 40 -210 40v94s90 -46 210 -46c100 0 144 44 144 123c0 74 -44 118 -144 118h-80v82h60c102 0 144 42 144 109c0 70 -42 112 -144 112c-90 0 -170 -41 -170 -41v94s80 35 170 35c170 0 250 -80 250 -190c0 -74 -37 -132 -124 -158
c102 -23 144 -85 144 -171c0 -111 -90 -201 -250 -201z" />
    <glyph glyph-name="afii10026" unicode="&#x418;" horiz-adv-x="738" 
d="M94 0v700h100v-570h2l322 570h126v-700h-100v570h-2l-322 -570h-126z" />
    <glyph glyph-name="afii10027" unicode="&#x419;" horiz-adv-x="738" 
d="M94 0v700h100v-570h2l322 570h126v-700h-100v570h-2l-322 -570h-126zM371 750c-91 0 -160 43 -165 132l75 8c5 -48 37 -70 90 -70s85 22 90 70l75 -8c-5 -89 -74 -132 -165 -132z" />
    <glyph glyph-name="afii10028" unicode="&#x41a;" horiz-adv-x="667" 
d="M94 0v700h100v-308l298 308h133l-328 -331l354 -369h-146l-311 343v-343h-100z" />
    <glyph glyph-name="afii10029" unicode="&#x41b;" horiz-adv-x="664" 
d="M60 -10c-30 0 -50 8 -50 8v87s15 -5 30 -5c75 0 120 80 120 500v120h410v-700h-100v612h-214v-32c0 -480 -55 -590 -196 -590z" />
    <glyph glyph-name="afii10030" unicode="&#x41c;" horiz-adv-x="858" 
d="M94 0v700h159l178 -403l179 403h154v-700h-100v600h-2l-183 -400h-100l-183 400h-2v-600h-100z" />
    <glyph glyph-name="afii10031" unicode="&#x41d;" horiz-adv-x="722" 
d="M94 0v700h100v-293h334v293h100v-700h-100v319h-334v-319h-100z" />
    <glyph glyph-name="afii10032" unicode="&#x41e;" horiz-adv-x="778" 
d="M389 710c112 0 193 -40 250 -106c52 -59 86 -147 86 -254c0 -109 -36 -198 -86 -255c-44 -51 -122 -105 -250 -105s-206 54 -250 105c-50 57 -86 146 -86 255c0 107 34 195 86 254c57 66 138 106 250 106zM389 622c-82 0 -139 -39 -171 -80c-36 -46 -59 -120 -59 -192
c0 -59 16 -137 59 -192c34 -44 87 -80 171 -80s137 36 171 80c43 55 59 133 59 192c0 72 -23 146 -59 192c-32 41 -89 80 -171 80z" />
    <glyph glyph-name="afii10033" unicode="&#x41f;" horiz-adv-x="709" 
d="M94 0v700h521v-700h-100v612h-321v-612h-100z" />
    <glyph glyph-name="afii10034" unicode="&#x420;" horiz-adv-x="572" 
d="M194 348h100c99 0 144 45 144 132s-45 132 -144 132h-100v-264zM94 0v700h200c170 0 250 -80 250 -220s-80 -220 -250 -220h-100v-260h-100z" />
    <glyph glyph-name="afii10035" unicode="&#x421;" horiz-adv-x="628" 
d="M423 -8c-230 0 -370 140 -370 358c0 213 145 358 370 358c90 0 160 -28 160 -28v-96s-70 36 -160 36c-161 0 -264 -103 -264 -270s103 -270 264 -270c90 0 160 31 160 31v-96s-70 -23 -160 -23z" />
    <glyph glyph-name="afii10036" unicode="&#x422;" horiz-adv-x="556" 
d="M228 0v612h-217v88h534v-88h-217v-612h-100z" />
    <glyph glyph-name="afii10037" unicode="&#x423;" horiz-adv-x="590" 
d="M165 -10c-40 0 -80 14 -80 14v98s30 -20 70 -20c41 0 58 13 77 54l25 55l-247 509h113l185 -390h4l171 390h97l-264 -595c-32 -72 -68 -115 -151 -115z" />
    <glyph glyph-name="afii10038" unicode="&#x424;" horiz-adv-x="856" 
d="M378 -8v90h-26c-184 0 -299 115 -299 278s115 278 299 278h26v90h100v-90h26c184 0 299 -115 299 -278s-115 -278 -299 -278h-26v-90h-100zM697 360c0 126 -70 196 -201 196h-18v-392h18c131 0 201 70 201 196zM159 360c0 -126 70 -196 201 -196h18v392h-18
c-131 0 -201 -70 -201 -196z" />
    <glyph glyph-name="afii10039" unicode="&#x425;" horiz-adv-x="667" 
d="M8 0l257 364l-234 336h120l186 -269l185 269h114l-235 -334l258 -366h-126l-206 297l-199 -297h-120z" />
    <glyph glyph-name="afii10040" unicode="&#x426;" horiz-adv-x="703" 
d="M94 700h100v-612h309v612h100v-612h80v-244h-98v156h-491v700z" />
    <glyph glyph-name="afii10041" unicode="&#x427;" horiz-adv-x="653" 
d="M459 0v293c-76 -20 -139 -24 -178 -24c-122 0 -174 38 -197 67c-32 40 -34 92 -34 120v244h100v-210c0 -30 -1 -72 35 -103c31 -27 82 -30 114 -30c51 0 104 6 160 23v320h100v-700h-100z" />
    <glyph glyph-name="afii10042" unicode="&#x428;" horiz-adv-x="904" 
d="M94 700h100v-612h208v612h100v-612h208v612h100v-700h-716v700z" />
    <glyph glyph-name="afii10043" unicode="&#x429;" horiz-adv-x="910" 
d="M94 700h100v-612h208v612h100v-612h208v612h100v-612h80v-244h-98v156h-698v700z" />
    <glyph glyph-name="afii10044" unicode="&#x42a;" horiz-adv-x="660" 
d="M175 0v612h-180v88h280v-260h100c170 0 250 -80 250 -220s-80 -220 -250 -220h-200zM275 88h100c99 0 144 45 144 132s-45 132 -144 132h-100v-264z" />
    <glyph glyph-name="afii10045" unicode="&#x42b;" horiz-adv-x="831" 
d="M637 0v700h100v-700h-100zM194 88h100c99 0 144 45 144 132s-45 132 -144 132h-100v-264zM94 0v700h100v-260h100c170 0 250 -80 250 -220s-80 -220 -250 -220h-200z" />
    <glyph glyph-name="afii10046" unicode="&#x42c;" horiz-adv-x="579" 
d="M194 88h100c99 0 144 45 144 132s-45 132 -144 132h-100v-264zM94 0v700h100v-260h100c170 0 250 -80 250 -220s-80 -220 -250 -220h-200z" />
    <glyph glyph-name="afii10047" unicode="&#x42d;" horiz-adv-x="636" 
d="M193 316v88h280c-20 136 -116 218 -250 218c-107 0 -170 -40 -170 -40v98s63 30 170 30c220 0 360 -140 360 -360s-140 -360 -370 -360c-97 0 -160 25 -160 25v98s63 -35 160 -35c150 0 249 89 262 238h-282z" />
    <glyph glyph-name="afii10048" unicode="&#x42e;" horiz-adv-x="1030" 
d="M194 407h120c7 67 33 141 81 197c56 66 135 106 246 106s193 -41 250 -106c52 -59 86 -147 86 -254c0 -109 -36 -198 -86 -255c-44 -51 -122 -105 -250 -105c-127 0 -202 54 -246 105c-51 59 -80 145 -84 224h-117v-319h-100v700h100v-293zM641 622
c-82 0 -139 -39 -171 -80c-36 -46 -59 -120 -59 -192c0 -59 16 -137 59 -192c34 -44 87 -80 171 -80s137 36 171 80c43 55 59 133 59 192c0 72 -23 146 -59 192c-32 41 -89 80 -171 80z" />
    <glyph glyph-name="afii10049" unicode="&#x42f;" horiz-adv-x="627" 
d="M54 0l167 283c-87 31 -128 99 -128 197c0 140 80 220 250 220h190v-700h-100v265h-90h-20l-148 -265h-121zM343 348h90v264h-90c-99 0 -144 -45 -144 -132s45 -132 144 -132z" />
    <glyph glyph-name="afii10065" unicode="&#x430;" horiz-adv-x="556" 
d="M224 -8c-115 0 -178 61 -178 153c0 100 70 170 270 170h66v25c0 67 -35 102 -106 102c-60 0 -111 -12 -171 -50v82c55 31 121 44 171 44c140 0 200 -60 200 -208v-310h-84v70h-2c-42 -58 -108 -78 -166 -78zM246 68c79 0 136 55 136 132v45h-66
c-130 0 -170 -40 -170 -100c0 -44 33 -77 100 -77z" />
    <glyph glyph-name="afii10066" unicode="&#x431;" horiz-adv-x="624" 
d="M528 775v-83c-34 -9 -55 -9 -80 -12c-50 -6 -102 -3 -152 -11c-54 -9 -86 -32 -105 -52c-46 -49 -51 -120 -53 -179l-1 -25h5c17 28 46 62 73 78c30 18 76 27 114 27c145 0 249 -108 249 -263c0 -78 -28 -141 -66 -183c-34 -38 -96 -80 -193 -80c-82 0 -152 32 -193 80
c-36 42 -76 129 -76 305c0 131 20 243 91 308c37 34 81 50 113 58c58 15 118 14 182 18c30 2 57 5 92 14zM319 442c-61 0 -99 -32 -120 -60c-27 -36 -39 -84 -39 -127s12 -91 39 -127c31 -41 76 -60 120 -60s89 19 120 60c27 36 39 84 39 127c0 44 -12 90 -39 127
c-32 44 -75 60 -120 60z" />
    <glyph glyph-name="afii10067" unicode="&#x432;" horiz-adv-x="545" 
d="M80 0v510h190c145 0 200 -55 200 -141c0 -44 -27 -80 -79 -101c65 -21 99 -64 99 -117c0 -91 -65 -151 -200 -151h-210zM290 228h-116v-154h116c68 0 98 30 98 77s-30 77 -98 77zM270 436h-96v-134h96c68 0 98 30 98 67s-30 67 -98 67z" />
    <glyph glyph-name="afii10068" unicode="&#x433;" horiz-adv-x="420" 
d="M80 510h335v-80h-241v-430h-94v510z" />
    <glyph glyph-name="afii10069" unicode="&#x434;" horiz-adv-x="567" 
d="M139 510h344v-434h72v-220h-90v144h-363v-144h-90v220h52c59 81 69 163 73 348zM147 76h242v358h-168l-1 -40c-4 -146 -12 -236 -73 -318z" />
    <glyph glyph-name="afii10070" unicode="&#x435;" horiz-adv-x="552" 
d="M306 -8c-160 0 -260 100 -260 265c0 161 100 261 230 261c145 0 230 -85 230 -258v-26h-360c7 -97 65 -166 170 -166c60 0 117 24 155 51v-94c-32 -15 -75 -33 -165 -33zM276 442c-70 0 -130 -60 -130 -138h260c0 88 -50 138 -130 138z" />
    <glyph glyph-name="afii10072" unicode="&#x436;" horiz-adv-x="756" 
d="M425 510v-224h7l168 224h114l-193 -243l222 -267h-120l-191 245h-7v-245h-94v245h-7l-191 -245h-120l222 267l-193 243h114l168 -224h7v224h94z" />
    <glyph glyph-name="afii10073" unicode="&#x437;" horiz-adv-x="482" 
d="M226 -8c-110 0 -186 39 -186 38v82s76 -44 186 -44c75 0 110 31 110 81c0 49 -30 79 -100 79h-87v74h67c70 0 100 30 100 69c0 45 -30 71 -100 71c-80 0 -153 -34 -153 -34v82s73 28 153 28c145 0 200 -55 200 -137c0 -52 -28 -91 -80 -113c65 -22 100 -68 100 -129
c0 -82 -70 -147 -210 -147z" />
    <glyph glyph-name="afii10074" unicode="&#x438;" horiz-adv-x="622" 
d="M199 0h-119v510h94v-400h2l247 400h119v-510h-94v400h-2z" />
    <glyph glyph-name="afii10075" unicode="&#x439;" horiz-adv-x="622" 
d="M199 0h-119v510h94v-400h2l247 400h119v-510h-94v400h-2zM405 738l68 -8c-4 -89 -68 -132 -152 -132s-154 43 -158 132l71 8c7 -48 41 -72 87 -72s77 24 84 72z" />
    <glyph glyph-name="afii10076" unicode="&#x43a;" horiz-adv-x="555" 
d="M80 0v510h94v-224l205 224h128l-237 -243l266 -267h-133l-229 245v-245h-94z" />
    <glyph glyph-name="afii10077" unicode="&#x43b;" 
d="M50 -8c-20 0 -45 8 -45 7v87s15 -5 30 -5c65 0 87 104 87 389v40h348v-510h-94v434h-169v-14c0 -310 -47 -428 -157 -428z" />
    <glyph glyph-name="afii10078" unicode="&#x43c;" horiz-adv-x="720" 
d="M80 0v510h147l135 -290l135 290h143v-510h-94v420h-2l-137 -290h-94l-137 290h-2v-420h-94z" />
    <glyph glyph-name="afii10079" unicode="&#x43d;" horiz-adv-x="608" 
d="M174 510v-207h260v207h94v-510h-94v227h-260v-227h-94v510h94z" />
    <glyph glyph-name="afii10080" unicode="&#x43e;" horiz-adv-x="612" 
d="M306 -8c-153 0 -260 107 -260 263s107 263 260 263s260 -107 260 -263s-107 -263 -260 -263zM306 68c87 0 160 73 160 187s-74 187 -160 187c-87 0 -160 -73 -160 -187s73 -187 160 -187z" />
    <glyph glyph-name="afii10081" unicode="&#x43f;" horiz-adv-x="601" 
d="M80 510h441v-510h-94v434h-253v-434h-94v510z" />
    <glyph glyph-name="afii10082" unicode="&#x440;" horiz-adv-x="611" 
d="M80 510h90v-73h2c52 73 131 81 169 81c65 0 120 -20 162 -68c37 -43 62 -110 62 -191c0 -67 -19 -142 -59 -192c-27 -34 -77 -75 -160 -75c-39 0 -78 7 -112 25c-27 14 -45 31 -58 50h-2v-291h-94v734zM174 254c0 -44 12 -95 39 -131c22 -30 60 -55 109 -55
c45 0 76 21 96 43c28 31 47 83 47 151c0 40 -6 95 -42 136c-23 27 -56 44 -98 44c-63 0 -96 -34 -114 -60c-28 -39 -37 -83 -37 -128z" />
    <glyph glyph-name="afii10083" unicode="&#x441;" horiz-adv-x="454" 
d="M426 495v-82s-40 29 -110 29c-102 0 -170 -68 -170 -187s68 -187 170 -187c70 0 110 29 110 29v-82s-40 -23 -120 -23c-154 0 -260 106 -260 263s106 263 260 263c80 0 120 -23 120 -23z" />
    <glyph glyph-name="afii10084" unicode="&#x442;" horiz-adv-x="468" 
d="M10 510h448v-76h-177v-434h-94v434h-177v76z" />
    <glyph glyph-name="afii10085" unicode="&#x443;" horiz-adv-x="490" 
d="M35 -219v82s25 -11 45 -11c61 0 82 36 105 98l11 30l-191 530h103l139 -410h4l139 410h95l-194 -530c-55 -150 -91 -204 -201 -204c-30 0 -55 5 -55 5z" />
    <glyph glyph-name="afii10086" unicode="&#x444;" horiz-adv-x="738" 
d="M416 -8v-217h-94v219c-13 -2 -26 -2 -38 -2c-138 0 -238 91 -238 264c0 165 100 262 239 262c12 0 24 -1 37 -2v244h94v-245c13 2 26 3 38 3c144 0 238 -86 238 -259c0 -165 -101 -267 -239 -267h-37zM452 64c77 0 140 57 140 198c0 131 -56 184 -149 184
c-8 0 -18 -1 -27 -3v-379c8 -1 19 0 36 0zM286 446c-73 0 -140 -52 -140 -193c0 -131 63 -189 148 -189h28v379c-10 2 -21 3 -36 3z" />
    <glyph glyph-name="afii10087" unicode="&#x445;" horiz-adv-x="500" 
d="M10 0l184 267l-166 243h117l111 -182l113 182h105l-164 -243l180 -267h-116l-126 200l-126 -200h-112z" />
    <glyph glyph-name="afii10088" unicode="&#x446;" horiz-adv-x="597" 
d="M414 510h94v-434h77v-220h-90v144h-415v510h94v-434h240v434z" />
    <glyph glyph-name="afii10089" unicode="&#x447;" horiz-adv-x="536" 
d="M362 0v201c-13 -3 -71 -15 -133 -15c-43 0 -97 6 -136 38c-44 36 -48 82 -48 108v178h94v-150c0 -24 1 -59 28 -80c13 -10 35 -18 84 -18c51 0 93 9 111 13v235h94v-510h-94z" />
    <glyph glyph-name="afii10090" unicode="&#x448;" horiz-adv-x="804" 
d="M80 0v510h94v-434h181v434h94v-434h181v434h94v-510h-644z" />
    <glyph glyph-name="afii10091" unicode="&#x449;" horiz-adv-x="813" 
d="M80 0v510h94v-434h181v434h94v-434h181v434h94v-434h77v-220h-90v144h-631z" />
    <glyph glyph-name="afii10092" unicode="&#x44a;" horiz-adv-x="568" 
d="M-5 510h239v-180h96c145 0 210 -65 210 -165s-65 -165 -210 -165h-190v434h-145v76zM234 254v-178h96c79 0 114 35 114 89s-35 89 -114 89h-96z" />
    <glyph glyph-name="afii10093" unicode="&#x44b;" horiz-adv-x="742" 
d="M80 510h94v-180h96c145 0 210 -65 210 -165s-65 -165 -210 -165h-190v510zM174 254v-178h96c79 0 114 35 114 89s-35 89 -114 89h-96zM568 0v510h94v-510h-94z" />
    <glyph glyph-name="afii10094" unicode="&#x44c;" horiz-adv-x="508" 
d="M80 510h94v-180h96c145 0 210 -65 210 -165s-65 -165 -210 -165h-190v510zM174 254v-178h96c80 0 114 35 114 89s-35 89 -114 89h-96z" />
    <glyph glyph-name="afii10095" unicode="&#x44d;" horiz-adv-x="487" 
d="M131 222v76h207c-13 94 -71 140 -167 140c-75 0 -125 -29 -125 -29v86s50 23 125 23c170 0 270 -100 270 -263s-100 -263 -270 -263c-80 0 -130 23 -130 23v88s50 -31 130 -31c99 0 158 49 168 150h-208z" />
    <glyph glyph-name="afii10096" unicode="&#x44e;" horiz-adv-x="822" 
d="M174 303h91c10 76 48 126 82 156c50 44 107 59 170 59c98 0 158 -41 193 -80c45 -50 66 -118 66 -183s-21 -133 -66 -183c-35 -38 -95 -80 -193 -80c-103 0 -164 46 -196 84c-33 39 -54 95 -59 151h-88v-227h-94v510h94v-207zM517 442c-50 0 -93 -26 -120 -60
c-27 -35 -39 -82 -39 -127c0 -52 15 -96 39 -127c41 -55 97 -60 120 -60s79 5 120 60c24 31 39 75 39 127s-15 96 -39 127c-31 41 -76 60 -120 60z" />
    <glyph glyph-name="afii10097" unicode="&#x44f;" horiz-adv-x="526" 
d="M45 0l107 197c-64 25 -96 78 -96 148c0 100 65 165 200 165h190v-510h-94v180h-96h-10l-90 -180h-111zM352 256v178h-96c-70 0 -104 -35 -104 -89s35 -89 104 -89h96z" />
    <glyph glyph-name="afii10071" unicode="&#x451;" horiz-adv-x="552" 
d="M306 -8c-160 0 -260 100 -260 265c0 161 100 261 230 261c145 0 230 -85 230 -258v-26h-360c7 -97 65 -166 170 -166c60 0 117 24 155 51v-94c-32 -15 -75 -33 -165 -33zM276 442c-70 0 -130 -60 -130 -138h260c0 88 -50 138 -130 138zM149 620v100h94v-100h-94zM315 620
v100h94v-100h-94z" />
    <glyph glyph-name="afii10099" unicode="&#x452;" horiz-adv-x="604" 
d="M174 655h203v-54h-203v-164h2c15 22 37 43 67 59c29 15 59 22 97 22c41 0 102 -7 144 -56c41 -48 47 -112 47 -159v-68c0 -87 -4 -147 -17 -195c-12 -44 -34 -92 -65 -129c-29 -35 -67 -65 -103 -84l-54 51c35 19 68 47 90 76c23 31 37 70 44 102c6 27 11 72 11 177v31
c0 87 -16 124 -32 144c-14 17 -41 34 -83 34s-77 -19 -100 -44c-45 -50 -48 -126 -48 -162v-236h-94v601h-75v54h75v107h94v-107z" />
    <glyph glyph-name="afii10100" unicode="&#x453;" horiz-adv-x="420" 
d="M80 510h335v-80h-241v-430h-94v510zM193 610l78 130h120l-118 -130h-80z" />
    <glyph glyph-name="afii10101" unicode="&#x454;" horiz-adv-x="487" 
d="M441 495v-82s-50 29 -125 29c-97 0 -155 -47 -167 -144h207v-76h-209c10 -105 69 -154 169 -154c80 0 130 31 130 31v-84s-50 -23 -130 -23c-170 0 -270 100 -270 263s100 263 270 263c75 0 125 -23 125 -23z" />
    <glyph glyph-name="afii10102" unicode="&#x455;" horiz-adv-x="405" 
d="M48 20v83c59 -31 104 -35 124 -35c63 0 93 30 93 71c0 35 -21 52 -92 86c-79 38 -128 66 -128 140c0 89 64 153 180 153c56 0 103 -15 117 -20v-80c-38 16 -71 24 -106 24c-63 0 -91 -28 -91 -60c0 -39 28 -57 92 -86c90 -40 128 -72 128 -151c0 -89 -64 -153 -180 -153
c-61 0 -104 13 -137 28z" />
    <glyph glyph-name="afii10103" unicode="&#x456;" horiz-adv-x="254" 
d="M80 0v510h94v-510h-94zM180 720v-106h-106v106h106z" />
    <glyph glyph-name="afii10104" unicode="&#x457;" horiz-adv-x="254" 
d="M80 0v510h94v-510h-94zM22 620v100h80v-100h-80zM152 620v100h80v-100h-80z" />
    <glyph glyph-name="afii10105" unicode="&#x458;" horiz-adv-x="254" 
d="M15 -228c-16 0 -40 5 -40 5v80s15 -4 35 -4c45 0 70 25 70 103v554h94v-554c0 -144 -40 -184 -159 -184zM74 617v106h106v-106h-106z" />
    <glyph glyph-name="afii10106" unicode="&#x459;" horiz-adv-x="811" 
d="M50 -8c-20 0 -45 8 -45 7v87s15 -5 30 -5c65 0 87 104 87 389v40h348v-180h96c145 0 210 -65 210 -165s-65 -165 -210 -165h-190v434h-169v-14c0 -310 -47 -428 -157 -428zM470 254v-178h96c80 0 114 35 114 89s-35 89 -114 89h-96z" />
    <glyph glyph-name="afii10107" unicode="&#x45a;" horiz-adv-x="854" 
d="M517 510v-192h96c145 0 210 -65 210 -159s-65 -159 -210 -159h-190v242h-249v-242h-94v510h94v-192h249v192h94zM517 242v-166h96c80 0 114 35 114 83s-35 83 -114 83h-96z" />
    <glyph glyph-name="afii10108" unicode="&#x45b;" horiz-adv-x="604" 
d="M531 303v-303h-94v264c0 87 -16 124 -32 144c-14 17 -41 34 -83 34s-77 -19 -100 -44c-45 -50 -48 -126 -48 -162v-236h-94v601h-75v54h75v107h94v-107h203v-54h-203v-164h2c15 22 37 43 67 59c29 15 59 22 97 22c41 0 102 -7 144 -56c41 -48 47 -112 47 -159z" />
    <glyph glyph-name="afii10109" unicode="&#x45c;" horiz-adv-x="555" 
d="M80 0v510h94v-224l205 224h128l-237 -243l266 -267h-133l-229 245v-245h-94zM233 610l78 130h120l-118 -130h-80z" />
    <glyph glyph-name="afii10110" unicode="&#x45e;" horiz-adv-x="490" 
d="M332 738l68 -8c-4 -89 -68 -132 -152 -132s-154 43 -158 132l71 8c7 -48 41 -72 87 -72s77 24 84 72zM35 -219v82s25 -11 45 -11c61 0 82 36 105 98l11 30l-191 530h103l139 -410h4l139 410h95l-194 -530c-55 -150 -91 -204 -201 -204c-30 0 -55 5 -55 5z" />
    <glyph glyph-name="afii10193" unicode="&#x45f;" horiz-adv-x="598" 
d="M424 510h94v-510h-174v-144h-90v144h-174v510h94v-434h250v434z" />
    <glyph glyph-name="afii10146" unicode="&#x462;" horiz-adv-x="654" 
d="M-5 550v88h175v92h100v-92h205v-88h-205v-110h100c170 0 250 -80 250 -220s-80 -220 -260 -220h-190v550h-175zM270 88h90c109 0 154 45 154 132s-45 132 -144 132h-100v-264z" />
    <glyph glyph-name="afii10194" unicode="&#x463;" horiz-adv-x="577" 
d="M-5 430v80h146v190h94v-190h170v-80h-170v-100h96c145 0 210 -65 210 -165s-65 -165 -210 -165h-190v430h-146zM235 76h96c81 0 116 35 116 89s-35 89 -116 89h-96v-178z" />
    <glyph glyph-name="afii10147" unicode="&#x472;" horiz-adv-x="778" 
d="M389 710c112 0 193 -40 250 -106c52 -59 86 -147 86 -254c0 -109 -36 -198 -86 -255c-44 -51 -122 -105 -250 -105s-206 54 -250 105c-50 57 -86 146 -86 255c0 107 34 195 86 254c57 66 138 106 250 106zM164 407h450c-6 45 -25 98 -54 135c-32 41 -89 80 -171 80
s-139 -39 -171 -80c-29 -37 -48 -90 -54 -135zM618 319h-458c5 -57 26 -119 58 -161c34 -44 87 -80 171 -80s137 36 171 80c32 42 53 104 58 161z" />
    <glyph glyph-name="afii10195" unicode="&#x473;" horiz-adv-x="610" 
d="M305 518c97 0 159 -42 193 -80c45 -50 66 -118 66 -183s-21 -133 -66 -183c-34 -38 -96 -80 -193 -80s-159 42 -193 80c-45 50 -66 118 -66 183s21 133 66 183c34 38 96 80 193 80zM150 300h310c-4 23 -14 55 -35 82c-31 41 -76 60 -120 60c-50 0 -94 -26 -120 -60
c-21 -27 -31 -59 -35 -82zM463 230h-316c3 -36 17 -74 38 -102c31 -41 76 -60 120 -60s89 19 120 60c21 28 35 66 38 102z" />
    <glyph glyph-name="afii10148" unicode="&#x474;" horiz-adv-x="730" 
d="M6 700h112l219 -612h2l180 510c19 54 55 112 149 112c22 0 38 -3 56 -10l-3 -87c-13 6 -25 8 -39 8c-23 0 -61 -6 -82 -64l-206 -557h-125z" />
    <glyph glyph-name="afii10196" unicode="&#x475;" horiz-adv-x="552" 
d="M11 510h103l138 -416h2l106 325c11 35 35 99 123 99c19 0 39 -3 58 -8l-12 -76c-11 4 -21 6 -29 6c-47 0 -58 -34 -66 -57l-132 -383h-108z" />
    <glyph glyph-name="afii10050" unicode="&#x490;" horiz-adv-x="475" 
d="M94 700h277v140h94v-228h-271v-612h-100v700z" />
    <glyph glyph-name="afii10098" unicode="&#x491;" horiz-adv-x="420" 
d="M80 510h245v120h90v-200h-241v-430h-94v510z" />
    <glyph glyph-name="uni0492" unicode="&#x492;" horiz-adv-x="475" 
d="M94 0v343h-68v64h68v293h371v-88h-271v-205h180v-64h-180v-343h-100z" />
    <glyph glyph-name="uni0493" unicode="&#x493;" horiz-adv-x="420" 
d="M80 510h335v-80h-241v-150h153v-54h-153v-226h-94v226h-75v54h75v230z" />
    <glyph glyph-name="uni0494" unicode="&#x494;" horiz-adv-x="654" 
d="M94 0v700h371v-88h-271v-208c49 33 106 54 170 54c152 0 230 -78 230 -238c0 -155 -75 -230 -210 -230c-29 0 -61 4 -90 13v82c24 -10 65 -14 90 -14c64 0 106 42 106 149c0 113 -45 158 -136 158c-56 0 -109 -19 -160 -55v-323h-100z" />
    <glyph glyph-name="uni0495" unicode="&#x495;" horiz-adv-x="500" 
d="M80 510h335v-80h-241v-133h39c48 0 115 -7 166 -48c60 -49 71 -119 71 -184c0 -32 -3 -64 -12 -94c-11 -36 -32 -71 -61 -96c-48 -43 -106 -55 -171 -55v76c7 0 13 0 20 1c30 3 64 13 89 44c14 17 23 38 28 59s7 43 7 65c0 25 -2 50 -10 74c-6 17 -14 32 -26 45
c-13 13 -29 23 -46 29c-18 6 -37 8 -57 8h-37v-221h-94v510z" />
    <glyph glyph-name="uni0496" unicode="&#x496;" horiz-adv-x="944" 
d="M515 700v-308h7l251 308h118l-273 -331l226 -281h80v-244h-98v156h-40l-264 343h-7v-343h-100v343h-7l-264 -343h-130l298 369l-273 331h118l251 -308h7v308h100z" />
    <glyph glyph-name="uni0497" unicode="&#x497;" horiz-adv-x="770" 
d="M425 510v-224h7l168 224h114l-193 -243l159 -191h78v-220h-90v144h-44l-192 245h-7v-245h-94v245h-7l-191 -245h-120l222 267l-193 243h114l168 -224h7v224h94z" />
    <glyph glyph-name="uni0498" unicode="&#x498;" horiz-adv-x="573" 
d="M208 -156v149c-90 9 -151 37 -151 37v94s90 -46 210 -46c100 0 144 44 144 123c0 74 -44 118 -144 118h-80v82h60c102 0 144 42 144 109c0 70 -42 112 -144 112c-90 0 -170 -41 -170 -41v94s80 35 170 35c170 0 250 -80 250 -190c0 -74 -37 -132 -124 -158
c102 -23 144 -85 144 -171c0 -102 -76 -186 -211 -199v-148h-98z" />
    <glyph glyph-name="uni0499" unicode="&#x499;" horiz-adv-x="482" 
d="M180 -144v138c-85 8 -140 37 -140 36v82s76 -44 186 -44c75 0 110 31 110 81c0 49 -30 79 -100 79h-87v74h67c70 0 100 30 100 69c0 45 -30 71 -100 71c-80 0 -153 -34 -153 -34v82s73 28 153 28c145 0 200 -55 200 -137c0 -52 -28 -91 -80 -113c65 -22 100 -68 100 -129
c0 -73 -56 -132 -166 -144v-139h-90z" />
    <glyph glyph-name="uni049A" unicode="&#x49a;" horiz-adv-x="668" 
d="M94 0v700h100v-308l298 308h133l-328 -331l271 -281h80v-244h-98v156h-44l-312 343v-343h-100z" />
    <glyph glyph-name="uni049B" unicode="&#x49b;" 
d="M80 0v510h94v-224l205 224h128l-237 -243l192 -191h76v-220h-90v144h-44l-230 245v-245h-94z" />
    <glyph glyph-name="uni049C" unicode="&#x49c;" horiz-adv-x="744" 
d="M94 0v700h100v-289h88v129h70v-129l234 289h122l-277 -331l297 -369h-130l-246 323v-143h-70v143h-88v-323h-100z" />
    <glyph glyph-name="uni049D" unicode="&#x49d;" horiz-adv-x="600" 
d="M80 510h94v-206h56v86h60v-86l167 206h110l-207 -243l230 -267h-120l-180 228v-88h-60v88h-56v-228h-94v510z" />
    <glyph glyph-name="uni04A0" unicode="&#x4a0;" horiz-adv-x="746" 
d="M-5 700h278v-308l298 308h133l-328 -331l354 -369h-146l-311 343v-343h-100v612h-178v88z" />
    <glyph glyph-name="uni04A1" unicode="&#x4a1;" horiz-adv-x="616" 
d="M-5 510h240v-224l205 224h128l-237 -243l266 -267h-133l-229 245v-245h-94v434h-146v76z" />
    <glyph glyph-name="uni04A2" unicode="&#x4a2;" horiz-adv-x="728" 
d="M94 0v700h100v-293h334v293h100v-612h80v-244h-98v156h-82v319h-334v-319h-100z" />
    <glyph glyph-name="uni04A3" unicode="&#x4a3;" horiz-adv-x="612" 
d="M174 510v-207h260v207h94v-434h72v-220h-90v144h-76v227h-260v-227h-94v510h94z" />
    <glyph glyph-name="uni04A4" unicode="&#x4a4;" horiz-adv-x="900" 
d="M94 700h100v-293h324v293h372v-88h-272v-612h-100v319h-324v-319h-100v700z" />
    <glyph glyph-name="uni04A5" unicode="&#x4a5;" horiz-adv-x="774" 
d="M174 510v-207h260v207h335v-80h-241v-430h-94v227h-260v-227h-94v510h94z" />
    <glyph glyph-name="uni04AA" unicode="&#x4aa;" horiz-adv-x="628" 
d="M344 -156v154c-183 29 -291 160 -291 352c0 213 145 358 370 358c90 0 160 -28 160 -28v-96s-70 36 -160 36c-161 0 -264 -103 -264 -270s103 -270 264 -270c90 0 160 31 160 31v-96s-61 -20 -141 -23v-148h-98z" />
    <glyph glyph-name="uni04AB" unicode="&#x4ab;" horiz-adv-x="454" 
d="M426 495v-82s-40 29 -110 29c-102 0 -170 -68 -170 -187s68 -187 170 -187c70 0 110 29 110 29v-82s-32 -18 -95 -22v-137h-90v143c-118 25 -195 122 -195 256c0 157 106 263 260 263c80 0 120 -23 120 -23z" />
    <glyph glyph-name="uni04AE" unicode="&#x4ae;" horiz-adv-x="667" 
d="M284 0v293l-273 407h117l208 -314l203 314h117l-272 -407v-293h-100z" />
    <glyph glyph-name="uni04AF" unicode="&#x4af;" horiz-adv-x="492" 
d="M110 510l140 -407h2l137 407h95l-191 -510v-224h-94v224l-192 510h103z" />
    <glyph glyph-name="uni04B0" unicode="&#x4b0;" horiz-adv-x="667" 
d="M284 0v229h-180v64h180l-273 407h117l208 -314l203 314h117l-272 -407h180v-64h-180v-229h-100z" />
    <glyph glyph-name="uni04B1" unicode="&#x4b1;" horiz-adv-x="492" 
d="M110 510l140 -407h2l137 407h95l-191 -510h140v-54h-140v-170h-94v170h-140v54h140l-192 510h103z" />
    <glyph glyph-name="uni04B2" unicode="&#x4b2;" horiz-adv-x="698" 
d="M8 0l257 364l-234 336h120l186 -269l185 269h114l-235 -334l197 -278h80v-244h-98v156h-46l-207 297l-199 -297h-120z" />
    <glyph glyph-name="uni04B3" unicode="&#x4b3;" horiz-adv-x="528" 
d="M10 0l184 267l-166 243h117l111 -182l113 182h105l-164 -243l128 -191h78v-220h-90v144h-52l-126 200l-126 -200h-112z" />
    <glyph glyph-name="uni04B6" unicode="&#x4b6;" horiz-adv-x="659" 
d="M50 700h100v-210c0 -30 -1 -72 35 -103c15 -13 33 -20 52 -24c20 -5 41 -6 62 -6c26 0 52 1 78 5c28 4 55 10 82 18v320h100v-612h80v-244h-98v156h-82v293c-76 -20 -139 -24 -178 -24c-122 0 -174 38 -197 67c-32 40 -34 92 -34 120v244z" />
    <glyph glyph-name="uni04B7" unicode="&#x4b7;" horiz-adv-x="540" 
d="M45 510h94v-150c0 -14 0 -26 3 -39c4 -15 12 -31 25 -41s30 -14 47 -16c12 -2 25 -2 37 -2c17 0 35 1 52 3c20 2 39 5 59 10v235h94v-434h72v-220h-90v144h-76v201c-20 -4 -40 -7 -60 -10c-24 -3 -49 -5 -73 -5c-43 0 -97 6 -136 38c-44 36 -48 82 -48 108v178z" />
    <glyph glyph-name="uni04B8" unicode="&#x4b8;" horiz-adv-x="653" 
d="M50 700h100v-210c0 -30 -1 -73 35 -103c15 -13 33 -20 52 -24c13 -3 26 -5 39 -5v122h70v-122c36 3 74 9 113 22v320h100v-700h-100v293c-21 -6 -43 -10 -65 -14c-16 -3 -32 -5 -48 -6v-123h-70v123c-64 -2 -148 14 -190 63c-35 40 -36 92 -36 120v244z" />
    <glyph glyph-name="uni04B9" unicode="&#x4b9;" horiz-adv-x="536" 
d="M362 0v201c-26 -7 -53 -11 -80 -13v-88h-60v88c-20 -1 -40 2 -59 6c-25 5 -50 14 -70 30s-35 38 -42 62c-4 15 -6 30 -6 46v178h94v-150c0 -14 0 -26 3 -39c4 -15 12 -31 25 -41c9 -7 19 -11 30 -14c8 -2 16 -3 25 -3v97h60v-97c26 1 53 5 80 12v235h94v-510h-94z" />
    <glyph glyph-name="uni04BA" unicode="&#x4ba;" horiz-adv-x="671" 
d="M94 0v700h100v-296c31 17 54 26 82 35c39 13 63 19 109 19c39 0 100 -4 146 -41c53 -42 60 -98 60 -143v-274h-100v246c0 40 -1 73 -32 101c-22 20 -56 31 -95 31c-37 0 -65 -9 -93 -19c-25 -9 -47 -18 -77 -36v-323h-100z" />
    <glyph glyph-name="uni04BB" unicode="&#x4bb;" horiz-adv-x="603" 
d="M80 0v760h94v-323h2c37 54 96 81 164 81c120 0 190 -70 190 -218v-300h-94v270c0 132 -40 172 -116 172c-82 0 -146 -65 -146 -202v-240h-94z" />
    <glyph glyph-name="uni04C0" unicode="&#x4c0;" horiz-adv-x="288" 
d="M94 0v700h100v-700h-100z" />
    <glyph glyph-name="uni04C3" unicode="&#x4c3;" horiz-adv-x="660" 
d="M94 0v700h100v-308l297 308h133l-305 -309c58 2 151 -12 208 -51c83 -56 97 -146 97 -227c0 -48 -6 -161 -91 -240c-65 -60 -151 -74 -213 -73v88c11 0 54 2 89 16c23 9 45 25 61 44c31 37 48 95 48 165c0 48 -7 106 -52 146c-44 39 -106 44 -153 44h-119v-303h-100z" />
    <glyph glyph-name="uni04C4" unicode="&#x4c4;" 
d="M80 0v510h94v-224l205 224h128l-210 -213c23 0 45 -4 66 -10c27 -8 54 -20 76 -38s40 -41 51 -67c16 -36 20 -77 20 -117c0 -32 -3 -64 -12 -94c-11 -36 -32 -71 -61 -96c-23 -21 -51 -36 -81 -44c-21 -6 -42 -9 -64 -10c-9 -1 -17 -1 -26 -1v76c18 0 43 3 65 12
c17 7 32 19 44 33c31 38 35 91 35 124c0 37 -5 87 -36 119c-32 33 -83 37 -113 37h-87v-221h-94z" />
    <glyph glyph-name="uni04C7" unicode="&#x4c7;" horiz-adv-x="722" 
d="M94 0v700h100v-293h334v293h100v-690c0 -57 -5 -120 -55 -165c-33 -29 -83 -45 -144 -45c-40 0 -65 7 -78 12v86c31 -9 52 -10 66 -10c18 0 37 3 54 10c12 5 23 12 31 22c11 13 18 29 22 45c3 15 4 29 4 45v309h-334v-319h-100z" />
    <glyph glyph-name="uni04C8" unicode="&#x4c8;" horiz-adv-x="608" 
d="M174 510v-207h260v207h94v-520c0 -150 -40 -190 -159 -190c-16 0 -40 5 -40 5v80s15 -4 35 -4c45 0 70 25 70 109v237h-260v-227h-94v510h94z" />
    <glyph glyph-name="uni04CF" unicode="&#x4cf;" horiz-adv-x="254" 
d="M80 0v700h94v-700h-94z" />
    <glyph glyph-name="uni04D0" unicode="&#x4d0;" horiz-adv-x="684" 
d="M12 0l277 700h106l277 -700h-110l-67 180h-310l-67 -180h-106zM215 260h250l-123 335h-2zM342 750c-91 0 -160 43 -165 132l75 8c5 -48 37 -70 90 -70s85 22 90 70l75 -8c-5 -89 -74 -132 -165 -132z" />
    <glyph glyph-name="uni04D1" unicode="&#x4d1;" horiz-adv-x="556" 
d="M224 -8c-115 0 -178 61 -178 153c0 100 70 170 270 170h66v25c0 67 -35 102 -106 102c-60 0 -111 -12 -171 -50v82c55 31 121 44 171 44c140 0 200 -60 200 -208v-310h-84v70h-2c-42 -58 -108 -78 -166 -78zM246 68c79 0 136 55 136 132v45h-66
c-130 0 -170 -40 -170 -100c0 -44 33 -77 100 -77zM365 738l68 -8c-4 -89 -68 -132 -152 -132s-154 43 -158 132l71 8c7 -48 41 -72 87 -72s77 24 84 72z" />
    <glyph glyph-name="uni04D2" unicode="&#x4d2;" horiz-adv-x="684" 
d="M12 0l277 700h106l277 -700h-110l-67 180h-310l-67 -180h-106zM215 260h250l-123 335h-2zM182 750v100h106v-100h-106zM396 750v100h106v-100h-106z" />
    <glyph glyph-name="uni04D3" unicode="&#x4d3;" horiz-adv-x="556" 
d="M224 -8c-115 0 -178 61 -178 153c0 100 70 170 270 170h66v25c0 67 -35 102 -106 102c-60 0 -111 -12 -171 -50v82c55 31 121 44 171 44c140 0 200 -60 200 -208v-310h-84v70h-2c-42 -58 -108 -78 -166 -78zM246 68c79 0 136 55 136 132v45h-66
c-130 0 -170 -40 -170 -100c0 -44 33 -77 100 -77zM148 620v100h94v-100h-94zM314 620v100h94v-100h-94z" />
    <glyph glyph-name="uni04D4" unicode="&#x4d4;" horiz-adv-x="944" 
d="M2 0l422 700h439v-88h-277l13 -206h246v-88h-241l14 -230h255v-88h-347l-11 176h-297l-105 -176h-111zM510 258l-22 370h-2l-220 -370h244z" />
    <glyph glyph-name="uni04D5" unicode="&#x4d5;" horiz-adv-x="889" 
d="M103 392l-1 78c44 27 103 48 169 48c68 0 141 -25 176 -88c41 61 104 88 176 88c173 0 225 -137 225 -279h-361c0 -102 70 -172 167 -172c50 0 105 24 141 52v-93c-44 -20 -96 -34 -146 -34c-96 0 -179 31 -220 122h-2c-37 -84 -117 -122 -196 -122
c-122 0 -190 68 -190 153c0 94 70 162 260 164l92 1c0 98 -64 133 -144 133c-49 0 -107 -23 -146 -51zM141 145c0 -53 48 -78 90 -78c104 0 162 58 162 173h-92c-120 0 -160 -40 -160 -95zM487 308h261c-2 86 -54 134 -125 134c-82 0 -133 -61 -136 -134z" />
    <glyph glyph-name="uni04D6" unicode="&#x4d6;" horiz-adv-x="554" 
d="M94 0v700h391v-88h-291v-205h265v-88h-265v-231h291v-88h-391zM276 750c-91 0 -160 43 -165 132l75 8c5 -48 37 -70 90 -70s85 22 90 70l75 -8c-5 -89 -74 -132 -165 -132z" />
    <glyph glyph-name="uni04D7" unicode="&#x4d7;" horiz-adv-x="552" 
d="M306 -8c-160 0 -260 100 -260 265c0 161 100 261 230 261c145 0 230 -85 230 -258v-26h-360c7 -97 65 -166 170 -166c60 0 117 24 155 51v-94c-32 -15 -75 -33 -165 -33zM276 442c-70 0 -130 -60 -130 -138h260c0 88 -50 138 -130 138zM365 738l68 -8
c-4 -89 -68 -132 -152 -132s-154 43 -158 132l71 8c7 -48 41 -72 87 -72s77 24 84 72z" />
    <glyph glyph-name="uni04D8" unicode="&#x4d8;" horiz-adv-x="666" 
d="M53 375h454c0 11 0 103 -54 170c-35 43 -92 77 -164 77c-70 0 -138 -32 -188 -70v113l17 7c41 17 85 38 179 38c77 0 167 -15 237 -100c66 -80 79 -185 79 -263c0 -86 -15 -197 -94 -278c-47 -48 -110 -79 -191 -79s-153 26 -206 99c-44 60 -69 149 -69 253v33zM507 287
h-344c0 -48 14 -103 40 -141c21 -31 62 -68 131 -68c44 0 94 17 132 76c24 37 38 88 41 133z" />
    <glyph glyph-name="afii10846" unicode="&#x4d9;" horiz-adv-x="556" 
d="M46 276h364c-1 45 -18 86 -43 113c-27 30 -71 53 -128 53c-54 0 -116 -24 -154 -51v94l14 5c28 10 63 28 147 28c62 0 140 -11 198 -73c31 -33 66 -94 66 -192c0 -108 -42 -170 -79 -203c-31 -28 -82 -58 -160 -58c-89 0 -140 36 -169 72c-38 47 -56 120 -56 185v27z
M410 206h-264c-1 -36 11 -69 29 -92c16 -20 47 -46 101 -46c48 0 81 23 102 51c18 25 29 57 32 87z" />
    <glyph glyph-name="uni04DA" unicode="&#x4da;" horiz-adv-x="666" 
d="M53 375h454c0 11 0 103 -54 170c-35 43 -92 77 -164 77c-70 0 -138 -32 -188 -70v113l17 7c41 17 85 38 179 38c77 0 167 -15 237 -100c66 -80 79 -185 79 -263c0 -86 -15 -197 -94 -278c-47 -48 -110 -79 -191 -79s-153 26 -206 99c-44 60 -69 149 -69 253v33zM507 287
h-344c0 -48 14 -103 40 -141c21 -31 62 -68 131 -68c44 0 94 17 132 76c24 37 38 88 41 133zM171 750v100h106v-100h-106zM385 750v100h106v-100h-106z" />
    <glyph glyph-name="uni04DB" unicode="&#x4db;" horiz-adv-x="556" 
d="M46 276h364c-1 45 -18 86 -43 113c-27 30 -71 53 -128 53c-54 0 -116 -24 -154 -51v94l14 5c28 10 63 28 147 28c62 0 140 -11 198 -73c31 -33 66 -94 66 -192c0 -108 -42 -170 -79 -203c-31 -28 -82 -58 -160 -58c-89 0 -140 36 -169 72c-38 47 -56 120 -56 185v27z
M410 206h-264c-1 -36 11 -69 29 -92c16 -20 47 -46 101 -46c48 0 81 23 102 51c18 25 29 57 32 87zM149 620v100h94v-100h-94zM315 620v100h94v-100h-94z" />
    <glyph glyph-name="uni04DC" unicode="&#x4dc;" horiz-adv-x="932" 
d="M515 700v-308h7l251 308h118l-273 -331l298 -369h-130l-264 343h-7v-343h-100v343h-7l-264 -343h-130l298 369l-273 331h118l251 -308h7v308h100zM304 750v100h106v-100h-106zM518 750v100h106v-100h-106z" />
    <glyph glyph-name="uni04DD" unicode="&#x4dd;" horiz-adv-x="756" 
d="M425 510v-224h7l168 224h114l-193 -243l222 -267h-120l-191 245h-7v-245h-94v245h-7l-191 -245h-120l222 267l-193 243h114l168 -224h7v224h94zM249 620v100h94v-100h-94zM415 620v100h94v-100h-94z" />
    <glyph glyph-name="uni04DE" unicode="&#x4de;" horiz-adv-x="573" 
d="M267 -10c-120 0 -210 40 -210 40v94s90 -46 210 -46c100 0 144 44 144 123c0 74 -44 118 -144 118h-80v82h60c102 0 144 42 144 109c0 70 -42 112 -144 112c-90 0 -170 -41 -170 -41v94s80 35 170 35c170 0 250 -80 250 -190c0 -74 -37 -132 -124 -158
c102 -23 144 -85 144 -171c0 -111 -90 -201 -250 -201zM125 750v100h106v-100h-106zM339 750v100h106v-100h-106z" />
    <glyph glyph-name="uni04DF" unicode="&#x4df;" horiz-adv-x="482" 
d="M226 -8c-110 0 -186 39 -186 38v82s76 -44 186 -44c75 0 110 31 110 81c0 49 -30 79 -100 79h-87v74h67c70 0 100 30 100 69c0 45 -30 71 -100 71c-80 0 -153 -34 -153 -34v82s73 28 153 28c145 0 200 -55 200 -137c0 -52 -28 -91 -80 -113c65 -22 100 -68 100 -129
c0 -82 -70 -147 -210 -147zM111 620v100h94v-100h-94zM277 620v100h94v-100h-94z" />
    <glyph glyph-name="uni04E2" unicode="&#x4e2;" horiz-adv-x="738" 
d="M94 0v700h100v-570h2l322 570h126v-700h-100v570h-2l-322 -570h-126zM209 840h320v-70h-320v70z" />
    <glyph glyph-name="uni04E3" unicode="&#x4e3;" horiz-adv-x="622" 
d="M199 0h-119v510h94v-400h2l247 400h119v-510h-94v400h-2zM161 655v70h300v-70h-300z" />
    <glyph glyph-name="uni04E4" unicode="&#x4e4;" horiz-adv-x="738" 
d="M94 0v700h100v-570h2l322 570h126v-700h-100v570h-2l-322 -570h-126zM209 750v100h106v-100h-106zM423 750v100h106v-100h-106z" />
    <glyph glyph-name="uni04E5" unicode="&#x4e5;" horiz-adv-x="622" 
d="M199 0h-119v510h94v-400h2l247 400h119v-510h-94v400h-2zM181 620v100h94v-100h-94zM347 620v100h94v-100h-94z" />
    <glyph glyph-name="uni04E6" unicode="&#x4e6;" horiz-adv-x="778" 
d="M389 710c112 0 193 -40 250 -106c52 -59 86 -147 86 -254c0 -109 -36 -198 -86 -255c-44 -51 -122 -105 -250 -105s-206 54 -250 105c-50 57 -86 146 -86 255c0 107 34 195 86 254c57 66 138 106 250 106zM389 622c-82 0 -139 -39 -171 -80c-36 -46 -59 -120 -59 -192
c0 -59 16 -137 59 -192c34 -44 87 -80 171 -80s137 36 171 80c43 55 59 133 59 192c0 72 -23 146 -59 192c-32 41 -89 80 -171 80zM227 750v100h106v-100h-106zM441 750v100h106v-100h-106z" />
    <glyph glyph-name="uni04E7" unicode="&#x4e7;" horiz-adv-x="612" 
d="M306 -8c-153 0 -260 107 -260 263s107 263 260 263s260 -107 260 -263s-107 -263 -260 -263zM306 68c87 0 160 73 160 187s-74 187 -160 187c-87 0 -160 -73 -160 -187s73 -187 160 -187zM176 620v100h94v-100h-94zM342 620v100h94v-100h-94z" />
    <glyph glyph-name="uni04E8" unicode="&#x4e8;" horiz-adv-x="778" 
d="M389 710c112 0 193 -40 250 -106c52 -59 86 -147 86 -254c0 -109 -36 -198 -86 -255c-44 -51 -122 -105 -250 -105s-206 54 -250 105c-50 57 -86 146 -86 255c0 107 34 195 86 254c57 66 138 106 250 106zM164 407h450c-6 45 -25 98 -54 135c-32 41 -89 80 -171 80
s-139 -39 -171 -80c-29 -37 -48 -90 -54 -135zM618 319h-458c5 -57 26 -119 58 -161c34 -44 87 -80 171 -80s137 36 171 80c32 42 53 104 58 161z" />
    <glyph glyph-name="uni04E9" unicode="&#x4e9;" horiz-adv-x="610" 
d="M305 518c97 0 159 -42 193 -80c45 -50 66 -118 66 -183s-21 -133 -66 -183c-34 -38 -96 -80 -193 -80s-159 42 -193 80c-45 50 -66 118 -66 183s21 133 66 183c34 38 96 80 193 80zM150 300h310c-4 23 -14 55 -35 82c-31 41 -76 60 -120 60c-50 0 -94 -26 -120 -60
c-21 -27 -31 -59 -35 -82zM463 230h-316c3 -36 17 -74 38 -102c31 -41 76 -60 120 -60s89 19 120 60c21 28 35 66 38 102z" />
    <glyph glyph-name="uni04EA" unicode="&#x4ea;" horiz-adv-x="778" 
d="M389 710c112 0 193 -40 250 -106c52 -59 86 -147 86 -254c0 -109 -36 -198 -86 -255c-44 -51 -122 -105 -250 -105s-206 54 -250 105c-50 57 -86 146 -86 255c0 107 34 195 86 254c57 66 138 106 250 106zM164 407h450c-6 45 -25 98 -54 135c-32 41 -89 80 -171 80
s-139 -39 -171 -80c-29 -37 -48 -90 -54 -135zM618 319h-458c5 -57 26 -119 58 -161c34 -44 87 -80 171 -80s137 36 171 80c32 42 53 104 58 161zM227 750v100h106v-100h-106zM441 750v100h106v-100h-106z" />
    <glyph glyph-name="uni04EB" unicode="&#x4eb;" horiz-adv-x="610" 
d="M305 518c97 0 159 -42 193 -80c45 -50 66 -118 66 -183s-21 -133 -66 -183c-34 -38 -96 -80 -193 -80s-159 42 -193 80c-45 50 -66 118 -66 183s21 133 66 183c34 38 96 80 193 80zM150 300h310c-4 23 -14 55 -35 82c-31 41 -76 60 -120 60c-50 0 -94 -26 -120 -60
c-21 -27 -31 -59 -35 -82zM463 230h-316c3 -36 17 -74 38 -102c31 -41 76 -60 120 -60s89 19 120 60c21 28 35 66 38 102zM176 620v100h94v-100h-94zM342 620v100h94v-100h-94z" />
    <glyph glyph-name="uni04EE" unicode="&#x4ee;" horiz-adv-x="576" 
d="M165 -10c-40 0 -80 14 -80 14v98s30 -20 70 -20c41 0 58 13 77 54l25 55l-247 509h113l185 -390h4l171 390h97l-264 -595c-32 -72 -68 -115 -151 -115zM135 840h320v-70h-320v70z" />
    <glyph glyph-name="uni04EF" unicode="&#x4ef;" horiz-adv-x="490" 
d="M95 655v70h300v-70h-300zM35 -219v82s25 -11 45 -11c61 0 82 36 105 98l11 30l-191 530h103l139 -410h4l139 410h95l-194 -530c-55 -150 -91 -204 -201 -204c-30 0 -55 5 -55 5z" />
    <glyph glyph-name="uni04F0" unicode="&#x4f0;" horiz-adv-x="576" 
d="M165 -10c-40 0 -80 14 -80 14v98s30 -20 70 -20c41 0 58 13 77 54l25 55l-247 509h113l185 -390h4l171 390h97l-264 -595c-32 -72 -68 -115 -151 -115zM135 750v100h106v-100h-106zM349 750v100h106v-100h-106z" />
    <glyph glyph-name="uni04F1" unicode="&#x4f1;" horiz-adv-x="490" 
d="M115 620v100h94v-100h-94zM281 620v100h94v-100h-94zM35 -219v82s25 -11 45 -11c61 0 82 36 105 98l11 30l-191 530h103l139 -410h4l139 410h95l-194 -530c-55 -150 -91 -204 -201 -204c-30 0 -55 5 -55 5z" />
    <glyph glyph-name="uni04F2" unicode="&#x4f2;" horiz-adv-x="576" 
d="M165 -10c-40 0 -80 14 -80 14v98s30 -20 70 -20c41 0 58 13 77 54l25 55l-247 509h113l185 -390h4l171 390h97l-264 -595c-32 -72 -68 -115 -151 -115zM264 870h120l-130 -120h-76zM422 870h120l-130 -120h-76z" />
    <glyph glyph-name="uni04F3" unicode="&#x4f3;" horiz-adv-x="490" 
d="M120 610l88 130h110l-128 -130h-70zM301 610l88 130h110l-128 -130h-70zM35 -219v82s25 -11 45 -11c61 0 82 36 105 98l11 30l-191 530h103l139 -410h4l139 410h95l-194 -530c-55 -150 -91 -204 -201 -204c-30 0 -55 5 -55 5z" />
    <glyph glyph-name="uni04F4" unicode="&#x4f4;" horiz-adv-x="653" 
d="M459 0v293c-76 -20 -139 -24 -178 -24c-122 0 -174 38 -197 67c-32 40 -34 92 -34 120v244h100v-210c0 -30 -1 -72 35 -103c31 -27 82 -30 114 -30c51 0 104 6 160 23v320h100v-700h-100zM144 750v100h106v-100h-106zM358 750v100h106v-100h-106z" />
    <glyph glyph-name="uni04F5" unicode="&#x4f5;" horiz-adv-x="536" 
d="M362 0v201c-13 -3 -71 -15 -133 -15c-43 0 -97 6 -136 38c-44 36 -48 82 -48 108v178h94v-150c0 -24 1 -59 28 -80c13 -10 35 -18 84 -18c51 0 93 9 111 13v235h94v-510h-94zM120 620v100h94v-100h-94zM286 620v100h94v-100h-94z" />
    <glyph glyph-name="uni04F8" unicode="&#x4f8;" horiz-adv-x="831" 
d="M637 0v700h100v-700h-100zM194 88h100c99 0 144 45 144 132s-45 132 -144 132h-100v-264zM94 0v700h100v-260h100c170 0 250 -80 250 -220s-80 -220 -250 -220h-200zM255 750v100h106v-100h-106zM469 750v100h106v-100h-106z" />
    <glyph glyph-name="uni04F9" unicode="&#x4f9;" horiz-adv-x="742" 
d="M80 510h94v-180h96c145 0 210 -65 210 -165s-65 -165 -210 -165h-190v510zM174 254v-178h96c79 0 114 35 114 89s-35 89 -114 89h-96zM568 0v510h94v-510h-94zM241 620v100h94v-100h-94zM407 620v100h94v-100h-94z" />
    <glyph glyph-name="uni1E9E" unicode="&#x1e9e;" horiz-adv-x="674" 
d="M94 0v480c0 148 82 230 240 230c64 0 159 -14 240 -85l-149 -203c139 -15 193 -91 193 -207c0 -125 -100 -225 -244 -225c-38 0 -72 7 -100 16v88c36 -14 68 -16 100 -16c83 0 138 55 138 137c0 87 -48 135 -182 135h-30v49l142 197c-32 19 -65 26 -108 26
c-95 0 -140 -45 -140 -142v-480h-100z" />
    <glyph glyph-name="uni2010" unicode="&#x2010;" horiz-adv-x="420" 
d="M50 256v88h300v-88h-300z" />
    <glyph glyph-name="uni2011" unicode="&#x2011;" horiz-adv-x="420" 
d="M50 256v88h300v-88h-300z" />
    <glyph glyph-name="figuredash" unicode="&#x2012;" 
d="M25 316v88h500v-88h-500z" />
    <glyph glyph-name="endash" unicode="&#x2013;" horiz-adv-x="600" 
d="M50 256v88h500v-88h-500z" />
    <glyph glyph-name="emdash" unicode="&#x2014;" horiz-adv-x="900" 
d="M50 256v88h800v-88h-800z" />
    <glyph glyph-name="afii00208" unicode="&#x2015;" horiz-adv-x="920" 
d="M60 256v88h800v-88h-800z" />
    <glyph glyph-name="quoteleft" unicode="&#x2018;" horiz-adv-x="278" 
d="M226 700l-62 -246h-112l86 246h88z" />
    <glyph glyph-name="quoteright" unicode="&#x2019;" horiz-adv-x="278" 
d="M52 454l62 246h112l-88 -246h-86z" />
    <glyph glyph-name="quotesinglbase" unicode="&#x201a;" horiz-adv-x="278" 
d="M52 -133l63 245h111l-85 -245h-89z" />
    <glyph glyph-name="quotedblleft" unicode="&#x201c;" horiz-adv-x="556" 
d="M270 700l-62 -246h-112l86 246h88zM460 700l-64 -246h-110l84 246h90z" />
    <glyph glyph-name="quotedblright" unicode="&#x201d;" horiz-adv-x="556" 
d="M96 454l63 246h111l-85 -246h-89zM286 454l63 246h111l-85 -246h-89z" />
    <glyph glyph-name="quotedblbase" unicode="&#x201e;" horiz-adv-x="556" 
d="M96 -133l63 245h111l-85 -245h-89zM286 -133l63 245h111l-85 -245h-89z" />
    <glyph glyph-name="dagger" unicode="&#x2020;" horiz-adv-x="650" 
d="M70 422v88h205v190h100v-190h205v-88h-205v-562h-100v562h-205z" />
    <glyph glyph-name="daggerdbl" unicode="&#x2021;" horiz-adv-x="650" 
d="M70 422v88h205v190h100v-190h205v-88h-205v-284h205v-88h-205v-190h-100v190h-205v88h205v284h-205z" />
    <glyph glyph-name="bullet" unicode="&#x2022;" horiz-adv-x="500" 
d="M76 300c0 97 77 174 174 174c98 0 175 -77 175 -174c0 -98 -77 -175 -175 -175c-97 0 -174 77 -174 175z" />
    <glyph glyph-name="ellipsis" unicode="&#x2026;" horiz-adv-x="1000" 
d="M111 0v112h112v-112h-112zM444 0v112h112v-112h-112zM777 0v112h112v-112h-112z" />
    <glyph glyph-name="perthousand" unicode="&#x2030;" horiz-adv-x="1200" 
d="M965 -10c-108 0 -163 63 -163 171c0 104 57 171 163 171c110 0 165 -63 165 -171c0 -103 -59 -171 -165 -171zM965 50c60 0 90 33 90 111c0 77 -28 111 -90 111c-55 0 -88 -34 -88 -111c0 -79 35 -111 88 -111zM235 366c-102 0 -165 63 -165 171s63 171 165 171
s165 -63 165 -171s-63 -171 -165 -171zM235 426c56 0 90 34 90 111s-34 111 -90 111s-90 -34 -90 -111s34 -111 90 -111zM130 0l488 700h72l-488 -700h-72zM585 -8c-102 0 -165 63 -165 171s63 171 165 171s165 -63 165 -171s-63 -171 -165 -171zM585 52c56 0 90 34 90 111
s-34 111 -90 111s-90 -34 -90 -111s34 -111 90 -111z" />
    <glyph glyph-name="guilsinglleft" unicode="&#x2039;" horiz-adv-x="354" 
d="M194 97l-143 202l143 202h88l-130 -202l130 -202h-88z" />
    <glyph glyph-name="guilsinglright" unicode="&#x203a;" horiz-adv-x="354" 
d="M72 97l130 202l-130 202h88l143 -202l-143 -202h-88z" />
    <glyph glyph-name="fraction" unicode="&#x2044;" horiz-adv-x="170" 
d="M-195 0l488 700h72l-488 -700h-72z" />
    <glyph glyph-name="uni2074" unicode="&#x2074;" horiz-adv-x="362" 
d="M87 431h130v199h-2zM217 278v83h-212v61l184 278h116v-269h52v-70h-52v-83h-88z" />
    <glyph glyph-name="Euro" unicode="&#x20ac;" 
d="M-10 395l14 58h53c37 160 162 257 329 257c97 0 154 -36 154 -36l-20 -89s-52 37 -134 37c-102 0 -186 -62 -219 -169h323l-14 -58h-322c-1 -15 -2 -30 -2 -45c0 -12 0 -23 1 -33h305l-14 -58h-281c31 -114 119 -181 233 -181c77 0 133 33 133 33v-96s-56 -25 -133 -25
c-180 0 -308 102 -342 269h-64l14 58h43c-1 11 -1 22 -1 33c0 15 0 30 2 45h-58z" />
    <glyph glyph-name="uni20B4" unicode="&#x20b4;" horiz-adv-x="553" 
d="M108 685c64 20 124 25 169 25c175 0 204 -86 204 -149c0 -22 -6 -44 -15 -63c-8 -17 -18 -31 -32 -45h82v-58h-143l-93 -78h236v-58h-293c-33 -31 -42 -69 -42 -97c0 -59 62 -84 117 -84c51 0 117 15 165 33l10 -92c-70 -23 -131 -29 -173 -29c-160 0 -225 77 -225 161
c0 52 22 86 42 108h-77v58h120l93 78h-213v58h278c51 39 57 73 57 91c0 15 -3 30 -11 42c-22 33 -69 36 -101 36c-18 0 -37 -1 -55 -4c-11 -2 -46 -8 -86 -25z" />
    <glyph glyph-name="uni20B8" unicode="&#x20b8;" 
d="M225 0v494h-188v68h476v-68h-188v-494h-100zM37 632v68h476v-68h-476z" />
    <glyph glyph-name="uni20BD" unicode="&#x20bd;" 
d="M199 612v-244h88c38 0 82 12 106 35c16 15 34 42 34 86c0 37 -11 71 -45 95c-29 20 -71 28 -109 28h-74zM99 0v162h-80v68h80v70h-80v68h80v332h172c51 0 131 -5 188 -49c22 -17 41 -40 52 -66s16 -54 16 -82c0 -61 -25 -116 -62 -149c-60 -53 -161 -54 -179 -54h-87v-70
h140v-68h-140v-162h-100z" />
    <glyph glyph-name="afii61352" unicode="&#x2116;" horiz-adv-x="1000" 
d="M88 0v700h129l292 -564h2v564h95v-700h-121l-300 576h-2v-576h-95zM673 457c0 49 14 86 34 111s52 45 101 45s81 -19 102 -45c28 -33 34 -73 34 -111c0 -39 -6 -77 -34 -111c-26 -32 -60 -46 -102 -46c-43 0 -75 14 -101 46c-27 34 -34 72 -34 111zM745 457
c0 -24 0 -54 13 -79s32 -32 50 -32c24 0 42 14 51 32c11 21 13 60 13 79c0 21 -1 55 -13 78s-29 32 -51 32s-39 -10 -50 -32c-13 -24 -13 -51 -13 -78zM683 135v60h255v-60h-255z" />
    <glyph glyph-name="uni2117" unicode="&#x2117;" horiz-adv-x="879" 
d="M440 -10c-199 0 -360 164 -360 360c0 199 161 360 360 360s359 -161 359 -360c0 -195 -161 -360 -359 -360zM440 56c163 0 294 131 294 294s-132 295 -294 295c-161 0 -295 -132 -295 -295s133 -294 295 -294zM402 355h47c55 0 75 21 75 68s-20 67 -81 67h-41v-135z
M330 152v396h113c117 0 157 -40 157 -125s-40 -125 -151 -125h-47v-146h-72z" />
    <glyph glyph-name="trademark" unicode="&#x2122;" horiz-adv-x="960" 
d="M178 283v347h-128v70h332v-70h-128v-347h-76zM476 283v417h122l96 -228l97 228h119v-417h-76v360h-1l-102 -241h-76l-102 241h-1v-360h-76z" />
    <glyph glyph-name="Omega" unicode="&#x2126;" horiz-adv-x="761" 
d="M424 0v164c56 8 97 38 121 66c29 34 51 86 51 164c0 60 -13 116 -56 163c-40 44 -93 65 -159 65c-69 0 -116 -23 -147 -51c-59 -52 -68 -121 -68 -177c0 -42 4 -110 50 -164c24 -28 65 -58 122 -66v-164h-272l-12 147l79 5l6 -72h116v44c-54 13 -95 41 -125 75
c-25 28 -70 91 -70 199c0 88 25 171 99 237c69 62 140 75 222 75c86 0 156 -16 222 -75c55 -49 99 -125 99 -237c0 -82 -29 -151 -71 -199c-41 -47 -86 -66 -125 -75v-44h117l5 72l80 -5l-13 -147h-271z" />
    <glyph glyph-name="partialdiff" unicode="&#x2202;" 
d="M115 255c0 -43 12 -92 35 -125c25 -37 70 -66 127 -66c55 0 95 28 119 61c24 34 38 86 38 130c0 54 -18 103 -45 136c-33 40 -76 55 -114 55c-30 0 -73 -9 -109 -49c-23 -25 -51 -71 -51 -142zM82 709l72 53c49 -19 122 -53 184 -102c65 -52 108 -113 138 -169
c40 -75 58 -149 58 -228c0 -77 -23 -141 -66 -191c-59 -68 -133 -84 -193 -84c-103 0 -163 48 -199 92c-28 35 -61 90 -61 175c0 64 17 138 78 197c54 52 120 70 178 70c60 0 94 -23 108 -33c-25 44 -62 88 -149 145c-51 33 -85 49 -148 75z" />
    <glyph glyph-name="Delta" unicode="&#x2206;" horiz-adv-x="712" 
d="M12 0l293 700h105l290 -700h-688zM559 82l-205 524l-204 -524h409z" />
    <glyph glyph-name="product" unicode="&#x220f;" horiz-adv-x="724" 
d="M46 -210v88h54v734h-54v88h632v-88h-57v-734h57v-88h-211v88h54v734h-321v-734h54v-88h-208z" />
    <glyph glyph-name="summation" unicode="&#x2211;" horiz-adv-x="573" 
d="M45 -210v90l253 388l-253 342v90h465v-88h-350l254 -343l-253 -391h367v-88h-483z" />
    <glyph glyph-name="minus" unicode="&#x2212;" 
d="M50 306v88h450v-88h-450z" />
    <glyph glyph-name="uni2215" unicode="&#x2215;" 
d="M25 0l398 700h102l-398 -700h-102z" />
    <glyph glyph-name="uni2219" unicode="&#x2219;" horiz-adv-x="278" 
d="M83 247v112h112v-112h-112z" />
    <glyph glyph-name="radical" unicode="&#x221a;" horiz-adv-x="645" 
d="M20 500h158l124 -435l115 764h170v-60h-101l-141 -869h-95l-158 533h-72v67z" />
    <glyph glyph-name="infinity" unicode="&#x221e;" horiz-adv-x="700" 
d="M352 317c-12 -18 -32 -43 -55 -64c-29 -26 -66 -50 -120 -50c-45 0 -83 18 -108 42c-27 27 -44 66 -44 113c0 54 20 93 52 119c31 25 66 34 97 34c57 0 96 -26 122 -50c15 -14 34 -34 52 -64c13 22 33 49 56 68c29 25 73 46 120 46c44 0 88 -16 118 -54
c20 -25 33 -61 33 -101c0 -42 -14 -78 -36 -103c-27 -31 -70 -50 -116 -50c-54 0 -95 25 -124 54c-18 17 -34 39 -47 60zM380 357c35 -48 69 -100 133 -100c23 0 50 8 70 31c19 21 24 44 24 69c0 36 -10 57 -29 74c-22 20 -47 26 -66 26c-62 0 -96 -50 -132 -100zM320 357
c-11 15 -30 39 -43 54c-21 23 -46 46 -90 46c-26 0 -47 -10 -63 -24c-23 -21 -31 -48 -31 -79c0 -34 12 -55 24 -68c16 -17 43 -29 71 -29c39 0 67 20 89 44c17 18 36 46 43 56z" />
    <glyph glyph-name="integral" unicode="&#x222b;" 
d="M228 39v622c0 142 55 197 170 197c40 0 70 -8 70 -8v-76s-25 8 -60 8c-58 0 -86 -28 -86 -121v-622c0 -142 -55 -197 -170 -197c-40 0 -70 8 -70 8v76s25 -8 60 -8c58 0 86 28 86 121z" />
    <glyph glyph-name="approxequal" unicode="&#x2248;" 
d="M470 336l36 -70c-20 -42 -58 -85 -125 -85c-27 0 -53 6 -111 31l-25 11c-31 14 -54 26 -77 26c-42 0 -73 -46 -88 -73l-36 70c20 42 58 85 125 85c27 0 53 -6 111 -31l25 -11c31 -14 54 -26 77 -26c42 0 73 46 88 73zM470 524l36 -70c-20 -42 -58 -85 -125 -85
c-27 0 -53 6 -111 31l-25 11c-31 14 -54 26 -77 26c-42 0 -73 -46 -88 -73l-36 70c20 42 58 85 125 85c27 0 53 -6 111 -31l25 -11c31 -14 54 -26 77 -26c42 0 73 46 88 73z" />
    <glyph glyph-name="notequal" unicode="&#x2260;" 
d="M50 411v88h275l61 104h72l-61 -104h103v-88h-154l-71 -122h225v-88h-276l-60 -104h-72l60 104h-102v88h153l71 122h-224z" />
    <glyph glyph-name="lessequal" unicode="&#x2264;" 
d="M500 155l-450 195v100l450 195v-100l-334 -145l334 -145v-100zM50 55v88h450v-88h-450z" />
    <glyph glyph-name="greaterequal" unicode="&#x2265;" 
d="M500 350l-450 -195v100l334 145l-334 145v100l450 -195v-100zM500 143v-88h-450v88h450z" />
    <glyph glyph-name="dotmath" unicode="&#x22c5;" horiz-adv-x="278" 
d="M83 247v112h112v-112h-112z" />
    <glyph glyph-name="lozenge" unicode="&#x25ca;" horiz-adv-x="702" 
d="M90 350l261 360l261 -360l-261 -360zM508 350l-157 215l-157 -215l157 -217z" />
    <glyph glyph-name="uniF400" unicode="&#xf400;" horiz-adv-x="2" 
d="M-327 610l78 130h120l-118 -130h-80z" />
    <glyph glyph-name="uniF401" unicode="&#xf401;" horiz-adv-x="2" 
d="M-329 870h130l-114 -120h-96z" />
    <glyph glyph-name="uniF406" unicode="&#xf406;" horiz-adv-x="376" 
d="M20 870h70c8 -23 29 -56 98 -56s90 33 98 56h70c-23 -87 -93 -126 -168 -126s-145 39 -168 126z" />
    <glyph glyph-name="uniF407" unicode="&#xf407;" horiz-adv-x="295" 
d="M103 9h60l-6 -42c31 0 52 -15 62 -25c17 -17 26 -42 26 -70c0 -26 -14 -54 -33 -71c-22 -20 -56 -27 -85 -27c-20 0 -49 7 -77 27l27 48c16 -13 33 -18 47 -18c17 0 28 6 36 13c8 8 12 17 12 28c0 13 -4 27 -12 34c-10 10 -27 12 -39 12c-10 0 -21 0 -31 -2z" />
    <glyph glyph-name="uniF408" unicode="&#xf408;" horiz-adv-x="358" 
d="M124 870h110l104 -120h-90l-69 70l-69 -70h-90z" />
    <glyph glyph-name="uniF409" unicode="&#xf409;" horiz-adv-x="254" 
d="M52 -248l40 198h110l-70 -198h-80z" />
    <glyph glyph-name="uniF40A" unicode="&#xf40a;" horiz-adv-x="180" 
d="M-8 500l40 200h110l-74 -200h-76z" />
    <glyph glyph-name="uniF40B" unicode="&#xf40b;" horiz-adv-x="152" 
d="M132 854v-102h-112v102h112z" />
    <glyph glyph-name="uniF40C" unicode="&#xf40c;" horiz-adv-x="242" 
d="M20 827c0 55 46 101 101 101s101 -46 101 -101s-46 -101 -101 -101s-101 46 -101 101zM66 827c0 -32 23 -55 55 -55s55 23 55 55s-23 55 -55 55s-55 -23 -55 -55z" />
    <glyph glyph-name="uniF40D" unicode="&#xf40d;" horiz-adv-x="380" 
d="M66 748h-46c2 26 11 53 24 73c22 33 52 39 72 39c18 0 37 -6 53 -13l29 -12c25 -10 46 -21 70 -21c17 0 28 5 36 18c4 7 8 18 10 28h46c-3 -20 -10 -49 -19 -66c-17 -32 -47 -46 -76 -46c-19 0 -39 7 -54 13l-29 12c-25 10 -46 21 -70 21c-15 0 -26 -5 -34 -15
c-6 -8 -10 -21 -12 -31z" />
    <glyph glyph-name="uniF40E" unicode="&#xf40e;" horiz-adv-x="190" 
d="M110 -228c-75 0 -110 35 -110 88c0 66 55 120 140 165l50 -25c-85 -55 -109 -100 -109 -135c0 -25 15 -40 49 -40c15 0 32 2 50 10v-50c-19 -8 -40 -13 -70 -13z" />
    <glyph glyph-name="uniF410" unicode="&#xf410;" horiz-adv-x="2" 
d="M-480 870h130l80 -120h-96z" />
    <glyph glyph-name="uniF47E" unicode="&#xf47e;" horiz-adv-x="720" 
d="M360 -8c-170 0 -270 100 -270 298v410h100v-400c0 -160 60 -220 170 -220s170 60 170 220v400h100v-410c0 -198 -100 -298 -270 -298zM416 854v-102h-112v102h112z" />
    <glyph glyph-name="uniF47F" unicode="&#xf47f;" horiz-adv-x="603" 
d="M263 -8c-120 0 -190 70 -190 218v300h94v-270c0 -132 40 -172 116 -172c82 0 146 65 146 202v240h94v-510h-94v73h-2c-37 -54 -96 -81 -164 -81zM355 720v-106h-106v106h106z" />
    <glyph glyph-name="uniF4C6" unicode="&#xf4c6;" horiz-adv-x="653" 
d="M50 700h100v-210c0 -30 -1 -72 35 -103c31 -27 82 -30 114 -30c51 0 104 6 160 23v320h100v-690c0 -57 -5 -120 -55 -165c-33 -29 -83 -45 -144 -45c-22 0 -43 3 -61 7c-6 1 -11 3 -17 5v86c31 -9 52 -10 66 -10c18 0 37 3 54 10c12 5 23 12 31 22c11 13 18 29 22 45
c3 15 4 29 4 45v283c-76 -20 -139 -24 -178 -24c-122 0 -174 38 -197 67c-32 40 -34 92 -34 120v244z" />
    <glyph glyph-name="uniF4C7" unicode="&#xf4c7;" horiz-adv-x="536" 
d="M45 510h94v-150c0 -24 1 -59 28 -80c13 -10 35 -18 84 -18c51 0 93 9 111 13v235h94v-520c0 -150 -40 -190 -158 -190c-17 0 -41 5 -41 5v80s15 -4 35 -4c45 0 70 25 70 109v211c-20 -4 -40 -7 -60 -10c-24 -3 -49 -5 -73 -5c-43 0 -97 6 -136 38c-44 36 -48 82 -48 108
v178z" />
    <glyph glyph-name="uniF4C8" unicode="&#xf4c8;" horiz-adv-x="628" 
d="M583 15c0 0 -63 -20 -146 -23l-3 -25c31 0 52 -15 62 -25c17 -17 26 -42 26 -70c0 -26 -14 -54 -33 -71c-22 -20 -56 -27 -85 -27c-20 0 -49 7 -77 27l27 48c16 -13 33 -18 47 -18c17 0 28 6 36 13c8 8 12 17 12 28c0 13 -4 27 -12 34c-10 10 -27 12 -39 12
c-10 0 -21 0 -31 -2l11 78c-203 17 -325 152 -325 356c0 213 145 358 370 358c90 0 160 -28 160 -28v-96s-70 36 -160 36c-161 0 -264 -103 -264 -270s103 -270 264 -270c90 0 160 31 160 31v-96z" />
    <glyph glyph-name="uniF4C9" unicode="&#xf4c9;" horiz-adv-x="454" 
d="M426 495v-82s-40 29 -110 29c-102 0 -170 -68 -170 -187s68 -187 170 -187c70 0 110 29 110 29v-82s-35 -19 -102 -22l-3 -24c25 -1 46 -11 59 -24c14 -14 24 -36 24 -67c0 -25 -13 -51 -31 -68c-10 -9 -35 -25 -81 -25c-30 0 -53 11 -73 25l25 46c13 -10 29 -17 45 -17
c14 0 26 4 34 12c5 5 12 14 12 27s-4 25 -12 32c-10 10 -25 12 -37 12c-10 0 -19 0 -29 -2l10 75c-133 16 -221 116 -221 260c0 157 106 263 260 263c80 0 120 -23 120 -23z" />
    <glyph glyph-name="uniF4CC" unicode="&#xf4cc;" horiz-adv-x="576" 
d="M165 -10c-40 0 -80 14 -80 14v98s30 -20 70 -20c41 0 58 13 77 54l25 55l-247 509h113l185 -390h4l171 390h97l-264 -595c-32 -72 -68 -115 -151 -115zM315 870h130l-114 -120h-96z" />
    <glyph glyph-name="uniF4CD" unicode="&#xf4cd;" horiz-adv-x="490" 
d="M35 -219v82s25 -11 45 -11c61 0 82 36 105 98l11 30l-191 530h103l139 -410h4l139 410h95l-194 -530c-55 -150 -91 -204 -201 -204c-30 0 -55 5 -55 5zM193 610l78 130h120l-118 -130h-80z" />
    <glyph glyph-name="dollar.fitted" unicode="&#xf5f5;" horiz-adv-x="453" 
d="M202 -100v92h-9c-48 0 -102 6 -165 29v92c43 -19 111 -33 167 -33h7v239c-4 1 -8 3 -11 5c-117 54 -171 100 -171 197s61 169 182 184v95h58v-92c68 -2 117 -18 137 -25v-92c-48 21 -103 28 -137 29v-212c5 -3 10 -6 16 -8c89 -44 164 -92 164 -205
c0 -101 -62 -177 -180 -197v-98h-58zM260 90c48 18 74 57 74 102s-31 74 -74 98v-200zM126 530c0 -42 34 -70 76 -94v180c-54 -11 -76 -43 -76 -86z" />
    <glyph glyph-name="Euro.fitted" unicode="&#xf5f6;" horiz-adv-x="598" 
d="M14 395l14 58h53c37 160 162 257 329 257c97 0 154 -36 154 -36l-20 -89s-52 37 -134 37c-102 0 -186 -62 -219 -169h323l-14 -58h-322c-1 -15 -2 -30 -2 -45c0 -12 0 -23 1 -33h305l-14 -58h-281c31 -114 119 -181 233 -181c77 0 133 33 133 33v-96s-56 -25 -133 -25
c-180 0 -308 102 -342 269h-64l14 58h43c-1 11 -1 22 -1 33c0 15 0 30 2 45h-58z" />
    <glyph glyph-name="cent.fitted" unicode="&#xf5f7;" horiz-adv-x="484" 
d="M456 495v-82s-40 29 -130 29c-112 0 -180 -68 -180 -187s68 -187 180 -187c90 0 130 29 130 29v-82s-36 -20 -121 -23v-98h-58v101c-142 15 -231 116 -231 260s89 245 231 260v103h58v-100c86 -3 121 -23 121 -23z" />
    <glyph glyph-name="sterling.fitted" unicode="&#xf5f8;" horiz-adv-x="504" 
d="M21 0v88h91v260h-79v58h79v54c0 158 90 248 243 248c66 0 104 -14 116 -19v-93c-40 17 -73 24 -116 24c-92 0 -143 -50 -143 -160v-54h161v-58h-161v-260h249v-88h-440z" />
    <glyph glyph-name="yen.fitted" unicode="&#xf5f9;" horiz-adv-x="578" 
d="M240 0v162h-141v58h141v72l-8 16h-133v58h101l-183 334h111l164 -315l158 315h111l-181 -334h101v-58h-133l-8 -16v-72h141v-58h-141v-162h-100z" />
    <glyph glyph-name="florin.fitted" unicode="&#xf5fa;" horiz-adv-x="500" 
d="M98 344l13 70h113l20 106c23 119 64 188 179 188c30 0 53 -3 77 -8l-14 -80c-14 3 -33 6 -49 6c-64 0 -78 -28 -93 -106l-20 -106h124l-13 -70h-125l-72 -384c-25 -132 -72 -188 -179 -188c-29 0 -50 3 -59 5l16 81c12 -3 29 -4 35 -4c47 0 75 42 87 106l72 384h-112z
" />
    <glyph glyph-name="uni20B4.fitted" unicode="&#xf5fb;" horiz-adv-x="556" 
d="M108 685c64 20 124 25 169 25c175 0 204 -86 204 -149c0 -22 -6 -44 -15 -63c-8 -17 -18 -31 -32 -45h82v-58h-143l-93 -78h236v-58h-293c-33 -31 -42 -69 -42 -97c0 -59 62 -84 117 -84c51 0 117 15 165 33l10 -92c-70 -23 -131 -29 -173 -29c-160 0 -225 77 -225 161
c0 52 22 86 42 108h-77v58h120l93 78h-213v58h278c51 39 57 73 57 91c0 15 -3 30 -11 42c-22 33 -69 36 -101 36c-18 0 -37 -1 -55 -4c-11 -2 -46 -8 -86 -25z" />
    <glyph glyph-name="uni20BD.fitted" unicode="&#xf5fc;" 
d="M199 612v-244h88c38 0 82 12 106 35c16 15 34 42 34 86c0 37 -11 71 -45 95c-29 20 -71 28 -109 28h-74zM99 0v162h-80v68h80v70h-80v68h80v332h172c51 0 131 -5 188 -49c22 -17 41 -40 52 -66s16 -54 16 -82c0 -61 -25 -116 -62 -149c-60 -53 -161 -54 -179 -54h-87v-70
h140v-68h-140v-162h-100z" />
    <glyph glyph-name="uni20B8.fitted" unicode="&#xf5fd;" horiz-adv-x="516" 
d="M20 562h476v-68h-188v-494h-100v494h-188v68zM20 700h476v-68h-476v68z" />
    <glyph glyph-name="currency.fitted" unicode="&#xf5fe;" horiz-adv-x="568" 
d="M30 146l56 57c-21 25 -50 70 -50 146c0 81 32 127 50 148l-56 54l51 52l55 -55c55 41 114 49 148 49c65 0 115 -23 150 -49l54 55l50 -52l-54 -54c15 -19 48 -65 48 -148c0 -43 -10 -98 -48 -146l54 -57l-50 -51l-54 57c-21 -18 -66 -51 -150 -51c-82 0 -127 33 -148 51
l-55 -57zM124 349c0 -92 72 -166 160 -166c92 0 160 77 160 166c0 88 -68 166 -160 166c-89 0 -160 -76 -160 -166z" />
    <glyph glyph-name="numbersign.fitted" unicode="&#xf5ff;" horiz-adv-x="539" 
d="M85 0l28 197h-93v76h103l22 154h-97v76h108l28 197h76l-28 -197h119l28 197h76l-28 -197h93v-76h-104l-22 -154h98v-76h-108l-28 -197h-76l28 197h-119l-28 -197h-76zM199 273h119l22 154h-119z" />
    <glyph glyph-name="uniF639" unicode="&#xf639;" horiz-adv-x="590" 
d="M295 -8c-146 0 -240 111 -240 358c0 249 97 358 238 358c148 0 242 -109 242 -358c0 -256 -101 -358 -240 -358zM295 76c90 0 144 73 144 274c0 207 -57 274 -146 274c-83 0 -142 -65 -142 -274c0 -206 63 -274 144 -274z" />
    <glyph glyph-name="uniF63A" unicode="&#xf63a;" horiz-adv-x="537" 
d="M497 0h-442v87l131 118c131 118 205 194 205 286c0 90 -60 129 -144 129c-70 0 -122 -22 -165 -49v96c69 32 131 41 178 41c122 0 227 -62 227 -197c0 -150 -124 -262 -292 -400l-32 -26v-1h334v-84z" />
    <glyph glyph-name="uniF63B" unicode="&#xf63b;" horiz-adv-x="525" 
d="M40 25v92c48 -23 103 -37 167 -37c104 0 167 45 167 119c0 82 -80 124 -189 124h-61v82h56c117 0 178 45 178 113c0 63 -52 102 -149 102c-60 0 -116 -14 -157 -34v91c49 21 101 31 171 31c144 0 231 -64 231 -184c0 -79 -59 -142 -145 -157v-2c113 -16 161 -88 161 -159
c0 -161 -133 -214 -247 -214c-63 0 -123 10 -183 33z" />
    <glyph glyph-name="uniF63C" unicode="&#xf63c;" horiz-adv-x="583" 
d="M355 241v377h-2l-222 -377h224zM355 0v159h-325v83l282 458h143v-459h88v-82h-88v-159h-100z" />
    <glyph glyph-name="uniF63D" unicode="&#xf63d;" horiz-adv-x="529" 
d="M65 18v91c59 -23 91 -29 139 -29c106 0 179 45 179 143c0 94 -59 139 -165 139c-41 0 -100 -9 -146 -26l20 364h367v-88h-288l-10 -178c35 7 53 10 85 10c142 0 233 -79 233 -216c0 -157 -104 -236 -271 -236c-44 0 -98 8 -143 26z" />
    <glyph glyph-name="uniF63E" unicode="&#xf63e;" horiz-adv-x="564" 
d="M472 689v-92c-38 15 -77 23 -125 23c-135 0 -207 -112 -205 -262c33 47 73 83 170 83c122 0 207 -82 207 -218c0 -130 -78 -231 -217 -231c-186 0 -247 175 -247 334c0 219 91 382 292 382c46 0 87 -6 125 -19zM294 74c95 0 129 62 129 147c0 80 -41 138 -121 138
c-92 0 -141 -59 -141 -123c0 -88 54 -162 133 -162z" />
    <glyph glyph-name="uniF63F" unicode="&#xf63f;" horiz-adv-x="502" 
d="M462 700v-82l-258 -618h-110l266 618h-340v82h442z" />
    <glyph glyph-name="uniF640" unicode="&#xf640;" horiz-adv-x="590" 
d="M203 368v2c-30 11 -71 33 -96 65c-22 27 -35 67 -35 109c0 41 20 96 83 133c39 23 89 33 137 33c65 0 119 -14 163 -48c34 -27 59 -62 59 -113c0 -45 -15 -84 -41 -113c-22 -25 -60 -49 -85 -62c35 -12 74 -35 99 -61c34 -36 48 -81 48 -123c0 -67 -25 -114 -65 -146
c-31 -25 -85 -54 -172 -54c-83 0 -138 27 -174 55c-47 37 -69 84 -69 140c0 55 25 103 60 134c25 22 63 40 88 49zM286 416l30 -13c68 47 92 83 92 130c0 33 -9 55 -38 74c-22 15 -49 21 -80 21c-36 0 -65 -12 -86 -29c-27 -22 -32 -49 -32 -69c0 -28 15 -49 34 -65
c17 -15 54 -38 80 -49zM277 331l-31 -20c-38 -24 -85 -52 -85 -120c0 -41 18 -68 40 -86c27 -22 68 -33 101 -33c36 0 69 11 91 31c15 14 36 41 36 88c0 76 -54 96 -116 124z" />
    <glyph glyph-name="uniF641" unicode="&#xf641;" horiz-adv-x="559" 
d="M87 11v92c38 -15 77 -23 125 -23c135 0 207 112 205 262c-33 -47 -73 -83 -170 -83c-122 0 -207 82 -207 218c0 130 78 231 217 231c186 0 247 -175 247 -334c0 -217 -91 -382 -292 -382c-46 0 -87 6 -125 19zM265 626c-95 0 -129 -62 -129 -147c0 -80 41 -138 121 -138
c92 0 141 59 141 123c0 88 -54 162 -133 162z" />
    <glyph glyph-name="uniF643" unicode="&#xf643;" 
d="M275 518c141 0 235 -98 235 -263s-94 -263 -235 -263s-235 98 -235 263s94 263 235 263zM275 436c-85 0 -139 -58 -139 -181s54 -181 139 -181s139 58 139 181s-54 181 -139 181z" />
    <glyph glyph-name="uniF644" unicode="&#xf644;" 
d="M270 1v395l-127 -109l-53 68l191 156h89v-510h-100z" />
    <glyph glyph-name="uniF645" unicode="&#xf645;" 
d="M53 0v100l166 99c111 67 160 101 160 165c0 59 -58 72 -114 72c-66 0 -123 -17 -180 -44l-10 85c69 32 138 41 207 41c176 0 203 -94 203 -141c0 -106 -72 -157 -222 -243l-90 -52h322v-82h-442z" />
    <glyph glyph-name="uniF646" unicode="&#xf646;" 
d="M55 -165v92c48 -23 103 -37 167 -37c104 0 167 45 167 119c0 82 -80 124 -189 124h-61v82h56c117 0 178 45 178 113c0 63 -52 102 -149 102c-60 0 -116 -14 -157 -34v91c49 21 101 31 171 31c144 0 231 -64 231 -184c0 -79 -59 -142 -145 -157v-2
c113 -16 161 -88 161 -159c0 -161 -133 -214 -247 -214c-63 0 -123 10 -183 33z" />
    <glyph glyph-name="uniF647" unicode="&#xf647;" 
d="M345 82v346h-2l-222 -346h224zM345 -190v190h-325v83l282 427h143v-428h85v-82h-85v-190h-100z" />
    <glyph glyph-name="uniF648" unicode="&#xf648;" 
d="M75 -172v91c59 -23 91 -29 139 -29c106 0 179 45 179 143c0 94 -59 139 -165 139c-41 0 -100 -9 -146 -26l20 364h367v-88h-288l-10 -178c35 7 53 10 85 10c142 0 233 -79 233 -216c0 -157 -104 -236 -271 -236c-44 0 -98 8 -143 26z" />
    <glyph glyph-name="uniF649" unicode="&#xf649;" 
d="M463 689v-92c-38 15 -77 23 -125 23c-135 0 -207 -112 -205 -262c33 47 73 83 170 83c122 0 207 -82 207 -218c0 -130 -78 -231 -217 -231c-186 0 -247 175 -247 334c0 219 91 382 292 382c46 0 87 -6 125 -19zM285 74c95 0 129 62 129 147c0 80 -41 138 -121 138
c-92 0 -141 -59 -141 -123c0 -88 54 -162 133 -162z" />
    <glyph glyph-name="uniF64A" unicode="&#xf64a;" horiz-adv-x="555" 
d="M124 -190l264 618h-338v82h440v-82l-256 -618h-110z" />
    <glyph glyph-name="uniF64B" unicode="&#xf64b;" 
d="M183 368v2c-30 11 -71 33 -96 65c-22 27 -35 67 -35 109c0 41 20 96 83 133c39 23 89 33 137 33c65 0 119 -14 163 -48c34 -27 59 -62 59 -113c0 -45 -15 -84 -41 -113c-22 -25 -60 -49 -85 -62c35 -12 74 -35 99 -61c34 -36 48 -81 48 -123c0 -67 -25 -114 -65 -146
c-31 -25 -85 -54 -172 -54c-83 0 -138 27 -174 55c-47 37 -69 84 -69 140c0 55 25 103 60 134c25 22 63 40 88 49zM266 416l30 -13c68 47 92 83 92 130c0 33 -9 55 -38 74c-22 15 -49 21 -80 21c-36 0 -65 -12 -86 -29c-27 -22 -32 -49 -32 -69c0 -28 15 -49 34 -65
c17 -15 54 -38 80 -49zM257 331l-31 -20c-38 -24 -85 -52 -85 -120c0 -41 18 -68 40 -86c27 -22 68 -33 101 -33c36 0 69 11 91 31c15 14 36 41 36 88c0 76 -54 96 -116 124z" />
    <glyph glyph-name="uniF64C" unicode="&#xf64c;" 
d="M87 -179v92c38 -15 77 -23 125 -23c135 0 207 112 205 262c-33 -47 -73 -83 -170 -83c-122 0 -207 82 -207 218c0 130 78 231 217 231c186 0 247 -175 247 -334c0 -217 -91 -382 -292 -382c-46 0 -87 6 -125 19zM265 436c-95 0 -129 -62 -129 -147
c0 -80 41 -138 121 -138c92 0 141 59 141 123c0 88 -54 162 -133 162z" />
    <glyph glyph-name="uniF6BA" unicode="&#xf6ba;" horiz-adv-x="420" 
d="M50 342v88h300v-88h-300z" />
    <glyph glyph-name="uniF6BB" unicode="&#xf6bb;" horiz-adv-x="650" 
d="M50 342v88h500v-88h-500z" />
    <glyph glyph-name="uniF6BC" unicode="&#xf6bc;" horiz-adv-x="920" 
d="M50 342v88h800v-88h-800z" />
    <glyph glyph-name="uniF6C3" unicode="&#xf6c3;" horiz-adv-x="244" 
d="M52 -220l40 170h100l-70 -170h-70z" />
    <glyph glyph-name="uniF6C9" unicode="&#xf6c9;" horiz-adv-x="250" 
d="M100 870h130l-114 -120h-96z" />
    <glyph glyph-name="uniF6CA" unicode="&#xf6ca;" horiz-adv-x="358" 
d="M234 750h-110l-104 120h90l69 -70l69 70h90z" />
    <glyph glyph-name="uniF6CB" unicode="&#xf6cb;" horiz-adv-x="360" 
d="M20 750v100h106v-100h-106zM234 750v100h106v-100h-106z" />
    <glyph glyph-name="uniF6CC" unicode="&#xf6cc;" horiz-adv-x="367" 
d="M20 857h108v-105h-108v105zM239 857h108v-105h-108v105zM146 856l89 144h109l-131 -144h-67z" />
    <glyph glyph-name="uniF6CE" unicode="&#xf6ce;" horiz-adv-x="250" 
d="M20 870h130l80 -120h-96z" />
    <glyph glyph-name="uniF6CF" unicode="&#xf6cf;" horiz-adv-x="404" 
d="M106 870h120l-130 -120h-76zM264 870h120l-130 -120h-76z" />
    <glyph glyph-name="uniF6D0" unicode="&#xf6d0;" horiz-adv-x="360" 
d="M20 840h320v-70h-320v70z" />
    <glyph glyph-name="uniF6D1" unicode="&#xf6d1;" horiz-adv-x="490" 
d="M245 750c-91 0 -160 43 -165 132l75 8c5 -48 37 -70 90 -70s85 22 90 70l75 -8c-5 -89 -74 -132 -165 -132z" />
    <glyph glyph-name="uniF6D4" unicode="&#xf6d4;" horiz-adv-x="470" 
d="M323 738l68 -8c-4 -89 -68 -132 -152 -132s-154 43 -158 132l71 8c7 -48 41 -72 87 -72s77 24 84 72z" />
    <glyph glyph-name="uniF6D7" unicode="&#xf6d7;" horiz-adv-x="386" 
d="M20 700h109v-105h-109v105zM258 700h108v-105h-108v105zM155 700l89 144h109l-131 -144h-67z" />
    <glyph glyph-name="uniF6DC" unicode="&#xf6dc;" horiz-adv-x="391" 
d="M197 0v585l-134 -119l-53 68l198 166h89v-700h-100z" />
    <glyph glyph-name="uniF6DE" unicode="&#xf6de;" horiz-adv-x="690" 
d="M52 234v70h585v-70h-585z" />
    <glyph glyph-name="uniF6E1" unicode="&#xf6e1;" horiz-adv-x="210" 
d="M45 -210l27 158h96l-53 -158h-70z" />
    <glyph glyph-name="uniF6E2" unicode="&#xf6e2;" horiz-adv-x="191" 
d="M22 545l32 205h92l-58 -205h-66z" />
    <glyph glyph-name="uniF730" unicode="&#xf730;" horiz-adv-x="562" 
d="M281 518c141 0 235 -98 235 -263s-94 -263 -235 -263s-235 98 -235 263s94 263 235 263zM281 436c-85 0 -139 -58 -139 -181s54 -181 139 -181s139 58 139 181s-54 181 -139 181z" />
    <glyph glyph-name="uniF731" unicode="&#xf731;" horiz-adv-x="370" 
d="M190 1v395l-127 -109l-53 68l191 156h89v-510h-100z" />
    <glyph glyph-name="uniF732" unicode="&#xf732;" horiz-adv-x="552" 
d="M50 0v100l166 99c111 67 160 101 160 165c0 59 -58 72 -114 72c-66 0 -123 -17 -180 -44l-10 85c69 32 138 41 207 41c176 0 203 -94 203 -141c0 -106 -72 -157 -222 -243l-90 -52h322v-82h-442z" />
    <glyph glyph-name="uniF733" unicode="&#xf733;" horiz-adv-x="515" 
d="M30 -165v92c48 -23 103 -37 167 -37c104 0 167 45 167 119c0 82 -80 124 -189 124h-61v82h56c117 0 178 45 178 113c0 63 -52 102 -149 102c-60 0 -116 -14 -157 -34v91c49 21 101 31 171 31c144 0 231 -64 231 -184c0 -79 -59 -142 -145 -157v-2
c113 -16 161 -88 161 -159c0 -161 -133 -214 -247 -214c-63 0 -123 10 -183 33z" />
    <glyph glyph-name="uniF734" unicode="&#xf734;" horiz-adv-x="568" 
d="M360 82v346h-2l-222 -346h224zM360 -190v190h-325v83l282 427h143v-428h85v-82h-85v-190h-100z" />
    <glyph glyph-name="uniF735" unicode="&#xf735;" horiz-adv-x="529" 
d="M65 -172v91c59 -23 91 -29 139 -29c106 0 179 45 179 143c0 94 -59 139 -165 139c-41 0 -100 -9 -146 -26l20 364h367v-88h-288l-10 -178c35 7 53 10 85 10c142 0 233 -79 233 -216c0 -157 -104 -236 -271 -236c-44 0 -98 8 -143 26z" />
    <glyph glyph-name="uniF736" unicode="&#xf736;" horiz-adv-x="545" 
d="M463 689v-92c-38 15 -77 23 -125 23c-135 0 -207 -112 -205 -262c33 47 73 83 170 83c122 0 207 -82 207 -218c0 -130 -78 -231 -217 -231c-186 0 -247 175 -247 334c0 219 91 382 292 382c46 0 87 -6 125 -19zM285 74c95 0 129 62 129 147c0 80 -41 138 -121 138
c-92 0 -141 -59 -141 -123c0 -88 54 -162 133 -162z" />
    <glyph glyph-name="uniF737" unicode="&#xf737;" horiz-adv-x="500" 
d="M94 -190l264 618h-338v82h440v-82l-256 -618h-110z" />
    <glyph glyph-name="uniF738" unicode="&#xf738;" horiz-adv-x="560" 
d="M188 368v2c-30 11 -71 33 -96 65c-22 27 -35 67 -35 109c0 41 20 96 83 133c39 23 89 33 137 33c65 0 119 -14 163 -48c34 -27 59 -62 59 -113c0 -45 -15 -84 -41 -113c-22 -25 -60 -49 -85 -62c35 -12 74 -35 99 -61c34 -36 48 -81 48 -123c0 -67 -25 -114 -65 -146
c-31 -25 -85 -54 -172 -54c-83 0 -138 27 -174 55c-47 37 -69 84 -69 140c0 55 25 103 60 134c25 22 63 40 88 49zM271 416l30 -13c68 47 92 83 92 130c0 33 -9 55 -38 74c-22 15 -49 21 -80 21c-36 0 -65 -12 -86 -29c-27 -22 -32 -49 -32 -69c0 -28 15 -49 34 -65
c17 -15 54 -38 80 -49zM262 331l-31 -20c-38 -24 -85 -52 -85 -120c0 -41 18 -68 40 -86c27 -22 68 -33 101 -33c36 0 69 11 91 31c15 14 36 41 36 88c0 76 -54 96 -116 124z" />
    <glyph glyph-name="uniF739" unicode="&#xf739;" horiz-adv-x="545" 
d="M82 -179v92c38 -15 77 -23 125 -23c135 0 207 112 205 262c-33 -47 -73 -83 -170 -83c-122 0 -207 82 -207 218c0 130 78 231 217 231c186 0 247 -175 247 -334c0 -217 -91 -382 -292 -382c-46 0 -87 6 -125 19zM260 436c-95 0 -129 -62 -129 -147
c0 -80 41 -138 121 -138c92 0 141 59 141 123c0 88 -54 162 -133 162z" />
    <glyph glyph-name="dotlessi1" horiz-adv-x="254" 
d="M80 0v510h94v-510h-94z" />
    <glyph glyph-name="arrowleft" unicode="&#x2190;" horiz-adv-x="700" 
d="M20 350l225 225h110l-181 -181h506v-88h-506l181 -181h-110z" />
    <glyph glyph-name="arrowup" unicode="&#x2191;" horiz-adv-x="700" 
d="M350 700l225 -225v-110l-181 181v-546h-88v546l-181 -181v110z" />
    <glyph glyph-name="arrowright" unicode="&#x2192;" horiz-adv-x="700" 
d="M680 350l-225 -225h-110l181 181h-506v88h506l-181 181h110z" />
    <glyph glyph-name="arrowdown" unicode="&#x2193;" horiz-adv-x="700" 
d="M350 0l-225 225v110l181 -181v546h88v-546l181 181v-110z" />
    <glyph glyph-name="franc" unicode="&#x20a3;" 
d="M110 0v136h-80v68h80v496h370v-88h-270v-205h260v-88h-260v-115h140v-68h-140v-136h-100z" />
    <glyph glyph-name="franc.fitted" horiz-adv-x="506" 
d="M90 0v136h-80v68h80v496h370v-88h-270v-205h260v-88h-260v-115h140v-68h-140v-136h-100z" />
    <glyph glyph-name="uni20BC" unicode="&#x20bc;" 
d="M10 0c0 391 96 529 220 553v147h90v-147c124 -24 220 -162 220 -553h-96c0 334 -52 441 -124 467v-467h-90v467c-73 -26 -124 -133 -124 -467h-96z" />
    <glyph glyph-name="uni20BE" unicode="&#x20be;" 
d="M44 0v88h87c-64 54 -96 143 -96 272c0 196 67 302 167 336v104h58v-93s10 1 20 1s20 -1 20 -1v93h58v-104c99 -34 167 -142 167 -346h-96c0 137 -28 213 -71 248v-248h-58v273s-10 1 -20 1s-20 -1 -20 -1v-273h-58v248c-43 -35 -71 -108 -71 -238
c0 -183 81 -272 209 -272h148v-88h-444z" />
    <glyph glyph-name="uni058F" unicode="&#x58f;" 
d="M370 0v167h-145v58h145v80h-145v58h145v97c0 110 -50 160 -135 160s-135 -50 -135 -160v-60h-100v60c0 158 90 248 235 248s235 -90 235 -248v-97h80v-58h-80v-80h80v-58h-80v-167h-100z" />
    <glyph glyph-name="uni20BC.fitted" horiz-adv-x="660" 
d="M30 0c0 384 111 530 255 554v146h90v-146c144 -24 255 -170 255 -554h-96c0 333 -67 444 -159 468v-468h-90v468c-93 -24 -159 -135 -159 -468h-96z" />
    <glyph glyph-name="uni20BE.fitted" horiz-adv-x="635" 
d="M54 0v88h101c-73 55 -110 146 -110 272c0 194 78 305 197 338v102h58v-93s10 1 20 1s20 -1 20 -1v93h58v-102c118 -33 197 -146 197 -348h-96c0 144 -40 223 -101 256v-256h-58v273s-10 1 -20 1s-20 -1 -20 -1v-273h-58v256c-62 -32 -101 -109 -101 -246
c0 -173 90 -272 238 -272h179v-88h-504z" />
    <glyph glyph-name="uni058F.fitted" 
d="M370 0v167h-145v58h145v80h-145v58h145v97c0 110 -50 160 -135 160s-135 -50 -135 -160v-60h-100v60c0 158 90 248 235 248s235 -90 235 -248v-97h80v-58h-80v-80h80v-58h-80v-167h-100z" />
    </font>
</defs>
</svg>
