<svg xmlns="http://www.w3.org/2000/svg"><defs><font id="VTBGroup-Light" horiz-adv-x="600"><font-face font-family="VTB Group Light" font-weight="300" panose-1="2 11 4 3 4 5 4 2 2 4" ascent="773" descent="-227" x-height="513" cap-height="700" bbox="-460 -250 1230 964" underline-thickness="50" underline-position="-100" stemh="57" stemv="63" unicode-range="U+0020-FEFF"/><glyph glyph-name="IJ" unicode="IJ" horiz-adv-x="602" d="M100 700h66V0h-66v700zm336 0h66V175C502 50 444-8 340-8c-25 0-49 3-74 10v60c22-9 45-13 73-13 60 0 97 37 97 126v525z"/><glyph glyph-name="ij" unicode="ij" horiz-adv-x="440" d="M80 513h63V0H80v513zm-3 207h69v-80H77v80zm283-207V-74c0-53-7-144-114-144-20 0-39 2-59 8v51c16-5 32-6 48-6 27 0 62 8 62 85v593h63zm-66 207h69v-80h-69v80z"/><glyph glyph-name="afii10017.var.accented" unicode="А`" horiz-adv-x="650" d="M375 870h100L355 750h-60zM15 0l267 700h86L635 0h-72l-72 192H156L85 0H15zm163 249h291L326 634h-2z"/><glyph glyph-name="afii10022.var.accented" unicode="Е`" horiz-adv-x="509" d="M100 700h340v-57H166V390h261v-57H166V57h293V0H100v700zm137 170h100L217 750h-60z"/><glyph glyph-name="afii10026.var.accented" unicode="И`" horiz-adv-x="717" d="M100 700h66V174l-4-85h3l39 71 338 540h75V0h-66v526l4 85h-3l-35-66L175 0h-75v700zm297 170h100L377 750h-60z"/><glyph glyph-name="afii10032.var.accented" unicode="О`" horiz-adv-x="744" d="M55 349c0 188 103 359 317 359s317-171 317-359C689 118 550-8 372-8S55 118 55 349zm71 0c0-210 124-300 246-300s246 90 246 300-124 302-246 302-246-92-246-302zm290 521h100L396 750h-60z"/><glyph glyph-name="afii10037.var.accented" unicode="У`" horiz-adv-x="592" d="M20 700h74l217-455 189 455h72L324 111C298 50 276-8 190-8c-24 0-46 3-70 12v56c20-10 41-11 61-11 37 0 56 24 78 79l17 40zm326 170h100L326 750h-60z"/><glyph glyph-name="afii10045.var.accented" unicode="Ы`" horiz-adv-x="806" d="M100 0v700h66V420h134c138 0 228-90 228-210S438 0 300 0H100zm357 209c0 94-60 154-157 154H166V57h134c97 0 157 60 157 152zm183 491h66V0h-66v700zM453 870h100L433 750h-60z"/><glyph glyph-name="afii10047.var.accented" unicode="Э`" horiz-adv-x="633" d="M228-8C144-8 95 1 44 20v65c62-26 101-36 184-36 160 0 270 100 280 283H138v57h370c-11 163-121 262-280 262-80 0-137-21-193-50v65c48 23 111 42 193 42 210 0 350-140 350-348C578 137 433-8 228-8zm81 878h100L289 750h-60z"/><glyph glyph-name="afii10048.var.accented" unicode="Ю`" horiz-adv-x="973" d="M166 391h120c11 159 110 317 315 317 214 0 317-171 317-359C918 118 779-8 601-8 385-8 287 165 285 334H166V0h-66v700h66V391zm190-42c0-210 124-300 245-300 122 0 246 90 246 300S723 651 601 651c-120 0-245-92-245-302zm173 521h100L509 750h-60z"/><glyph glyph-name="afii10049.var.accented" unicode="Я`" horiz-adv-x="590" d="m46 0 162 293c-88 27-132 95-132 197 0 133 76 210 230 210h184V0h-66v280H306c-11 0-22 0-33 1L127 0H46zm101 490c0-105 48-153 159-153h118v306H306c-111 0-159-48-159-153zm223 380h100L350 750h-60z"/><glyph glyph-name="afii10023.var.accented" unicode="Ё`" horiz-adv-x="509" d="M100 700h340v-57H166V390h261v-57H166V57h293V0H100v700zm20 144h66v-80h-66v80zm229 0h66v-80h-66v80zm-45 120h90L288 844h-54z"/><glyph glyph-name="afii10065.var.accented" unicode="а`" horiz-adv-x="518" d="M320 740h94L280 610h-50zM215-8C105-8 45 52 45 140c0 98 75 173 270 173h57v17c0 96-42 138-117 138-50 0-106-12-155-37v58c43 19 95 32 155 32 118 0 180-62 180-191V0h-53v87h-2C337 8 270-8 215-8zm0 53c98 0 157 66 157 178v37h-57c-154 0-204-50-204-120 0-55 40-95 104-95z"/><glyph glyph-name="afii10070.var.accented" unicode="е`" horiz-adv-x="508" d="M468 238H106c-1-63 24-193 170-193 52 0 102 7 153 33V20C377-2 327-8 275-8 129-8 40 89 40 265c0 161 93 256 223 256 191 0 205-174 205-263v-20zm-362 53h296c1 41-6 177-139 177-104 0-155-91-157-177zm204 449h94L270 610h-50z"/><glyph glyph-name="afii10074.var.accented" unicode="и`" horiz-adv-x="594" d="M80 513h63V137l-1-54h3l34 55 265 375h70V0h-63v376l1 54h-3l-34-54L150 0H80v513zm270 227h94L310 610h-50z"/><glyph glyph-name="afii10080.var.accented" unicode="о`" horiz-adv-x="564" d="M45 256c0 160 94 265 237 265s237-105 237-265C519 97 424-8 282-8S45 97 45 256zm66 0c0-99 51-211 171-211s171 112 171 211c0 100-51 212-171 212S111 356 111 256zm189 484h94L260 610h-50z"/><glyph glyph-name="afii10085.var.accented" unicode="у`" horiz-adv-x="490" d="M60-211v56s23-9 51-9c44 0 63 32 79 80l24 70L30 513h67L248 74h1l146 439h65L241-116c-21-59-53-104-124-104-28 0-56 9-57 9zm250 951h94L270 610h-50z"/><glyph glyph-name="afii10093.var.accented" unicode="ы`" horiz-adv-x="699" d="M556 513h63V0h-63v513zM80 0v513h63V320h118c140 0 200-60 200-160S401 0 261 0H80zm315 160c0 67-40 107-134 107H143V53h118c94 0 134 40 134 107zm19 580h94L374 610h-50z"/><glyph glyph-name="afii10095.var.accented" unicode="э`" horiz-adv-x="459" d="M148-8C106-8 72-4 30 12v56c37-14 82-23 118-23 121 0 190 61 199 184H103v53h244c-10 120-82 186-192 186-51 0-96-17-124-29v58c55 18 82 24 125 24 158 0 258-100 258-266C414 92 314-8 153-8h-5zm100 748h94L208 610h-50z"/><glyph glyph-name="afii10096.var.accented" unicode="ю`" horiz-adv-x="743" d="M143 289h81c9 123 89 232 237 232 41 0 83-8 118-28 65-37 119-118 119-237C698 97 603-8 461-8 302-8 229 114 224 236h-81V0H80v513h63V289zm147-33c0-99 51-211 171-211s171 112 171 211c0 100-51 212-171 212S290 356 290 256zm140 484h94L390 610h-50z"/><glyph glyph-name="afii10097.var.accented" unicode="я`" horiz-adv-x="498" d="m45 0 110 207c-65 23-95 74-95 146 0 100 60 160 190 160h168V0h-63v193H250c-11 0-21 0-31 1L121 0H45zm81 353c0-67 40-107 124-107h105v214H250c-84 0-124-40-124-107zm195 387h94L281 610h-50z"/><glyph glyph-name="afii10071.var.accented" unicode="ё`" horiz-adv-x="508" d="M468 238H106c-1-63 24-193 170-193 52 0 102 7 153 33V20C377-2 327-8 275-8 129-8 40 89 40 265c0 161 93 256 223 256 191 0 205-174 205-263v-20zm-362 53h296c1 41-6 177-139 177-104 0-155-91-157-177zm4 429h66v-80h-66v80zm213 0h66v-80h-66v80zm-26 134h84L267 720h-50z"/><glyph glyph-name="fi" unicode="fi" horiz-adv-x="603" d="M119 0v460H12v53h107v105c0 98 54 147 132 147 23 0 43-4 61-10v-52c-16 5-39 9-56 9-74 0-74-67-74-89V513h121v-53H182V0h-63zm341 513h63V0h-63v513zm-3 207h69v-80h-69v80z"/><glyph glyph-name="fl" unicode="fl" horiz-adv-x="603" d="M119 0v460H12v53h107v105c0 98 54 147 132 147 23 0 43-4 61-10v-52c-16 5-39 9-56 9-74 0-74-67-74-89V513h121v-53H182V0h-63zm341 762h63V0h-63v762z"/><glyph glyph-name=".notdef" horiz-adv-x="233"/><glyph glyph-name="space" horiz-adv-x="233"/><glyph glyph-name="exclam" unicode="!" horiz-adv-x="282" d="M100 700h82l-12-525h-58zm0-614h82V0h-82v86z"/><glyph glyph-name="quotedbl" unicode="&quot;" horiz-adv-x="330" d="M70 480v220h56V480H70zm134 0v220h56V480h-56z"/><glyph glyph-name="numbersign" unicode="#" d="m122 0 29 207H55v57h104l25 173H83v57h109l29 206h62l-29-206h133l29 206h62l-29-206h96v-57H441l-25-173h101v-57H408L379 0h-62l29 207H213L184 0h-62zm99 264h133l25 173H246z"/><glyph glyph-name="dollar" unicode="$" d="M284-100v94c-58 0-116 8-176 31v68c50-24 100-41 176-41v285c-111 49-181 101-181 197 0 110 88 164 181 170v96h44v-94c49 0 100-7 153-25v-66c-49 21-97 34-153 34V389c127-63 190-108 190-221C518 38 394 4 328-3v-97h-44zm163 270c0 73-45 108-119 143V56c76 18 119 56 119 114zM174 534c0-54 41-88 110-120v232c-93-15-110-72-110-112z"/><glyph glyph-name="percent" unicode="%" horiz-adv-x="830" d="M605-8c-90 0-155 65-155 170s65 170 155 170 155-65 155-170S695-8 605-8zm0 51c60 0 100 40 100 119 0 80-40 120-100 120s-100-40-100-120c0-79 40-119 100-119zM225 368c-90 0-155 65-155 170s65 170 155 170 155-65 155-170-65-170-155-170zm0 51c60 0 100 40 100 119 0 80-40 120-100 120s-100-40-100-120c0-79 40-119 100-119zM202 0h-62l488 700h62z"/><glyph glyph-name="ampersand" unicode="&amp;" horiz-adv-x="731" d="m591 0-70 78C464 18 406-8 310-8 139-8 70 99 70 182c0 73 27 172 171 214-59 60-96 95-96 161 0 77 52 151 178 151 94 0 176-48 176-151 0-96-72-136-165-175l193-200c40 60 53 145 55 207h66c-7-148-56-227-84-263L681 0h-90zM211 557c0-54 60-113 88-137 100 39 134 90 134 137s-32 94-110 94c-110 0-112-75-112-94zm275-428L271 356c-122-40-130-133-130-170 0-74 62-137 172-137 79 0 132 33 173 80z"/><glyph glyph-name="quotesingle" unicode="'" horiz-adv-x="195" d="M70 480v220h56V480H70z"/><glyph glyph-name="parenleft" unicode="(" horiz-adv-x="422" d="M265 754h57c-97-161-151-318-151-464 0-46 15-206 140-428h-49C137 51 100 196 100 290c0 163 67 307 165 464z"/><glyph glyph-name="parenright" unicode=")" horiz-adv-x="422" d="M157 754c98-157 165-301 165-464 0-94-37-239-162-428h-49C236 84 251 244 251 290c0 146-54 303-151 464h57z"/><glyph glyph-name="asterisk" unicode="*" horiz-adv-x="570" d="m191 320-51 35 108 133-163 40 21 65 157-60-9 167h67l-9-167 153 58 20-63-160-40 104-132-55-36-89 141z"/><glyph glyph-name="plus" unicode="+" d="M272 100v222H50v56h222v222h56V378h222v-56H328V100h-56z"/><glyph glyph-name="comma" unicode="," horiz-adv-x="313" d="M140 89h88l-74-218H85z"/><glyph glyph-name="hyphen" unicode="-" horiz-adv-x="400" d="M80 265v70h240v-70H80z"/><glyph glyph-name="period" unicode="." horiz-adv-x="282" d="M100 86h82V0h-82v86z"/><glyph glyph-name="slash" unicode="/" horiz-adv-x="310" d="m-10 0 270 700h60L50 0h-60z"/><glyph glyph-name="zero" unicode="0" d="M300-8C165-8 65 92 65 350s100 358 235 358 235-100 235-358S435-8 300-8zm0 60c96 0 167 71 167 298s-71 298-167 298-167-71-167-298S204 52 300 52z"/><glyph glyph-name="one" unicode="1" d="M304 0v623L146 497l-36 46 199 157h61V0h-66z"/><glyph glyph-name="two" unicode="2" d="M80 0v60c328 297 355 348 355 450 0 85-53 138-155 138-70 0-127-20-170-47v66c66 30 123 41 170 41 150 0 225-75 225-198 0-120-75-223-340-449v-1h355V0H80z"/><glyph glyph-name="three" unicode="3" d="M255-8C192-8 145 0 85 23v66c48-23 96-37 170-37 120 0 180 60 180 148 0 74-60 135-200 135h-70v60h70c135 0 190 55 190 135 0 68-45 118-160 118-60 0-129-20-170-40v66c49 21 110 34 170 34 160 0 230-75 230-178 0-80-50-138-140-164v-2c95-19 150-84 150-164C505 77 420-8 255-8z"/><glyph glyph-name="four" unicode="4" d="M390 0v167H50v60l318 473h88V224h104v-57H456V0h-66zM114 224h276v406h-3z"/><glyph glyph-name="five" unicode="5" d="M95 18v66c40-19 95-32 155-32 125 0 185 60 185 168 0 90-60 150-175 150-60 0-110-10-155-26l20 356h355v-60H188l-13-220c25 7 55 10 95 10 151 0 235-84 235-210C505 82 415-8 250-8 190-8 135 2 95 18z"/><glyph glyph-name="six" unicode="6" d="M318-8C184-8 80 96 80 325c0 262 121 383 290 383 46 0 82-4 120-17v-66c-38 15-72 23-120 23-128 0-225-87-230-318 33 77 99 110 178 110 127 0 212-85 212-220C530 79 443-8 318-8zm0 60c89 0 142 53 142 168 0 106-54 160-142 160-101 0-158-62-158-150 0-111 67-178 158-178z"/><glyph glyph-name="seven" unicode="7" d="m170 0 275 643H85v57h430v-60L245 0h-75z"/><glyph glyph-name="eight" unicode="8" d="M232 360v1c-91 44-142 89-142 179 0 88 80 168 210 168s210-80 210-168c0-87-67-144-145-180v-1c103-33 170-83 170-179C535 72 455-8 300-8S65 72 65 180c0 96 72 151 167 180zm68 291c-89 0-139-50-139-111 0-85 49-112 144-155 64 27 134 77 134 155 0 61-50 111-139 111zm-14-320c-74-21-150-64-150-151 0-76 55-131 164-131s164 55 164 131c0 82-98 126-178 151z"/><glyph glyph-name="nine" unicode="9" d="M230-8c-46 0-82 4-120 17v66c38-15 72-23 120-23 128 0 225 87 230 318-33-77-99-110-178-110-127 0-212 85-212 220 0 141 87 228 212 228 134 0 238-104 238-333C520 113 399-8 230-8zm52 328c101 0 158 62 158 150 0 111-67 178-158 178-89 0-142-53-142-168 0-106 54-160 142-160z"/><glyph glyph-name="colon" unicode=":" horiz-adv-x="282" d="M100 86h82V0h-82v86zm0 427h82v-86h-82v86z"/><glyph glyph-name="semicolon" unicode=";" horiz-adv-x="313" d="M132 513h82v-86h-82v86zm8-424h88l-74-218H85z"/><glyph glyph-name="less" unicode="&lt;" d="M550 95 50 320v60l500 225v-61L117 351l433-193V95z"/><glyph glyph-name="equal" unicode="=" d="M50 222v56h500v-56H50zm0 200v56h500v-56H50z"/><glyph glyph-name="greater" unicode="&gt;" d="M50 95v61l433 193L50 542v63l500-225v-60z"/><glyph glyph-name="question" unicode="?" horiz-adv-x="445" d="M50 625v62c44 15 84 21 129 21 136 0 216-63 216-167 0-77-35-128-82-180-41-46-96-90-96-156v-30h-57v30c0 85 57 132 108 192 30 35 56 82 56 144 0 106-122 110-144 110-45 0-86-6-130-26zm97-539h82V0h-82v86z"/><glyph glyph-name="at" unicode="@" horiz-adv-x="850" d="M620-41v-64c-28-15-96-30-160-30C210-135 50 25 50 269c0 236 165 401 386 401 217 0 364-147 364-330 0-194-114-274-200-274-65 0-90 29-95 74-23-40-73-74-130-74-85 0-150 65-150 174 0 134 90 224 195 224 60 0 100-29 121-74h2l12 68h60l-39-220c-6-33-12-68-12-78 0-22 9-34 36-34 69 0 135 66 135 214 0 152-118 270-300 270-185 0-320-135-320-341C115 55 245-75 460-75c65 0 125 15 160 34zM390 126c78 0 130 69 130 179 0 59-35 99-100 99-70 0-130-60-130-164 0-74 40-114 100-114z"/><glyph glyph-name="A" unicode="A" horiz-adv-x="650" d="m15 0 267 700h86L635 0h-72l-72 192H156L85 0H15zm163 249h291L326 634h-2z"/><glyph glyph-name="B" unicode="B" horiz-adv-x="577" d="M100 700h187c146 0 205-81 205-176 0-66-30-128-121-158v-3c84-16 141-83 141-166C512 2 314 0 281 0H100v700zm66-57V390h112c93 0 143 57 143 133 0 85-64 120-141 120H166zm0-310V57h106c59 0 169 11 169 139 0 87-68 137-162 137H166z"/><glyph glyph-name="C" unicode="C" horiz-adv-x="611" d="M405-8C190-8 55 127 55 360c0 208 140 348 350 348 62 0 120-8 170-27v-61c-76 25-120 31-170 31-159 0-279-120-279-291 0-200 111-311 279-311 63 0 124 10 176 31V19C540 6 479-8 405-8z"/><glyph glyph-name="D" unicode="D" horiz-adv-x="688" d="M100 700h171c81 0 362-7 362-353C633 135 498 0 271 0H100v700zm66-57V57h98c167 0 298 88 298 293 0 292-228 293-298 293h-98z"/><glyph glyph-name="E" unicode="E" horiz-adv-x="509" d="M100 700h340v-57H166V390h261v-57H166V57h293V0H100v700z"/><glyph glyph-name="F" unicode="F" horiz-adv-x="475" d="M100 700h335v-57H166V390h254v-57H166V0h-66v700z"/><glyph glyph-name="G" unicode="G" horiz-adv-x="711" d="M426-8C219-8 55 121 55 350c0 220 143 358 371 358 74 0 132-18 179-37v-65c-25 12-98 45-179 45-167 0-300-103-300-301 0-170 109-301 300-301 47 0 93 8 139 24v236H395v57h236V31C563 5 496-8 426-8z"/><glyph glyph-name="H" unicode="H" horiz-adv-x="696" d="M100 700h66V391h364v309h66V0h-66v334H166V0h-66v700z"/><glyph glyph-name="I" unicode="I" horiz-adv-x="266" d="M100 700h66V0h-66v700z"/><glyph glyph-name="J" unicode="J" horiz-adv-x="351" d="M185 700h66V175C251 50 193-8 89-8 64-8 40-5 15 2v60c22-9 45-13 73-13 60 0 97 37 97 126v525z"/><glyph glyph-name="K" unicode="K" horiz-adv-x="632" d="M100 700h66V377h1l24 25 299 298h84L234 369 612 0h-93L184 335l-17 19-1-1V0h-66v700z"/><glyph glyph-name="L" unicode="L" horiz-adv-x="472" d="M100 700h66V57h286V0H100v700z"/><glyph glyph-name="M" unicode="M" horiz-adv-x="814" d="M100 0v700h104l204-435 203 435h103V0h-66v640h-2L440 200h-66L168 640h-2V0h-66z"/><glyph glyph-name="N" unicode="N" horiz-adv-x="723" d="M100 700h85l341-566 31-64h2l-2 81v549h66V0h-85L202 555l-37 75h-3l4-81V0h-66v700z"/><glyph glyph-name="O" unicode="O" horiz-adv-x="744" d="M55 349c0 188 103 359 317 359s317-171 317-359C689 118 550-8 372-8S55 118 55 349zm71 0c0-210 124-300 246-300s246 90 246 300-124 302-246 302-246-92-246-302z"/><glyph glyph-name="P" unicode="P" horiz-adv-x="532" d="M100 0v700h162c154 0 230-77 230-210 0-134-76-210-230-210h-96V0h-66zm321 490c0 105-48 153-159 153h-96V337h96c111 0 159 48 159 153z"/><glyph glyph-name="Q" unicode="Q" horiz-adv-x="744" d="M658-131h-92L425-4c-18-3-35-4-53-4C194-8 55 118 55 349c0 188 103 359 317 359 213 0 317-171 317-359 0-95-32-276-193-333zM126 349c0-210 124-300 246-300s246 90 246 300-124 302-246 302-246-92-246-302z"/><glyph glyph-name="R" unicode="R" d="M100 0v700h164c154 0 230-77 230-210 0-92-36-157-108-188L540 0h-78L324 284c-19-3-39-4-60-4h-98V0h-66zm323 490c0 105-48 153-159 153h-98V337h98c111 0 159 48 159 153z"/><glyph glyph-name="S" unicode="S" horiz-adv-x="496" d="M213-8C156-8 103 2 50 23v68c48-23 114-42 163-42 68 0 162 33 162 122 0 83-61 121-159 171-76 39-161 81-161 192 0 77 42 174 216 174 48 0 98-7 152-25v-67c-59 26-105 35-152 35-129 0-145-75-145-117 0-64 45-93 146-146 110-58 174-103 174-212C446 83 380-8 213-8z"/><glyph glyph-name="T" unicode="T" horiz-adv-x="516" d="M15 700h486v-57H291V0h-66v643H15v57z"/><glyph glyph-name="U" unicode="U" horiz-adv-x="712" d="M166 700V235C166 89 278 49 356 49s190 40 190 186v465h66V233C612 85 511-8 356-8S100 85 100 233v467h66z"/><glyph glyph-name="V" unicode="V" horiz-adv-x="651" d="M20 700h73l219-556 21-81h2l25 81 205 556h66L371 0h-74z"/><glyph glyph-name="W" unicode="W" horiz-adv-x="967" d="M884 700h63L751 0h-83L504 532l-21 78h-3l-20-79L319 0h-83L20 700h72l167-566 18-77h2l16 78 157 565h72l167-566 18-77h2l16 78z"/><glyph glyph-name="X" unicode="X" horiz-adv-x="643" d="M35 700h82l180-253 22-33h1l23 33 179 253h76L361 371 623 0h-82L360 257l-41 67h-2l-42-70L99 0H20l258 371z"/><glyph glyph-name="Y" unicode="Y" horiz-adv-x="623" d="M10 700h77l195-310 24-41 31 48 195 303h81L338 292V0h-66v292z"/><glyph glyph-name="Z" unicode="Z" horiz-adv-x="562" d="M58 700h439v-67L170 125l-45-67 1-2 67 1h319V0H50v62l334 514 44 67-1 1-79-1H58v57z"/><glyph glyph-name="bracketleft" unicode="[" horiz-adv-x="330" d="M100-165v919h180v-57H170v-805h110v-57H100z"/><glyph glyph-name="backslash" unicode="\" horiz-adv-x="310" d="M260 0-10 700h60L320 0h-60z"/><glyph glyph-name="bracketright" unicode="]" horiz-adv-x="330" d="M230-165H50v57h110v805H50v57h180v-919z"/><glyph glyph-name="asciicircum" unicode="^" d="M300 645 120 350H50l215 350h70l215-350h-70z"/><glyph glyph-name="underscore" unicode="_" horiz-adv-x="500" d="M0-125v50h500v-50H0z"/><glyph glyph-name="grave" unicode="`" horiz-adv-x="344" d="m174 740 90-130h-50L80 740h94z"/><glyph glyph-name="a" unicode="a" horiz-adv-x="518" d="M215-8C105-8 45 52 45 140c0 98 75 173 270 173h57v17c0 96-42 138-117 138-50 0-106-12-155-37v58c43 19 95 32 155 32 118 0 180-62 180-191V0h-53v87h-2C337 8 270-8 215-8zm0 53c98 0 157 66 157 178v37h-57c-154 0-204-50-204-120 0-55 40-95 104-95z"/><glyph glyph-name="b" unicode="b" horiz-adv-x="568" d="M84 762h63V421c43 79 103 100 155 100 114 0 221-75 221-265C523 65 417-8 302-8c-75 0-130 50-159 114h-3L139 0H80l4 99v663zm63-506c0-161 95-211 155-211s155 50 155 211c0 163-95 212-155 212s-155-49-155-212z"/><glyph glyph-name="c" unicode="c" horiz-adv-x="460" d="M311-8C150-8 45 97 45 255c0 161 105 266 258 266 23 0 67-2 122-20v-56c-18 7-65 23-121 23-113 0-193-80-193-213 0-130 80-210 200-210 36 0 82 9 119 23V12C388-4 353-8 311-8z"/><glyph glyph-name="d" unicode="d" horiz-adv-x="568" d="M266-8C151-8 45 65 45 256c0 189 107 265 221 265 84 0 131-58 155-100v341h63V0h-56v106h-3C400 49 348-8 266-8zm0 53c60 0 155 50 155 211 0 163-95 212-155 212s-155-49-155-212c0-161 95-211 155-211z"/><glyph glyph-name="e" unicode="e" horiz-adv-x="508" d="M468 238H106c-1-63 24-193 170-193 52 0 102 7 153 33V20C377-2 327-8 275-8 129-8 40 89 40 265c0 161 93 256 223 256 191 0 205-174 205-263v-20zm-362 53h296c1 41-6 177-139 177-104 0-155-91-157-177z"/><glyph glyph-name="f" unicode="f" horiz-adv-x="338" d="M119 0v460H12v53h107v105c0 98 54 147 132 147 23 0 43-4 61-10v-52c-16 5-39 9-56 9-74 0-74-67-74-89V513h121v-53H182V0h-63z"/><glyph glyph-name="g" unicode="g" horiz-adv-x="568" d="M231-224c-50 0-90 8-136 28v58c48-23 99-33 148-33 108 0 178 59 178 174v89C378 13 318-8 266-8 152-8 45 67 45 257c0 191 106 264 221 264 75 0 130-50 159-114h3v106h56V-3c0-59-11-221-253-221zm190 481c0 161-95 211-155 211s-155-50-155-211c0-163 95-212 155-212s155 49 155 212z"/><glyph glyph-name="h" unicode="h" horiz-adv-x="563" d="M80 762h63V519l-5-112h2c26 64 84 114 164 114 164 0 179-125 179-202V0h-63v316c0 61 1 152-126 152-81 0-151-74-151-169V0H80v762z"/><glyph glyph-name="i" unicode="i" horiz-adv-x="223" d="M80 513h63V0H80v513zm-3 207h69v-80H77v80z"/><glyph glyph-name="j" unicode="j" horiz-adv-x="223" d="M143 513V-74c0-53-7-144-114-144-20 0-39 2-59 8v51c16-5 32-6 48-6 27 0 62 8 62 85v593h63zM77 720h69v-80H77v80z"/><glyph glyph-name="k" unicode="k" horiz-adv-x="509" d="M80 762h63V287h5l233 226h82L210 276 489 0h-89L148 252h-5V0H80v762z"/><glyph glyph-name="l" unicode="l" horiz-adv-x="223" d="M80 762h63V0H80v762z"/><glyph glyph-name="m" unicode="m" horiz-adv-x="856" d="M83 0v416l-3 97h62V413h2c24 60 80 108 156 108 85 0 131-48 145-108h1c28 62 87 108 167 108 167 0 163-142 163-179V0h-63v339c0 45-6 129-107 129-96 0-145-81-145-169V0h-63v339c0 27-1 129-108 129-84 0-144-79-144-169V0H83z"/><glyph glyph-name="n" unicode="n" horiz-adv-x="566" d="M146 0H83v395l-3 118h56V407h2c25 58 79 114 168 114 165 0 180-123 180-202V0h-63v316c0 63 1 152-126 152-87 0-151-78-151-169V0z"/><glyph glyph-name="o" unicode="o" horiz-adv-x="564" d="M45 256c0 160 94 265 237 265s237-105 237-265C519 97 424-8 282-8S45 97 45 256zm66 0c0-99 51-211 171-211s171 112 171 211c0 100-51 212-171 212S111 356 111 256z"/><glyph glyph-name="p" unicode="p" horiz-adv-x="568" d="M147-219H84v633l-4 99h60V407h3c17 47 59 114 159 114 142 0 221-102 221-264C523 69 416-8 302-8 233-8 179 33 148 92h-3l2-49v-262zm0 476c0-163 95-212 155-212s155 49 155 212c0 161-95 211-155 211s-155-50-155-211z"/><glyph glyph-name="q" unicode="q" horiz-adv-x="568" d="M421-219V92C397 50 350-8 266-8 152-8 45 68 45 257c0 191 106 264 221 264 82 0 134-57 159-114h3l1 106h59l-4-99v-633h-63zm0 476c0 161-95 211-155 211s-155-50-155-211c0-163 95-212 155-212s155 49 155 212z"/><glyph glyph-name="r" unicode="r" horiz-adv-x="352" d="M147 0H84v419l-4 94h60V403h1c12 54 49 118 124 118 19 0 38-3 57-9v-60c-18 7-36 10-55 10-84 0-120-98-120-167V0z"/><glyph glyph-name="s" unicode="s" horiz-adv-x="419" d="M185-8C140-8 98-2 50 15v62c45-21 91-32 137-32 70 0 116 34 116 93 0 66-45 81-114 111-66 29-132 61-132 147 0 79 73 125 172 125 44 0 81-8 122-27v-58c-38 21-78 32-125 32-49 0-107-14-107-72 0-53 30-69 132-111 49-21 118-58 118-147C369 68 319-8 185-8z"/><glyph glyph-name="t" unicode="t" horiz-adv-x="334" d="m113 641 63 23V513h122v-53H176V145c0-87 20-100 61-100 25 0 44 2 64 11V3C273-7 248-8 230-8 117-8 113 84 113 141v319H8v53h105v128z"/><glyph glyph-name="u" unicode="u" horiz-adv-x="558" d="M80 513h63V176c0-43 8-131 112-131 85 0 156 71 156 171v297h63V117l4-117h-59v102h-1C392 36 332-8 255-8 187-8 80 17 80 181v332z"/><glyph glyph-name="v" unicode="v" horiz-adv-x="469" d="M20 513h65L223 94l10-40h3l10 40 138 419h65L272 0h-75z"/><glyph glyph-name="w" unicode="w" horiz-adv-x="791" d="M20 513h64l114-391 16-69h3l16 69 123 391h79l123-391 16-69h3l16 69 114 391h64L617 0h-79L408 412l-11 48h-3l-11-48L253 0h-79z"/><glyph glyph-name="x" unicode="x" horiz-adv-x="498" d="M42 513h80l97-149 28-48h1l28 49 90 148h74L283 274 468 0h-82L272 185l-25 46h-1l-26-46L103 0H30l178 274z"/><glyph glyph-name="y" unicode="y" horiz-adv-x="490" d="M60-211v56s23-9 51-9c44 0 63 32 79 80l24 70L30 513h67L248 74h1l146 439h65L241-116c-21-59-53-104-124-104-28 0-56 9-57 9z"/><glyph glyph-name="z" unicode="z" horiz-adv-x="474" d="M50 513h366v-60L154 102l-40-49h315V0H45v52l264 356 41 52H50v53z"/><glyph glyph-name="braceleft" unicode="{" horiz-adv-x="344" d="M294-141c-99 0-149 51-149 149v134c0 66-7 134-95 146v43c88 12 95 80 95 146v134c0 99 50 149 149 149v-45c-53 0-83-30-83-104V476c0-105-30-145-107-165v-3c77-20 107-60 107-165V8c0-74 30-104 83-104v-45z"/><glyph glyph-name="bar" unicode="|" horiz-adv-x="168" d="M56-140v902h56v-902H56z"/><glyph glyph-name="braceright" unicode="}" horiz-adv-x="344" d="M50-141v45c53 0 83 30 83 104v135c0 105 30 145 107 165v3c-77 20-107 60-107 165v135c0 74-30 104-83 104v45c99 0 149-51 149-149V477c0-66 7-134 95-146v-43c-88-12-95-80-95-146V8c0-99-50-149-149-149z"/><glyph glyph-name="asciitilde" unicode="~" d="m80 280-30 40c30 60 80 100 140 100 90 0 150-80 220-80 32 0 80 20 110 80l30-40c-30-60-80-100-140-100-90 0-150 80-220 80-34 0-80-20-110-80z"/><glyph glyph-name="uni00A0" horiz-adv-x="233"/><glyph glyph-name="exclamdown" unicode="¡" horiz-adv-x="282" d="M112 306h58l12-525h-82zm-12 89v86h82v-86h-82z"/><glyph glyph-name="cent" unicode="¢" d="M334-100v97c-78 8-129 48-158 83-37 44-58 102-58 176 0 107 45 173 87 208 29 25 73 48 129 53v93h44v-91c39 0 79-6 118-20v-57c-41 17-80 24-116 24-60 0-111-16-149-61-21-25-47-71-47-149 0-76 25-124 53-154 39-41 88-55 147-55 38 0 78 8 116 23V12C458-1 417-6 378-6v-94h-44z"/><glyph glyph-name="sterling" unicode="£" d="M95 347v56h103v87c0 124 69 218 218 218 47 0 82-9 99-14v-60c-34 12-67 17-99 17-112 0-152-75-152-161v-87h168v-56H264V57h246V0H95v57h103v290H95z"/><glyph glyph-name="currency" unicode="¤" d="m90 100-40 40 58 58c-33 42-53 94-53 152 0 57 20 110 53 152l-58 58 40 40 58-58c42 33 94 53 152 53 57 0 110-20 152-53l58 58 40-40-58-58c33-42 53-95 53-152 0-58-20-110-53-152l58-58-40-40-58 58c-42-33-95-53-152-53-58 0-110 20-152 53zm210 65c102 0 185 83 185 185s-83 185-185 185-185-83-185-185 83-185 185-185z"/><glyph glyph-name="yen" unicode="¥" d="M267 0v199H55v56h212v37l-24 38H55v56h152L5 700h80l216-351 214 351h80L393 386h152v-56H357l-24-38v-37h212v-56H333V0h-66z"/><glyph glyph-name="brokenbar" unicode="¦" horiz-adv-x="168" d="M56 401v361h56V401H56zm0-180h56v-361H56v361z"/><glyph glyph-name="section" unicode="§" horiz-adv-x="540" d="M470 260c0-59-41-113-110-149 52-32 70-68 70-125 0-74-60-134-180-134-53 0-85 11-137 30v65c51-25 80-38 137-38 74 0 109 35 109 77 0 34-3 65-111 109C118 148 70 201 70 300c0 59 41 113 110 148-52 33-70 69-70 126 0 74 60 134 180 134 53 0 85-11 137-30v-65c-51 25-80 38-137 38-74 0-109-35-109-77 0-34 6-66 111-109 130-53 178-106 178-205zM256 412l-14 5c-58-21-101-60-101-117 0-73 19-99 142-152l14-6c58 21 102 60 102 118 0 63-17 107-143 152z"/><glyph glyph-name="dieresis" unicode="¨" horiz-adv-x="448" d="M80 720h69v-80H80v80zm219 0h69v-80h-69v80z"/><glyph glyph-name="copyright" unicode="©" horiz-adv-x="938" d="M469-19c-203 0-369 166-369 369s166 369 369 369 369-166 369-369S672-19 469-19zm0 50c178 0 319 141 319 319S647 669 469 669 150 528 150 350 291 31 469 31zm21 102c-130 0-212 82-212 223 0 126 85 211 212 211 38 0 73-5 103-16v-56c-46 15-63 18-103 18-78 0-146-67-146-157 0-107 62-169 146-169 38 0 75 6 107 18v-56c-25-8-62-16-107-16z"/><glyph glyph-name="ordfeminine" unicode="ª" horiz-adv-x="364" d="M145 390c-66 0-100 40-100 87 0 90 89 106 176 106h20v11c0 17 0 78-71 78-29 0-63-8-92-24v40c45 19 82 20 92 20 111 0 113-93 113-115V462l1-67h-37v52h-1c-26-46-68-57-101-57zm0 36c72 0 96 65 96 99v22h-34c-39 0-120-3-120-67 0-26 16-54 58-54z"/><glyph glyph-name="guillemotleft" unicode="«" horiz-adv-x="510" d="m122 307 131-207h-57L56 307l140 207h57zm177 0 131-207h-57L233 307l140 207h57z"/><glyph glyph-name="logicalnot" unicode="¬" d="M50 322v56h500V108h-60v214H50z"/><glyph glyph-name="uni00AD" unicode="­" horiz-adv-x="400" d="M80 265v70h240v-70H80z"/><glyph glyph-name="registered" unicode="®" horiz-adv-x="938" d="M469-19c-203 0-369 166-369 369s166 369 369 369 369-166 369-369S672-19 469-19zm0 50c178 0 319 141 319 319S647 669 469 669 150 528 150 350 291 31 469 31zm-129 99v435h128c95 0 142-48 142-131 0-58-23-98-69-117l89-187h-64l-79 175c-6-1-13-1-19-1h-71V130h-57zm210 304c0 51-30 81-82 81h-71V354h71c52 0 82 30 82 80z"/><glyph glyph-name="macron" unicode="¯" horiz-adv-x="412" d="M80 714h252v-54H80v54z"/><glyph glyph-name="degree" unicode="°" horiz-adv-x="336" d="M56 602c0 62 50 112 112 112s112-50 112-112-50-112-112-112S56 540 56 602zm42 0c0-39 31-70 70-70s70 31 70 70-31 70-70 70-70-31-70-70z"/><glyph glyph-name="plusminus" unicode="±" d="M50 49v56h500V49H50zm222 100v222H50v56h222v222h56V427h222v-56H328V149h-56z"/><glyph glyph-name="twosuperior" unicode="²" horiz-adv-x="333" d="M40 283v37c98 112 183 193 183 270 0 28-13 71-70 71-40 0-75-12-103-27v50c35 17 68 24 103 24 84 0 125-44 125-104 0-84-52-147-168-274h183v-47H40z"/><glyph glyph-name="threesuperior" unicode="³" horiz-adv-x="333" d="M151 278c-39 0-86 9-121 21v51c34-16 83-25 121-25 47 0 95 21 95 74 0 48-34 78-87 78H90v48h70c55 0 83 37 83 75 0 31-30 61-86 61-37 0-76-10-106-25v51c33 13 68 21 106 21 70 0 140-32 140-108 0-40-24-80-69-97v-3c46-11 75-50 75-101 0-59-46-121-152-121z"/><glyph glyph-name="acute" unicode="´" horiz-adv-x="344" d="M170 740h94L130 610H80z"/><glyph glyph-name="mu" unicode="µ" horiz-adv-x="554" d="M411 513h63V0h-55v102C406 59 372-8 281-8 221-8 175 5 143 49v-268H80v732h63V216c0-61 7-171 138-171 110 0 130 120 130 171v297z"/><glyph glyph-name="paragraph" unicode="¶" horiz-adv-x="540" d="M244-140v540h-14c-83 0-150 67-150 150s67 150 150 150h210v-840h-63v787h-70v-787h-63z"/><glyph glyph-name="periodcentered" unicode="·" horiz-adv-x="282" d="M100 402h82v-86h-82v86z"/><glyph glyph-name="cedilla" unicode="¸" horiz-adv-x="190" d="M90-182c-36 0-55 10-70 21l20 32c12-9 25-13 37-13 35 0 42 24 42 39 0 17-8 41-42 41-8 0-16 0-24-2l10 74h40l-4-38c38-1 71-26 71-75 0-64-53-79-80-79z"/><glyph glyph-name="onesuperior" unicode="¹" horiz-adv-x="333" d="M185 280v361l-77-64-28 35 108 88h52V280h-55z"/><glyph glyph-name="ordmasculine" unicode="º" horiz-adv-x="374" d="M187 390C85 390 45 473 45 549s39 159 142 159 142-83 142-159-40-159-142-159zm0 36c59 0 100 50 100 123 0 86-53 123-100 123S87 635 87 549c0-73 41-123 100-123z"/><glyph glyph-name="guillemotright" unicode="»" horiz-adv-x="510" d="M388 307 257 514h57l140-207-140-207h-57zm-177 0L80 514h57l140-207-140-207H80z"/><glyph glyph-name="onequarter" unicode="¼" horiz-adv-x="833" d="M175 280v361l-77-64-28 35 108 88h52V280h-55zM187 0h-62l488 700h62zm447-3V97H436v35l184 285h69V144h64V97h-64V-3h-55zM497 144h137v219z"/><glyph glyph-name="onehalf" unicode="½" horiz-adv-x="833" d="M175 280v361l-77-64-28 35 108 88h52V280h-55zM167 0h-62l488 700h62zm320 0v37c98 112 183 193 183 270 0 28-13 71-70 71-40 0-75-12-103-27v50c35 17 68 24 103 24 84 0 125-44 125-104 0-84-52-147-168-274h183V0H487z"/><glyph glyph-name="threequarters" unicode="¾" horiz-adv-x="833" d="M121 278c-39 0-86 9-121 21v51c34-16 83-25 121-25 47 0 95 21 95 74 0 48-34 78-87 78H60v48h70c55 0 83 37 83 75 0 31-30 61-86 61-37 0-76-10-106-25v51c33 13 68 21 106 21 70 0 140-32 140-108 0-40-24-80-69-97v-3c46-11 75-50 75-101 0-59-46-121-152-121zM187 0h-62l488 700h62zm447-3V97H436v35l184 285h69V144h64V97h-64V-3h-55zM497 144h137v219z"/><glyph glyph-name="questiondown" unicode="¿" horiz-adv-x="445" d="M285 306v-30c0-85-57-132-108-192-29-35-56-82-56-144 0-105 121-108 144-108 45 0 86 6 130 26v-62c-44-15-84-21-129-21-137 0-216 61-216 165 0 76 35 128 82 180 41 46 96 90 96 156v30h57zm13 89h-82v86h82v-86z"/><glyph glyph-name="Agrave" unicode="À" horiz-adv-x="650" d="m15 0 267 700h86L635 0h-72l-72 192H156L85 0H15zm163 249h291L326 634h-2zm97 621 80-120h-60L175 870h100z"/><glyph glyph-name="Aacute" unicode="Á" horiz-adv-x="650" d="m15 0 267 700h86L635 0h-72l-72 192H156L85 0H15zm163 249h291L326 634h-2zm197 621h100L355 750h-60z"/><glyph glyph-name="Acircumflex" unicode="Â" horiz-adv-x="650" d="m15 0 267 700h86L635 0h-72l-72 192H156L85 0H15zm163 249h291L326 634h-2zm147 587-80-86h-70l102 120h96l102-120h-70z"/><glyph glyph-name="Atilde" unicode="Ã" horiz-adv-x="650" d="m15 0 267 700h86L635 0h-72l-72 192H156L85 0H15zm163 249h291L326 634h-2zm258 599h40c3-40-21-85-79-85-76 0-82 39-138 39-10 0-37-6-44-39h-40c-3 48 28 88 77 88 28 0 56-8 86-21 22-9 40-18 58-18 13 0 36 8 40 36z"/><glyph glyph-name="Adieresis" unicode="Ä" horiz-adv-x="650" d="m15 0 267 700h86L635 0h-72l-72 192H156L85 0H15zm163 249h291L326 634h-2zm-2 595h69v-80h-69v80zm229 0h69v-80h-69v80z"/><glyph glyph-name="Aring" unicode="Å" horiz-adv-x="651" d="m16 0 267 700h86L636 0h-72l-72 192H157L86 0H16zm163 249h291L327 634h-2zm51 565c0 53 43 96 96 96s96-43 96-96-43-96-96-96-96 43-96 96zm36 0c0-33 27-60 60-60s60 27 60 60-27 60-60 60-60-27-60-60z"/><glyph glyph-name="AE" unicode="Æ" horiz-adv-x="854" d="M442 700h393v-57H556l13-253h247v-57H573l15-276h251V0H522l-10 193H208L90 0H15zM244 250h264l-21 390h-6z"/><glyph glyph-name="Ccedilla" unicode="Ç" horiz-adv-x="611" d="M405-8h-5l-1-22c54 1 90-37 90-85 0-58-38-106-114-106-30 0-53 11-73 26l25 40c17-12 33-16 46-16 28 0 52 15 52 48 0 30-20 50-53 50-10 0-19 0-29-2l6 71C167 17 55 148 55 360c0 208 140 348 350 348 62 0 120-8 170-27v-61c-76 25-120 31-170 31-159 0-279-120-279-291 0-200 111-311 279-311 63 0 124 10 176 31V19C540 6 479-8 405-8z"/><glyph glyph-name="Egrave" unicode="È" horiz-adv-x="509" d="M100 700h340v-57H166V390h261v-57H166V57h293V0H100v700zm160 170 80-120h-60L160 870h100z"/><glyph glyph-name="Eacute" unicode="É" horiz-adv-x="509" d="M100 700h340v-57H166V390h261v-57H166V57h293V0H100v700zm200 170h100L280 750h-60z"/><glyph glyph-name="Ecircumflex" unicode="Ê" horiz-adv-x="509" d="M100 700h340v-57H166V390h261v-57H166V57h293V0H100v700zm170 136-80-86h-70l102 120h96l102-120h-70z"/><glyph glyph-name="Edieresis" unicode="Ë" horiz-adv-x="509" d="M100 700h340v-57H166V390h261v-57H166V57h293V0H100v700zm24 144h69v-80h-69v80zm229 0h69v-80h-69v80z"/><glyph glyph-name="Igrave" unicode="Ì" horiz-adv-x="266" d="M100 700h66V0h-66v700zm36 170 80-120h-60L36 870h100z"/><glyph glyph-name="Iacute" unicode="Í" horiz-adv-x="266" d="M100 700h66V0h-66v700zm16 170h100L96 750H36z"/><glyph glyph-name="Icircumflex" unicode="Î" horiz-adv-x="266" d="M100 700h66V0h-66v700zm33 136-80-86h-70L85 870h96l102-120h-70z"/><glyph glyph-name="Idieresis" unicode="Ï" horiz-adv-x="266" d="M100 700h66V0h-66v700zM32 844h66v-80H32v80zm136 0h66v-80h-66v80z"/><glyph glyph-name="Eth" unicode="Ð" horiz-adv-x="688" d="M100 700h171c81 0 362-7 362-353C633 135 498 0 271 0H100v346H-9v45h109v309zm66-57V391h199v-45H166V57h98c167 0 298 88 298 293 0 292-228 293-298 293h-98z"/><glyph glyph-name="Ntilde" unicode="Ñ" horiz-adv-x="723" d="M100 700h85l341-566 31-64h2l-2 81v549h66V0h-85L202 555l-37 75h-3l4-81V0h-66v700zm372 148h40c3-40-21-85-79-85-76 0-82 39-138 39-10 0-37-6-44-39h-40c-3 48 28 88 77 88 28 0 56-8 86-21 22-9 40-18 58-18 13 0 36 8 40 36z"/><glyph glyph-name="Ograve" unicode="Ò" horiz-adv-x="744" d="M55 349c0 188 103 359 317 359s317-171 317-359C689 118 550-8 372-8S55 118 55 349zm71 0c0-210 124-300 246-300s246 90 246 300-124 302-246 302-246-92-246-302zm248 521 80-120h-60L274 870h100z"/><glyph glyph-name="Oacute" unicode="Ó" horiz-adv-x="744" d="M55 349c0 188 103 359 317 359s317-171 317-359C689 118 550-8 372-8S55 118 55 349zm71 0c0-210 124-300 246-300s246 90 246 300-124 302-246 302-246-92-246-302zm228 521h100L334 750h-60z"/><glyph glyph-name="Ocircumflex" unicode="Ô" horiz-adv-x="744" d="M55 349c0 188 103 359 317 359s317-171 317-359C689 118 550-8 372-8S55 118 55 349zm71 0c0-210 124-300 246-300s246 90 246 300-124 302-246 302-246-92-246-302zm246 487-80-86h-70l102 120h96l102-120h-70z"/><glyph glyph-name="Otilde" unicode="Õ" horiz-adv-x="744" d="M55 349c0 188 103 359 317 359s317-171 317-359C689 118 550-8 372-8S55 118 55 349zm71 0c0-210 124-300 246-300s246 90 246 300-124 302-246 302-246-92-246-302zm356 499h40c3-40-21-85-79-85-76 0-82 39-138 39-10 0-37-6-44-39h-40c-3 48 28 88 77 88 28 0 56-8 86-21 22-9 40-18 58-18 13 0 36 8 40 36z"/><glyph glyph-name="Odieresis" unicode="Ö" horiz-adv-x="744" d="M55 349c0 188 103 359 317 359s317-171 317-359C689 118 550-8 372-8S55 118 55 349zm71 0c0-210 124-300 246-300s246 90 246 300-124 302-246 302-246-92-246-302zm97 495h69v-80h-69v80zm229 0h69v-80h-69v80z"/><glyph glyph-name="multiply" unicode="×" d="m501 596 39-39-201-201 201-201-39-39-201 201L99 116l-39 39 201 201L60 557l39 39 201-201z"/><glyph glyph-name="Oslash" unicode="Ø" horiz-adv-x="744" d="m81 8 62 81c-51 65-88 145-88 260 0 188 103 359 317 359 98 0 158-37 193-64l59 78 39-28-63-83c52-66 89-146 89-262C689 118 550-8 372-8c-97 0-159 37-194 64l-57-75zm103 136 342 449c-58 50-120 58-154 58-122 0-246-92-246-302 0-83 23-150 58-205zm375 413L217 108c59-51 122-59 155-59 123 0 246 90 246 300 0 95-31 163-59 208z"/><glyph glyph-name="Ugrave" unicode="Ù" horiz-adv-x="712" d="M166 700V235C166 89 278 49 356 49s190 40 190 186v465h66V233C612 85 511-8 356-8S100 85 100 233v467h66zm192 170 80-120h-60L258 870h100z"/><glyph glyph-name="Uacute" unicode="Ú" horiz-adv-x="712" d="M166 700V235C166 89 278 49 356 49s190 40 190 186v465h66V233C612 85 511-8 356-8S100 85 100 233v467h66zm172 170h100L318 750h-60z"/><glyph glyph-name="Ucircumflex" unicode="Û" horiz-adv-x="712" d="M166 700V235C166 89 278 49 356 49s190 40 190 186v465h66V233C612 85 511-8 356-8S100 85 100 233v467h66zm190 136-80-86h-70l102 120h96l102-120h-70z"/><glyph glyph-name="Udieresis" unicode="Ü" horiz-adv-x="712" d="M166 700V235C166 89 278 49 356 49s190 40 190 186v465h66V233C612 85 511-8 356-8S100 85 100 233v467h66zm41 144h69v-80h-69v80zm229 0h69v-80h-69v80z"/><glyph glyph-name="Yacute" unicode="Ý" horiz-adv-x="623" d="M10 700h77l195-310 24-41 31 48 195 303h81L338 292V0h-66v292zm320 170h100L310 750h-60z"/><glyph glyph-name="Thorn" unicode="Þ" horiz-adv-x="532" d="M100 700h66V552h116c130 0 210-82 210-202s-79-202-210-202H166V0h-66v700zm66-205V205h103c38 0 152 7 152 145 0 144-134 145-152 145H166z"/><glyph glyph-name="germandbls" unicode="ß" horiz-adv-x="585" d="M80 0v538c0 188 115 227 206 227 112 0 185-70 185-181 0-79-49-137-117-160v-3c94-11 166-77 166-191C520 83 433-8 311-8c-32 0-64 3-96 14v55c29-12 62-16 91-16 87 0 148 68 148 178 0 146-130 164-175 164h-35v54h34c56 0 127 55 127 135 0 74-36 136-129 136-125 0-133-113-133-173V0H80z"/><glyph glyph-name="agrave" unicode="à" horiz-adv-x="518" d="M215-8C105-8 45 52 45 140c0 98 75 173 270 173h57v17c0 96-42 138-117 138-50 0-106-12-155-37v58c43 19 95 32 155 32 118 0 180-62 180-191V0h-53v87h-2C337 8 270-8 215-8zm0 53c98 0 157 66 157 178v37h-57c-154 0-204-50-204-120 0-55 40-95 104-95zm-25 695 90-130h-50L96 740h94z"/><glyph glyph-name="aacute" unicode="á" horiz-adv-x="518" d="M215-8C105-8 45 52 45 140c0 98 75 173 270 173h57v17c0 96-42 138-117 138-50 0-106-12-155-37v58c43 19 95 32 155 32 118 0 180-62 180-191V0h-53v87h-2C337 8 270-8 215-8zm0 53c98 0 157 66 157 178v37h-57c-154 0-204-50-204-120 0-55 40-95 104-95zm105 695h94L280 610h-50z"/><glyph glyph-name="acircumflex" unicode="â" horiz-adv-x="518" d="M215-8C105-8 45 52 45 140c0 98 75 173 270 173h57v17c0 96-42 138-117 138-50 0-106-12-155-37v58c43 19 95 32 155 32 118 0 180-62 180-191V0h-53v87h-2C337 8 270-8 215-8zm0 53c98 0 157 66 157 178v37h-57c-154 0-204-50-204-120 0-55 40-95 104-95zm40 661-88-96h-60l110 130h76l110-130h-60z"/><glyph glyph-name="atilde" unicode="ã" horiz-adv-x="518" d="M215-8C105-8 45 52 45 140c0 98 75 173 270 173h57v17c0 96-42 138-117 138-50 0-106-12-155-37v58c43 19 95 32 155 32 118 0 180-62 180-191V0h-53v87h-2C337 8 270-8 215-8zm0 53c98 0 157 66 157 178v37h-57c-154 0-204-50-204-120 0-55 40-95 104-95zm146 696h38c2-43-23-81-76-81-27 0-50 8-69 15-28 12-44 20-62 20-14 0-35-7-42-35h-38c-3 51 32 84 79 84 25 0 49-8 77-19 22-9 37-16 53-16 13 0 35 5 40 32z"/><glyph glyph-name="adieresis" unicode="ä" horiz-adv-x="518" d="M215-8C105-8 45 52 45 140c0 98 75 173 270 173h57v17c0 96-42 138-117 138-50 0-106-12-155-37v58c43 19 95 32 155 32 118 0 180-62 180-191V0h-53v87h-2C337 8 270-8 215-8zm0 53c98 0 157 66 157 178v37h-57c-154 0-204-50-204-120 0-55 40-95 104-95zM111 720h69v-80h-69v80zm219 0h69v-80h-69v80z"/><glyph glyph-name="aring" unicode="å" horiz-adv-x="518" d="M215-8C105-8 45 52 45 140c0 98 75 173 270 173h57v17c0 96-42 138-117 138-50 0-106-12-155-37v58c43 19 95 32 155 32 118 0 180-62 180-191V0h-53v87h-2C337 8 270-8 215-8zm0 53c98 0 157 66 157 178v37h-57c-154 0-204-50-204-120 0-55 40-95 104-95zm-20 639c0-33 27-60 60-60s60 27 60 60-27 60-60 60-60-27-60-60zm-36 0c0 53 43 96 96 96s96-43 96-96-43-96-96-96-96 43-96 96z"/><glyph glyph-name="ae" unicode="æ" horiz-adv-x="835" d="M101 427v60c43 20 93 34 153 34 79 0 140-28 158-96h3c35 64 100 96 174 96 179 0 201-159 201-263v-9H435c0-123 71-208 181-208 41 0 88 12 137 39V22C707 1 659-9 614-9c-95 0-179 44-214 124h-2C353 7 263-8 213-8 101-8 45 59 45 137c0 161 170 165 279 165h48v29c0 38-2 137-118 137-51 0-104-11-153-41zm334-125h289c-1 54-17 166-135 166-108 0-148-100-154-166zm-63-53h-57c-118 0-204-21-204-108 0-55 44-96 101-96 98 0 160 66 160 178v26z"/><glyph glyph-name="ccedilla" unicode="ç" horiz-adv-x="460" d="M285-182c-36 0-55 10-70 21l20 32c12-9 25-13 37-13 35 0 42 24 42 39 0 17-8 41-42 41-8 0-16 0-24-2l8 61C126 18 45 116 45 255c0 161 105 266 258 266 23 0 67-2 122-20v-56c-18 7-65 23-121 23-113 0-193-80-193-213 0-130 80-210 200-210 36 0 82 9 119 23V12C388-4 353-8 311-8h-15l-2-20c38-1 71-26 71-75 0-64-53-79-80-79z"/><glyph glyph-name="egrave" unicode="è" horiz-adv-x="508" d="M468 238H106c-1-63 24-193 170-193 52 0 102 7 153 33V20C377-2 327-8 275-8 129-8 40 89 40 265c0 161 93 256 223 256 191 0 205-174 205-263v-20zm-362 53h296c1 41-6 177-139 177-104 0-155-91-157-177zm150 449 90-130h-50L162 740h94z"/><glyph glyph-name="eacute" unicode="é" horiz-adv-x="508" d="M468 238H106c-1-63 24-193 170-193 52 0 102 7 153 33V20C377-2 327-8 275-8 129-8 40 89 40 265c0 161 93 256 223 256 191 0 205-174 205-263v-20zm-362 53h296c1 41-6 177-139 177-104 0-155-91-157-177zm204 449h94L270 610h-50z"/><glyph glyph-name="ecircumflex" unicode="ê" horiz-adv-x="508" d="M468 238H106c-1-63 24-193 170-193 52 0 102 7 153 33V20C377-2 327-8 275-8 129-8 40 89 40 265c0 161 93 256 223 256 191 0 205-174 205-263v-20zm-362 53h296c1 41-6 177-139 177-104 0-155-91-157-177zm157 415-88-96h-60l110 130h76l110-130h-60z"/><glyph glyph-name="edieresis" unicode="ë" horiz-adv-x="508" d="M468 238H106c-1-63 24-193 170-193 52 0 102 7 153 33V20C377-2 327-8 275-8 129-8 40 89 40 265c0 161 93 256 223 256 191 0 205-174 205-263v-20zm-362 53h296c1 41-6 177-139 177-104 0-155-91-157-177zm4 429h69v-80h-69v80zm219 0h69v-80h-69v80z"/><glyph glyph-name="igrave" unicode="ì" horiz-adv-x="223" d="M80 513h63V0H80v513zm8 227 90-130h-50L-6 740h94z"/><glyph glyph-name="iacute" unicode="í" horiz-adv-x="223" d="M80 513h63V0H80v513zm70 227h94L110 610H60z"/><glyph glyph-name="icircumflex" unicode="î" horiz-adv-x="223" d="M80 513h63V0H80v513zm32 193-88-96h-60L74 740h76l110-130h-60z"/><glyph glyph-name="idieresis" unicode="ï" horiz-adv-x="223" d="M80 513h63V0H80v513zM20 720h66v-80H20v80zm117 0h66v-80h-66v80z"/><glyph glyph-name="eth" unicode="ð" d="M46 252c0 182 122 254 237 254 81 0 128-34 157-67-31 139-142 181-151 184l-72-61-31 38 47 40c-31 6-63 11-98 13l12 58c47-1 94-10 141-26l91 77 31-38-71-60c171-96 181-315 181-408C520 97 428-8 283-8 142-8 46 98 46 252zm66-2c0-117 70-205 171-205 121 0 171 112 171 211 0 121-71 197-171 197s-171-88-171-203z"/><glyph glyph-name="ntilde" unicode="ñ" horiz-adv-x="566" d="M146 0H83v395l-3 118h56V407h2c25 58 79 114 168 114 165 0 180-123 180-202V0h-63v316c0 63 1 152-126 152-87 0-151-78-151-169V0zm242 741h38c2-43-23-81-76-81-27 0-50 8-69 15-28 12-44 20-62 20-14 0-35-7-42-35h-38c-3 51 32 84 79 84 25 0 49-8 77-19 22-9 37-16 53-16 13 0 35 5 40 32z"/><glyph glyph-name="ograve" unicode="ò" horiz-adv-x="564" d="M45 256c0 160 94 265 237 265s237-105 237-265C519 97 424-8 282-8S45 97 45 256zm66 0c0-99 51-211 171-211s171 112 171 211c0 100-51 212-171 212S111 356 111 256zm163 484 90-130h-50L180 740h94z"/><glyph glyph-name="oacute" unicode="ó" horiz-adv-x="564" d="M45 256c0 160 94 265 237 265s237-105 237-265C519 97 424-8 282-8S45 97 45 256zm66 0c0-99 51-211 171-211s171 112 171 211c0 100-51 212-171 212S111 356 111 256zm189 484h94L260 610h-50z"/><glyph glyph-name="ocircumflex" unicode="ô" horiz-adv-x="564" d="M45 256c0 160 94 265 237 265s237-105 237-265C519 97 424-8 282-8S45 97 45 256zm66 0c0-99 51-211 171-211s171 112 171 211c0 100-51 212-171 212S111 356 111 256zm171 450-88-96h-60l110 130h76l110-130h-60z"/><glyph glyph-name="otilde" unicode="õ" horiz-adv-x="564" d="M45 256c0 160 94 265 237 265s237-105 237-265C519 97 424-8 282-8S45 97 45 256zm66 0c0-99 51-211 171-211s171 112 171 211c0 100-51 212-171 212S111 356 111 256zm276 485h38c2-43-23-81-76-81-27 0-50 8-69 15-28 12-44 20-62 20-14 0-35-7-42-35h-38c-3 51 32 84 79 84 25 0 49-8 77-19 22-9 37-16 53-16 13 0 35 5 40 32z"/><glyph glyph-name="odieresis" unicode="ö" horiz-adv-x="564" d="M45 256c0 160 94 265 237 265s237-105 237-265C519 97 424-8 282-8S45 97 45 256zm66 0c0-99 51-211 171-211s171 112 171 211c0 100-51 212-171 212S111 356 111 256zm27 464h69v-80h-69v80zm219 0h69v-80h-69v80z"/><glyph glyph-name="divide" unicode="÷" d="M50 322v56h500v-56H50zm190-172c0 33 27 60 60 60s60-27 60-60-27-60-60-60-60 27-60 60zm0 400c0 33 27 60 60 60s60-27 60-60-27-60-60-60-60 27-60 60z"/><glyph glyph-name="oslash" unicode="ø" horiz-adv-x="564" d="m52 2 53 67c-44 57-60 121-60 187 0 160 94 265 237 265 76 0 119-26 143-45l52 65 35-26-55-70c54-64 62-142 62-189C519 96 424-8 282-8c-75 0-119 24-147 47L87-22zm94 119 242 307c-25 24-56 40-106 40-120 0-171-112-171-212 0-35 7-84 35-135zm270 273L173 87c27-26 60-42 109-42 120 0 171 113 171 211 0 43-10 91-37 138z"/><glyph glyph-name="ugrave" unicode="ù" horiz-adv-x="558" d="M80 513h63V176c0-43 8-131 112-131 85 0 156 71 156 171v297h63V117l4-117h-59v102h-1C392 36 332-8 255-8 187-8 80 17 80 181v332zm146 227 90-130h-50L132 740h94z"/><glyph glyph-name="uacute" unicode="ú" horiz-adv-x="558" d="M80 513h63V176c0-43 8-131 112-131 85 0 156 71 156 171v297h63V117l4-117h-59v102h-1C392 36 332-8 255-8 187-8 80 17 80 181v332zm227 227h94L267 610h-50z"/><glyph glyph-name="ucircumflex" unicode="û" horiz-adv-x="558" d="M80 513h63V176c0-43 8-131 112-131 85 0 156 71 156 171v297h63V117l4-117h-59v102h-1C392 36 332-8 255-8 187-8 80 17 80 181v332zm199 193-88-96h-60l110 130h76l110-130h-60z"/><glyph glyph-name="udieresis" unicode="ü" horiz-adv-x="558" d="M80 513h63V176c0-43 8-131 112-131 85 0 156 71 156 171v297h63V117l4-117h-59v102h-1C392 36 332-8 255-8 187-8 80 17 80 181v332zm55 207h69v-80h-69v80zm219 0h69v-80h-69v80z"/><glyph glyph-name="yacute" unicode="ý" horiz-adv-x="490" d="M60-211v56s23-9 51-9c44 0 63 32 79 80l24 70L30 513h67L248 74h1l146 439h65L241-116c-21-59-53-104-124-104-28 0-56 9-57 9zm250 951h94L270 610h-50z"/><glyph glyph-name="thorn" unicode="þ" horiz-adv-x="564" d="M143-219H80v919h63V459l-7-52h3c17 47 59 114 159 114 142 0 221-102 221-264C519 69 412-8 298-8 229-8 175 33 144 92h-3l2-49v-262zm0 476c0-163 95-212 155-212s155 49 155 212c0 161-95 211-155 211s-155-50-155-211z"/><glyph glyph-name="ydieresis" unicode="ÿ" horiz-adv-x="490" d="M60-211v56s23-9 51-9c44 0 63 32 79 80l24 70L30 513h67L248 74h1l146 439h65L241-116c-21-59-53-104-124-104-28 0-56 9-57 9zm41 931h69v-80h-69v80zm219 0h69v-80h-69v80z"/><glyph glyph-name="Amacron" unicode="Ā" horiz-adv-x="650" d="m15 0 267 700h86L635 0h-72l-72 192H156L85 0H15zm163 249h291L326 634h-2zm16 585h262v-60H194v60z"/><glyph glyph-name="amacron" unicode="ā" horiz-adv-x="518" d="M215-8C105-8 45 52 45 140c0 98 75 173 270 173h57v17c0 96-42 138-117 138-50 0-106-12-155-37v58c43 19 95 32 155 32 118 0 180-62 180-191V0h-53v87h-2C337 8 270-8 215-8zm0 53c98 0 157 66 157 178v37h-57c-154 0-204-50-204-120 0-55 40-95 104-95zm-86 669h252v-54H129v54z"/><glyph glyph-name="Abreve" unicode="Ă" horiz-adv-x="650" d="m15 0 267 700h86L635 0h-72l-72 192H156L85 0H15zm163 249h291L326 634h-2zm-14 621h60c17-45 65-58 101-58s84 13 101 58h60c-27-75-90-116-161-116s-134 41-161 116z"/><glyph glyph-name="abreve" unicode="ă" horiz-adv-x="518" d="M215-8C105-8 45 52 45 140c0 98 75 173 270 173h57v17c0 96-42 138-117 138-50 0-106-12-155-37v58c43 19 95 32 155 32 118 0 180-62 180-191V0h-53v87h-2C337 8 270-8 215-8zm0 53c98 0 157 66 157 178v37h-57c-154 0-204-50-204-120 0-55 40-95 104-95zM94 740h56c20-42 57-64 105-64s85 22 105 64h56c-27-75-90-116-161-116S121 665 94 740z"/><glyph glyph-name="Aogonek" unicode="Ą" horiz-adv-x="650" d="M576 0h-13l-72 192H156L85 0H15l267 700h86L635 0h-1c-52-51-71-78-71-108 0-33 30-41 42-41s31 7 45 18l21-39c-25-23-52-25-71-25-85 0-89 65-89 78 0 22 5 68 65 117zM178 249h291L326 634h-2z"/><glyph glyph-name="aogonek" unicode="ą" horiz-adv-x="518" d="M401-195c-85 0-89 67-89 80 0 33 13 73 70 119v83h-2C337 8 270-8 215-8 105-8 45 52 45 140c0 98 75 173 270 173h57v17c0 96-42 138-117 138-50 0-106-12-155-37v58c43 19 95 32 155 32 118 0 180-62 180-191V0c-52-51-71-78-71-108 0-33 30-41 42-41s31 7 45 18l21-39c-25-23-52-25-71-25zM215 45c98 0 157 66 157 178v37h-57c-154 0-204-50-204-120 0-55 40-95 104-95z"/><glyph glyph-name="Cacute" unicode="Ć" horiz-adv-x="611" d="M405-8C190-8 55 127 55 360c0 208 140 348 350 348 62 0 120-8 170-27v-61c-76 25-120 31-170 31-159 0-279-120-279-291 0-200 111-311 279-311 63 0 124 10 176 31V19C540 6 479-8 405-8zm40 878h100L425 750h-60z"/><glyph glyph-name="cacute" unicode="ć" horiz-adv-x="460" d="M311-8C150-8 45 97 45 255c0 161 105 266 258 266 23 0 67-2 122-20v-56c-18 7-65 23-121 23-113 0-193-80-193-213 0-130 80-210 200-210 36 0 82 9 119 23V12C388-4 353-8 311-8zm44 748h94L315 610h-50z"/><glyph glyph-name="Ccircumflex" unicode="Ĉ" horiz-adv-x="611" d="M405-8C190-8 55 127 55 360c0 208 140 348 350 348 62 0 120-8 170-27v-61c-76 25-120 31-170 31-159 0-279-120-279-291 0-200 111-311 279-311 63 0 124 10 176 31V19C540 6 479-8 405-8zm-10 844-80-86h-70l102 120h96l102-120h-70z"/><glyph glyph-name="ccircumflex" unicode="ĉ" horiz-adv-x="460" d="M311-8C150-8 45 97 45 255c0 161 105 266 258 266 23 0 67-2 122-20v-56c-18 7-65 23-121 23-113 0-193-80-193-213 0-130 80-210 200-210 36 0 82 9 119 23V12C388-4 353-8 311-8zm-21 714-88-96h-60l110 130h76l110-130h-60z"/><glyph glyph-name="Cdotaccent" unicode="Ċ" horiz-adv-x="611" d="M405-8C190-8 55 127 55 360c0 208 140 348 350 348 62 0 120-8 170-27v-61c-76 25-120 31-170 31-159 0-279-120-279-291 0-200 111-311 279-311 63 0 124 10 176 31V19C540 6 479-8 405-8zm-51 854h82v-86h-82v86z"/><glyph glyph-name="cdotaccent" unicode="ċ" horiz-adv-x="460" d="M311-8C150-8 45 97 45 255c0 161 105 266 258 266 23 0 67-2 122-20v-56c-18 7-65 23-121 23-113 0-193-80-193-213 0-130 80-210 200-210 36 0 82 9 119 23V12C388-4 353-8 311-8zm-55 728h69v-80h-69v80z"/><glyph glyph-name="Ccaron" unicode="Č" horiz-adv-x="611" d="M405-8C190-8 55 127 55 360c0 208 140 348 350 348 62 0 120-8 170-27v-61c-76 25-120 31-170 31-159 0-279-120-279-291 0-200 111-311 279-311 63 0 124 10 176 31V19C540 6 479-8 405-8zm-10 792 80 86h70L443 750h-96L245 870h70z"/><glyph glyph-name="ccaron" unicode="č" horiz-adv-x="460" d="M311-8C150-8 45 97 45 255c0 161 105 266 258 266 23 0 67-2 122-20v-56c-18 7-65 23-121 23-113 0-193-80-193-213 0-130 80-210 200-210 36 0 82 9 119 23V12C388-4 353-8 311-8zm-21 649 88 99h60L328 607h-76L142 740h60z"/><glyph glyph-name="Dcaron" unicode="Ď" horiz-adv-x="688" d="M100 700h171c81 0 362-7 362-353C633 135 498 0 271 0H100v700zm66-57V57h98c167 0 298 88 298 293 0 292-228 293-298 293h-98zm100 141 80 86h70L314 750h-96L116 870h70z"/><glyph glyph-name="dcaron" unicode="ď" horiz-adv-x="594" d="M266-8C151-8 45 65 45 256c0 189 107 265 221 265 84 0 131-58 155-100v341h63V0h-56v106h-3C400 49 348-8 266-8zm0 53c60 0 155 50 155 211 0 163-95 212-155 212s-155-49-155-212c0-161 95-211 155-211zm281 717h70l-60-168h-50z"/><glyph glyph-name="Dcroat" unicode="Đ" horiz-adv-x="688" d="M100 700h171c81 0 362-7 362-353C633 135 498 0 271 0H100v346H-9v45h109v309zm66-57V391h199v-45H166V57h98c167 0 298 88 298 293 0 292-228 293-298 293h-98z"/><glyph glyph-name="dcroat" unicode="đ" horiz-adv-x="589" d="M266-8C151-8 45 65 45 256c0 189 107 265 221 265 84 0 131-58 155-100v197H217v45h204v99h63v-99h85v-45h-85V0h-56v106h-3C400 49 348-8 266-8zm0 53c60 0 155 50 155 211 0 163-95 212-155 212s-155-49-155-212c0-161 95-211 155-211z"/><glyph glyph-name="Emacron" unicode="Ē" horiz-adv-x="509" d="M100 700h340v-57H166V390h261v-57H166V57h293V0H100v700zm40 134h262v-60H140v60z"/><glyph glyph-name="emacron" unicode="ē" horiz-adv-x="508" d="M468 238H106c-1-63 24-193 170-193 52 0 102 7 153 33V20C377-2 327-8 275-8 129-8 40 89 40 265c0 161 93 256 223 256 191 0 205-174 205-263v-20zm-362 53h296c1 41-6 177-139 177-104 0-155-91-157-177zm22 423h252v-54H128v54z"/><glyph glyph-name="Edotaccent" unicode="Ė" horiz-adv-x="509" d="M100 700h340v-57H166V390h261v-57H166V57h293V0H100v700zm140 146h82v-86h-82v86z"/><glyph glyph-name="edotaccent" unicode="ė" horiz-adv-x="508" d="M468 238H106c-1-63 24-193 170-193 52 0 102 7 153 33V20C377-2 327-8 275-8 129-8 40 89 40 265c0 161 93 256 223 256 191 0 205-174 205-263v-20zm-362 53h296c1 41-6 177-139 177-104 0-155-91-157-177zm113 429h69v-80h-69v80z"/><glyph glyph-name="Eogonek" unicode="Ę" horiz-adv-x="509" d="M100 700h340v-57H166V390h261v-57H166V57h293V0h-37c-56-55-71-76-71-105 0-13 2-42 37-42 9 0 28 0 50 17l21-39c-22-20-52-26-77-26-47 0-81 33-81 88 0 16 1 56 63 107H100v700z"/><glyph glyph-name="eogonek" unicode="ę" horiz-adv-x="508" d="M468 238H106c0-76 34-123 39-130 34-44 80-63 131-63 52 0 102 7 153 33V20l-23-9c-11-9-22-19-32-29-24-22-53-49-53-86 0-22 18-43 42-43 16 0 31 7 45 16l21-39c-25-23-52-25-71-25-16 0-32 2-46 9-23 11-43 32-43 71 0 42 23 74 57 109-17-2-34-2-51-2C129-8 40 90 40 265c0 161 93 256 223 256 191 0 205-174 205-263v-20zm-362 53h296c0 33-5 81-24 114-19 32-53 63-115 63-48 0-88-18-119-59-15-20-25-43-31-67-4-17-7-33-7-51z"/><glyph glyph-name="Ecaron" unicode="Ě" horiz-adv-x="509" d="M100 700h340v-57H166V390h261v-57H166V57h293V0H100v700zm170 84 80 86h70L318 750h-96L120 870h70z"/><glyph glyph-name="ecaron" unicode="ě" horiz-adv-x="508" d="M468 238H106c-1-63 24-193 170-193 52 0 102 7 153 33V20C377-2 327-8 275-8 129-8 40 89 40 265c0 161 93 256 223 256 191 0 205-174 205-263v-20zm-362 53h296c1 41-6 177-139 177-104 0-155-91-157-177zm148 350 88 99h60L292 607h-76L106 740h60z"/><glyph glyph-name="Gcircumflex" unicode="Ĝ" horiz-adv-x="711" d="M426-8C219-8 55 121 55 350c0 220 143 358 371 358 74 0 132-18 179-37v-65c-25 12-98 45-179 45-167 0-300-103-300-301 0-170 109-301 300-301 47 0 93 8 139 24v236H395v57h236V31C563 5 496-8 426-8zm-16 844-80-86h-70l102 120h96l102-120h-70z"/><glyph glyph-name="gcircumflex" unicode="ĝ" horiz-adv-x="568" d="M231-224c-50 0-90 8-136 28v58c48-23 99-33 148-33 108 0 178 59 178 174v89C378 13 318-8 266-8 152-8 45 67 45 257c0 191 106 264 221 264 75 0 130-50 159-114h3v106h56V-3c0-59-11-221-253-221zm190 481c0 161-95 211-155 211s-155-50-155-211c0-163 95-212 155-212s155 49 155 212zM264 706l-88-96h-60l110 130h76l110-130h-60z"/><glyph glyph-name="Gbreve" unicode="Ğ" horiz-adv-x="711" d="M426-8C219-8 55 121 55 350c0 220 143 358 371 358 74 0 132-18 179-37v-65c-25 12-98 45-179 45-167 0-300-103-300-301 0-170 109-301 300-301 47 0 93 8 139 24v236H395v57h236V31C563 5 496-8 426-8zM249 870h60c17-45 65-58 101-58s84 13 101 58h60c-27-75-90-116-161-116s-134 41-161 116z"/><glyph glyph-name="gbreve" unicode="ğ" horiz-adv-x="568" d="M231-224c-50 0-90 8-136 28v58c48-23 99-33 148-33 108 0 178 59 178 174v89C378 13 318-8 266-8 152-8 45 67 45 257c0 191 106 264 221 264 75 0 130-50 159-114h3v106h56V-3c0-59-11-221-253-221zm190 481c0 161-95 211-155 211s-155-50-155-211c0-163 95-212 155-212s155 49 155 212zM103 740h56c20-42 57-64 105-64s85 22 105 64h56c-27-75-90-116-161-116s-134 41-161 116z"/><glyph glyph-name="Gdotaccent" unicode="Ġ" horiz-adv-x="711" d="M426-8C219-8 55 121 55 350c0 220 143 358 371 358 74 0 132-18 179-37v-65c-25 12-98 45-179 45-167 0-300-103-300-301 0-170 109-301 300-301 47 0 93 8 139 24v236H395v57h236V31C563 5 496-8 426-8zm-57 854h82v-86h-82v86z"/><glyph glyph-name="gdotaccent" unicode="ġ" horiz-adv-x="568" d="M231-224c-50 0-90 8-136 28v58c48-23 99-33 148-33 108 0 178 59 178 174v89C378 13 318-8 266-8 152-8 45 67 45 257c0 191 106 264 221 264 75 0 130-50 159-114h3v106h56V-3c0-59-11-221-253-221zm190 481c0 161-95 211-155 211s-155-50-155-211c0-163 95-212 155-212s155 49 155 212zM230 720h69v-80h-69v80z"/><glyph glyph-name="Gcommaaccent" unicode="Ģ" horiz-adv-x="711" d="M426-8C219-8 55 121 55 350c0 220 143 358 371 358 74 0 132-18 179-37v-65c-25 12-98 45-179 45-167 0-300-103-300-301 0-170 109-301 300-301 47 0 93 8 139 24v236H395v57h236V31C563 5 496-8 426-8zm-51-42h70l-60-170h-50z"/><glyph glyph-name="gcommaaccent" unicode="ģ" horiz-adv-x="568" d="M231-224c-50 0-90 8-136 28v58c48-23 99-33 148-33 108 0 178 59 178 174v89C378 13 318-8 266-8 152-8 45 67 45 257c0 191 106 264 221 264 75 0 130-50 159-114h3v106h56V-3c0-59-11-221-253-221zm190 481c0 161-95 211-155 211s-155-50-155-211c0-163 95-212 155-212s155 49 155 212zM299 592h-70l60 170h50z"/><glyph glyph-name="Hcircumflex" unicode="Ĥ" horiz-adv-x="696" d="M100 700h66V391h364v309h66V0h-66v334H166V0h-66v700zm248 136-80-86h-70l102 120h96l102-120h-70z"/><glyph glyph-name="hcircumflex" unicode="ĥ" horiz-adv-x="563" d="M80 762h63V519l-5-112h2c26 64 84 114 164 114 164 0 179-125 179-202V0h-63v316c0 61 1 152-126 152-81 0-151-74-151-169V0H80v762zm38 124-88-96h-60L80 920h76l110-130h-60z"/><glyph glyph-name="Hbar" unicode="Ħ" horiz-adv-x="696" d="M100 700h66V570h364v130h66V570h80v-45h-80V0h-66v334H166V0h-66v525H20v45h80v130zm430-175H166V391h364v134z"/><glyph glyph-name="hbar" unicode="ħ" horiz-adv-x="588" d="M105 0v618H20v45h85v99h63v-99h226v-45H168V513l-4-105h1c28 70 91 113 163 113 166 0 180-135 180-207V0h-63v316c0 30 4 152-122 152-97 0-152-84-155-169V0h-63z"/><glyph glyph-name="Imacron" unicode="Ī" horiz-adv-x="266" d="M100 700h66V0h-66v700zM2 834h262v-60H2v60z"/><glyph glyph-name="imacron" unicode="ī" horiz-adv-x="223" d="M80 513h63V0H80v513zm-94 201h252v-54H-14v54z"/><glyph glyph-name="Iogonek" unicode="Į" horiz-adv-x="266" d="M100 700h66V0c-35-18-72-69-72-102 0-13 2-45 37-45 9 0 28 0 50 17l21-39c-22-20-52-26-77-26-50 0-81 37-81 93 0 16 1 54 56 102v700z"/><glyph glyph-name="iogonek" unicode="į" horiz-adv-x="229" d="M83 513h63V5C90-50 75-74 75-103c0-13 2-44 37-44 9 0 28 0 50 17l21-39c-22-20-52-26-77-26-47 0-81 35-81 90 0 22 4 59 58 106v512zm-3 207h69v-80H80v80z"/><glyph glyph-name="Idotaccent" unicode="İ" horiz-adv-x="266" d="M100 700h66V0h-66v700zm-8 146h82v-86H92v86z"/><glyph glyph-name="dotlessi" unicode="ı" horiz-adv-x="223" d="M80 513h63V0H80v513z"/><glyph glyph-name="Jcircumflex" unicode="Ĵ" horiz-adv-x="351" d="M185 700h66V175C251 50 193-8 89-8 64-8 40-5 15 2v60c22-9 45-13 73-13 60 0 97 37 97 126v525zm34 136-80-86H69l102 120h96l102-120h-70z"/><glyph glyph-name="jcircumflex" unicode="ĵ" horiz-adv-x="229" d="M146 513V-74c0-53-7-144-114-144-20 0-39 2-59 8v51c16-5 32-6 48-6 27 0 62 8 62 85v593h63zm-31 196-83-99h-66L77 743h76l110-133h-65z"/><glyph glyph-name="Kcommaaccent" unicode="Ķ" horiz-adv-x="632" d="M100 700h66V377h1l24 25 299 298h84L234 369 612 0h-93L184 335l-17 19-1-1V0h-66v700zM284-50h70l-60-170h-50z"/><glyph glyph-name="kcommaaccent" unicode="ķ" horiz-adv-x="509" d="M80 762h63V287h5l233 226h82L210 276 489 0h-89L148 252h-5V0H80v762zM223-50h70l-60-170h-50z"/><glyph glyph-name="Lacute" unicode="Ĺ" horiz-adv-x="472" d="M100 700h66V57h286V0H100v700zm118 170h100L198 750h-60z"/><glyph glyph-name="lacute" unicode="ĺ" horiz-adv-x="223" d="M80 762h63V0H80v762zm70 158h94L110 790H60z"/><glyph glyph-name="Lcommaaccent" unicode="Ļ" horiz-adv-x="472" d="M100 700h66V57h286V0H100v700zM245-50h70l-60-170h-50z"/><glyph glyph-name="lcommaaccent" unicode="ļ" horiz-adv-x="223" d="M80 762h63V0H80v762zM97-50h70l-60-170H57z"/><glyph glyph-name="Lcaron" unicode="Ľ" horiz-adv-x="472" d="M100 700h66V57h286V0H100v700zm230 0h76l-62-180h-54z"/><glyph glyph-name="lcaron" unicode="ľ" horiz-adv-x="253" d="M80 762h63V0H80v762zm126 0h70l-60-168h-50z"/><glyph glyph-name="Ldot" unicode="Ŀ" horiz-adv-x="472" d="M100 700h66V57h286V0H100v700zm234-286h82v-86h-82v86z"/><glyph glyph-name="ldot" unicode="ŀ" horiz-adv-x="327" d="M80 762h63V0H80v762zm155-318h82v-86h-82v86z"/><glyph glyph-name="Lslash" unicode="Ł" horiz-adv-x="472" d="M100 700h66V364l111 114 32-32-143-144V57h286V0H100v252l-55-53-32 32 87 83v386z"/><glyph glyph-name="lslash" unicode="ł" horiz-adv-x="293" d="M115 762h63V433l83 80 32-32-115-110V0h-63v323l-83-80-32 32 115 110v377z"/><glyph glyph-name="Nacute" unicode="Ń" horiz-adv-x="723" d="M100 700h85l341-566 31-64h2l-2 81v549h66V0h-85L202 555l-37 75h-3l4-81V0h-66v700zm300 170h100L380 750h-60z"/><glyph glyph-name="nacute" unicode="ń" horiz-adv-x="566" d="M146 0H83v395l-3 118h56V407h2c25 58 79 114 168 114 165 0 180-123 180-202V0h-63v316c0 63 1 152-126 152-87 0-151-78-151-169V0zm162 740h94L268 610h-50z"/><glyph glyph-name="Ncommaaccent" unicode="Ņ" horiz-adv-x="723" d="M100 700h85l341-566 31-64h2l-2 81v549h66V0h-85L202 555l-37 75h-3l4-81V0h-66v700zM330-50h70l-60-170h-50z"/><glyph glyph-name="ncommaaccent" unicode="ņ" horiz-adv-x="566" d="M146 0H83v395l-3 118h56V407h2c25 58 79 114 168 114 165 0 180-123 180-202V0h-63v316c0 63 1 152-126 152-87 0-151-78-151-169V0zm105-50h70l-60-170h-50z"/><glyph glyph-name="Ncaron" unicode="Ň" horiz-adv-x="723" d="M100 700h85l341-566 31-64h2l-2 81v549h66V0h-85L202 555l-37 75h-3l4-81V0h-66v700zm261 84 80 86h70L409 750h-96L211 870h70z"/><glyph glyph-name="ncaron" unicode="ň" horiz-adv-x="566" d="M146 0H83v395l-3 118h56V407h2c25 58 79 114 168 114 165 0 180-123 180-202V0h-63v316c0 63 1 152-126 152-87 0-151-78-151-169V0zm137 641 88 99h60L321 607h-76L135 740h60z"/><glyph glyph-name="Omacron" unicode="Ō" horiz-adv-x="744" d="M55 349c0 188 103 359 317 359s317-171 317-359C689 118 550-8 372-8S55 118 55 349zm71 0c0-210 124-300 246-300s246 90 246 300-124 302-246 302-246-92-246-302zm115 485h262v-60H241v60z"/><glyph glyph-name="omacron" unicode="ō" horiz-adv-x="564" d="M45 256c0 160 94 265 237 265s237-105 237-265C519 97 424-8 282-8S45 97 45 256zm66 0c0-99 51-211 171-211s171 112 171 211c0 100-51 212-171 212S111 356 111 256zm45 458h252v-54H156v54z"/><glyph glyph-name="Obreve" unicode="Ŏ" horiz-adv-x="744" d="M55 349c0 188 103 359 317 359s317-171 317-359C689 118 550-8 372-8S55 118 55 349zm71 0c0-210 124-300 246-300s246 90 246 300-124 302-246 302-246-92-246-302zm85 521h60c17-45 65-58 101-58s84 13 101 58h60c-27-75-90-116-161-116s-134 41-161 116z"/><glyph glyph-name="obreve" unicode="ŏ" horiz-adv-x="564" d="M45 256c0 160 94 265 237 265s237-105 237-265C519 97 424-8 282-8S45 97 45 256zm66 0c0-99 51-211 171-211s171 112 171 211c0 100-51 212-171 212S111 356 111 256zm14 484h56c20-42 57-64 105-64s85 22 105 64h56c-27-75-90-116-161-116s-134 41-161 116z"/><glyph glyph-name="Ohungarumlaut" unicode="Ő" horiz-adv-x="744" d="M55 349c0 188 103 359 317 359s317-171 317-359C689 118 550-8 372-8S55 118 55 349zm71 0c0-210 124-300 246-300s246 90 246 300-124 302-246 302-246-92-246-302zm218 521h100L310 750h-60zm150 0h100L459 750h-60z"/><glyph glyph-name="ohungarumlaut" unicode="ő" horiz-adv-x="564" d="M45 256c0 160 94 265 237 265s237-105 237-265C519 97 424-8 282-8S45 97 45 256zm66 0c0-99 51-211 171-211s171 112 171 211c0 100-51 212-171 212S111 356 111 256zm297 484h90L364 610h-50zm-150 0h90L214 610h-50z"/><glyph glyph-name="OE" unicode="Œ" horiz-adv-x="1027" d="M618 0v109C561 33 471-8 372-8 194-8 55 118 55 349c0 188 103 359 317 359 100 0 188-41 246-118v110h340v-57H684V390h261v-57H684V57h293V0H618zM126 349c0-210 124-300 246-300s246 90 246 300-124 302-246 302-246-92-246-302z"/><glyph glyph-name="oe" unicode="œ" horiz-adv-x="926" d="M881 238H519c1-117 79-198 186-198 42 0 89 12 137 40V22C796 2 745-9 698-9c-93 0-176 40-212 121h-1C452 38 379-8 282-8 140-8 45 97 45 256c0 160 94 265 237 265 98 0 169-47 202-119h2c34 82 109 119 190 119 202 0 205-201 205-263v-20zm-770 18c0-99 51-211 171-211s171 112 171 211c0 100-51 212-171 212S111 356 111 256zm408 35h296c1 41-6 177-139 177-104 0-155-91-157-177z"/><glyph glyph-name="Racute" unicode="Ŕ" d="M100 0v700h164c154 0 230-77 230-210 0-92-36-157-108-188L540 0h-78L324 284c-19-3-39-4-60-4h-98V0h-66zm323 490c0 105-48 153-159 153h-98V337h98c111 0 159 48 159 153zM320 870h100L300 750h-60z"/><glyph glyph-name="racute" unicode="ŕ" horiz-adv-x="352" d="M147 0H84v419l-4 94h60V403h1c12 54 49 118 124 118 19 0 38-3 57-9v-60c-18 7-36 10-55 10-84 0-120-98-120-167V0zm57 740h94L164 610h-50z"/><glyph glyph-name="Rcommaaccent" unicode="Ŗ" d="M100 0v700h164c154 0 230-77 230-210 0-92-36-157-108-188L540 0h-78L324 284c-19-3-39-4-60-4h-98V0h-66zm323 490c0 105-48 153-159 153h-98V337h98c111 0 159 48 159 153zM285-50h70l-60-170h-50z"/><glyph glyph-name="rcommaaccent" unicode="ŗ" horiz-adv-x="352" d="M147 0H84v419l-4 94h60V403h1c12 54 49 118 124 118 19 0 38-3 57-9v-60c-18 7-36 10-55 10-84 0-120-98-120-167V0zM82-50h70L92-220H42z"/><glyph glyph-name="Rcaron" unicode="Ř" d="M100 0v700h164c154 0 230-77 230-210 0-92-36-157-108-188L540 0h-78L324 284c-19-3-39-4-60-4h-98V0h-66zm323 490c0 105-48 153-159 153h-98V337h98c111 0 159 48 159 153zM270 784l80 86h70L318 750h-96L120 870h70z"/><glyph glyph-name="rcaron" unicode="ř" horiz-adv-x="352" d="M147 0H84v419l-4 94h60V403h1c12 54 49 118 124 118 19 0 38-3 57-9v-60c-18 7-36 10-55 10-84 0-120-98-120-167V0zm29 641 88 99h60L214 607h-76L28 740h60z"/><glyph glyph-name="Sacute" unicode="Ś" horiz-adv-x="496" d="M213-8C156-8 103 2 50 23v68c48-23 114-42 163-42 68 0 162 33 162 122 0 83-61 121-159 171-76 39-161 81-161 192 0 77 42 174 216 174 48 0 98-7 152-25v-67c-59 26-105 35-152 35-129 0-145-75-145-117 0-64 45-93 146-146 110-58 174-103 174-212C446 83 380-8 213-8zm102 878h100L295 750h-60z"/><glyph glyph-name="sacute" unicode="ś" horiz-adv-x="419" d="M185-8C140-8 98-2 50 15v62c45-21 91-32 137-32 70 0 116 34 116 93 0 66-45 81-114 111-66 29-132 61-132 147 0 79 73 125 172 125 44 0 81-8 122-27v-58c-38 21-78 32-125 32-49 0-107-14-107-72 0-53 30-69 132-111 49-21 118-58 118-147C369 68 319-8 185-8zm100 748h94L245 610h-50z"/><glyph glyph-name="Scircumflex" unicode="Ŝ" horiz-adv-x="496" d="M213-8C156-8 103 2 50 23v68c48-23 114-42 163-42 68 0 162 33 162 122 0 83-61 121-159 171-76 39-161 81-161 192 0 77 42 174 216 174 48 0 98-7 152-25v-67c-59 26-105 35-152 35-129 0-145-75-145-117 0-64 45-93 146-146 110-58 174-103 174-212C446 83 380-8 213-8zm52 844-80-86h-70l102 120h96l102-120h-70z"/><glyph glyph-name="scircumflex" unicode="ŝ" horiz-adv-x="419" d="M185-8C140-8 98-2 50 15v62c45-21 91-32 137-32 70 0 116 34 116 93 0 66-45 81-114 111-66 29-132 61-132 147 0 79 73 125 172 125 44 0 81-8 122-27v-58c-38 21-78 32-125 32-49 0-107-14-107-72 0-53 30-69 132-111 49-21 118-58 118-147C369 68 319-8 185-8zm35 714-88-96H72l110 130h76l110-130h-60z"/><glyph glyph-name="Scedilla" unicode="Ş" horiz-adv-x="496" d="M446 176C446 89 388 4 245-7l-1-23c54 1 90-37 90-85 0-58-38-106-114-106-30 0-53 11-73 26l25 40c17-12 33-16 46-16 28 0 52 15 52 48 0 30-20 50-53 50-10 0-19 0-29-2l6 67C144-6 97 4 50 23v68c48-23 114-42 163-42 68 0 162 33 162 122 0 83-61 121-159 171-76 39-161 81-161 192 0 77 42 174 216 174 48 0 98-7 152-25v-67c-59 26-105 35-152 35-129 0-145-75-145-117 0-64 45-93 146-146 110-58 174-103 174-212z"/><glyph glyph-name="scedilla" unicode="ş" horiz-adv-x="419" d="M189-182c-36 0-55 10-70 21l20 32c12-9 25-13 37-13 35 0 42 24 42 39 0 17-8 41-42 41-8 0-16 0-24-2l7 57C123-5 89 1 50 15v62c45-21 91-32 137-32 70 0 116 34 116 93 0 66-45 81-114 111-66 29-132 61-132 147 0 79 73 125 172 125 44 0 81-8 122-27v-58c-38 21-78 32-125 32-49 0-107-14-107-72 0-53 30-69 132-111 49-21 118-58 118-147C369 70 323-2 200-7l-2-21c38-1 71-26 71-75 0-64-53-79-80-79z"/><glyph glyph-name="Scaron" unicode="Š" horiz-adv-x="496" d="M213-8C156-8 103 2 50 23v68c48-23 114-42 163-42 68 0 162 33 162 122 0 83-61 121-159 171-76 39-161 81-161 192 0 77 42 174 216 174 48 0 98-7 152-25v-67c-59 26-105 35-152 35-129 0-145-75-145-117 0-64 45-93 146-146 110-58 174-103 174-212C446 83 380-8 213-8zm52 792 80 86h70L313 750h-96L115 870h70z"/><glyph glyph-name="scaron" unicode="š" horiz-adv-x="419" d="M185-8C140-8 98-2 50 15v62c45-21 91-32 137-32 70 0 116 34 116 93 0 66-45 81-114 111-66 29-132 61-132 147 0 79 73 125 172 125 44 0 81-8 122-27v-58c-38 21-78 32-125 32-49 0-107-14-107-72 0-53 30-69 132-111 49-21 118-58 118-147C369 68 319-8 185-8zm35 649 88 99h60L258 607h-76L72 740h60z"/><glyph glyph-name="Tcedilla" unicode="Ţ" horiz-adv-x="516" d="M15 700h486v-57H291V0h-8l-2-30c57 0 90-42 90-93 0-55-42-98-114-98-30 0-53 11-73 26l25 40c17-12 33-16 46-16 28 0 52 15 52 48 0 30-20 50-53 50-10 0-19 0-29-2l7 75h-7v643H15v57z"/><glyph glyph-name="tcedilla" unicode="ţ" horiz-adv-x="334" d="m228-8-2-20c39-1 72-26 72-75 0-64-54-79-91-79-27 0-45 9-60 21l20 32c11-9 24-13 37-13 35 0 43 24 43 39 0 17-8 41-43 41h-12c-4 0-8-1-12-2l10 62c-89 31-74 103-77 143v319H8v53h105v128l63 23V513h122v-53H176V145c0-87 21-100 61-100 25 0 44 2 64 11V3c-23-8-42-11-73-11z"/><glyph glyph-name="Tcaron" unicode="Ť" horiz-adv-x="516" d="M15 700h486v-57H291V0h-66v643H15v57zm243 84 80 86h70L306 750h-96L108 870h70z"/><glyph glyph-name="tcaron" unicode="ť" horiz-adv-x="334" d="m113 641 63 23V513h122v-53H176V145c0-87 20-100 61-100 25 0 44 2 64 11V3C273-7 248-8 230-8 117-8 113 84 113 141v319H8v53h105v128zm141 121h70l-60-168h-50z"/><glyph glyph-name="Umacron" unicode="Ū" horiz-adv-x="712" d="M166 700V235C166 89 278 49 356 49s190 40 190 186v465h66V233C612 85 511-8 356-8S100 85 100 233v467h66zm61 134h262v-60H227v60z"/><glyph glyph-name="umacron" unicode="ū" horiz-adv-x="558" d="M80 513h63V176c0-43 8-131 112-131 85 0 156 71 156 171v297h63V117l4-117h-59v102h-1C392 36 332-8 255-8 187-8 80 17 80 181v332zm91 201h252v-54H171v54z"/><glyph glyph-name="Ubreve" unicode="Ŭ" horiz-adv-x="712" d="M166 700V235C166 89 278 49 356 49s190 40 190 186v465h66V233C612 85 511-8 356-8S100 85 100 233v467h66zm29 170h60c17-45 65-58 101-58s84 13 101 58h60c-27-75-90-116-161-116s-134 41-161 116z"/><glyph glyph-name="ubreve" unicode="ŭ" horiz-adv-x="558" d="M80 513h63V176c0-43 8-131 112-131 85 0 156 71 156 171v297h63V117l4-117h-59v102h-1C392 36 332-8 255-8 187-8 80 17 80 181v332zm40 227h56c20-42 57-64 105-64s85 22 105 64h56c-27-75-90-116-161-116s-134 41-161 116z"/><glyph glyph-name="Uring" unicode="Ů" horiz-adv-x="712" d="M166 700V235C166 89 278 49 356 49s190 40 190 186v465h66V233C612 85 511-8 356-8S100 85 100 233v467h66zm94 114c0 53 43 96 96 96s96-43 96-96-43-96-96-96-96 43-96 96zm36 0c0-33 27-60 60-60s60 27 60 60-27 60-60 60-60-27-60-60z"/><glyph glyph-name="uring" unicode="ů" horiz-adv-x="558" d="M80 513h63V176c0-43 8-131 112-131 85 0 156 71 156 171v297h63V117l4-117h-59v102h-1C392 36 332-8 255-8 187-8 80 17 80 181v332zm139 171c0-33 27-60 60-60s60 27 60 60-27 60-60 60-60-27-60-60zm-36 0c0 53 43 96 96 96s96-43 96-96-43-96-96-96-96 43-96 96z"/><glyph glyph-name="Uhungarumlaut" unicode="Ű" horiz-adv-x="712" d="M166 700V235C166 89 278 49 356 49s190 40 190 186v465h66V233C612 85 511-8 356-8S100 85 100 233v467h66zm154 170h100L286 750h-60zm150 0h100L435 750h-60z"/><glyph glyph-name="uhungarumlaut" unicode="ű" horiz-adv-x="558" d="M80 513h63V176c0-43 8-131 112-131 85 0 156 71 156 171v297h63V117l4-117h-59v102h-1C392 36 332-8 255-8 187-8 80 17 80 181v332zm311 227h90L347 610h-50zm-150 0h90L197 610h-50z"/><glyph glyph-name="Uogonek" unicode="Ų" horiz-adv-x="712" d="M166 700V235C166 89 278 49 356 49s190 40 190 186v465h66V233C612 82 505 0 391-7c-41-31-64-73-64-98 0-13 6-42 37-42 9 0 31 2 50 17l21-39c-22-17-52-26-77-26-47 0-81 33-81 88 0 23 6 54 54 100-110 1-231 78-231 240v467h66z"/><glyph glyph-name="uogonek" unicode="ų" horiz-adv-x="558" d="M80 513h63V176c0-43 8-131 112-131 85 0 156 71 156 171v297h63V117l4-116c-55-54-70-76-70-106 0-13 2-42 37-42 9 0 28 0 50 17l21-39c-22-20-52-26-77-26-47 0-81 33-81 88 0 16 2 59 61 107v102h-1C392 36 332-8 255-8 187-8 80 17 80 181v332z"/><glyph glyph-name="Ydieresis" unicode="Ÿ" horiz-adv-x="623" d="M10 700h77l195-310 24-41 31 48 195 303h81L338 292V0h-66v292zm152 144h69v-80h-69v80zm229 0h69v-80h-69v80z"/><glyph glyph-name="Zacute" unicode="Ź" horiz-adv-x="562" d="M58 700h439v-67L170 125l-45-67 1-2 67 1h319V0H50v62l334 514 44 67-1 1-79-1H58v57zm222 170h100L260 750h-60z"/><glyph glyph-name="zacute" unicode="ź" horiz-adv-x="474" d="M50 513h366v-60L154 102l-40-49h315V0H45v52l264 356 41 52H50v53zm220 227h94L230 610h-50z"/><glyph glyph-name="Zdotaccent" unicode="Ż" horiz-adv-x="562" d="M58 700h439v-67L170 125l-45-67 1-2 67 1h319V0H50v62l334 514 44 67-1 1-79-1H58v57zm182 146h82v-86h-82v86z"/><glyph glyph-name="zdotaccent" unicode="ż" horiz-adv-x="474" d="M50 513h366v-60L154 102l-40-49h315V0H45v52l264 356 41 52H50v53zm152 207h69v-80h-69v80z"/><glyph glyph-name="Zcaron" unicode="Ž" horiz-adv-x="562" d="M58 700h439v-67L170 125l-45-67 1-2 67 1h319V0H50v62l334 514 44 67-1 1-79-1H58v57zm223 84 80 86h70L329 750h-96L131 870h70z"/><glyph glyph-name="zcaron" unicode="ž" horiz-adv-x="474" d="M50 513h366v-60L154 102l-40-49h315V0H45v52l264 356 41 52H50v53zm187 128 88 99h60L275 607h-76L89 740h60z"/><glyph glyph-name="uni018F" unicode="Ə" horiz-adv-x="740" d="M368-8C156-8 55 156 55 349v22h559c-2 182-130 280-274 280-67 0-146-18-219-61v66c64 33 132 52 219 52 178 0 345-104 345-359C685 161 583-8 368-8zm0 57c155 0 236 125 244 265H127c1-138 92-265 241-265z"/><glyph glyph-name="florin" unicode="ƒ" d="M94-227c-20 0-46 2-74 10l9 51c17-5 42-8 58-8 53 0 77 28 88 88l77 440H146l9 53h106l28 156c16 90 62 145 154 145 25 0 46-3 67-9l-9-51c-19 5-38 7-55 7-55 0-83-32-94-92l-27-156h121l-9-53H315L238-86c-14-79-53-141-144-141z"/><glyph glyph-name="uni01CF" unicode="Ǐ" horiz-adv-x="266" d="M100 700h66V0h-66v700zm33 84 80 86h70L181 750H85L-17 870h70z"/><glyph glyph-name="uni01D0" unicode="ǐ" horiz-adv-x="223" d="M80 513h63V0H80v513zm32 128 88 99h60L150 607H74L-36 740h60z"/><glyph glyph-name="uni01DD" unicode="ǝ" horiz-adv-x="508" d="M40 275h362c2 76-34 123-39 130-37 49-89 63-140 63-65 0-113-17-144-33v58c44 17 98 28 147 28 98 0 158-41 192-87 47-63 50-141 50-186 0-58-12-130-64-188-41-46-92-68-159-68C195-8 127 3 81 71c-39 58-41 135-41 184v20zm362-53H106c-1-33 5-81 24-114 19-32 53-63 115-63 48 0 88 18 119 59 26 35 37 80 38 118z"/><glyph glyph-name="Gcaron" unicode="Ǧ" horiz-adv-x="711" d="M426-8C219-8 55 121 55 350c0 220 143 358 371 358 74 0 132-18 179-37v-65c-25 12-98 45-179 45-167 0-300-103-300-301 0-170 109-301 300-301 47 0 93 8 139 24v236H395v57h236V31C563 5 496-8 426-8zm-26 792 80 86h70L448 750h-96L250 870h70z"/><glyph glyph-name="gcaron" unicode="ǧ" horiz-adv-x="568" d="M231-224c-50 0-90 8-136 28v58c48-23 99-33 148-33 108 0 178 59 178 174v89C378 13 318-8 266-8 152-8 45 67 45 257c0 191 106 264 221 264 75 0 130-50 159-114h3v106h56V-3c0-59-11-221-253-221zm190 481c0 161-95 211-155 211s-155-50-155-211c0-163 95-212 155-212s155 49 155 212zM266 641l88 99h60L304 607h-76L118 740h60z"/><glyph glyph-name="Scommaaccent" unicode="Ș" horiz-adv-x="496" d="M213-8C156-8 103 2 50 23v68c48-23 114-42 163-42 68 0 162 33 162 122 0 83-61 121-159 171-76 39-161 81-161 192 0 77 42 174 216 174 48 0 98-7 152-25v-67c-59 26-105 35-152 35-129 0-145-75-145-117 0-64 45-93 146-146 110-58 174-103 174-212C446 83 380-8 213-8zm-31-42h76l-60-170h-56z"/><glyph glyph-name="scommaaccent" unicode="ș" horiz-adv-x="419" d="M185-8C140-8 98-2 50 15v62c45-21 91-32 137-32 70 0 116 34 116 93 0 66-45 81-114 111-66 29-132 61-132 147 0 79 73 125 172 125 44 0 81-8 122-27v-58c-38 21-78 32-125 32-49 0-107-14-107-72 0-53 30-69 132-111 49-21 118-58 118-147C369 68 319-8 185-8zm-40-42h70l-60-170h-50z"/><glyph glyph-name="Tcommaaccent" unicode="Ț" horiz-adv-x="516" d="M15 700h486v-57H291V0h-66v643H15v57zM225-50h70l-60-170h-50z"/><glyph glyph-name="tcommaaccent" unicode="ț" horiz-adv-x="334" d="m113 641 63 23V513h122v-53H176V145c0-87 20-100 61-100 25 0 44 2 64 11V3C273-7 248-8 230-8 117-8 113 84 113 141v319H8v53h105v128zm87-691h70l-60-170h-50z"/><glyph glyph-name="uni0259" unicode="ə" horiz-adv-x="508" d="M40 275h362c2 76-34 123-39 130-37 49-89 63-140 63-65 0-113-17-144-33v58c44 17 98 28 147 28 98 0 158-41 192-87 47-63 50-141 50-186 0-58-12-130-64-188-41-46-92-68-159-68C195-8 127 3 81 71c-39 58-41 135-41 184v20zm362-53H106c-1-33 5-81 24-114 19-32 53-63 115-63 48 0 88 18 119 59 26 35 37 80 38 118z"/><glyph glyph-name="afii57929" unicode="ʼ" horiz-adv-x="210" d="M90 762h70l-60-168H50z"/><glyph glyph-name="circumflex" unicode="ˆ" horiz-adv-x="456" d="m228 706-88-96H80l110 130h76l110-130h-60z"/><glyph glyph-name="caron" unicode="ˇ" horiz-adv-x="456" d="m228 641 88 99h60L266 607h-76L80 740h60z"/><glyph glyph-name="uni02C9" unicode="ˉ" horiz-adv-x="412" d="M80 714h252v-54H80v54z"/><glyph glyph-name="breve" unicode="˘" horiz-adv-x="482" d="M80 740h56c20-42 57-64 105-64s85 22 105 64h56c-27-75-90-116-161-116S107 665 80 740z"/><glyph glyph-name="dotaccent" unicode="˙" horiz-adv-x="269" d="M100 720h69v-80h-69v80z"/><glyph glyph-name="ring" unicode="˚" horiz-adv-x="352" d="M116 684c0-33 27-60 60-60s60 27 60 60-27 60-60 60-60-27-60-60zm-36 0c0 53 43 96 96 96s96-43 96-96-43-96-96-96-96 43-96 96z"/><glyph glyph-name="ogonek" unicode="˛" horiz-adv-x="260" d="M139-195c-85 0-89 67-89 80 0 34 14 76 77 125l46-10c-52-51-71-78-71-108 0-33 30-41 42-41s31 7 45 18l21-39c-25-23-52-25-71-25z"/><glyph glyph-name="tilde" unicode="˜" horiz-adv-x="447" d="M329 741h38c2-43-23-81-76-81-27 0-50 8-69 15-28 12-44 20-62 20-14 0-35-7-42-35H80c-3 51 32 84 79 84 25 0 49-8 77-19 22-9 37-16 53-16 13 0 35 5 40 32z"/><glyph glyph-name="hungarumlaut" unicode="˝" horiz-adv-x="434" d="M294 740h90L250 610h-50zm-150 0h90L100 610H50z"/><glyph glyph-name="gravecomb" unicode="̀" horiz-adv-x="2" d="m-316 740 90-130h-50l-134 130h94z"/><glyph glyph-name="acutecomb" unicode="́" horiz-adv-x="2" d="M-215 740h94l-134-130h-50z"/><glyph glyph-name="uni037E" unicode=";" horiz-adv-x="313" d="M132 513h82v-86h-82v86zm8-424h88l-74-218H85z"/><glyph glyph-name="uni0394" unicode="Δ" horiz-adv-x="668" d="M640 0H28l268 700h76zM334 597 134 70h400z"/><glyph glyph-name="uni03A9" unicode="Ω" horiz-adv-x="726" d="M263 57v29C94 133 39 281 39 383c0 160 122 325 324 325s324-165 324-325c0-102-55-250-224-297V57h173l11 68 55-6L683 0H406v122c129 31 210 131 210 262 0 187-155 267-253 267s-253-80-253-267c0-131 81-231 210-262V0H43L24 119l55 6 11-68h173z"/><glyph glyph-name="uni03BC" unicode="μ" horiz-adv-x="554" d="M411 513h63V0h-55v102C406 59 372-8 281-8 221-8 175 5 143 49v-268H80v732h63V216c0-61 7-171 138-171 110 0 130 120 130 171v297z"/><glyph glyph-name="pi" unicode="π" horiz-adv-x="664" d="M168 0v460h-20c-54 0-80-30-92-60l-46 26c25 56 77 87 138 87h471v-53h-74V110c0-28 5-56 66-67L597-8c-50 4-115 28-115 118v350H231V0h-63z"/><glyph glyph-name="afii10023" unicode="Ё" horiz-adv-x="509" d="M100 700h340v-57H166V390h261v-57H166V57h293V0H100v700zm6 144h69v-80h-69v80zm229 0h69v-80h-69v80z"/><glyph glyph-name="afii10051" unicode="Ђ" horiz-adv-x="771" d="M15 700h497v-57H284V406c53 32 129 58 201 58 184 0 206-143 206-215C691 123 666-8 495-8c-31 0-62 4-93 14v59c28-11 55-16 86-16 125 0 132 108 132 200 0 54-13 158-151 158-59 0-128-22-185-58V0h-66v643H15v57z"/><glyph glyph-name="afii10052" unicode="Ѓ" horiz-adv-x="469" d="M100 700h359v-57H166V0h-66v700zm220 170h100L300 750h-60z"/><glyph glyph-name="afii10053" unicode="Є" horiz-adv-x="603" d="M405-8C190-8 55 127 55 360c0 208 140 348 350 348 82 0 119-9 169-29v-63c-66 28-109 35-169 35-150 0-267-107-280-262h350v-57H125C135 149 245 49 405 49c70 0 121 12 178 36V21C542 7 493-8 405-8z"/><glyph glyph-name="afii10054" unicode="Ѕ" horiz-adv-x="496" d="M213-8C156-8 103 2 50 23v68c48-23 114-42 163-42 68 0 162 33 162 122 0 83-61 121-159 171-76 39-161 81-161 192 0 77 42 174 216 174 48 0 98-7 152-25v-67c-59 26-105 35-152 35-129 0-145-75-145-117 0-64 45-93 146-146 110-58 174-103 174-212C446 83 380-8 213-8z"/><glyph glyph-name="afii10055" unicode="І" horiz-adv-x="266" d="M100 700h66V0h-66v700z"/><glyph glyph-name="afii10056" unicode="Ї" horiz-adv-x="266" d="M100 700h66V0h-66v700zM32 844h66v-80H32v80zm136 0h66v-80h-66v80z"/><glyph glyph-name="afii10057" unicode="Ј" horiz-adv-x="351" d="M185 700h66V175C251 50 193-8 89-8 64-8 40-5 15 2v60c22-9 45-13 73-13 60 0 97 37 97 126v525z"/><glyph glyph-name="afii10058" unicode="Љ" horiz-adv-x="989" d="M60-8C40-8 20 0 20 0v57s20-8 40-8c72 0 117 45 117 481v170h391V420h134c138 0 228-90 228-210S840 0 702 0H502v643H243V530C243 47 188-8 60-8zm799 217c0 94-60 154-157 154H568V57h134c97 0 157 60 157 152z"/><glyph glyph-name="afii10059" unicode="Њ" horiz-adv-x="1019" d="M100 700h66V413h365v287h66V413h112c42 0 250 0 250-205C959 100 876 0 743 0H531v356H166V0h-66v700zm497-344V57h126c115 0 165 73 165 149 0 140-123 150-180 150H597z"/><glyph glyph-name="afii10060" unicode="Ћ" horiz-adv-x="759" d="M15 700h486v-57H281V406c49 29 126 58 189 58 92 0 209-28 209-195V0h-66v254c0 62-4 157-143 157-24 0-86-3-189-62V0h-66v643H15v57z"/><glyph glyph-name="afii10061" unicode="Ќ" horiz-adv-x="632" d="M100 700h66V377h1l24 25 299 298h84L234 369 612 0h-93L184 335l-17 19-1-1V0h-66v700zm240 170h100L320 750h-60z"/><glyph glyph-name="afii10062" unicode="Ў" horiz-adv-x="592" d="M20 700h74l217-455 189 455h72L324 111C298 50 276-8 190-8c-24 0-46 3-70 12v56c20-10 41-11 61-11 37 0 56 24 78 79l17 40zm380 195 56-6c-5-94-76-134-160-134s-155 40-160 134l58 6c7-63 46-88 102-88 58 0 97 25 104 88z"/><glyph glyph-name="afii10145" unicode="Џ" horiz-adv-x="704" d="M100 0v700h66V57h372v643h66V0H385v-152h-66V0H100z"/><glyph glyph-name="afii10017" unicode="А" horiz-adv-x="650" d="m15 0 267 700h86L635 0h-72l-72 192H156L85 0H15zm163 249h291L326 634h-2z"/><glyph glyph-name="afii10018" unicode="Б" horiz-adv-x="574" d="M100 700h374v-57H166V394h120c205 0 228-139 228-196C514 70 421 0 281 0H100v700zm66-363V57h102c145 0 175 79 175 141 0 67-34 139-174 139H166z"/><glyph glyph-name="afii10019" unicode="В" horiz-adv-x="577" d="M100 700h187c146 0 205-81 205-176 0-66-30-128-121-158v-3c84-16 141-83 141-166C512 2 314 0 281 0H100v700zm66-57V390h112c93 0 143 57 143 133 0 85-64 120-141 120H166zm0-310V57h106c59 0 169 11 169 139 0 87-68 137-162 137H166z"/><glyph glyph-name="afii10020" unicode="Г" horiz-adv-x="469" d="M100 700h359v-57H166V0h-66v700z"/><glyph glyph-name="afii10021" unicode="Д" horiz-adv-x="698" d="M177 700h400V57h81v-209h-66V0H86v-152H20V57h59c101 151 98 272 98 451v192zm334-57H243V500c0-152 5-282-89-443h357v586z"/><glyph glyph-name="afii10022" unicode="Е" horiz-adv-x="509" d="M100 700h340v-57H166V390h261v-57H166V57h293V0H100v700z"/><glyph glyph-name="afii10024" unicode="Ж" horiz-adv-x="866" d="M400 700h66V381h3l282 319h80L536 372 864 0h-95L469 354h-3V0h-66v354h-3L97 0H2l328 372L35 700h80l282-319h3v319z"/><glyph glyph-name="afii10025" unicode="З" horiz-adv-x="508" d="M125 337v57h85c114 0 164 50 164 136 0 71-50 121-164 121-57 0-117-14-170-37v61c57 21 108 33 170 33 162 0 235-73 235-178 0-80-41-141-114-161v-2c91-17 137-90 137-177C468 77 383-8 210-8 133-8 70 12 20 36v61c52-28 127-48 190-48 122 0 187 65 187 141 0 89-58 147-187 147h-85z"/><glyph glyph-name="afii10026" unicode="И" horiz-adv-x="717" d="M100 700h66V174l-4-85h3l39 71 338 540h75V0h-66v526l4 85h-3l-35-66L175 0h-75v700z"/><glyph glyph-name="afii10027" unicode="Й" horiz-adv-x="717" d="M100 700h66V174l-4-85h3l39 71 338 540h75V0h-66v526l4 85h-3l-35-66L175 0h-75v700zm362 195 56-6c-5-94-76-134-160-134s-155 40-160 134l58 6c7-63 46-88 102-88 58 0 97 25 104 88z"/><glyph glyph-name="afii10028" unicode="К" horiz-adv-x="632" d="M100 700h66V377h1l24 25 299 298h84L234 369 612 0h-93L184 335l-17 19-1-1V0h-66v700z"/><glyph glyph-name="afii10029" unicode="Л" horiz-adv-x="668" d="M177 700h391V0h-66v643H243V530C243 47 188-8 60-8 40-8 20 0 20 0v57s20-8 40-8c72 0 117 45 117 481v170z"/><glyph glyph-name="afii10030" unicode="М" horiz-adv-x="814" d="M100 0v700h104l204-435 203 435h103V0h-66v640h-2L440 200h-66L168 640h-2V0h-66z"/><glyph glyph-name="afii10031" unicode="Н" horiz-adv-x="696" d="M100 700h66V391h364v309h66V0h-66v334H166V0h-66v700z"/><glyph glyph-name="afii10032" unicode="О" horiz-adv-x="744" d="M55 349c0 188 103 359 317 359s317-171 317-359C689 118 550-8 372-8S55 118 55 349zm71 0c0-210 124-300 246-300s246 90 246 300-124 302-246 302-246-92-246-302z"/><glyph glyph-name="afii10033" unicode="П" horiz-adv-x="697" d="M100 700h497V0h-66v643H166V0h-66v700z"/><glyph glyph-name="afii10034" unicode="Р" horiz-adv-x="532" d="M100 0v700h162c154 0 230-77 230-210 0-134-76-210-230-210h-96V0h-66zm321 490c0 105-48 153-159 153h-96V337h96c111 0 159 48 159 153z"/><glyph glyph-name="afii10035" unicode="С" horiz-adv-x="611" d="M405-8C190-8 55 127 55 360c0 208 140 348 350 348 62 0 120-8 170-27v-61c-76 25-120 31-170 31-159 0-279-120-279-291 0-200 111-311 279-311 63 0 124 10 176 31V19C540 6 479-8 405-8z"/><glyph glyph-name="afii10036" unicode="Т" horiz-adv-x="516" d="M15 700h486v-57H291V0h-66v643H15v57z"/><glyph glyph-name="afii10037" unicode="У" horiz-adv-x="592" d="M20 700h74l217-455 189 455h72L324 111C298 50 276-8 190-8c-24 0-46 3-70 12v56c20-10 41-11 61-11 37 0 56 24 78 79l17 40z"/><glyph glyph-name="afii10038" unicode="Ф" horiz-adv-x="840" d="M387-8v91h-37C170 83 55 203 55 360s115 277 295 277h37v91h66v-91h37c180 0 295-120 295-277S670 83 490 83h-37V-8h-66zM126 360c0-130 85-220 224-220h37v440h-37c-139 0-224-90-224-220zm588 0c0 130-85 220-224 220h-37V140h37c139 0 224 90 224 220z"/><glyph glyph-name="afii10039" unicode="Х" horiz-adv-x="643" d="M35 700h82l180-253 22-33h1l23 33 179 253h76L361 371 623 0h-82L360 257l-41 67h-2l-42-70L99 0H20l258 371z"/><glyph glyph-name="afii10040" unicode="Ц" horiz-adv-x="727" d="M100 700h66V57h372v643h66V57h83v-209h-66V0H100v700z"/><glyph glyph-name="afii10041" unicode="Ч" horiz-adv-x="634" d="M60 700h66V468c0-128 128-126 170-126 44 0 88 3 132 9l40 5v344h66V0h-66v299l-40-4c-47-5-93-10-140-10C78 285 60 404 60 467v233z"/><glyph glyph-name="afii10042" unicode="Ш" horiz-adv-x="1030" d="M482 700h66V57h316v643h66V0H100v700h66V57h316v643z"/><glyph glyph-name="afii10043" unicode="Щ" horiz-adv-x="1045" d="M482 700h66V57h316v643h66V57h75v-209h-66V0H100v700h66V57h316v643z"/><glyph glyph-name="afii10044" unicode="Ъ" horiz-adv-x="672" d="M184 0v643H20v57h230V420h134c138 0 228-90 228-210S522 0 384 0H184zm357 209c0 94-60 154-157 154H250V57h134c97 0 157 60 157 152z"/><glyph glyph-name="afii10045" unicode="Ы" horiz-adv-x="806" d="M100 0v700h66V420h134c138 0 228-90 228-210S438 0 300 0H100zm357 209c0 94-60 154-157 154H166V57h134c97 0 157 60 157 152zm183 491h66V0h-66v700z"/><glyph glyph-name="afii10046" unicode="Ь" horiz-adv-x="588" d="M100 0v700h66V420h134c138 0 228-90 228-210S438 0 300 0H100zm357 209c0 94-60 154-157 154H166V57h134c97 0 157 60 157 152z"/><glyph glyph-name="afii10047" unicode="Э" horiz-adv-x="633" d="M228-8C144-8 95 1 44 20v65c62-26 101-36 184-36 160 0 270 100 280 283H138v57h370c-11 163-121 262-280 262-80 0-137-21-193-50v65c48 23 111 42 193 42 210 0 350-140 350-348C578 137 433-8 228-8z"/><glyph glyph-name="afii10048" unicode="Ю" horiz-adv-x="973" d="M166 391h120c11 159 110 317 315 317 214 0 317-171 317-359C918 118 779-8 601-8 385-8 287 165 285 334H166V0h-66v700h66V391zm190-42c0-210 124-300 245-300 122 0 246 90 246 300S723 651 601 651c-120 0-245-92-245-302z"/><glyph glyph-name="afii10049" unicode="Я" horiz-adv-x="590" d="m46 0 162 293c-88 27-132 95-132 197 0 133 76 210 230 210h184V0h-66v280H306c-11 0-22 0-33 1L127 0H46zm101 490c0-105 48-153 159-153h118v306H306c-111 0-159-48-159-153z"/><glyph glyph-name="afii10065" unicode="а" horiz-adv-x="518" d="M215-8C105-8 45 52 45 140c0 98 75 173 270 173h57v17c0 96-42 138-117 138-50 0-106-12-155-37v58c43 19 95 32 155 32 118 0 180-62 180-191V0h-53v87h-2C337 8 270-8 215-8zm0 53c98 0 157 66 157 178v37h-57c-154 0-204-50-204-120 0-55 40-95 104-95z"/><glyph glyph-name="afii10066" unicode="б" horiz-adv-x="589" d="M500 774v-59c-62-10-97-12-155-17-95-8-238-20-238-293v-24h3c29 83 101 140 191 140 129 0 243-85 243-269C544 66 414-8 300-8 90-8 50 184 50 379c0 319 146 363 298 376 55 5 87 7 152 19zM126 252c0-139 83-207 176-207s176 68 176 207c0 145-84 216-176 216s-176-71-176-216z"/><glyph glyph-name="afii10067" unicode="в" horiz-adv-x="522" d="M80 513h203c108 0 159-61 159-136 0-51-26-84-71-105v-2c57-12 96-65 96-127C467 1 316 0 294 0H80v513zm63-53V293h136c10 0 100 0 100 79 0 35-18 88-100 88H143zm0-220V53h146c80 0 112 45 112 90 0 51-33 97-122 97H143z"/><glyph glyph-name="afii10068" unicode="г" horiz-adv-x="395" d="M80 513h314v-53H143V0H80v513z"/><glyph glyph-name="afii10069" unicode="д" horiz-adv-x="582" d="M135 513h342V53h75v-191h-63V0H68v-138H5V53h56c60 88 74 160 74 264v196zm-2-460h281v407H198V316c0-110-11-171-65-263z"/><glyph glyph-name="afii10070" unicode="е" horiz-adv-x="508" d="M468 238H106c-1-63 24-193 170-193 52 0 102 7 153 33V20C377-2 327-8 275-8 129-8 40 89 40 265c0 161 93 256 223 256 191 0 205-174 205-263v-20zm-362 53h296c1 41-6 177-139 177-104 0-155-91-157-177z"/><glyph glyph-name="afii10072" unicode="ж" horiz-adv-x="741" d="M339 513h63V281h3l225 232h77L472 274 736 0h-90L405 258h-3V0h-63v258h-3L95 0H5l264 274L34 513h77l225-232h3v232z"/><glyph glyph-name="afii10073" unicode="з" horiz-adv-x="443" d="M130 240v53h50c85 0 120 35 120 87 0 53-35 88-120 88-49 0-94-13-130-30v56c47 19 89 27 130 27 123 0 183-60 183-141 0-59-34-93-76-107v-3c41-9 101-38 101-130C388 59 321-8 190-8 153-8 92-1 30 26v56c46-26 106-37 160-37 87 0 132 45 132 95 0 65-35 100-142 100h-50z"/><glyph glyph-name="afii10074" unicode="и" horiz-adv-x="594" d="M80 513h63V137l-1-54h3l34 55 265 375h70V0h-63v376l1 54h-3l-34-54L150 0H80v513z"/><glyph glyph-name="afii10075" unicode="й" horiz-adv-x="594" d="M80 513h63V137l-1-54h3l34 55 265 375h70V0h-63v376l1 54h-3l-34-54L150 0H80v513zm318 217 54-6c-5-94-76-134-155-134s-150 40-155 134l56 6c7-65 46-90 99-90 55 0 94 25 101 90z"/><glyph glyph-name="afii10076" unicode="к" horiz-adv-x="494" d="M80 513h63V287h3l235 226h81L210 274 489 0h-89L146 254h-3V0H80v513z"/><glyph glyph-name="afii10077" unicode="л" horiz-adv-x="540" d="M52-8C27-8 7-3 7-3v55s14-7 35-7c52 0 95 39 95 345v123h323V0h-63v460H200v-70C200 50 139-8 52-8z"/><glyph glyph-name="afii10078" unicode="м" horiz-adv-x="680" d="M80 0v513h106l155-308 155 308h104V0h-64v460h-2L372 140h-64L146 460h-2V0H80z"/><glyph glyph-name="afii10079" unicode="н" horiz-adv-x="564" d="M80 513h63V293h278v220h63V0h-63v240H143V0H80v513z"/><glyph glyph-name="afii10080" unicode="о" horiz-adv-x="564" d="M45 256c0 160 94 265 237 265s237-105 237-265C519 97 424-8 282-8S45 97 45 256zm66 0c0-99 51-211 171-211s171 112 171 211c0 100-51 212-171 212S111 356 111 256z"/><glyph glyph-name="afii10081" unicode="п" horiz-adv-x="554" d="M80 513h394V0h-63v460H143V0H80v513z"/><glyph glyph-name="afii10082" unicode="р" horiz-adv-x="568" d="M147-219H84v633l-4 99h60V407h3c17 47 59 114 159 114 142 0 221-102 221-264C523 69 416-8 302-8 233-8 179 33 148 92h-3l2-49v-262zm0 476c0-163 95-212 155-212s155 49 155 212c0 161-95 211-155 211s-155-50-155-211z"/><glyph glyph-name="afii10083" unicode="с" horiz-adv-x="460" d="M311-8C150-8 45 97 45 255c0 161 105 266 258 266 23 0 67-2 122-20v-56c-18 7-65 23-121 23-113 0-193-80-193-213 0-130 80-210 200-210 36 0 82 9 119 23V12C388-4 353-8 311-8z"/><glyph glyph-name="afii10084" unicode="т" horiz-adv-x="403" d="M10 513h383v-53H233V0h-63v460H10v53z"/><glyph glyph-name="afii10085" unicode="у" horiz-adv-x="490" d="M60-211v56s23-9 51-9c44 0 63 32 79 80l24 70L30 513h67L248 74h1l146 439h65L241-116c-21-59-53-104-124-104-28 0-56 9-57 9z"/><glyph glyph-name="afii10086" unicode="ф" horiz-adv-x="730" d="M334-219V-5c-14-1-34-3-54-3C140-8 45 87 45 260c0 161 100 261 235 261 20 0 40-2 54-3v244h62V518c14 1 33 3 54 3 140 0 235-95 235-261C685 92 585-8 450-8c-20 0-40 2-54 3v-214h-62zm285 479c0 143-65 208-179 208-14 0-31-1-44-3V48c14-2 33-3 54-3 104 0 169 65 169 215zm-508 0c0-150 65-215 179-215 14 0 31 1 44 2v418c-14 1-34 3-54 3-104 0-169-65-169-208z"/><glyph glyph-name="afii10087" unicode="х" horiz-adv-x="498" d="M42 513h80l97-149 28-48h1l28 49 90 148h74L283 274 468 0h-82L272 185l-25 46h-1l-26-46L103 0H30l178 274z"/><glyph glyph-name="afii10088" unicode="ц" horiz-adv-x="576" d="M80 513h63V53h266v460h63V53h79v-191h-63V0H80v513z"/><glyph glyph-name="afii10089" unicode="ч" horiz-adv-x="502" d="M103 513V359c0-49 12-92 136-92 40 0 80 4 120 12v234h63V0h-63v226c-43-8-86-12-129-12-156 0-190 59-190 135v164h63z"/><glyph glyph-name="afii10090" unicode="ш" horiz-adv-x="793" d="M80 513h63V53h222v460h63V53h222v460h63V0H80v513z"/><glyph glyph-name="afii10091" unicode="щ" horiz-adv-x="811" d="M723-138V0H80v513h63V53h222v460h63V53h222v460h63V53h73v-191h-63z"/><glyph glyph-name="afii10092" unicode="ъ" horiz-adv-x="576" d="M161 0v460H20v53h204V320h118c140 0 200-60 200-160S482 0 342 0H161zm315 160c0 67-40 107-134 107H224V53h118c94 0 134 40 134 107z"/><glyph glyph-name="afii10093" unicode="ы" horiz-adv-x="699" d="M556 513h63V0h-63v513zM80 0v513h63V320h118c140 0 200-60 200-160S401 0 261 0H80zm315 160c0 67-40 107-134 107H143V53h118c94 0 134 40 134 107z"/><glyph glyph-name="afii10094" unicode="ь" horiz-adv-x="495" d="M80 0v513h63V320h118c140 0 200-60 200-160S401 0 261 0H80zm315 160c0 67-40 107-134 107H143V53h118c94 0 134 40 134 107z"/><glyph glyph-name="afii10095" unicode="э" horiz-adv-x="459" d="M148-8C106-8 72-4 30 12v56c37-14 82-23 118-23 121 0 190 61 199 184H103v53h244c-10 120-82 186-192 186-51 0-96-17-124-29v58c55 18 82 24 125 24 158 0 258-100 258-266C414 92 314-8 153-8h-5z"/><glyph glyph-name="afii10096" unicode="ю" horiz-adv-x="743" d="M143 289h81c9 123 89 232 237 232 41 0 83-8 118-28 65-37 119-118 119-237C698 97 603-8 461-8 302-8 229 114 224 236h-81V0H80v513h63V289zm147-33c0-99 51-211 171-211s171 112 171 211c0 100-51 212-171 212S290 356 290 256z"/><glyph glyph-name="afii10097" unicode="я" horiz-adv-x="498" d="m45 0 110 207c-65 23-95 74-95 146 0 100 60 160 190 160h168V0h-63v193H250c-11 0-21 0-31 1L121 0H45zm81 353c0-67 40-107 124-107h105v214H250c-84 0-124-40-124-107z"/><glyph glyph-name="afii10071" unicode="ё" horiz-adv-x="508" d="M468 238H106c-1-63 24-193 170-193 52 0 102 7 153 33V20C377-2 327-8 275-8 129-8 40 89 40 265c0 161 93 256 223 256 191 0 205-174 205-263v-20zm-362 53h296c1 41-6 177-139 177-104 0-155-91-157-177zm4 429h69v-80h-69v80zm219 0h69v-80h-69v80z"/><glyph glyph-name="afii10099" unicode="ђ" horiz-adv-x="592" d="M104 0v613H20v45h84v104h63V658h212v-45H167V513l-3-105h1c25 64 86 113 155 113 174 0 192-170 192-286 0-197-36-327-185-408l-23 51C440-49 449 65 449 233c0 82-1 235-141 235-80 0-141-88-141-169V0h-63z"/><glyph glyph-name="afii10100" unicode="ѓ" horiz-adv-x="395" d="M80 513h314v-53H143V0H80v513zm220 227h94L260 610h-50z"/><glyph glyph-name="afii10101" unicode="є" horiz-adv-x="442" d="M306-8h-5C140-8 40 92 40 255c0 166 100 266 258 266 23 0 70-5 120-20v-57c-18 7-63 24-119 24-109 0-181-64-192-181h224v-53H106c7-126 76-189 200-189 36 0 80 6 116 24V10C382-2 338-8 306-8z"/><glyph glyph-name="afii10102" unicode="ѕ" horiz-adv-x="419" d="M185-8C140-8 98-2 50 15v62c45-21 91-32 137-32 70 0 116 34 116 93 0 66-45 81-114 111-66 29-132 61-132 147 0 79 73 125 172 125 44 0 81-8 122-27v-58c-38 21-78 32-125 32-49 0-107-14-107-72 0-53 30-69 132-111 49-21 118-58 118-147C369 68 319-8 185-8z"/><glyph glyph-name="afii10103" unicode="і" horiz-adv-x="223" d="M80 513h63V0H80v513zm-3 207h69v-80H77v80z"/><glyph glyph-name="afii10104" unicode="ї" horiz-adv-x="223" d="M80 513h63V0H80v513zM20 720h66v-80H20v80zm117 0h66v-80h-66v80z"/><glyph glyph-name="afii10105" unicode="ј" horiz-adv-x="223" d="M143 513V-74c0-53-7-144-114-144-20 0-39 2-59 8v51c16-5 32-6 48-6 27 0 62 8 62 85v593h63zM77 720h69v-80H77v80z"/><glyph glyph-name="afii10106" unicode="љ" horiz-adv-x="812" d="M52-8C27-8 7-3 7-3v55s14-7 35-7c52 0 95 39 95 345v123h323V320h118c140 0 200-60 200-160S718 0 578 0H397v460H200v-70C200 50 139-8 52-8zm660 168c0 67-40 107-134 107H460V53h118c94 0 134 40 134 107z"/><glyph glyph-name="afii10107" unicode="њ" horiz-adv-x="836" d="M80 513h63V311h278v202h63V311h152c102 0 166-63 166-155C802 65 742 0 636 0H421v258H143V0H80v513zm404-255V53h133c42 0 119 17 119 103 0 41-21 102-119 102H484z"/><glyph glyph-name="afii10108" unicode="ћ" horiz-adv-x="588" d="M105 0v618H20v45h85v99h63v-99h226v-45H168V513l-4-105h1c28 70 91 113 163 113 166 0 180-135 180-207V0h-63v316c0 30 4 152-122 152-97 0-152-84-155-169V0h-63z"/><glyph glyph-name="afii10109" unicode="ќ" horiz-adv-x="494" d="M80 513h63V287h3l235 226h81L210 274 489 0h-89L146 254h-3V0H80v513zm230 227h94L270 610h-50z"/><glyph glyph-name="afii10110" unicode="ў" horiz-adv-x="490" d="M60-211v56s23-9 51-9c44 0 63 32 79 80l24 70L30 513h67L248 74h1l146 439h65L241-116c-21-59-53-104-124-104-28 0-56 9-57 9zm286 941 54-6c-5-94-76-134-155-134S95 630 90 724l56 6c7-65 46-90 99-90 55 0 94 25 101 90z"/><glyph glyph-name="afii10193" unicode="џ" horiz-adv-x="555" d="M475 0H309v-148h-63V0H80v513h63V53h269v460h63V0z"/><glyph glyph-name="afii10146" unicode="Ѣ" horiz-adv-x="652" d="M184 0v572H20v57h164v101h66V629h200v-57H250V420h134c138 0 228-90 228-210S522 0 384 0H184zm357 209c0 94-60 154-157 154H250V57h134c97 0 157 60 157 152z"/><glyph glyph-name="afii10194" unicode="ѣ" horiz-adv-x="587" d="M161 0v460H20v53h141v187h63V513h160v-53H224V320h118c140 0 200-60 200-160S482 0 342 0H161zm315 160c0 67-40 107-134 107H224V53h118c94 0 134 40 134 107z"/><glyph glyph-name="afii10147" unicode="Ѳ" horiz-adv-x="744" d="M55 349c0 188 103 359 317 359s317-171 317-359C689 118 550-8 372-8S55 118 55 349zm72 42h490c-9 92-62 260-245 260S136 483 127 391zm490-57H127c4-208 136-285 245-285s241 77 245 285z"/><glyph glyph-name="afii10195" unicode="ѳ" horiz-adv-x="564" d="M45 256c0 160 94 265 237 265s237-105 237-265C519 97 424-8 282-8S45 97 45 256zm67 37h340c-7 64-46 175-170 175S119 357 112 293zm340-53H112c4-96 58-195 170-195s166 99 170 195z"/><glyph glyph-name="afii10148" unicode="Ѵ" horiz-adv-x="720" d="M20 700h73l221-556 21-81h2l25 81 163 444c14 39 47 120 136 120 14 0 33-4 49-8l-4-55c-14 5-26 6-39 6-53 0-69-38-81-71L371 0h-74z"/><glyph glyph-name="afii10196" unicode="ѵ" horiz-adv-x="508" d="M20 513h65L225 94l10-40h3l10 40 116 327c18 51 40 100 101 100 6 0 21-1 39-8v-51c-9 4-21 7-34 7-14 0-24-5-37-24-8-12-13-25-18-39L269 0h-72z"/><glyph glyph-name="afii10050" unicode="Ґ" horiz-adv-x="469" d="M100 700h293v140h66V643H166V0h-66v700z"/><glyph glyph-name="afii10098" unicode="ґ" horiz-adv-x="391" d="M80 513h244v120h57V460H143V0H80v513z"/><glyph glyph-name="uni0492" unicode="Ғ" horiz-adv-x="469" d="M100 700h359v-57H166V391h200v-45H166V0h-66v346H0v45h100v309z"/><glyph glyph-name="uni0493" unicode="ғ" horiz-adv-x="395" d="M80 513h314v-53H143V280h153v-45H143V0H80v235H0v45h80v233z"/><glyph glyph-name="uni0494" unicode="Ҕ" horiz-adv-x="653" d="M100 700h359v-57H166V406c51 31 115 58 190 58 142 0 217-74 217-224C573 64 501-8 370-8c-33 0-61 6-86 14v58c30-11 52-15 86-15 82 0 132 51 132 191 0 117-50 167-157 167-65 0-125-25-179-58V0h-66v700z"/><glyph glyph-name="uni0495" unicode="ҕ" horiz-adv-x="448" d="M80 513h314v-53H143V297h42c29 0 56-2 83-10 26-7 52-20 73-38 57-48 67-120 67-184 0-59-11-135-69-190-45-43-99-55-161-55v53c20 0 49 3 75 14 19 8 37 21 50 37 30 36 39 92 39 141 0 29-3 58-12 85-6 19-16 37-30 52s-33 26-52 33c-20 7-42 9-65 9h-40V0H80v513z"/><glyph glyph-name="uni0496" unicode="Җ" horiz-adv-x="893" d="M400 700h66V381h3l282 319h80L536 372 811 57h82v-209h-66V0h-58L469 354h-3V0h-66v354h-3L97 0H2l328 372L35 700h80l282-319h3v319z"/><glyph glyph-name="uni0497" unicode="җ" horiz-adv-x="735" d="M339 513h63V281h3l225 232h77L472 274 685 53h50v-191h-63V0h-26L405 258h-3V0h-63v258h-3L95 0H5l264 274L34 513h77l225-232h3v232z"/><glyph glyph-name="uni0498" unicode="Ҙ" horiz-adv-x="508" d="M192-150V-7C123-4 66 14 20 36v61c52-28 127-48 190-48 122 0 187 65 187 141 0 89-58 147-187 147h-85v57h85c114 0 164 50 164 136 0 71-50 121-164 121-57 0-117-14-170-37v61c57 21 108 33 170 33 162 0 235-73 235-178 0-80-41-141-114-161v-2c91-17 137-90 137-177C468 88 399 9 258-5v-145h-66z"/><glyph glyph-name="uni0499" unicode="ҙ" horiz-adv-x="443" d="M159-140V-7C123-4 77 5 30 26v56c46-26 106-37 160-37 87 0 132 45 132 95 0 65-35 100-142 100h-50v53h50c85 0 120 35 120 87 0 53-35 88-120 88-49 0-94-13-130-30v56c47 19 89 27 130 27 123 0 183-60 183-141 0-59-34-93-76-107v-3c41-9 101-38 101-130C388 66 332 3 222-6v-134h-63z"/><glyph glyph-name="uni049A" unicode="Қ" horiz-adv-x="635" d="M100 700h66V377h1l24 25 299 298h84L234 369 553 57h82v-209h-66V0h-50L184 335l-17 19-1-1V0h-66v700z"/><glyph glyph-name="uni049B" unicode="қ" horiz-adv-x="489" d="M80 513h63V287h3l235 226h81L210 274 435 53h54v-191h-63V0h-26L146 254h-3V0H80v513z"/><glyph glyph-name="uni049C" unicode="Ҝ" horiz-adv-x="700" d="M100 700h66V393h104v147h54V394l256 306h74L370 369 680 0h-80L324 336V180h-54v156H166V0h-66v700z"/><glyph glyph-name="uni049D" unicode="ҝ" horiz-adv-x="540" d="M80 513h63V297h53v83h50v-83l190 216h72L296 276 535 0h-80L246 244v-94h-50v94h-53V0H80v513z"/><glyph glyph-name="uni04A0" unicode="Ҡ" horiz-adv-x="716" d="M20 700h230V377h1l24 25 299 298h84L318 369 696 0h-93L268 335l-17 19-1-1V0h-66v643H20v57z"/><glyph glyph-name="uni04A1" unicode="ҡ" horiz-adv-x="575" d="M224 0h-63v460H20v53h204V287h3l235 226h81L291 274 570 0h-89L227 254h-3V0z"/><glyph glyph-name="uni04A2" unicode="Ң" horiz-adv-x="719" d="M100 700h66V391h364v309h66V57h83v-209h-66V0h-83v334H166V0h-66v700z"/><glyph glyph-name="uni04A3" unicode="ң" horiz-adv-x="588" d="M80 513h63V293h278v220h63V53h79v-191h-63V0h-79v240H143V0H80v513z"/><glyph glyph-name="uni04A4" unicode="Ҥ" horiz-adv-x="899" d="M100 700h66V391h364v309h359v-57H596V0h-66v334H166V0h-66v700z"/><glyph glyph-name="uni04A5" unicode="ҥ" horiz-adv-x="736" d="M80 513h63V293h278v220h314v-53H484V0h-63v240H143V0H80v513z"/><glyph glyph-name="uni04AA" unicode="Ҫ" horiz-adv-x="611" d="M362-150V-6C172 11 55 143 55 360c0 208 140 348 350 348 62 0 120-8 170-27v-61c-76 25-120 31-170 31-159 0-279-120-279-291 0-200 111-311 279-311 63 0 124 10 176 31V19C544 7 491-5 428-7v-143h-66z"/><glyph glyph-name="uni04AB" unicode="ҫ" horiz-adv-x="460" d="M259-140V-4C128 16 45 115 45 255c0 161 105 266 258 266 23 0 67-2 122-20v-56c-18 7-65 23-121 23-113 0-193-80-193-213 0-130 80-210 200-210 36 0 82 9 119 23V12C391-2 359-7 322-8v-132h-63z"/><glyph glyph-name="uni04AE" unicode="Ү" horiz-adv-x="623" d="M10 700h77l195-310 24-41 31 48 195 303h81L338 292V0h-66v292z"/><glyph glyph-name="uni04AF" unicode="ү" horiz-adv-x="479" d="M30 513h63l126-327 20-72h3l21 73 126 326h60L271 60v-279h-63V60z"/><glyph glyph-name="uni04B0" unicode="Ұ" horiz-adv-x="623" d="M10 700h77l195-310 24-41 31 48 195 303h81L338 292h180v-45H338V0h-66v247H92v45h180z"/><glyph glyph-name="uni04B1" unicode="ұ" horiz-adv-x="479" d="M30 513h63l126-327 20-72h3l21 73 126 326h60L271 60V0h140v-45H271v-179h-63v179H68V0h140v60z"/><glyph glyph-name="uni04B2" unicode="Ҳ" horiz-adv-x="665" d="M35 700h82l180-253 22-33h1l23 33 179 253h76L361 371 583 57h82v-209h-66V0h-58L360 257l-41 67h-2l-42-70L99 0H20l258 371z"/><glyph glyph-name="uni04B3" unicode="ҳ" horiz-adv-x="473" d="M42 513h80l97-149 28-48h1l28 49 90 148h74L283 274 432 53h41v-191h-63V0h-24L272 185l-25 46h-1l-26-46L103 0H30l178 274z"/><glyph glyph-name="uni04B6" unicode="Ҷ" horiz-adv-x="657" d="M60 700h66V468c0-29 4-53 18-72 36-51 106-54 152-54 44 0 88 3 132 9l40 5v344h66V57h83v-209h-66V0h-83v299l-40-4c-47-5-93-10-140-10C78 285 60 404 60 467v233z"/><glyph glyph-name="uni04B7" unicode="ҷ" horiz-adv-x="526" d="M103 513V359c0-36 6-61 43-79 14-6 28-9 43-11 17-2 33-2 50-2 40 0 80 4 120 12v234h63V53h79v-191h-63V0h-79v226c-43-8-86-12-129-12-156 0-190 59-190 135v164h63z"/><glyph glyph-name="uni04B8" unicode="Ҹ" horiz-adv-x="634" d="M60 700h66V468c0-101 88-127 148-126v138h54V342c44 1 91 5 140 14v344h66V0h-66v299c-44-7-91-12-140-14V160h-54v125c-79-2-214 24-214 182v233z"/><glyph glyph-name="uni04B9" unicode="ҹ" horiz-adv-x="502" d="M103 513V359c0-30 0-90 106-92v93h50v-92c15 0 31 1 46 3 18 2 36 5 54 8v234h63V0h-63v226c-31-5-65-9-100-11v-85h-50v84C62 211 40 292 40 349v164h63z"/><glyph glyph-name="uni04BA" unicode="Һ" horiz-adv-x="644" d="M100 700h66V406c29 17 50 25 81 36 37 13 64 22 108 22 25 0 50-1 75-7s50-16 71-32c59-46 63-109 63-156V0h-66v254c0 29 2 55-7 79-6 17-17 34-31 46-32 28-75 32-105 32-41 0-69-8-102-21-16-6-32-13-47-20-14-6-27-13-40-21V0h-66v700z"/><glyph glyph-name="uni04BB" unicode="һ" horiz-adv-x="563" d="M80 762h63V519l-5-112h2c26 64 84 114 164 114 164 0 179-125 179-202V0h-63v316c0 61 1 152-126 152-81 0-151-74-151-169V0H80v762z"/><glyph glyph-name="uni04C0" unicode="Ӏ" horiz-adv-x="266" d="M100 700h66V0h-66v700z"/><glyph glyph-name="uni04C3" unicode="Ӄ" horiz-adv-x="620" d="M100 700h66V377l324 323h84L242 377c68 4 161-12 221-53 86-58 101-147 101-219 0-52-7-159-96-236-29-25-65-43-102-54-25-7-50-11-76-13-12-1-23-2-35-2l5 57c82-1 136 27 169 60 35 35 65 93 65 188 0 54-8 118-72 165-63 47-154 50-193 50h-63V0h-66v700z"/><glyph glyph-name="uni04C4" unicode="ӄ" horiz-adv-x="494" d="M80 513h63V278h3l235 235h81L219 274c50 2 115-12 154-42 22-17 39-40 50-65 14-32 19-66 19-101 0-52-6-134-66-193-22-21-50-38-79-45-20-5-41-6-61-7-8 0-16-1-24-1v53c49 1 96 5 129 48 7 9 35 47 35 139 0 42-5 90-45 125-41 35-103 40-142 40h-46V0H80v513z"/><glyph glyph-name="uni04C7" unicode="Ӈ" horiz-adv-x="696" d="M100 700h66V391h364v309h66V-17c0-45-4-109-53-150-26-22-64-33-106-33-15 0-29 2-44 4l-33 6 6 58c11-3 21-5 32-7s21-4 32-4c16 0 33 2 47 9 13 6 24 16 32 27 19 27 21 60 21 90v351H166V0h-66v700z"/><glyph glyph-name="uni04C8" unicode="ӈ" horiz-adv-x="564" d="M80 513h63V293h278v220h63V-36c0-117-60-145-115-145-22 0-42 4-58 9v51c20-6 47-4 66-4 8 0 15 5 21 10 5 4 9 9 12 15 4 7 6 14 8 21 3 12 3 24 3 37v282H143V0H80v513z"/><glyph glyph-name="uni04CF" unicode="ӏ" horiz-adv-x="223" d="M80 700h63V0H80v700z"/><glyph glyph-name="uni04D0" unicode="Ӑ" horiz-adv-x="650" d="m15 0 267 700h86L635 0h-72l-72 192H156L85 0H15zm163 249h291L326 634h-2zm251 646 56-6c-5-94-76-134-160-134s-155 40-160 134l58 6c7-63 46-88 102-88 58 0 97 25 104 88z"/><glyph glyph-name="uni04D1" unicode="ӑ" horiz-adv-x="518" d="M215-8C105-8 45 52 45 140c0 98 75 173 270 173h57v17c0 96-42 138-117 138-50 0-106-12-155-37v58c43 19 95 32 155 32 118 0 180-62 180-191V0h-53v87h-2C337 8 270-8 215-8zm0 53c98 0 157 66 157 178v37h-57c-154 0-204-50-204-120 0-55 40-95 104-95zm141 685 54-6c-5-94-76-134-155-134s-150 40-155 134l56 6c7-65 46-90 99-90 55 0 94 25 101 90z"/><glyph glyph-name="uni04D2" unicode="Ӓ" horiz-adv-x="650" d="m15 0 267 700h86L635 0h-72l-72 192H156L85 0H15zm163 249h291L326 634h-2zm-2 595h69v-80h-69v80zm229 0h69v-80h-69v80z"/><glyph glyph-name="uni04D3" unicode="ӓ" horiz-adv-x="518" d="M215-8C105-8 45 52 45 140c0 98 75 173 270 173h57v17c0 96-42 138-117 138-50 0-106-12-155-37v58c43 19 95 32 155 32 118 0 180-62 180-191V0h-53v87h-2C337 8 270-8 215-8zm0 53c98 0 157 66 157 178v37h-57c-154 0-204-50-204-120 0-55 40-95 104-95zM111 720h69v-80h-69v80zm219 0h69v-80h-69v80z"/><glyph glyph-name="uni04D4" unicode="Ӕ" horiz-adv-x="854" d="M442 700h393v-57H556l13-253h247v-57H573l15-276h251V0H522l-10 193H208L90 0H15zM244 250h264l-21 390h-6z"/><glyph glyph-name="uni04D5" unicode="ӕ" horiz-adv-x="835" d="M101 427v60c43 20 93 34 153 34 79 0 140-28 158-96h3c35 64 100 96 174 96 179 0 201-159 201-263v-9H435c-4-123 71-208 181-208 41 0 88 12 137 39V22C707 1 659-9 614-9c-95 0-179 44-214 124h-2C353 7 263-8 213-8 101-8 45 59 45 137c0 169 187 165 294 165h33v29c0 38-2 137-118 137-51 0-104-11-153-41zm334-125h289c-1 54-17 166-135 166-108 0-148-100-154-166zm-63-53h-57c-118 0-204-21-204-108 0-55 44-96 101-96 98 0 160 66 160 178v26z"/><glyph glyph-name="uni04D6" unicode="Ӗ" horiz-adv-x="509" d="M100 700h340v-57H166V390h261v-57H166V57h293V0H100v700zm15 170h60c17-45 65-58 101-58s84 13 101 58h60c-27-75-90-116-161-116s-134 41-161 116z"/><glyph glyph-name="uni04D7" unicode="ӗ" horiz-adv-x="508" d="M468 238H106c-1-63 24-193 170-193 52 0 102 7 153 33V20C377-2 327-8 275-8 129-8 40 89 40 265c0 161 93 256 223 256 191 0 205-174 205-263v-20zm-362 53h296c1 41-6 177-139 177-104 0-155-91-157-177zm2 449h56c20-42 57-64 105-64s85 22 105 64h56c-27-75-90-116-161-116s-134 41-161 116z"/><glyph glyph-name="uni04D8" unicode="Ә" horiz-adv-x="740" d="M368-8C156-8 55 156 55 349v22h559c-2 182-130 280-274 280-67 0-146-18-219-61v66c64 33 132 52 219 52 178 0 345-104 345-359C685 161 583-8 368-8zm0 57c155 0 236 125 244 265H127c1-138 92-265 241-265z"/><glyph glyph-name="afii10846" unicode="ә" horiz-adv-x="508" d="M40 275h362c2 76-34 123-39 130-37 49-89 63-140 63-65 0-113-17-144-33v58c44 17 98 28 147 28 98 0 158-41 192-87 47-63 50-141 50-186 0-58-12-130-64-188-41-46-92-68-159-68C195-8 127 3 81 71c-39 58-41 135-41 184v20zm362-53H106c-1-33 5-81 24-114 19-32 53-63 115-63 48 0 88 18 119 59 26 35 37 80 38 118z"/><glyph glyph-name="uni04DA" unicode="Ӛ" horiz-adv-x="740" d="M201 844h69v-80h-69v80zm229 0h69v-80h-69v80zM368-8C156-8 55 156 55 349v22h559c-2 182-130 280-274 280-67 0-146-18-219-61v66c64 33 132 52 219 52 178 0 345-104 345-359C685 161 583-8 368-8zm0 57c155 0 236 125 244 265H127c1-138 92-265 241-265z"/><glyph glyph-name="uni04DB" unicode="ӛ" horiz-adv-x="508" d="M40 275h362c2 76-34 123-39 130-37 49-89 63-140 63-65 0-113-17-144-33v58c44 17 98 28 147 28 98 0 158-41 192-87 47-63 50-141 50-186 0-58-12-130-64-188-41-46-92-68-159-68C195-8 127 3 81 71c-39 58-41 135-41 184v20zm362-53H106c-1-33 5-81 24-114 19-32 53-63 115-63 48 0 88 18 119 59 26 35 37 80 38 118zM110 720h69v-80h-69v80zm219 0h69v-80h-69v80z"/><glyph glyph-name="uni04DC" unicode="Ӝ" horiz-adv-x="866" d="M400 700h66V381h3l282 319h80L536 372 864 0h-95L469 354h-3V0h-66v354h-3L97 0H2l328 372L35 700h80l282-319h3v319zM284 844h69v-80h-69v80zm229 0h69v-80h-69v80z"/><glyph glyph-name="uni04DD" unicode="ӝ" horiz-adv-x="741" d="M339 513h63V281h3l225 232h77L472 274 736 0h-90L405 258h-3V0h-63v258h-3L95 0H5l264 274L34 513h77l225-232h3v232zM226 720h69v-80h-69v80zm219 0h69v-80h-69v80z"/><glyph glyph-name="uni04DE" unicode="Ӟ" horiz-adv-x="508" d="M125 337v57h85c114 0 164 50 164 136 0 71-50 121-164 121-57 0-117-14-170-37v61c57 21 108 33 170 33 162 0 235-73 235-178 0-80-41-141-114-161v-2c91-17 137-90 137-177C468 77 383-8 210-8 133-8 70 12 20 36v61c52-28 127-48 190-48 122 0 187 65 187 141 0 89-58 147-187 147h-85zm-20 507h69v-80h-69v80zm229 0h69v-80h-69v80z"/><glyph glyph-name="uni04DF" unicode="ӟ" horiz-adv-x="443" d="M130 240v53h50c85 0 120 35 120 87 0 53-35 88-120 88-49 0-94-13-130-30v56c47 19 89 27 130 27 123 0 183-60 183-141 0-59-34-93-76-107v-3c41-9 101-38 101-130C388 59 321-8 190-8 153-8 92-1 30 26v56c46-26 106-37 160-37 87 0 132 45 132 95 0 65-35 100-142 100h-50zM57 720h69v-80H57v80zm219 0h69v-80h-69v80z"/><glyph glyph-name="uni04E2" unicode="Ӣ" horiz-adv-x="717" d="M100 700h66V174l-4-85h3l39 71 338 540h75V0h-66v526l4 85h-3l-35-66L175 0h-75v700zm127 134h262v-60H227v60z"/><glyph glyph-name="uni04E3" unicode="ӣ" horiz-adv-x="594" d="M80 513h63V137l-1-54h3l34 55 265 375h70V0h-63v376l1 54h-3l-34-54L150 0H80v513zm91 201h252v-54H171v54z"/><glyph glyph-name="uni04E4" unicode="Ӥ" horiz-adv-x="717" d="M100 700h66V174l-4-85h3l39 71 338 540h75V0h-66v526l4 85h-3l-35-66L175 0h-75v700zm109 144h69v-80h-69v80zm229 0h69v-80h-69v80z"/><glyph glyph-name="uni04E5" unicode="ӥ" horiz-adv-x="594" d="M80 513h63V137l-1-54h3l34 55 265 375h70V0h-63v376l1 54h-3l-34-54L150 0H80v513zm73 207h69v-80h-69v80zm219 0h69v-80h-69v80z"/><glyph glyph-name="uni04E6" unicode="Ӧ" horiz-adv-x="744" d="M55 349c0 188 103 359 317 359s317-171 317-359C689 118 550-8 372-8S55 118 55 349zm71 0c0-210 124-300 246-300s246 90 246 300-124 302-246 302-246-92-246-302zm97 495h69v-80h-69v80zm229 0h69v-80h-69v80z"/><glyph glyph-name="uni04E7" unicode="ӧ" horiz-adv-x="564" d="M45 256c0 160 94 265 237 265s237-105 237-265C519 97 424-8 282-8S45 97 45 256zm66 0c0-99 51-211 171-211s171 112 171 211c0 100-51 212-171 212S111 356 111 256zm27 464h69v-80h-69v80zm219 0h69v-80h-69v80z"/><glyph glyph-name="uni04E8" unicode="Ө" horiz-adv-x="744" d="M55 349c0 188 103 359 317 359s317-171 317-359C689 118 550-8 372-8S55 118 55 349zm72 42h490c-9 92-62 260-245 260S136 483 127 391zm490-57H127c4-208 136-285 245-285s241 77 245 285z"/><glyph glyph-name="uni04E9" unicode="ө" horiz-adv-x="564" d="M45 256c0 160 94 265 237 265s237-105 237-265C519 97 424-8 282-8S45 97 45 256zm67 37h340c-7 64-46 175-170 175S119 357 112 293zm340-53H112c4-96 58-195 170-195s166 99 170 195z"/><glyph glyph-name="uni04EA" unicode="Ӫ" horiz-adv-x="744" d="M55 349c0 188 103 359 317 359s317-171 317-359C689 118 550-8 372-8S55 118 55 349zm72 42h490c-9 92-62 260-245 260S136 483 127 391zm490-57H127c4-208 136-285 245-285s241 77 245 285zM223 844h69v-80h-69v80zm229 0h69v-80h-69v80z"/><glyph glyph-name="uni04EB" unicode="ӫ" horiz-adv-x="564" d="M45 256c0 160 94 265 237 265s237-105 237-265C519 97 424-8 282-8S45 97 45 256zm67 37h340c-7 64-46 175-170 175S119 357 112 293zm340-53H112c4-96 58-195 170-195s166 99 170 195zM138 720h69v-80h-69v80zm219 0h69v-80h-69v80z"/><glyph glyph-name="uni04EE" unicode="Ӯ" horiz-adv-x="592" d="M20 700h74l217-455 189 455h72L324 111C298 50 276-8 190-8c-24 0-46 3-70 12v56c20-10 41-11 61-11 37 0 56 24 78 79l17 40zm145 134h262v-60H165v60z"/><glyph glyph-name="uni04EF" unicode="ӯ" horiz-adv-x="490" d="M60-211v56s23-9 51-9c44 0 63 32 79 80l24 70L30 513h67L248 74h1l146 439h65L241-116c-21-59-53-104-124-104-28 0-56 9-57 9zm59 925h252v-54H119v54z"/><glyph glyph-name="uni04F0" unicode="Ӱ" horiz-adv-x="592" d="M20 700h74l217-455 189 455h72L324 111C298 50 276-8 190-8c-24 0-46 3-70 12v56c20-10 41-11 61-11 37 0 56 24 78 79l17 40zm127 144h69v-80h-69v80zm229 0h69v-80h-69v80z"/><glyph glyph-name="uni04F1" unicode="ӱ" horiz-adv-x="490" d="M60-211v56s23-9 51-9c44 0 63 32 79 80l24 70L30 513h67L248 74h1l146 439h65L241-116c-21-59-53-104-124-104-28 0-56 9-57 9zm41 931h69v-80h-69v80zm219 0h69v-80h-69v80z"/><glyph glyph-name="uni04F2" unicode="Ӳ" horiz-adv-x="592" d="M20 700h74l217-455 189 455h72L324 111C298 50 276-8 190-8c-24 0-46 3-70 12v56c20-10 41-11 61-11 37 0 56 24 78 79l17 40zm266 170h100L252 750h-60zm150 0h100L401 750h-60z"/><glyph glyph-name="uni04F3" unicode="ӳ" horiz-adv-x="490" d="M60-211v56s23-9 51-9c44 0 63 32 79 80l24 70L30 513h67L248 74h1l146 439h65L241-116c-21-59-53-104-124-104-28 0-56 9-57 9zm329 951h90L345 610h-50zm-150 0h90L195 610h-50z"/><glyph glyph-name="uni04F4" unicode="Ӵ" horiz-adv-x="634" d="M60 700h66V468c0-128 128-126 170-126 44 0 88 3 132 9l40 5v344h66V0h-66v299l-40-4c-47-5-93-10-140-10C78 285 60 404 60 467v233zm90 144h69v-80h-69v80zm229 0h69v-80h-69v80z"/><glyph glyph-name="uni04F5" unicode="ӵ" horiz-adv-x="502" d="M103 513V359c0-49 12-92 136-92 40 0 80 4 120 12v234h63V0h-63v226c-43-8-86-12-129-12-156 0-190 59-190 135v164h63zm4 207h69v-80h-69v80zm219 0h69v-80h-69v80z"/><glyph glyph-name="uni04F8" unicode="Ӹ" horiz-adv-x="806" d="M100 0v700h66V420h134c138 0 228-90 228-210S438 0 300 0H100zm357 209c0 94-60 154-157 154H166V57h134c97 0 157 60 157 152zm183 491h66V0h-66v700zM254 844h69v-80h-69v80zm229 0h69v-80h-69v80z"/><glyph glyph-name="uni04F9" unicode="ӹ" horiz-adv-x="699" d="M556 513h63V0h-63v513zM80 0v513h63V320h118c140 0 200-60 200-160S401 0 261 0H80zm315 160c0 67-40 107-134 107H143V53h118c94 0 134 40 134 107zM205 720h69v-80h-69v80zm219 0h69v-80h-69v80z"/><glyph glyph-name="uni0531" unicode="Ա" horiz-adv-x="737" d="M166 700V240c0-49 7-108 62-150 35-28 81-41 128-41s93 13 128 41c55 42 62 101 62 150v460h66V238c0-35 0-56-11-87l100-75V-5L571 90C530 33 476 9 441 1c-19-5-50-10-86-10-51 0-113 10-165 49-77 59-90 133-90 198v462h66z"/><glyph glyph-name="uni0532" unicode="Բ" horiz-adv-x="683" d="M546 435v30c0 44-7 103-62 145-35 28-81 41-128 41s-93-13-128-41c-55-44-62-99-62-150V289h457v-57H166V0h-66v462c0 63 13 142 90 198 59 44 118 48 166 48s107-4 166-48c76-57 90-134 90-193v-32h-66z"/><glyph glyph-name="uni0533" unicode="Գ" horiz-adv-x="673" d="M633 234H530V0h-66v232c-51-15-108-23-155-23h-8c-113 3-189 52-226 128-17 36-25 78-25 119 0 33 5 65 16 96 23 60 69 117 141 142 28 10 58 15 91 15 68 0 136-22 177-66 51-57 55-118 55-186V291h103v-57zm-169 55v182c0 71-18 110-38 133-29 33-75 47-120 47-23 0-45-3-66-10-48-15-86-45-107-101-11-27-16-57-16-86 0-56 19-110 52-141 46-43 114-47 145-47 40 0 91 4 150 23z"/><glyph glyph-name="uni0534" unicode="Դ" horiz-adv-x="717" d="M677 232H552V0h-66v459c0 52-6 106-62 151-35 28-81 41-128 41-45 0-93-13-128-40-55-42-62-104-62-151v-63H40v65c0 63 13 142 90 198 59 44 118 48 166 48 63 0 115-9 166-48 77-58 90-133 90-205V289h125v-57z"/><glyph glyph-name="uni0535" unicode="Ե" horiz-adv-x="700" d="M166 700V513h464v-57H166V227c0-43 11-96 62-137 35-28 81-41 128-41s93 13 128 41c55 42 62 101 62 145v18h66v-20c0-60-14-136-90-193C463-4 404-8 356-8S249-4 190 40c-77 56-90 135-90 198v462h66z"/><glyph glyph-name="uni0536" unicode="Զ" horiz-adv-x="731" d="M681-11h-66v32c0 24-25 24-46 24H131V0H65v146h66v-44h131c65 31 128 75 184 139l-1 2c-24-11-51-20-86-20-56 0-114 16-159 59-43 41-73 106-73 175 0 36 9 73 27 110 32 64 103 141 232 141 114 0 188-61 223-128 11-19 28-58 28-114 0-63-24-143-105-232-52-56-105-97-162-132h230c16 0 44-2 63-21 17-17 18-35 18-55v-37zM565 465c0 51-15 94-50 129-44 47-97 57-137 57-43 0-84-13-121-45-41-36-63-83-63-151 0-40 10-79 37-115 39-51 87-65 147-65 43 0 82 8 117 21 53 56 70 124 70 169z"/><glyph glyph-name="uni0537" unicode="Է" horiz-adv-x="502" d="M446-79h-66v49c0 29-27 30-46 30H100v700h66V513h310v-57H166V57h197c17 0 50-1 69-29 12-19 14-45 14-69v-38z"/><glyph glyph-name="uni0538" unicode="Ը" horiz-adv-x="688" d="M546 414v51c0 44-7 103-62 145-35 28-81 41-128 41s-92-13-128-41c-49-39-62-84-62-144V57h453V0H100v460c0 66 13 142 90 200 59 44 118 48 166 48s107-4 166-48c76-57 90-134 90-193v-53h-66z"/><glyph glyph-name="uni0539" unicode="Թ" horiz-adv-x="803" d="M166 0h-66v433c0 67 5 143 79 206 61 53 143 70 216 70 47 0 88-7 119-16 33-8 168-54 189-216h85v-57h-79V311c0-47 0-92-19-136C658 99 584 56 496 56h-3c-131 0-208 91-208 217 0 44 11 105 64 153 54 49 113 51 164 51h124c-8 83-66 134-131 158-31 11-66 16-102 16-71 0-143-20-187-60-51-48-51-98-51-155V0zm477 420H501c-104 0-150-59-150-148 0-152 112-159 147-159 83 0 113 42 127 67 13 28 18 71 18 158v82z"/><glyph glyph-name="uni053A" unicode="Ժ" horiz-adv-x="656" d="M631 456h-98V230c0-56-10-98-39-141-30-41-86-97-198-97-93 0-149 44-178 79-40 47-63 113-63 185 0 68 25 133 64 178 29 35 84 79 180 79h168v187h66V513h98v-57zm-164 0H302c-44 0-105-10-145-74-24-39-36-91-36-132 0-48 10-107 45-147 32-39 81-54 129-54 31 0 62 6 86 18 82 40 86 119 86 161v228z"/><glyph glyph-name="uni053B" unicode="Ի" horiz-adv-x="631" d="M166 0h-66v700h66V534c47 20 104 34 163 34 72 0 135-21 178-58 59-52 69-117 69-194v-81h-66v81c0 60-1 111-50 154-45 39-111 41-136 41-71 0-123-20-158-39V0z"/><glyph glyph-name="uni053C" unicode="Լ" horiz-adv-x="440" d="M420 0H100v700h66V57h254V0z"/><glyph glyph-name="uni053D" unicode="Խ" horiz-adv-x="800" d="M166 700V513h203V332c0-27 1-77 33-112 27-29 79-47 120-47 49 0 104 20 133 56 27 35 29 71 29 102v182h66V348c0-72-12-128-65-176-47-41-107-56-163-56-64 0-123 22-163 60-50 49-56 108-56 169v111H166V0h-66v700h66z"/><glyph glyph-name="uni053E" unicode="Ծ" horiz-adv-x="768" d="M724 537h-66c0 15-6 31-15 39-12 11-29 11-44 11h-86v-3c89-38 122-127 135-164 11-31 17-70 17-113 0-75-21-155-81-223C536 31 468-7 369-8h-4c-88 0-156 28-211 92-57 68-80 151-80 228 0 39 5 76 16 108 16 56 59 134 139 163v4h-96c-31 0-61 19-74 42-11 16-15 44-15 65v6h66c0-3-1-6-1-9 0-13 2-28 9-37 12-17 37-18 48-18h451c27 0 58-2 83-31 16-19 24-42 24-68zm-355 48c-66 0-140-24-188-109-35-61-38-131-38-166 1-76 20-126 39-157 33-56 91-103 187-104h3c83 0 145 35 185 104 29 51 38 102 38 157-1 92-28 147-39 166-48 85-119 109-187 109z"/><glyph glyph-name="uni053F" unicode="Կ" horiz-adv-x="670" d="M570 0h-66v163c-64-31-121-38-164-38h-8c-58 0-133 17-179 61-24 24-69 79-69 187v327h66V358c0-51 10-129 99-161 24-9 58-16 95-16 51 0 109 12 160 44v288h66V0z"/><glyph glyph-name="uni0540" unicode="Հ" horiz-adv-x="615" d="M615-8 18 195l355 392c7 7 12 12 12 24 0 11-5 15-12 22l-33 33 51 42 57-63c7-7 16-19 16-38 0-16-10-33-21-44L140 233 615 63V-8z"/><glyph glyph-name="uni0541" unicode="Ձ" horiz-adv-x="672" d="M574 0h-64c-57 0-114 29-154 69C303 29 231-8 172-8h-2C119-7 79 19 60 56c-7 13-10 28-10 47 0 17 3 35 11 51 13 26 45 68 114 68 66 0 139-35 187-75 40 29 92 79 124 124 39 56 56 118 56 174 0 68-25 112-48 139-41 47-99 67-158 67-37 0-72-8-104-23-86-43-103-115-103-164 0-11 1-22 2-30H63c-1 4-1 8-1 12v12c0 76 34 144 86 187 47 39 116 63 188 63 84 0 147-28 190-63 41-35 86-96 86-200 0-77-22-135-61-192-35-51-80-101-140-144 44-41 89-52 132-52h31V0zM311 109c-35 30-93 56-132 56-23 0-51-7-64-36-3-9-5-17-5-24 0-19 8-34 19-42 13-11 34-11 42-11 29 0 69 10 140 57z"/><glyph glyph-name="uni0542" unicode="Ղ" horiz-adv-x="716" d="M485 0v457c0 54-3 109-62 154-35 27-81 40-128 40-45 0-93-13-128-40-52-41-61-98-61-143v-71H40v71c0 58 14 136 89 192 52 38 105 48 166 48s115-10 166-46c81-59 90-132 90-212V57h125V0H485z"/><glyph glyph-name="uni0543" unicode="Ճ" horiz-adv-x="678" d="M578 0H100v256c0 55 7 108 32 164 17 37 45 79 70 110-11 1-22 1-33 1-22 0-43-2-64-5v57c23 4 46 5 68 5 27 0 52-2 76-6 62 68 116 92 145 102 40 14 80 20 117 20 18 0 36-1 53-4v-57c-16 3-35 5-53 5-23 0-46-3-68-9-37-9-82-31-122-71 56-15 125-45 173-88 74-66 84-133 84-213V0zm-66 57v228c0 84-32 137-104 182-44 28-91 45-134 54-27-31-54-68-70-99-15-27-38-79-38-150V57h346z"/><glyph glyph-name="uni0544" unicode="Մ" horiz-adv-x="782" d="M166 700V235c0-43 8-104 62-147 43-35 89-39 128-39 43 0 87 8 128 41 49 39 62 86 62 145v465h196v-57H612V258c0-77-7-157-90-218C471 1 417-8 356-8c-60 0-116 9-167 48-80 61-89 141-89 213v447h66z"/><glyph glyph-name="uni0545" unicode="Յ" horiz-adv-x="619" d="M55 225h67v-6c0-33 8-107 83-147 29-15 65-23 101-23 56 0 112 17 149 56 27 28 40 63 40 96 0 23-5 44-16 64-27 53-95 87-141 87H56v57h279c60 0 118 45 131 90 3 8 4 18 4 31 0 27-9 57-32 80-28 29-75 41-119 41-24 0-48-3-67-10-52-19-85-64-88-120H94c8 82 54 128 85 149 45 31 100 38 141 38 43 0 98-2 143-33 49-32 77-86 77-145 0-15-1-27-4-38-11-51-46-89-95-110 59-19 93-62 106-89 11-23 17-53 17-85 0-27-4-53-13-76-20-51-64-94-117-117C397-1 354-8 311-8c-47 0-92 9-127 24C120 45 55 117 55 220v5z"/><glyph glyph-name="uni0546" unicode="Ն" horiz-adv-x="727" d="M236 700V247c0-45 0-104 50-149 35-32 89-49 140-49 47 0 93 13 128 41 55 42 62 101 62 145v81h66v-83c0-60-14-136-90-193C541 1 487-8 426-8c-59 0-117 9-168 48-76 57-88 138-88 214v389H40v57h196z"/><glyph glyph-name="uni0547" unicode="Շ" horiz-adv-x="671" d="M548 227h68C613 87 493-8 344-8h-2C175-8 90 100 66 194c-7 28-11 58-11 89 0 45 8 92 25 133 43 104 147 171 270 171h13c-41 31-109 61-166 61-35 0-80-9-111-20v63c43 11 81 17 118 17 38 0 74-7 107-20 100-37 172-144 274-149 8 0 18 1 29 3v-57c-13-3-26-4-40-4-65 0-126 36-150 54-14 2-29 3-44 3-39 0-84-6-120-22-67-29-102-79-121-139-10-31-15-62-15-93 0-61 20-118 55-161 41-49 96-74 166-74h2c114 0 201 77 201 178z"/><glyph glyph-name="uni0548" unicode="Ո" horiz-adv-x="712" d="M546 0v457c0 50-6 110-60 153-35 28-85 41-130 41-4 0-82 0-130-40-52-42-60-106-60-154V0h-66v447c0 79 12 154 90 213 51 39 103 48 166 48s115-9 166-48c78-59 90-134 90-213V0h-66z"/><glyph glyph-name="uni0549" unicode="Չ" horiz-adv-x="643" d="M448-8 50 144l26 63 108-44c100 7 192 44 251 95 69 61 87 132 87 195 0 121-67 169-125 187-24 8-50 11-75 11-26 0-52-4-78-11-51-15-85-38-108-82-11-21-16-44-16-71v-9c0-2 0-5 1-8H55v6c0 88 40 146 83 178 56 44 123 54 187 54 67 0 143-11 202-72 39-40 65-96 66-179v-4c0-108-40-184-119-241-81-59-180-78-198-81l199-76z"/><glyph glyph-name="uni054A" unicode="Պ" horiz-adv-x="703" d="M603 0h-66v443c0 61-1 112-52 157-39 35-92 51-139 51V209h-64v442c-7 0-85-4-139-50-53-45-55-105-52-135H25c0 40 6 116 79 178 67 57 147 64 210 64 72 0 149-7 214-64 72-64 75-133 75-214V0z"/><glyph glyph-name="uni054B" unicode="Ջ" horiz-adv-x="714" d="M664-12h-66V6c0 9-1 20-9 29-9 9-18 9-29 9H131V0H65v145h66v-44h74c35 0 82 35 103 63 13 17 19 31 19 43 0 13-7 25-20 38-21 20-47 26-66 35-21 9-37 20-53 35-30 27-70 76-70 158v6c3 90 52 174 154 212 33 12 66 17 101 17 68 0 132-20 180-63 56-47 78-112 78-176 0-45-10-88-31-127-51-99-177-185-276-241h251c23 0 51-2 72-29 16-21 17-47 17-70v-14zM366 196l6-3c75 51 154 131 178 198 8 22 12 46 12 71 0 56-20 112-67 148-35 27-79 41-123 41-48 0-103-16-138-49-36-35-49-85-49-129 0-15 2-30 5-45 15-59 54-83 91-102 29-15 53-25 69-45 11-12 21-33 21-58 0-8-2-17-5-27z"/><glyph glyph-name="uni054C" unicode="Ռ" horiz-adv-x="754" d="M546 0v465c0 44-7 103-62 145-35 28-81 41-128 41s-93-13-128-41c-55-42-62-101-62-145V0h-66v444c0 80 11 158 90 216 51 39 103 48 166 48s115-9 166-48c79-61 90-135 90-219V311h102v-57H612V0h-66z"/><glyph glyph-name="uni054D" unicode="Ս" horiz-adv-x="712" d="M166 700V246c0-56 6-111 62-156 35-28 81-41 128-41s93 13 128 41c56 45 62 101 62 158v452h66V259c0-83-11-161-90-219C471 1 419-8 356-8S241 1 190 40c-79 58-90 137-90 220v440h66z"/><glyph glyph-name="uni054E" unicode="Վ" horiz-adv-x="711" d="M671 0H475v217c-55-24-131-47-198-44-79 3-142 35-177 78-43 53-45 119-45 179v83h66V387c0-34 6-78 35-109 18-20 55-48 132-48 65 0 131 19 187 52v418h66V57h130V0z"/><glyph glyph-name="uni054F" unicode="Տ" horiz-adv-x="615" d="M529 534h-66c-3 53-32 81-55 94-27 15-64 23-99 23-19 0-38-2-53-7-32-11-90-38-90-106v-3c3-86 101-125 210-165 61-24 139-52 171-109 12-21 18-46 18-75s-7-59-22-86C503 31 411-8 315-8c-71 0-141 23-189 67-37 35-71 88-71 169v13h66c-1-3-1-7-1-10v-9c0-40 13-87 60-127 41-35 83-46 138-46 40 0 91 6 134 38 32 24 45 58 45 89 0 26-7 48-22 67-23 29-64 46-132 73-104 40-202 75-234 154-7 16-11 37-11 61 0 43 16 95 69 135 43 32 85 42 140 42h8c42 0 102-8 148-46 28-23 59-65 66-128z"/><glyph glyph-name="uni0550" unicode="Ր" horiz-adv-x="652" d="M546 397v61c0 52-6 107-62 152-35 28-81 41-128 41-44 0-96-12-131-39-54-43-59-103-59-158V0h-66v423c0 102 2 173 90 237 51 37 105 48 166 48s115-9 166-48c77-58 90-134 90-204v-59h-66z"/><glyph glyph-name="uni0551" unicode="Ց" horiz-adv-x="627" d="M55 209h66c0-92 78-160 190-160 77 0 128 31 160 72 27 35 36 69 36 104 0 68-24 114-65 146-23 19-66 43-131 43-31 0-121-4-177-84l-64 19c35 56 88 90 145 105v4c-25 9-59 30-74 71-4 11-6 23-6 37 0 48 27 102 99 129 24 8 53 13 82 13 30 0 57-5 82-14 53-21 90-68 90-123 0-10-2-22-5-35-12-43-41-64-76-75v-4c68-15 120-65 147-116 16-31 23-66 23-102 0-60-22-121-65-168C456 12 386-8 310-8 251-8 177 4 115 69c-29 31-57 76-60 140zm256 442c-27 0-51-3-78-22-19-15-32-33-32-66 0-31 14-50 25-61 13-13 38-31 85-31 56 0 82 23 94 39 11 15 17 32 17 52 0 25-7 48-30 65-27 21-56 24-81 24z"/><glyph glyph-name="uni0552" unicode="Ւ" horiz-adv-x="513" d="M166 0h-66v700h66V570c7 1 13 1 35 1 240 0 157-257 272-282v-57c-200 19-69 282-287 282-7 0-12 0-20-1V0z"/><glyph glyph-name="uni0553" unicode="Փ" horiz-adv-x="742" d="M404 113V0h-66v113c-78 3-163 31-213 76-40 35-75 92-75 179 0 111 59 169 104 201 51 35 115 52 179 52h5v79h66v-79h5c64 0 128-17 179-52 45-32 104-90 104-201 0-87-35-144-75-179-50-45-135-73-213-76zm0 451V170h9c51 0 105 15 148 50 47 39 65 87 65 147s-17 112-68 151c-41 31-98 46-149 46h-5zm-66-394v394h-5c-51 0-108-15-149-46-51-39-68-91-68-151s18-108 65-147c43-35 97-50 148-50h9z"/><glyph glyph-name="uni0554" unicode="Ք" horiz-adv-x="660" d="M183 0h-66v101H55v57h62v309c0 58 7 122 58 173 58 58 131 68 176 68s93-5 140-33c67-40 108-114 108-198 0-60-20-109-51-148-48-60-119-85-187-85-24 0-46 3-67 9-56 16-88 45-111 72V158h422v-57H183V0zm-4 473c0-93 56-138 91-154 27-13 56-19 87-19 48 0 99 16 132 52 29 32 44 75 44 119 0 27-6 54-17 81-16 37-60 99-164 99-37 0-97-8-137-59-21-27-36-67-36-119z"/><glyph glyph-name="uni0555" unicode="Օ" horiz-adv-x="744" d="M55 349c0 127 49 273 189 334 41 17 83 25 128 25s87-8 128-25c140-62 189-206 189-334 0-162-78-251-92-265C542 25 460-9 372-9c-43 0-86 9-128 26-88 37-140 106-168 194-14 45-21 91-21 138zm71 0c0-71 21-163 66-216 41-51 108-84 180-84s139 33 180 84c44 54 66 144 66 216 0 75-22 161-66 217-43 52-108 85-180 85s-137-33-180-85c-44-56-66-142-66-217z"/><glyph glyph-name="uni0556" unicode="Ֆ" horiz-adv-x="744" d="M44 218h66v-3c0-80 46-119 79-138 48-26 133-29 149-29v353c-88 15-137 36-169 63-28 24-48 57-49 102v3c0 56 29 91 60 110 32 19 72 21 100 21h124V448c68-11 116-26 127-29 36-11 108-39 145-100 16-29 24-65 24-100 0-36-8-71-21-96C647 64 572-8 360-8h-4c-61 0-148 5-214 47-47 31-98 85-98 179zm295 425h-58c-25 0-53 1-72-14-11-7-23-23-23-54v-9c3-36 17-53 40-69 32-23 77-35 113-39v185zm65-252V48c48 0 97 10 134 26 84 35 95 102 95 138v5c-1 49-23 99-88 132-43 22-115 37-141 42z"/><glyph glyph-name="uni0559" unicode="ՙ" horiz-adv-x="125" d="M115 783v-63c-63-2-105 45-105 104s42 106 105 104v-62h-6c-24 0-42-18-42-42 0-26 19-41 41-41h7z"/><glyph glyph-name="uni055A" unicode="՚" horiz-adv-x="243" d="M105 700h88l-74-218H50z"/><glyph glyph-name="uni055B" unicode="՛" horiz-adv-x="10" d="M-63 900h94l-132-160h-51z"/><glyph glyph-name="uni055C" unicode="՜" horiz-adv-x="10" d="M50 900h38c0-27-7-56-19-75-20-31-52-36-79-36-13 0-26 1-39 3-13 3-26 4-39 4-35 0-58-16-63-56h-38c-1 24 5 57 21 80 23 31 51 36 76 36 16 0 32-1 48-4 13-2 26-3 39-3 24 0 52 8 55 51z"/><glyph glyph-name="uni055D" unicode="՝" horiz-adv-x="73" d="m0 900 89-160H38L-94 900H0z"/><glyph glyph-name="uni055E" unicode="՞" horiz-adv-x="10" d="M-185 740h-55c16 32 41 76 57 94 39 51 79 66 114 66 53 0 86-38 86-85 0-48-35-81-82-81-11 0-24 2-35 5l1 40c9-3 17-5 26-5 17 0 30 11 30 31 0 24-19 35-38 35s-45-11-74-50c-13-17-23-33-30-50z"/><glyph glyph-name="uni055F" unicode="՟" horiz-adv-x="311" d="M301 742H151c-28 0-66 0-97 19-20 12-44 38-44 88 0 27 9 58 18 80l73-22c-5-13-13-36-13-55s7-34 24-43c13-6 30-7 48-7h141v-60z"/><glyph glyph-name="uni0561" unicode="ա" horiz-adv-x="853" d="M773 513V0h-63v100h-2c-15-37-38-62-61-78-30-21-61-30-95-30-75 0-126 43-141 108h-1c-13-28-33-56-67-79C310-1 280-8 243-8c-72 0-110 27-129 51-34 42-34 94-34 138v332h63V174c0-32 1-66 24-95 20-25 48-34 78-34 77 0 150 53 150 169v299h63V174c0-31 1-67 24-95 13-16 38-34 82-34 80 0 146 68 146 169v299h63z"/><glyph glyph-name="uni0562" unicode="բ" horiz-adv-x="566" d="M80 513h53V407h2c16 37 40 63 63 80 33 25 67 34 107 34 67 0 112-22 137-50 31-35 41-77 41-121V212h-63v104c0 40 0 89-28 120-13 15-41 32-94 32-45 0-75-14-104-43-37-37-51-79-51-126V53h343V0H143v-219H80v732z"/><glyph glyph-name="uni0563" unicode="գ" horiz-adv-x="620" d="M484 513V53h126V0H484v-219h-63V92c-24-43-60-74-99-89-19-7-37-11-56-11-39 0-110 5-163 71-50 61-58 137-58 194 0 171 82 232 138 253 24 8 49 11 74 11 37 0 70-10 99-30 20-13 50-40 69-84h3v106h56zm-63-256c0 13 0 92-40 148-27 39-70 63-115 63-22 0-43-6-64-17-74-40-91-134-91-194 0-61 15-154 91-195 21-11 42-17 64-17 94-2 158 101 155 212z"/><glyph glyph-name="uni0564" unicode="դ" horiz-adv-x="619" d="M80 513h53V407h2c11 25 30 54 63 79 35 27 65 35 108 35 65 0 109-22 136-50 48-53 41-124 41-173V53h126V0H483v-219h-63v535c0 45 3 87-28 120-19 19-49 32-92 32-47 0-79-16-106-43-43-43-51-90-51-126V0H80v513z"/><glyph glyph-name="uni0565" unicode="ե" horiz-adv-x="555" d="M80 685h63V513h342v-53H143V176c0-31-2-65 29-97 19-19 46-34 83-34 41 0 78 12 110 47 35 37 46 77 46 124v53h63V0h-55v102h-1c-20-51-54-76-83-91-27-13-56-19-85-19-76 0-116 36-129 52-39 45-41 102-41 137v504z"/><glyph glyph-name="uni0566" unicode="զ" horiz-adv-x="574" d="M80 513h63V176c0-31-2-65 29-97 17-19 46-34 86-34 43 0 79 16 107 47 23 27 46 65 46 124v297h63v-679h110v-53H411V25l4 77h-2c-19-49-51-76-78-91-25-13-53-19-84-19-68 0-109 28-130 52-39 45-41 102-41 137v332z"/><glyph glyph-name="uni0567" unicode="է" horiz-adv-x="422" d="M80 685h63V513h249v-53H143V53h155c53 0 82-31 82-78 0-19-4-39-8-55h-63c3 12 7 32 7 45 0 28-13 35-34 35H80v685z"/><glyph glyph-name="uni0568" unicode="ը" horiz-adv-x="573" d="M80 513h53V407h2c16 37 40 63 63 80 33 24 67 34 108 34 75 0 116-29 135-50 43-48 42-107 42-172V0h-63v316c0 45 1 88-28 120-15 15-42 32-94 32-45 0-75-14-104-43-25-25-51-66-51-126v-465h350v-53H80v732z"/><glyph glyph-name="uni0569" unicode="թ" horiz-adv-x="669" d="M80 513h63V398c20 47 52 74 79 90 39 23 86 33 129 33 31 0 60-3 89-14 117-41 134-146 140-171h69v-53h-69v-66c0-54-3-128-57-179-32-32-76-48-131-48-47 0-93 12-129 55-35 39-42 85-42 125 0 23 2 45 10 68 13 35 49 98 152 98h134c-4 23-16 64-57 95-31 23-78 37-121 37-51 0-100-21-133-49-28-24-63-70-63-131v-507H80v732zm437-230H399c-41 0-93-7-109-64-5-16-6-33-6-50 0-25 3-64 28-95 20-24 48-36 83-36 49 0 79 24 94 47 27 40 28 96 28 132v66z"/><glyph glyph-name="uni056A" unicode="ժ" horiz-adv-x="588" d="M421 685h63V513h94v-53h-94V236c0-60-3-190-126-233-25-9-52-11-79-11-56 0-115 8-166 61-29 32-68 91-68 203 0 29 1 58 8 87 23 108 99 170 203 170h165v172zm0-225H270c-45 0-127-12-151-124-7-27-8-53-8-80 0-30 6-98 40-148 27-39 67-63 127-63 25 0 46 5 65 14 80 40 78 122 78 176v225z"/><glyph glyph-name="uni056B" unicode="ի" horiz-adv-x="563" d="M80 685h63V509l-4-102h2c8 24 22 54 57 80 31 23 65 34 105 34 105 0 148-51 164-93 11-29 16-61 16-90V0h-63v316c0 45-1 91-28 120-15 15-42 32-95 32-44 0-74-14-103-43-25-25-51-66-51-126v-518H80v904z"/><glyph glyph-name="uni056C" unicode="լ" horiz-adv-x="278" d="M80 513h63v-679h160v-53H80v732z"/><glyph glyph-name="uni056D" unicode="խ" horiz-adv-x="756" d="M80 685h63V513h202V176c0-31-2-64 29-97 22-23 50-34 83-34 48 0 83 16 110 47 23 27 46 65 46 124v297h63V0h-55v102h-1c-11-29-34-67-83-91-27-13-53-19-80-19-64 0-107 21-134 52-38 44-42 102-42 147v269H143v-679H80v904z"/><glyph glyph-name="uni056E" unicode="ծ" horiz-adv-x="589" d="M498 511v-53c-31 5-58 7-85 10 73-82 96-172 96-237C509 113 451-8 289-8 146-8 60 109 60 243c0 74 26 176 114 230 53 32 115 41 126 41-29 29-67 62-131 103l38 68h64l-32-54c43-27 79-56 135-113 44-1 85-4 124-7zm-159-43c-32-3-83-10-121-32-37-21-92-74-92-189 0-106 56-202 171-202 113 0 146 101 146 182 0 98-30 159-104 241z"/><glyph glyph-name="uni056F" unicode="կ" horiz-adv-x="554" d="M80 685h63V176c0-33 1-66 29-97 19-19 47-34 83-34 23 0 43 3 63 12 51 24 93 82 93 159v297h63v-732h-63V4l5 98h-2c-19-51-51-76-79-91-27-15-57-19-88-19-68 0-106 29-126 52-39 45-41 99-41 146v495z"/><glyph glyph-name="uni0570" unicode="հ" horiz-adv-x="564" d="M80 685h63V519l-5-112h2c11 27 30 57 65 82 31 23 60 32 104 32 43 0 95-7 132-50 43-48 42-106 42-169V0h-63v316c0 45 1 88-28 120-19 20-49 32-92 32s-77-13-108-46c-25-27-49-66-49-123V0H80v685z"/><glyph glyph-name="uni0571" unicode="ձ" horiz-adv-x="567" d="M319 504 557 0h-68l-27 59C364 17 261-8 189-8 93-8 39 50 39 115c0 63 28 105 58 151l168 256c4 7 11 14 11 21 0 9-10 12-17 13l-64 16c-25 6-54 15-54 48 0 15 4 29 12 46l9 19h60l-7-16c-6-14-12-23-12-34 0-17 11-21 36-27l99-23c7-1 18-5 18-18 0-7-6-14-10-21zm-40-60L143 232c-15-23-38-62-38-106 0-42 21-84 98-84 69 0 174 28 239 59z"/><glyph glyph-name="uni0572" unicode="ղ" horiz-adv-x="583" d="M80 513h53V407h2c16 37 40 63 63 80 33 24 67 34 108 34 27 0 52-3 77-12 97-38 100-125 100-206v-469h110v-53H420v535c0 45 1 88-28 120-15 15-42 32-95 32-44 0-74-14-103-43-25-25-51-66-51-126V0H80v513z"/><glyph glyph-name="uni0573" unicode="ճ" horiz-adv-x="574" d="M461 683v-53c-15 6-31 9-46 9-13 0-31-2-44-10-17-11-25-28-34-43l-44-74c23-7 45-17 64-32 33-24 55-59 66-94L544 0h-63l-17 55C341 4 248-8 197-8 169-8 93-3 59 71c-11 21-14 44-14 67 0 39 14 73 31 104l132 236c-25 4-49 6-71 5v53c21 0 46 0 97-11l51 87c12 21 28 46 52 61 23 15 46 17 66 17 21 0 40-2 58-7zM268 465 141 235c-29-53-31-84-31-95 0-42 21-91 115-91 84 1 170 28 226 51l-87 269c-7 19-15 47-44 70-12 11-35 19-52 26z"/><glyph glyph-name="uni0574" unicode="մ" horiz-adv-x="604" d="M80 513h63V176c0-29-3-95 67-122 14-6 29-9 45-9 41 0 79 12 110 47 23 27 46 65 46 124v331c0 40-8 90 21 119 23 23 59 24 78 24 20 0 49-3 84-14v-56c-21 8-58 18-79 18-48 0-41-37-41-79V0h-55v102h-1c-20-51-54-76-83-91-25-13-53-19-83-19-60 0-104 21-131 52-39 45-41 98-41 155v314z"/><glyph glyph-name="uni0575" unicode="յ" horiz-adv-x="273" d="M178 513v-640c0-27-1-50-21-71-23-23-53-26-74-26-37 0-66 8-83 13v56c20-9 49-16 70-16 11 0 23 2 31 9 16 15 14 48 14 69v606h63z"/><glyph glyph-name="uni0576" unicode="ն" horiz-adv-x="558" d="M415 513h63V0h-55v102h-1c-20-51-54-76-83-91-27-13-56-19-85-19-76 0-116 36-129 52-39 44-42 100-42 151v437H-40v53h186V176c0-29 1-65 30-97 19-19 46-34 83-34 41 0 79 12 110 47 23 27 46 65 46 124v297z"/><glyph glyph-name="uni0577" unicode="շ" horiz-adv-x="465" d="M41 378v70c23 24 57 49 108 64 22 6 44 9 67 9 26 0 50-3 73-10 80-25 113-88 113-149 0-68-34-105-71-153L107-71c-13-17-20-34-20-49 0-27 20-46 43-46h285v-53H135c-83 0-115 45-115 91 0 49 33 90 55 118l218 265c28 35 43 74 43 105 0 23-7 52-38 79-27 23-53 29-84 29-20 0-39-3-58-10-27-8-70-27-115-80z"/><glyph glyph-name="uni0578" unicode="ո" horiz-adv-x="563" d="M80 513h53V407h2c24 56 68 89 108 104 19 7 41 10 64 10 73 0 114-29 134-50 33-35 42-82 42-120V0h-63v327c0 33 3 77-28 109-15 15-42 32-94 32-45 0-75-14-104-43-25-25-51-66-51-126V0H80v513z"/><glyph glyph-name="uni0579" unicode="չ" horiz-adv-x="369" d="m219 513-60-110c-9-17-21-34-21-53 0-25 22-46 41-62l109-93c8-7 12-15 12-23s-2-15-8-23L116-80c-11-15-27-26-27-52 0-33 34-34 52-34h250v-53H117c-30 0-99 10-99 73 0 21 4 39 19 59l175 233c6 8 9 14 9 19 0 8-6 15-16 24l-71 62c-23 20-62 53-62 96 0 21 14 48 38 92l41 74h68z"/><glyph glyph-name="uni057A" unicode="պ" horiz-adv-x="853" d="M773 513v-732h-63v319h-2c-15-35-38-62-59-78-33-25-68-30-95-30-47 0-78 14-99 33-20 17-37 43-44 75h-1c-13-28-32-56-67-79C310-2 280-8 243-8c-72 0-110 27-129 51-32 39-34 90-34 134v336h63V174c0-31 1-67 24-95 23-29 56-34 83-34 40 0 69 11 100 43 39 40 45 75 45 126v299h63V174c0-33 0-63 24-94 21-27 49-35 82-35 19 0 38 4 57 13 35 16 89 65 89 156v299h63z"/><glyph glyph-name="uni057B" unicode="ջ" horiz-adv-x="539" d="M466-166v-53H193c-24 0-52-3-76 16-12 9-25 26-26 55-1 39 19 63 35 78l90 86c15 15 17 27 17 47 0 19-4 40-23 59-16 16-25 14-65 46-43 35-65 72-65 128 0 76 36 143 89 182 39 29 88 43 135 43 53 0 112-20 155-72 27-35 45-79 45-130 0-97-55-168-132-239L186-89c-15-13-30-26-31-46 0-32 32-31 48-31h263zM274 68l5-3c31 27 68 65 97 101 29 37 62 86 62 154 0 47-18 81-39 104-25 27-62 44-106 44-39 0-81-14-112-49-17-20-36-52-36-97 0-39 11-66 30-89 17-21 37-34 61-53 20-16 44-36 44-79 0-11-2-22-6-33z"/><glyph glyph-name="uni057C" unicode="ռ" horiz-adv-x="581" d="M80 513h53V407h2c16 37 40 63 63 80 33 24 67 34 110 34 64 0 106-22 133-49 8-8 54-58 54-154 0-39-8-84-23-127-26-71-73-127-81-138h120V0H329v52c32 35 64 84 79 123 7 19 21 61 21 133 0 33-2 85-35 124-29 33-63 36-91 36-47 0-81-14-110-43-24-24-50-65-50-126V0H80v513z"/><glyph glyph-name="uni057D" unicode="ս" horiz-adv-x="554" d="M80 513h63V176c0-31-2-65 29-97 19-19 46-34 83-34 41 0 79 12 110 47 23 27 46 65 46 124v297h63V0h-55v102h-1c-20-51-54-76-83-91-26-13-55-19-86-19-75 0-115 36-128 52-39 45-41 102-41 137v332z"/><glyph glyph-name="uni057E" unicode="վ" horiz-adv-x="584" d="M80 513h63V176c0-42 3-98 67-122 15-5 30-9 45-9 32 0 74 7 110 47 23 27 46 65 46 124v469h63v-851h120v-53H411v321h-2c-9-28-28-67-77-91-27-13-53-19-80-19-72 0-111 29-131 52-10 11-18 23-23 35-16 38-18 75-18 106v328z"/><glyph glyph-name="uni057F" unicode="տ" horiz-adv-x="853" d="M248 45c79 0 147 70 147 169v299h53V408h1c19 45 72 113 163 113 38 0 89-10 129-63 31-43 32-83 32-124V0h-63v339c0 29-2 129-106 129-84 0-146-80-146-169V0h-55v102h-1C391 75 346-8 237-8c-32 0-86 8-125 63-31 43-32 83-32 124v334h63V174c0-43 6-129 105-129z"/><glyph glyph-name="uni0580" unicode="ր" horiz-adv-x="564" d="M80 513h53V407h2c16 37 40 63 63 80 33 25 66 34 105 34 69 0 114-23 138-50 43-48 42-109 42-162V0h-63v316c0 45 1 88-28 120-15 16-42 32-91 32-41 0-74-10-107-43-25-25-51-66-51-126v-518H80v732z"/><glyph glyph-name="uni0581" unicode="ց" horiz-adv-x="569" d="M426 7v85C383 16 328-8 265-8c-72 0-122 28-157 71-50 61-58 137-58 194 0 49 5 138 64 203 45 49 98 61 145 61 49 0 86-12 123-47 20-19 36-40 48-67h3v106h56V1c0-68-17-170-138-210-36-12-72-15-111-15-51 0-94 7-142 28v62c48-23 100-37 151-37 29 0 59 3 86 15 68 29 91 88 91 163zm0 250c0 13 0 92-40 148-27 39-70 63-115 63s-88-24-115-63c-40-56-40-135-40-148-3-111 61-214 155-212 94-2 158 101 155 212z"/><glyph glyph-name="uni0582" unicode="ւ" horiz-adv-x="275" d="M80 513h63V53h117V0H80v513z"/><glyph glyph-name="uni0583" unicode="փ" horiz-adv-x="853" d="M395 685h63V492l-2-79h3c19 45 62 108 153 108 38 0 89-10 129-63 31-43 32-83 32-124V0h-63v339c0 29-2 129-106 129-86 0-146-80-146-169v-518h-63l1 319h-3C382 73 346-8 237-8c-32 0-86 8-125 63-31 43-32 83-32 124v334h63V174c0-43 6-129 105-129 79 0 147 70 147 169v471z"/><glyph glyph-name="uni0584" unicode="ք" horiz-adv-x="570" d="M82 513h58V412h2c45 100 140 109 174 109 64 0 106-19 142-58 30-33 61-90 61-185 0-53-9-111-48-164-39-56-93-84-162-84-72 0-127 31-158 91l-3-1V-40h377v-52H148v-127H82v127H0v52h82v553zm60-232c0-60 14-104 47-144 27-33 61-54 117-54 55 0 92 22 117 65 20 35 30 83 30 130 0 64-18 116-49 149-25 27-59 41-101 41-52 0-93-19-125-64-31-43-36-87-36-123z"/><glyph glyph-name="uni0585" unicode="օ" horiz-adv-x="564" d="M45 256c0 80 23 136 54 179 41 56 99 86 183 86s142-30 183-86c31-43 54-99 54-179 0-56-11-121-54-178-41-56-99-86-183-86S140 22 99 78c-43 57-54 122-54 178zm66 0c0-47 12-103 43-146s69-65 128-65 97 22 128 65 43 99 43 146c0 45-12 104-43 147s-69 65-128 65-97-22-128-65-43-102-43-147z"/><glyph glyph-name="uni0586" unicode="ֆ" horiz-adv-x="645" d="M338 685V458c156-43 262-95 262-240 0-89-41-146-101-181C452 10 385-5 338-8v-211h-66V-7c-56 3-125 19-169 50-31 21-68 61-83 126h67c7-37 23-67 62-91 36-23 83-33 123-33v372c-39 10-105 34-140 55-40 25-58 60-58 95 0 26 10 52 29 73 40 45 99 45 142 45h93zm-63-53h-50c-81 0-86-50-86-70 0-53 68-73 136-89v159zm63-230V45c47 1 100 16 135 41 51 36 61 82 61 126 0 59-13 99-72 138-50 34-113 49-124 52z"/><glyph glyph-name="uni0587" unicode="և" horiz-adv-x="614" d="M80 685h63V165c0-28 2-58 29-86 23-24 55-34 87-34 22 0 42 4 59 12 51 24 93 82 93 159v297h63V53h130V0H419v102h-1C410 86 373-8 251-8 200-8 80 6 80 181v504z"/><glyph glyph-name="uni0589" unicode="։" horiz-adv-x="282" d="M100 86h82V0h-82v86zm0 427h82v-86h-82v86z"/><glyph glyph-name="uni058A" unicode="֊" horiz-adv-x="472" d="m80 35 55 35C162 8 219 4 244 4c64 0 116 27 134 37l14-28c-80-45-135-54-175-54-73 0-115 34-137 76z"/><glyph glyph-name="uni058D" unicode="֍" horiz-adv-x="774" d="M454 215c0 31-8 62-26 96 74-13 122-82 122-154C550 74 479-8 387-8c-31 0-67 10-91 27 88 21 158 102 158 196zM321 485c0-32 6-63 25-96-70 16-121 78-121 153 0 83 68 166 164 166 32 0 65-10 89-27-93-19-157-99-157-196zM200 147c72 0 157 41 189 146 16-25 23-58 23-86 0-78-65-154-166-154-93 0-142 62-155 125 26-18 66-31 109-31zm389 15c0 71-39 159-146 190 26 13 59 21 86 21 78 0 154-64 154-166 0-95-60-144-123-156 15 27 29 69 29 111zM186 537c0-70 39-158 144-190-27-13-59-21-84-21-79 0-155 64-155 166 0 91 64 141 125 154-15-25-30-67-30-109zm390 15c-72 0-159-40-192-147-13 26-21 60-21 87 0 78 65 154 166 154 93 0 141-64 154-125-25 16-65 31-107 31zM247 284c31 0 66 5 101 25-16-69-79-120-152-120-83 0-166 76-166 160 0 34 8 66 24 89 20-76 90-154 193-154zm275 133c-30 0-63-6-96-26 16 69 79 120 153 120 94 0 165-77 165-162 0-32-9-67-25-90-18 82-80 158-197 158z"/><glyph glyph-name="uni058E" unicode="֎" horiz-adv-x="758" d="M514 640h44V504c0-17 8-46 35-46 30 0 49 29 49 62v137c0 45 22 51 48 51 9 0 23-1 43-7v-35c-14 6-24 10-35 10-9 0-12-7-12-17V431h-37v30c-13-23-34-33-60-33-56 0-75 36-75 85v127zM615-8 18 195l345 392c7 7 11 15 11 23s-4 15-11 23l-33 33 51 42 57-63c9-10 14-22 14-33 0-19-6-35-19-49L140 233 615 63V-8zM497 335v45h236v-45H497z"/><glyph glyph-name="uni058F" unicode="֏" d="M260 306v56h149v98c0 135-55 190-149 190s-149-55-149-190v-50H45v50c0 163 85 248 215 248s215-85 215-248v-98h90v-56h-90v-82h90v-56h-90V0h-66v168H260v56h149v82H260z"/><glyph glyph-name="uni1E9E" unicode="ẞ" horiz-adv-x="620" d="M100 0v480c0 156 72 228 210 228 69 0 141-21 201-83L362 422c156-8 193-118 193-202C555 82 465-8 330-8c-32 0-58 4-90 14v59c26-11 65-16 90-16 89 0 154 65 154 171 0 95-55 150-182 150h-30v29l156 212c-32 27-73 40-118 40-97 0-144-47-144-171V0h-66z"/><glyph glyph-name="uni2010" unicode="‐" horiz-adv-x="400" d="M80 265v70h240v-70H80z"/><glyph glyph-name="uni2011" unicode="‑" horiz-adv-x="400" d="M80 265v70h240v-70H80z"/><glyph glyph-name="figuredash" unicode="‒" horiz-adv-x="601" d="M86 326v56h429v-56H86z"/><glyph glyph-name="endash" unicode="–" horiz-adv-x="700" d="M100 272v56h500v-56H100z"/><glyph glyph-name="emdash" unicode="—" horiz-adv-x="1000" d="M100 272v56h800v-56H100z"/><glyph glyph-name="afii00208" unicode="―" horiz-adv-x="1000" d="M100 272v56h800v-56H100z"/><glyph glyph-name="quoteleft" unicode="‘" horiz-adv-x="303" d="M154 700h69l-55-218H80z"/><glyph glyph-name="quoteright" unicode="’" horiz-adv-x="243" d="M105 700h88l-74-218H50z"/><glyph glyph-name="quotesinglbase" unicode="‚" horiz-adv-x="313" d="M140 89h88l-74-218H85z"/><glyph glyph-name="quotedblleft" unicode="“" horiz-adv-x="416" d="M297 700h69l-55-218h-88zm-173 0h69l-55-218H50z"/><glyph glyph-name="quotedblright" unicode="”" horiz-adv-x="416" d="M105 700h88l-74-218H50zm173 0h88l-74-218h-69z"/><glyph glyph-name="quotedblbase" unicode="„" horiz-adv-x="416" d="M105 89h88l-74-218H50zm173 0h88l-74-218h-69z"/><glyph glyph-name="dagger" unicode="†" horiz-adv-x="650" d="M292-140v596H80v57h212v187h66V513h212v-57H358v-596h-66z"/><glyph glyph-name="daggerdbl" unicode="‡" horiz-adv-x="650" d="M292-140V47H80v57h212v352H80v57h212v187h66V513h212v-57H358V104h212V47H358v-187h-66z"/><glyph glyph-name="bullet" unicode="•" horiz-adv-x="380" d="M70 357c0 66 54 120 120 120s120-54 120-120-54-120-120-120S70 291 70 357z"/><glyph glyph-name="ellipsis" unicode="…" horiz-adv-x="546" d="M50 86h82V0H50v86zm182 0h82V0h-82v86zm182 0h82V0h-82v86z"/><glyph glyph-name="perthousand" unicode="‰" horiz-adv-x="1220" d="M605-8c-90 0-155 65-155 170s65 170 155 170 155-65 155-170S695-8 605-8zm0 51c60 0 100 40 100 119 0 80-40 120-100 120s-100-40-100-120c0-79 40-119 100-119zM225 368c-90 0-155 65-155 170s65 170 155 170 155-65 155-170-65-170-155-170zm0 51c60 0 100 40 100 119 0 80-40 120-100 120s-100-40-100-120c0-79 40-119 100-119zM995-8c-90 0-155 65-155 170s65 170 155 170 155-65 155-170S1085-8 995-8zm0 51c60 0 100 40 100 119 0 80-40 120-100 120s-100-40-100-120c0-79 40-119 100-119zM202 0h-62l488 700h62z"/><glyph glyph-name="guilsinglleft" unicode="‹" horiz-adv-x="333" d="M122 306 253 99h-57L56 306l140 207h57z"/><glyph glyph-name="guilsinglright" unicode="›" horiz-adv-x="333" d="M211 306 80 513h57l140-207L137 99H80z"/><glyph glyph-name="fraction" unicode="⁄" horiz-adv-x="230" d="M-98 0h-62l488 700h62z"/><glyph glyph-name="uni2074" unicode="⁴" horiz-adv-x="333" d="M206 280v100H8v35l184 285h69V427h64v-47h-64V280h-55zM69 427h137v219z"/><glyph glyph-name="Euro" unicode="€" d="M405-8C238-8 115 91 83 265H0l15 56h61c-1 12-1 25-1 39 0 12 0 24 1 36H0l15 56h70c35 156 159 256 320 256 62 0 120-8 170-27l-13-58c-59 22-107 28-157 28-113 0-213-79-247-199h366l-15-56H148c-1-12-2-24-2-36 0-14 0-27 1-39h344l-15-56H155C185 125 282 49 405 49c63 0 123 11 175 32V19C539 6 479-8 405-8z"/><glyph glyph-name="uni20B4" unicode="₴" d="M338-8C171-8 105 69 105 161c0 35 9 68 27 97H50v45h117c32 32 74 58 122 85 13 7 25 13 36 20H50v45h341c21 21 34 46 34 81 0 42-16 117-145 117-56 0-103-11-152-32v64c55 19 104 25 152 25 173 0 216-83 216-160 0-35-12-68-31-95h85v-45H425c-31-28-68-49-100-66-25-13-48-26-69-39h294v-45H204c-19-23-28-51-28-87 0-89 93-122 162-122 47 0 115 18 163 41V23C449 2 395-8 338-8z"/><glyph glyph-name="uni20B8" unicode="₸" d="M267 0v513H57v56h486v-56H333V0h-66zM57 644v56h486v-56H57z"/><glyph glyph-name="uni20BD" unicode="₽" d="M153 0v162H55v56h98v82H55v57h98v343h162c154 0 230-77 230-200 0-124-76-200-230-200h-96v-82h144v-56H219V0h-66zm321 500c0 95-48 143-159 143h-96V357h96c111 0 159 48 159 143z"/><glyph glyph-name="afii61352" unicode="№" horiz-adv-x="1104" d="M100 700h85l341-566 31-64h2l-2 81v549h66V0h-85L202 555l-37 75h-3l4-81V0h-66v700zm650-273c0 16 1 157 137 157s137-141 137-157-1-157-137-157-137 141-137 157zm52 0c0-99 47-118 85-118s85 19 85 118-47 118-85 118-85-19-85-118zm-46-320h262l-1-57H756v57z"/><glyph glyph-name="uni2117" unicode="℗" horiz-adv-x="938" d="M100 350c0 133 72 254 184 319 56 32 120 50 185 50 203 0 369-166 369-369 0-65-18-129-50-185C723 53 602-19 469-19c-203 0-369 166-369 369zm50 0c0-178 141-319 319-319s319 141 319 319-141 319-319 319-319-141-319-319zm206-220v435h127c96 0 144-48 144-131 0-82-48-130-144-130h-70V130h-57zm211 304c0 51-29 81-84 81h-70V354h70c55 0 84 31 84 80z"/><glyph glyph-name="trademark" unicode="™" horiz-adv-x="940" d="M100 700h292v-44H270V280h-48v376H100v44zm350-420v420h77l118-249 119 249h76V280h-49v370h-1L670 400h-50L501 650h-1V280h-50z"/><glyph glyph-name="Omega" unicode="Ω" horiz-adv-x="726" d="M263 57v29C94 133 39 281 39 383c0 160 122 325 324 325s324-165 324-325c0-102-55-250-224-297V57h173l11 68 55-6L683 0H406v122c129 31 210 131 210 262 0 187-155 267-253 267s-253-80-253-267c0-131 81-231 210-262V0H43L24 119l55 6 11-68h173z"/><glyph glyph-name="partialdiff" unicode="∂" d="M46 252c0 182 122 254 237 254 87 0 132-40 152-61-34 152-151 203-300 208l12 58c192-4 373-100 373-455C520 97 428-8 283-8 142-8 46 98 46 252zm66-2c0-117 70-205 171-205 121 0 171 112 171 211 0 121-71 197-171 197s-171-88-171-203z"/><glyph glyph-name="Delta" unicode="∆" horiz-adv-x="668" d="M640 0H28l268 700h76zM334 597 134 70h400z"/><glyph glyph-name="product" unicode="∏" horiz-adv-x="845" d="M240 684v-868h66v-66H100v66h66v868h-66v66h645v-66h-66v-868h66v-66H539v66h66v868H240z"/><glyph glyph-name="summation" unicode="∑" horiz-adv-x="686" d="M32 750h574V535h-74v149H130l238-413-242-455h414v147h74v-213H32v46l252 476L32 704v46z"/><glyph glyph-name="minus" unicode="−" d="M50 322v56h500v-56H50z"/><glyph glyph-name="uni2215" unicode="∕" horiz-adv-x="550" d="m25 0 435 700h65L90 0H25z"/><glyph glyph-name="uni2219" unicode="∙" horiz-adv-x="282" d="M100 402h82v-86h-82v86z"/><glyph glyph-name="radical" unicode="√" d="M283-100 120 447H50v53h145L338 19l134 781h148v-53h-96L378-100h-95z"/><glyph glyph-name="infinity" unicode="∞" d="m300 398 60 56c28 26 56 39 97 39 101 0 143-77 143-135 0-61-42-135-143-135-43 0-67 11-97 39l-60 56-60-56c-30-28-54-39-97-39C42 223 0 297 0 358c0 58 42 135 143 135 41 0 69-13 97-39zm-48-40-52 46c-17 15-27 27-58 27-47 0-74-35-74-73 0-36 27-74 74-74 29 0 40 12 58 28zm96 0 52-46c18-16 29-28 58-28 47 0 74 38 74 74 0 38-27 73-74 73-31 0-41-12-58-27z"/><glyph glyph-name="integral" unicode="∫" horiz-adv-x="478" d="m75-239 11 53c13-3 29-5 44-5 11 0 37 2 55 22 13 15 20 41 20 102v648c0 43-4 106 29 147 6 7 38 45 105 45 18 0 42-4 64-9l-11-52c-11 3-29 5-44 5-24 0-44-11-55-23-14-16-20-45-20-102V-57c0-47 3-106-29-146-34-42-86-44-110-44-19 0-38 2-59 8z"/><glyph glyph-name="approxequal" unicode="≈" d="m80 180-30 40c30 60 80 100 140 100 90 0 150-80 220-80 32 0 80 20 110 80l30-40c-30-60-80-100-140-100-90 0-150 80-220 80-34 0-80-20-110-80zm0 200-30 40c30 60 80 100 140 100 90 0 150-80 220-80 32 0 80 20 110 80l30-40c-30-60-80-100-140-100-90 0-150 80-220 80-34 0-80-20-110-80z"/><glyph glyph-name="notequal" unicode="≠" d="m93 106 82 116H50v56h164l102 144H50v56h306l84 118h68l-84-118h126v-56H385L283 278h267v-56H243l-82-116H93z"/><glyph glyph-name="lessequal" unicode="≤" d="M50 61v56h500V61H50zm500 68L50 354v60l500 225v-61L117 385l433-193v-63z"/><glyph glyph-name="greaterequal" unicode="≥" d="M50 61v56h500V61H50zm0 68v61l433 193L50 576v63l500-225v-60z"/><glyph glyph-name="dotmath" unicode="⋅" horiz-adv-x="282" d="M100 402h82v-86h-82v86z"/><glyph glyph-name="lozenge" unicode="◊" horiz-adv-x="680" d="m80 334 260 360 260-360L340-26zm436 0L340 577 164 334 340 91z"/><glyph glyph-name="uniF400" unicode="" horiz-adv-x="2" d="M-215 740h94l-134-130h-50z"/><glyph glyph-name="uniF401" unicode="" horiz-adv-x="2" d="M-322 870h100l-120-120h-60z"/><glyph glyph-name="uniF406" unicode="" horiz-adv-x="492" d="M85 870h60c17-45 65-58 101-58s84 13 101 58h60c-27-75-90-116-161-116S112 795 85 870z"/><glyph glyph-name="uniF407" unicode="" horiz-adv-x="287" d="M99 12h51l-3-42c54 1 90-37 90-85 0-58-38-106-114-106-30 0-53 11-73 26l25 40c17-12 33-16 46-16 28 0 52 15 52 48 0 30-20 50-53 50-10 0-19 0-29-2z"/><glyph glyph-name="uniF408" unicode="" horiz-adv-x="500" d="m250 836-80-86h-70l102 120h96l102-120h-70z"/><glyph glyph-name="uniF409" unicode="" horiz-adv-x="286" d="M125-50h76l-60-170H85z"/><glyph glyph-name="uniF40A" unicode="" horiz-adv-x="216" d="M90 700h76l-62-180H50z"/><glyph glyph-name="uniF40B" unicode="" horiz-adv-x="182" d="M50 846h82v-86H50v86z"/><glyph glyph-name="uniF40C" unicode="" horiz-adv-x="392" d="M100 814c0 53 43 96 96 96s96-43 96-96-43-96-96-96-96 43-96 96zm36 0c0-33 27-60 60-60s60 27 60 60-27 60-60 60-60-27-60-60z"/><glyph glyph-name="uniF40D" unicode="" horiz-adv-x="501" d="M361 848h40c3-40-21-85-79-85-76 0-82 39-138 39-10 0-37-6-44-39h-40c-3 48 28 88 77 88 28 0 56-8 86-21 22-9 40-18 58-18 13 0 36 8 40 36z"/><glyph glyph-name="uniF40E" unicode="" horiz-adv-x="260" d="M115 0h58c-52-51-71-78-71-108 0-33 30-41 42-41s31 7 45 18l21-39c-25-23-52-25-71-25-85 0-89 65-89 78 0 22 5 68 65 117z"/><glyph glyph-name="uniF410" unicode="" horiz-adv-x="2" d="m-360 870 80-120h-60l-120 120h100z"/><glyph glyph-name="uniF47E" unicode="" horiz-adv-x="712" d="M166 700V235C166 89 278 49 356 49s190 40 190 186v465h66V233C612 85 511-8 356-8S100 85 100 233v467h66zm149 146h82v-86h-82v86z"/><glyph glyph-name="uniF47F" unicode="" horiz-adv-x="558" d="M80 513h63V176c0-43 8-131 112-131 85 0 156 71 156 171v297h63V117l4-117h-59v102h-1C392 36 332-8 255-8 187-8 80 17 80 181v332zm164 207h69v-80h-69v80z"/><glyph glyph-name="uniF4C6" unicode="" horiz-adv-x="634" d="M60 700h66V468c0-70 23-126 177-126 35 0 76 3 125 9l40 5v344h66V-17c0-61-11-147-100-175-19-6-39-8-59-8-23 0-54 5-77 10l6 58c18-5 47-11 64-11 16 0 33 2 47 9 13 6 24 16 32 27 19 27 21 60 21 90v316l-40-4c-47-5-93-10-140-10C78 285 60 404 60 467v233z"/><glyph glyph-name="uniF4C7" unicode="" horiz-adv-x="502" d="M103 513V359c0-36 6-61 43-79 20-10 53-13 88-13 45 0 94 6 125 12v234h63V-36c0-76-25-144-115-144-19 0-37 3-58 8v51c15-4 34-6 48-6 21 0 49 6 59 48 3 12 3 24 3 37v268c-43-8-86-12-129-12-156 0-190 59-190 135v164h63z"/><glyph glyph-name="uniF4C8" unicode="" horiz-adv-x="611" d="M405-8h-5l-1-22c54 1 90-37 90-85 0-58-38-106-114-106-30 0-53 11-73 26l25 40c17-12 33-16 46-16 28 0 52 15 52 48 0 30-20 50-53 50-10 0-19 0-29-2l6 71C167 17 55 148 55 360c0 208 140 348 350 348 62 0 120-8 170-27v-61c-76 25-120 31-170 31-159 0-279-120-279-291 0-200 111-311 279-311 63 0 124 10 176 31V19C540 6 479-8 405-8z"/><glyph glyph-name="uniF4C9" unicode="" horiz-adv-x="460" d="M285-182c-36 0-55 10-70 21l20 32c12-9 25-13 37-13 35 0 42 24 42 39 0 17-8 41-42 41-8 0-16 0-24-2l8 61C126 18 45 116 45 255c0 161 105 266 258 266 23 0 67-2 122-20v-56c-18 7-65 23-121 23-113 0-193-80-193-213 0-130 80-210 200-210 36 0 82 9 119 23V12C388-4 353-8 311-8h-15l-2-20c38-1 71-26 71-75 0-64-53-79-80-79z"/><glyph glyph-name="uniF4CC" unicode="" horiz-adv-x="592" d="M20 700h74l217-455 189 455h72L324 111C298 50 276-8 190-8c-24 0-46 3-70 12v56c20-10 41-11 61-11 37 0 56 24 78 79l17 40zm326 170h100L326 750h-60z"/><glyph glyph-name="uniF4CD" unicode="" horiz-adv-x="490" d="M60-211v56s23-9 51-9c44 0 63 32 79 80l24 70L30 513h67L248 74h1l146 439h65L241-116c-21-59-53-104-124-104-28 0-56 9-57 9zm250 951h94L270 610h-50z"/><glyph glyph-name="dollar.fitted" unicode="" horiz-adv-x="515" d="M231-100v94C173-6 115 2 55 25v68c50-24 100-41 176-41v285C120 386 50 438 50 534c0 110 88 164 181 170v96h44v-94c49 0 100-7 153-25v-66c-49 21-97 34-153 34V389c127-63 190-108 190-221C465 38 341 4 275-3v-97h-44zm163 270c0 73-45 108-119 143V56c76 18 119 56 119 114zM121 534c0-54 41-88 110-120v232c-93-15-110-72-110-112z"/><glyph glyph-name="Euro.fitted" unicode="" horiz-adv-x="630" d="M424-8C257-8 134 91 102 265H19l15 56h61c-1 12-1 25-1 39 0 12 0 24 1 36H19l15 56h70c35 156 159 256 320 256 62 0 120-8 170-27l-13-58c-59 22-107 28-157 28-113 0-213-79-247-199h366l-15-56H167c-1-12-2-24-2-36 0-14 0-27 1-39h344l-15-56H174C204 125 301 49 424 49c63 0 123 11 175 32V19C558 6 498-8 424-8z"/><glyph glyph-name="cent.fitted" unicode="" horiz-adv-x="457" d="M261-100v97c-78 8-129 48-158 83-37 44-58 102-58 176 0 107 45 173 87 208 29 25 73 48 129 53v93h44v-91c39 0 79-6 118-20v-57c-41 17-80 24-116 24-60 0-111-16-149-61-21-25-47-71-47-149 0-76 25-124 53-154 39-41 88-55 147-55 38 0 78 8 116 23V12C385-1 344-6 305-6v-94h-44z"/><glyph glyph-name="sterling.fitted" unicode="" horiz-adv-x="490" d="M40 347v56h103v87c0 124 69 218 218 218 47 0 82-9 99-14v-60c-34 12-67 17-99 17-112 0-152-75-152-161v-87h168v-56H209V57h246V0H40v57h103v290H40z"/><glyph glyph-name="yen.fitted" unicode="" horiz-adv-x="620" d="M277 0v199H65v56h212v37l-24 38H65v56h152L15 700h80l216-351 214 351h80L403 386h152v-56H367l-24-38v-37h212v-56H343V0h-66z"/><glyph glyph-name="florin.fitted" unicode="" horiz-adv-x="490" d="M44-227c-20 0-46 2-74 10l9 51c17-5 42-8 58-8 53 0 77 28 88 88l77 440H96l9 53h106l28 156c16 90 62 145 154 145 25 0 46-3 67-9l-9-51c-19 5-38 7-55 7-55 0-83-32-94-92l-27-156h121l-9-53H265L188-86c-14-79-53-141-144-141z"/><glyph glyph-name="uni20B4.fitted" unicode="" d="M338-8C171-8 105 69 105 161c0 35 9 68 27 97H50v45h117c32 32 74 58 122 85 13 7 25 13 36 20H50v45h341c21 21 34 46 34 81 0 42-16 117-145 117-56 0-103-11-152-32v64c55 19 104 25 152 25 173 0 216-83 216-160 0-35-12-68-31-95h85v-45H425c-31-28-68-49-100-66-25-13-48-26-69-39h294v-45H204c-19-23-28-51-28-87 0-89 93-122 162-122 47 0 115 18 163 41V23C449 2 395-8 338-8z"/><glyph glyph-name="uni20BD.fitted" unicode="" horiz-adv-x="575" d="M143 0v162H45v56h98v82H45v57h98v343h162c154 0 230-77 230-200 0-124-76-200-230-200h-96v-82h144v-56H209V0h-66zm321 500c0 95-48 143-159 143h-96V357h96c111 0 159 48 159 143z"/><glyph glyph-name="uni20B8.fitted" unicode="" horiz-adv-x="526" d="M230 0v513H20v56h486v-56H296V0h-66zM20 644v56h486v-56H20z"/><glyph glyph-name="currency.fitted" unicode="" d="m90 100-40 40 58 58c-33 42-53 94-53 152 0 57 20 110 53 152l-58 58 40 40 58-58c42 33 94 53 152 53 57 0 110-20 152-53l58 58 40-40-58-58c33-42 53-95 53-152 0-58-20-110-53-152l58-58-40-40-58 58c-42-33-95-53-152-53-58 0-110 20-152 53zm210 65c102 0 185 83 185 185s-83 185-185 185-185-83-185-185 83-185 185-185z"/><glyph glyph-name="numbersign.fitted" unicode="" horiz-adv-x="550" d="m97 0 29 207H30v57h104l25 173H58v57h109l29 206h62l-29-206h133l29 206h62l-29-206h96v-57H416l-25-173h101v-57H383L354 0h-62l29 207H188L159 0H97zm99 264h133l25 173H221z"/><glyph glyph-name="uniF639" unicode="" horiz-adv-x="590" d="M295-8C160-8 60 92 60 350s100 358 235 358 235-100 235-358S430-8 295-8zm0 60c96 0 167 71 167 298s-71 298-167 298-167-71-167-298S199 52 295 52z"/><glyph glyph-name="uniF63A" unicode="" horiz-adv-x="520" d="M30 0v60c328 297 355 348 355 450 0 85-53 138-155 138-70 0-127-20-170-47v66c66 30 123 41 170 41 150 0 225-75 225-198 0-120-75-223-340-449v-1h355V0H30z"/><glyph glyph-name="uniF63B" unicode="" horiz-adv-x="520" d="M215-8C152-8 105 0 45 23v66c48-23 96-37 170-37 120 0 180 60 180 148 0 74-60 135-200 135h-70v60h70c135 0 190 55 190 135 0 68-45 118-160 118-60 0-129-20-170-40v66c49 21 110 34 170 34 160 0 230-75 230-178 0-80-50-138-140-164v-2c95-19 150-84 150-164C465 77 380-8 215-8z"/><glyph glyph-name="uniF63C" unicode="" horiz-adv-x="555" d="M365 0v167H25v60l318 473h88V224h104v-57H431V0h-66zM89 224h276v406h-3z"/><glyph glyph-name="uniF63D" unicode="" horiz-adv-x="505" d="M60 18v66c40-19 95-32 155-32 125 0 185 60 185 168 0 90-60 150-175 150-60 0-110-10-155-26l20 356h355v-60H153l-13-220c25 7 55 10 95 10 151 0 235-84 235-210C470 82 380-8 215-8 155-8 100 2 60 18z"/><glyph glyph-name="uniF63E" unicode="" horiz-adv-x="540" d="M298-8C164-8 60 96 60 325c0 262 121 383 290 383 46 0 82-4 120-17v-66c-38 15-72 23-120 23-128 0-225-87-230-318 33 77 99 110 178 110 127 0 212-85 212-220C510 79 423-8 298-8zm0 60c89 0 142 53 142 168 0 106-54 160-142 160-101 0-158-62-158-150 0-111 67-178 158-178z"/><glyph glyph-name="uniF63F" unicode="" horiz-adv-x="470" d="m105 0 275 643H20v57h430v-60L180 0h-75z"/><glyph glyph-name="uniF640" unicode="" horiz-adv-x="580" d="M222 360v1c-91 44-142 89-142 179 0 88 80 168 210 168s210-80 210-168c0-87-67-144-145-180v-1c103-33 170-83 170-179C525 72 445-8 290-8S55 72 55 180c0 96 72 151 167 180zm68 291c-89 0-139-50-139-111 0-85 49-112 144-155 64 27 134 77 134 155 0 61-50 111-139 111zm-14-320c-74-21-150-64-150-151 0-76 55-131 164-131s164 55 164 131c0 82-98 126-178 151z"/><glyph glyph-name="uniF641" unicode="" horiz-adv-x="540" d="M190-8C144-8 108-4 70 9v66c38-15 72-23 120-23 128 0 225 87 230 318-33-77-99-110-178-110-127 0-212 85-212 220 0 141 87 228 212 228 134 0 238-104 238-333C480 113 359-8 190-8zm52 328c101 0 158 62 158 150 0 111-67 178-158 178-89 0-142-53-142-168 0-106 54-160 142-160z"/><glyph glyph-name="uniF643" unicode="" d="M300-8C155-8 65 82 65 256c0 175 90 265 235 265s235-90 235-265C535 82 445-8 300-8zm0 60c99 0 167 68 167 203 0 138-68 206-167 206s-167-68-167-206c0-135 68-203 167-203z"/><glyph glyph-name="uniF644" unicode="" d="M314 0v436L176 325l-36 46 179 142h61V0h-66z"/><glyph glyph-name="uniF645" unicode="" d="M100 0v61c264 169 334 219 334 303 0 62-38 100-144 100-61 0-116-15-170-43v61c48 24 106 39 170 39 148 0 210-62 210-152 0-84-51-160-307-311v-1h327V0H100z"/><glyph glyph-name="uniF646" unicode="" d="M250-195c-63 0-110 8-170 31v66c48-23 96-37 170-37 120 0 180 60 180 148 0 74-60 135-200 135h-70v60h70c135 0 190 55 190 135 0 68-45 118-160 118-60 0-129-20-170-40v66c49 21 110 34 170 34 160 0 230-75 230-178 0-80-50-138-140-164v-2c95-19 150-84 150-164 0-123-85-208-250-208z"/><glyph glyph-name="uniF647" unicode="" d="M395-187V0H55v60l318 453h88V57h104V0H461v-187h-66zM119 57h276v386h-3z"/><glyph glyph-name="uniF648" unicode="" d="M100-169v66c40-19 95-32 155-32 125 0 185 60 185 168 0 90-60 150-175 150-60 0-110-10-155-26l20 356h355v-60H193l-13-220c25 7 55 10 95 10 151 0 235-84 235-210 0-138-90-228-255-228-60 0-115 10-155 26z"/><glyph glyph-name="uniF649" unicode="" d="M323-8C189-8 85 96 85 325c0 262 121 383 290 383 46 0 82-4 120-17v-66c-38 15-72 23-120 23-128 0-225-87-230-318 33 77 99 110 178 110 127 0 212-85 212-220C535 79 448-8 323-8zm0 60c89 0 142 53 142 168 0 106-54 160-142 160-101 0-158-62-158-150 0-111 67-178 158-178z"/><glyph glyph-name="uniF64A" unicode="" d="m165-187 275 643H80v57h430v-60L240-187h-75z"/><glyph glyph-name="uniF64B" unicode="" d="M232 360v1c-91 44-142 89-142 179 0 88 80 168 210 168s210-80 210-168c0-87-67-144-145-180v-1c103-33 170-83 170-179C535 72 455-8 300-8S65 72 65 180c0 96 72 151 167 180zm68 291c-89 0-139-50-139-111 0-85 49-112 144-155 64 27 134 77 134 155 0 61-50 111-139 111zm-14-320c-74-21-150-64-150-151 0-76 55-131 164-131s164 55 164 131c0 82-98 126-178 151z"/><glyph glyph-name="uniF64C" unicode="" d="M225-195c-46 0-82 4-120 17v66c38-15 72-23 120-23 128 0 225 87 230 318-33-77-99-110-178-110-127 0-212 85-212 220 0 141 87 228 212 228 134 0 238-104 238-333 0-262-121-383-290-383zm52 328c101 0 158 62 158 150 0 111-67 178-158 178-89 0-142-53-142-168 0-106 54-160 142-160z"/><glyph glyph-name="uniF6BA" unicode="" horiz-adv-x="400" d="M80 315v70h240v-70H80z"/><glyph glyph-name="uniF6BB" unicode="" horiz-adv-x="700" d="M100 322v56h500v-56H100z"/><glyph glyph-name="uniF6BC" unicode="" horiz-adv-x="1000" d="M100 322v56h800v-56H100z"/><glyph glyph-name="uniF6C3" unicode="" horiz-adv-x="280" d="M125-50h70l-60-170H85z"/><glyph glyph-name="uniF6C9" unicode="" horiz-adv-x="380" d="M180 870h100L160 750h-60z"/><glyph glyph-name="uniF6CA" unicode="" horiz-adv-x="500" d="m250 784 80 86h70L298 750h-96L100 870h70z"/><glyph glyph-name="uniF6CB" unicode="" horiz-adv-x="498" d="M100 844h69v-80h-69v80zm229 0h69v-80h-69v80z"/><glyph glyph-name="uniF6CC" unicode="" horiz-adv-x="495" d="M100 844h66v-80h-66v80zm229 0h66v-80h-66v80zm-45 120h90L268 844h-54z"/><glyph glyph-name="uniF6CE" unicode="" horiz-adv-x="380" d="m200 870 80-120h-60L100 870h100z"/><glyph glyph-name="uniF6CF" unicode="" horiz-adv-x="444" d="M144 870h100L110 750H50zm150 0h100L259 750h-60z"/><glyph glyph-name="uniF6D0" unicode="" horiz-adv-x="462" d="M100 834h262v-60H100v60z"/><glyph glyph-name="uniF6D1" unicode="" horiz-adv-x="360" d="m284 895 56-6c-5-94-76-134-160-134S25 795 20 889l58 6c7-63 46-88 102-88 58 0 97 25 104 88z"/><glyph glyph-name="uniF6D4" unicode="" horiz-adv-x="350" d="m276 730 54-6c-5-94-76-134-155-134S25 630 20 724l56 6c7-65 46-90 99-90 55 0 94 25 101 90z"/><glyph glyph-name="uniF6D7" unicode="" horiz-adv-x="439" d="M80 720h66v-80H80v80zm213 0h66v-80h-66v80zm-26 134h84L237 720h-50z"/><glyph glyph-name="uniF6DC" unicode="" horiz-adv-x="370" d="M204 0v623L46 497l-36 46 199 157h61V0h-66z"/><glyph glyph-name="uniF6DE" unicode="" horiz-adv-x="690" d="M45 258v56h600v-56H45z"/><glyph glyph-name="uniF6E1" unicode="" horiz-adv-x="305" d="M146-60h70l-61-158h-50z"/><glyph glyph-name="uniF6E2" unicode="" horiz-adv-x="235" d="M105 700h80l-65-158H60z"/><glyph glyph-name="uniF730" unicode="" horiz-adv-x="590" d="M295-8C150-8 60 82 60 256c0 175 90 265 235 265s235-90 235-265C530 82 440-8 295-8zm0 60c99 0 167 68 167 203 0 138-68 206-167 206s-167-68-167-206c0-135 68-203 167-203z"/><glyph glyph-name="uniF731" unicode="" horiz-adv-x="333" d="M184 0v436L46 325l-36 46 179 142h61V0h-66z"/><glyph glyph-name="uniF732" unicode="" horiz-adv-x="515" d="M50 0v61c264 169 334 219 334 303 0 62-38 100-144 100-61 0-116-15-170-43v61c48 24 106 39 170 39 148 0 210-62 210-152 0-84-51-160-307-311v-1h327V0H50z"/><glyph glyph-name="uniF733" unicode="" horiz-adv-x="510" d="M200-195c-63 0-110 8-170 31v66c48-23 96-37 170-37 120 0 180 60 180 148 0 74-60 135-200 135h-70v60h70c135 0 190 55 190 135 0 68-45 118-160 118-60 0-129-20-170-40v66c49 21 110 34 170 34 160 0 230-75 230-178 0-80-50-138-140-164v-2c95-19 150-84 150-164 0-123-85-208-250-208z"/><glyph glyph-name="uniF734" unicode="" horiz-adv-x="570" d="M380-187V0H40v60l318 453h88V57h104V0H446v-187h-66zM104 57h276v386h-3z"/><glyph glyph-name="uniF735" unicode="" horiz-adv-x="510" d="M55-169v66c40-19 95-32 155-32 125 0 185 60 185 168 0 90-60 150-175 150-60 0-110-10-155-26l20 356h355v-60H148l-13-220c25 7 55 10 95 10 151 0 235-84 235-210 0-138-90-228-255-228-60 0-115 10-155 26z"/><glyph glyph-name="uniF736" unicode="" horiz-adv-x="555" d="M298-8C164-8 60 96 60 325c0 262 121 383 290 383 46 0 82-4 120-17v-66c-38 15-72 23-120 23-128 0-225-87-230-318 33 77 99 110 178 110 127 0 212-85 212-220C510 79 423-8 298-8zm0 60c89 0 142 53 142 168 0 106-54 160-142 160-101 0-158-62-158-150 0-111 67-178 158-178z"/><glyph glyph-name="uniF737" unicode="" horiz-adv-x="460" d="m85-187 275 643H0v57h430v-60L160-187H85z"/><glyph glyph-name="uniF738" unicode="" horiz-adv-x="570" d="M217 360v1c-91 44-142 89-142 179 0 88 80 168 210 168s210-80 210-168c0-87-67-144-145-180v-1c103-33 170-83 170-179C520 72 440-8 285-8S50 72 50 180c0 96 72 151 167 180zm68 291c-89 0-139-50-139-111 0-85 49-112 144-155 64 27 134 77 134 155 0 61-50 111-139 111zm-14-320c-74-21-150-64-150-151 0-76 55-131 164-131s164 55 164 131c0 82-98 126-178 151z"/><glyph glyph-name="uniF739" unicode="" horiz-adv-x="555" d="M205-195c-46 0-82 4-120 17v66c38-15 72-23 120-23 128 0 225 87 230 318-33-77-99-110-178-110-127 0-212 85-212 220 0 141 87 228 212 228 134 0 238-104 238-333 0-262-121-383-290-383zm52 328c101 0 158 62 158 150 0 111-67 178-158 178-89 0-142-53-142-168 0-106 54-160 142-160z"/><glyph glyph-name="uniFB13" unicode="ﬓ" horiz-adv-x="1109" d="M966 513h63V0h-55v102h-1c-20-51-54-76-83-91-27-13-56-19-85-19-76 0-116 36-129 52-39 44-42 100-42 151v333H478c-3-18-4-38-4-61V0h-55v102h-1c-20-51-54-76-83-91-25-13-53-19-83-19-60 0-104 21-131 52-39 45-41 98-41 155v314h63V176c0-29 0-96 67-122 14-5 29-9 45-9 41 0 79 12 110 47 23 27 46 65 46 124v242c0 26 2 49 5 70h-10c-144 0-180 77-180 157h63c0-61 18-111 110-111h27c29 88 93 116 169 116 25 0 69-3 106-10v-56c-32 8-60 14-109 14-39 0-78-14-100-64h205V176c0-29 1-65 30-97 19-19 46-34 83-34 41 0 79 12 110 47 23 27 46 65 46 124v297z"/><glyph glyph-name="uniFB14" unicode="ﬔ" horiz-adv-x="1109" d="M634 685h63V513h342v-53H697V176c0-39 9-131 112-131 92 0 156 81 156 171v53h63V0h-55l-1 102C936 10 858-8 804-8c-76 0-116 36-129 52-39 45-41 101-41 137v450c-30 6-53 7-73 7-60 0-87-43-87-135V0h-55l-1 102C383 12 309-8 252-8 100-8 80 107 80 199v314h63V176c0-18-6-131 112-131 67 0 156 46 156 171v283c0 147 62 191 146 191 14 0 42-1 77-5z"/><glyph glyph-name="uniFB15" unicode="ﬕ" horiz-adv-x="1117" d="M634 685h63V509l-4-102h2c8 24 22 54 57 80 31 23 65 34 105 34 105 0 148-51 164-93 11-29 16-61 16-90V0h-63v316c0 45-1 91-28 120-15 15-42 32-95 32-44 0-74-14-103-43-25-25-51-66-51-126v-518h-63v850c-30 6-53 7-73 7-60 0-87-43-87-135V0h-55l-1 102C383 12 309-8 252-8 100-8 80 107 80 199v314h63V176c0-67 20-131 112-131 67 0 156 46 156 171v283c0 147 62 191 146 191 14 0 42-1 77-5z"/><glyph glyph-name="uniFB16" unicode="ﬖ" horiz-adv-x="1109" d="M966 513h63V0h-55v102h-1c-20-51-54-76-83-91-27-13-56-19-85-19-76 0-116 36-129 52-39 44-42 100-42 151v329H474v-690h120v-53H411v321h-2c-9-28-28-67-77-91-27-13-53-19-80-19-72 0-111 29-131 52-10 11-18 23-23 35-16 38-18 75-18 106v328h63V176c0-42 3-98 67-122 15-5 30-9 45-9 32 0 74 7 110 47 23 27 46 65 46 124v308c-149 0-185 81-185 161h63c0-61 24-111 122-111v111h63V574h223V176c0-29 1-65 30-97 19-19 46-34 83-34 41 0 79 12 110 47 23 27 46 65 46 124v297z"/><glyph glyph-name="uniFB17" unicode="ﬗ" horiz-adv-x="1310" d="M80 513h63V176c0-18-6-131 112-131 67 0 156 46 156 171v283c0 147 62 191 146 191 14 0 42-1 77-5h63V513h202V176c0-31 0-66 29-97 22-23 50-34 83-34 48 0 83 16 110 47 23 27 46 65 46 124v297h63V0h-55v102h-1c-11-29-34-67-83-91-27-13-53-19-80-19-64 0-107 21-134 52-38 44-42 102-42 147v269H697v-679h-63v850c-30 6-53 7-73 7-60 0-87-43-87-135V0h-55l-1 102C383 12 309-8 252-8 100-8 80 107 80 199v314z"/><glyph glyph-name="uniFEFF" horiz-adv-x="0"/><glyph glyph-name="dotlessi1" horiz-adv-x="223" d="M80 513h63V0H80v513z"/><glyph glyph-name="franc" unicode="₣" d="M160 0v142H62v56h98v502h352v-57H226V390h266v-57H226V198h144v-56H226V0h-66z"/><glyph glyph-name="franc.fitted" horiz-adv-x="510" d="M118 0v142H20v56h98v502h352v-57H184V390h266v-57H184V198h144v-56H184V0h-66z"/><glyph glyph-name="arrowleft" unicode="←" horiz-adv-x="700" d="m20 350 215 215h76L126 380h554v-60H126l185-185h-76z"/><glyph glyph-name="arrowup" unicode="↑" horiz-adv-x="700" d="m350 700 215-215v-76L380 594V0h-60v594L135 409v76z"/><glyph glyph-name="arrowright" unicode="→" horiz-adv-x="700" d="M680 350 465 135h-76l185 185H20v60h554L389 565h76z"/><glyph glyph-name="arrowdown" unicode="↓" horiz-adv-x="700" d="M350 0 135 215v76l185-185v594h60V106l185 185v-76z"/><glyph glyph-name="uni20BC" unicode="₼" d="M35 0c0 404 102 538 232 556v144h66V556C462 538 565 404 565 0h-68c0 368-71 476-164 495V0h-66v495C173 476 103 368 103 0H35z"/><glyph glyph-name="uni20BE" unicode="₾" d="M73 0v57h113C110 109 65 206 65 350c0 208 71 316 171 348v102h44v-93s10 1 25 1 25-1 25-1v93h44V697c100-32 171-139 171-347h-68c0 165-42 249-103 281V350h-44v296s-10 2-25 2-25-2-25-2V350h-44v282c-61-32-103-117-103-282 0-202 91-293 222-293h156V0H73z"/><glyph glyph-name="uni20BC.fitted" horiz-adv-x="640" d="M35 0c0 391 115 536 252 555v145h66V555C489 536 605 391 605 0h-68c0 353-86 474-184 494V0h-66v494C189 474 103 353 103 0H35z"/><glyph glyph-name="uni20BE.fitted" horiz-adv-x="650" d="M73 0v57h128C115 111 65 210 65 350c0 204 81 318 196 349v101h44v-93s10 1 25 1 25-1 25-1v93h44V699c115-31 196-145 196-349h-68c0 165-53 254-128 285V350h-44v297s-10 1-25 1-25-1-25-1V350h-44v285c-76-31-128-120-128-285 0-192 101-293 247-293h181V0H73z"/><glyph glyph-name="uni058F.fitted" d="M260 306v56h149v98c0 135-55 190-149 190s-149-55-149-190v-50H45v50c0 163 85 248 215 248s215-85 215-248v-98h90v-56h-90v-82h90v-56h-90V0h-66v168H260v56h149v82H260z"/></font>
</defs>
</svg>
