<svg width="14" height="14" viewBox="0 0 14 14" fill="none" xmlns="http://www.w3.org/2000/svg">
<path fill-rule="evenodd" clip-rule="evenodd" d="M1.86914 0.229776C1.41036 -0.110633 0.759301 -0.0728097 0.343246 0.343246C-0.114415 0.800906 -0.114415 1.54292 0.343246 2.00058L5.00955 6.66689L0.343685 11.3328C-0.113975 11.7904 -0.113975 12.5324 0.343685 12.9901C0.759741 13.4062 1.4108 13.444 1.86958 13.1036L2.00102 12.9901L6.66689 8.32423L11.3328 12.9901L11.4642 13.1036C11.923 13.444 12.574 13.4061 12.9901 12.9901C13.4477 12.5324 13.4477 11.7904 12.9901 11.3328L8.32423 6.66689L12.9905 2.00059C13.4482 1.54293 13.4482 0.800916 12.9905 0.343256C12.5745 -0.0727995 11.9234 -0.110623 11.4646 0.229786L11.3332 0.343256L6.66689 5.00955L2.00058 0.343246L1.86914 0.229776Z" fill="#102752"/>
</svg>
