<svg width="34" height="40" viewBox="0 0 34 40" fill="none" xmlns="http://www.w3.org/2000/svg">
<path d="M24.3335 12.6667H9.66683M24.3335 12.6667C28.3836 12.6667 31.6668 15.95 31.6668 20.0001V31.0001C31.6668 35.0502 28.3836 38.3334 24.3335 38.3334H9.66683C5.61674 38.3334 2.3335 35.0502 2.3335 31.0001V20.0001C2.3335 15.95 5.61674 12.6667 9.66683 12.6667M24.3335 12.6667V9.00008C24.3335 4.94999 21.0502 1.66675 17.0002 1.66675C12.9501 1.66675 9.66683 4.94999 9.66683 9.00008V12.6667M20.6668 25.5001C20.6668 27.5251 19.0252 29.1667 17.0002 29.1667C14.9751 29.1667 13.3335 27.5251 13.3335 25.5001C13.3335 23.475 14.9751 21.8334 17.0002 21.8334C19.0252 21.8334 20.6668 23.475 20.6668 25.5001Z" stroke="white" stroke-opacity="0.5" stroke-width="2.69271" stroke-linecap="round" stroke-linejoin="round"/>
</svg>
