<svg width="219" height="31" viewBox="0 0 219 31" fill="none" xmlns="http://www.w3.org/2000/svg">
<path d="M5.77249 1.08126V9.93974L11.7897 1.08126H18.7955L8.61879 11.4628L27.1996 1.08126V7.67268L10.5163 13.9345L27.1996 12.3716V18.6334L10.5163 17.0705L27.1996 23.3323V29.9237L8.61879 19.5422L18.7955 29.9237H11.7847L5.7675 21.0653V29.9237H0V1.08126H5.77249Z" fill="#102752"/>
<path d="M31.3143 1.08126H38.1104L37.0817 19.742L45.5258 1.08126H51.0885V29.9187H44.2924L45.321 11.258L36.877 29.9187H31.3143V1.08126Z" fill="#102752"/>
<path d="M55.2082 1.08126H62.0043V12.2068H67.7718V1.08126H74.568V29.9187H67.7718V16.7359H62.0043V29.9187H55.2082V1.08126Z" fill="#102752"/>
<path d="M77.6989 15.5025C77.6989 7.26322 81.4889 0.507013 89.109 0.507013C96.7291 0.507013 100.519 7.26322 100.519 15.5025C100.519 23.7418 96.7291 30.498 89.109 30.498C81.4889 30.498 77.6989 23.7418 77.6989 15.5025ZM89.109 26.2136C91.7855 26.2136 93.3535 21.4747 93.3535 15.5025C93.3535 9.53027 91.7855 4.79144 89.109 4.79144C86.4325 4.79144 84.8646 9.53027 84.8646 15.5025C84.8695 21.4747 86.4325 26.2136 89.109 26.2136Z" fill="#102752"/>
<path d="M103.65 1.08126H123.22V29.9187H116.423V5.61037H110.451V29.9187H103.655V1.08126H103.65Z" fill="#102752"/>
<path d="M126.351 15.5025C126.351 7.26322 130.141 0.507013 137.761 0.507013C145.381 0.507013 149.171 7.26322 149.171 15.5025C149.171 23.7418 145.381 30.498 137.761 30.498C130.141 30.498 126.351 23.7418 126.351 15.5025ZM137.766 26.2136C140.442 26.2136 142.01 21.4747 142.01 15.5025C142.01 9.53027 140.442 4.79144 137.766 4.79144C135.089 4.79144 133.521 9.53027 133.521 15.5025C133.521 21.4747 135.084 26.2136 137.766 26.2136Z" fill="#102752"/>
<path d="M152.307 1.08126H159.103L158.074 19.742L166.518 1.08126H172.081V29.9187H165.285L166.314 11.258L157.87 29.9187H152.307V1.08126Z" fill="#102752"/>
<path d="M190.163 19.742L196.629 20.7307L196.424 21.7194C195.311 27.0774 191.935 30.493 186.372 30.493C178.752 30.493 175.207 23.7368 175.207 15.4975C175.207 7.25822 178.752 0.502014 186.372 0.502014C191.73 0.502014 195.146 3.92256 196.344 8.94603L196.549 9.8099L189.918 11.293C189.424 7.29817 188.23 4.78145 186.372 4.78145C183.696 4.78145 182.378 9.52028 182.378 15.4925C182.378 21.4647 183.696 26.2036 186.372 26.2036C188.395 26.2136 189.668 23.532 190.163 19.742Z" fill="#102752"/>
<path d="M199.43 1.08126H206.227V14.0594L211.789 1.08126H218.795L210.761 15.0481L219 29.9187H211.38L206.232 16.9406V29.9187H199.435V1.08126H199.43Z" fill="#102752"/>
</svg>
