<svg width="372" height="66" viewBox="0 0 372 66" fill="none" xmlns="http://www.w3.org/2000/svg">
<g clip-path="url(#clip0_303_5170)">
<path d="M26.9255 20.4H5.19787L6.76383 16H28.4915L26.9255 20.4ZM26.1426 22.6H4.41489L2.84894 27H24.5766L26.1426 22.6ZM23.7936 29.2H2.06596L0.5 33.6H22.2277L23.7936 29.2Z" fill="#00AAFF"/>
<path d="M78.7 44.6H82.6149C84.083 44.6 84.9638 44.2 85.6489 43.4C85.9425 43 86.4319 42.3 86.4319 40.9C86.4319 39.5 85.9425 38.6 85.0617 37.9C84.5723 37.5 83.7893 37.3 82.6149 37.3H78.7979V44.6H78.7ZM73.6106 49V22.6H90.4447L88.9766 27H78.7V32.9H82.9085C86.2361 32.9 87.9978 33.7 89.1723 34.8C90.151 35.6 91.717 37.5 91.717 41.1C91.717 44.7 90.0532 46.6 88.683 47.6C87.117 48.7 85.3553 49.1 81.9298 49.1H73.6106V49ZM58.734 49V27H51.2957V22.6H71.9468L70.4787 27H63.8234V49H58.734ZM37.9851 33.2H40.9213C41.8021 33.2 42.2915 33.2 42.683 33.1C43.8574 32.7 44.6404 31.6 44.6404 30.1C44.6404 28.3 43.8574 27.5 42.683 27.2C42.1936 27.1 41.7042 27 40.7255 27H37.9851V33.2ZM37.9851 37.7V44.6H41.6064C42.683 44.6 43.6617 44.5 44.3468 43.8C45.0319 43.1 45.4234 42.2 45.4234 41.1C45.4234 40.2 45.2276 39.4 44.7383 38.8C43.9553 37.8 43.0744 37.6 41.4106 37.6H37.9851V37.7ZM46.3042 34.9C47.283 35.4 48.2617 36 48.751 36.4C50.317 37.7 50.9042 39.4 50.9042 41.6C50.9042 45.2 49.0447 47.8 45.9127 48.6C44.934 48.9 43.9553 49 42.1936 49H32.7979V22.6H41.117C42.7808 22.6 43.9553 22.7 45.0319 23C48.0659 23.8 50.0234 25.9 50.0234 29.3C50.0234 31.1 49.4362 32.6 48.3596 33.6C47.8702 34 47.283 34.5 46.3042 34.9Z" fill="#002882"/>
</g>
<path opacity="0.1" d="M122.5 0L122.5 66" stroke="#1F1F1F"/>
<path d="M158.272 18.5812V27.4397L164.29 18.5812H171.296L161.119 28.9627L179.7 18.5812V25.1726L163.016 31.4345L179.7 29.8715V36.1334L163.016 34.5704L179.7 40.8322V47.4237L161.119 37.0422L171.296 47.4237H164.285L158.267 38.5652V47.4237H152.5V18.5812H158.272Z" fill="#102752"/>
<path d="M183.814 18.5812H190.61L189.582 37.2419L198.026 18.5812H203.589V47.4187H196.792L197.821 28.758L189.377 47.4187H183.814V18.5812Z" fill="#102752"/>
<path d="M207.708 18.5812H214.504V29.7067H220.272V18.5812H227.068V47.4187H220.272V34.2358H214.504V47.4187H207.708V18.5812Z" fill="#102752"/>
<path d="M230.199 33.0024C230.199 24.7632 233.989 18.007 241.609 18.007C249.229 18.007 253.019 24.7632 253.019 33.0024C253.019 41.2417 249.229 47.9979 241.609 47.9979C233.989 47.9979 230.199 41.2417 230.199 33.0024ZM241.609 43.7135C244.286 43.7135 245.854 38.9747 245.854 33.0024C245.854 27.0302 244.286 22.2914 241.609 22.2914C238.933 22.2914 237.365 27.0302 237.365 33.0024C237.37 38.9747 238.933 43.7135 241.609 43.7135Z" fill="#102752"/>
<path d="M256.15 18.5812H275.72V47.4187H268.923V23.1103H262.951V47.4187H256.155V18.5812H256.15Z" fill="#102752"/>
<path d="M278.851 33.0024C278.851 24.7632 282.641 18.007 290.261 18.007C297.881 18.007 301.671 24.7632 301.671 33.0024C301.671 41.2417 297.881 47.9979 290.261 47.9979C282.641 47.9979 278.851 41.2417 278.851 33.0024ZM290.266 43.7135C292.942 43.7135 294.51 38.9747 294.51 33.0024C294.51 27.0302 292.942 22.2914 290.266 22.2914C287.589 22.2914 286.021 27.0302 286.021 33.0024C286.021 38.9747 287.584 43.7135 290.266 43.7135Z" fill="#102752"/>
<path d="M304.807 18.5812H311.603L310.574 37.2419L319.018 18.5812H324.581V47.4187H317.785L318.814 28.758L310.37 47.4187H304.807V18.5812Z" fill="#102752"/>
<path d="M342.663 37.2419L349.129 38.2306L348.924 39.2193C347.811 44.5774 344.435 47.9929 338.872 47.9929C331.252 47.9929 327.707 41.2367 327.707 32.9974C327.707 24.7582 331.252 18.002 338.872 18.002C344.23 18.002 347.646 21.4225 348.844 26.446L349.049 27.3098L342.418 28.7929C341.924 24.7981 340.73 22.2814 338.872 22.2814C336.196 22.2814 334.878 27.0202 334.878 32.9924C334.878 38.9647 336.196 43.7035 338.872 43.7035C340.895 43.7135 342.168 41.032 342.663 37.2419Z" fill="#102752"/>
<path d="M351.93 18.5812H358.727V31.5593L364.289 18.5812H371.295L363.261 32.548L371.5 47.4187H363.88L358.732 34.4406V47.4187H351.935V18.5812H351.93Z" fill="#102752"/>
<defs>
<clipPath id="clip0_303_5170">
<rect width="92" height="34" fill="white" transform="translate(0.5 16)"/>
</clipPath>
</defs>
</svg>
