<svg width="92" height="34" viewBox="0 0 92 34" fill="none" xmlns="http://www.w3.org/2000/svg">
<path d="M26.4255 4.4H4.69787L6.26383 0H27.9915L26.4255 4.4ZM25.6426 6.6H3.91489L2.34894 11H24.0766L25.6426 6.6ZM23.2936 13.2H1.56596L0 17.6H21.7277L23.2936 13.2Z" fill="#00AAFF"/>
<path d="M78.2 28.6H82.1149C83.583 28.6 84.4638 28.2 85.1489 27.4C85.4425 27 85.9319 26.3 85.9319 24.9C85.9319 23.5 85.4425 22.6 84.5617 21.9C84.0723 21.5 83.2893 21.3 82.1149 21.3H78.2979V28.6H78.2ZM73.1106 33V6.59998H89.9447L88.4766 11H78.2V16.9H82.4085C85.7361 16.9 87.4979 17.7 88.6723 18.8C89.651 19.6 91.217 21.5 91.217 25.1C91.217 28.7 89.5532 30.6 88.183 31.6C86.617 32.7 84.8553 33.1 81.4298 33.1H73.1106V33ZM58.234 33V11H50.7957V6.59998H71.4468L69.9787 11H63.3234V33H58.234ZM37.4851 17.2H40.4213C41.3021 17.2 41.7915 17.2 42.183 17.1C43.3574 16.7 44.1404 15.6 44.1404 14.1C44.1404 12.3 43.3574 11.5 42.183 11.2C41.6936 11.1 41.2042 11 40.2255 11H37.4851V17.2ZM37.4851 21.7V28.6H41.1064C42.183 28.6 43.1617 28.5 43.8468 27.8C44.5319 27.1 44.9234 26.2 44.9234 25.1C44.9234 24.2 44.7276 23.4 44.2383 22.8C43.4553 21.8 42.5744 21.6 40.9106 21.6H37.4851V21.7ZM45.8042 18.9C46.783 19.4 47.7617 20 48.251 20.4C49.817 21.7 50.4042 23.4 50.4042 25.6C50.4042 29.2 48.5447 31.8 45.4127 32.6C44.434 32.9 43.4553 33 41.6936 33H32.2979V6.59998H40.617C42.2808 6.59998 43.4553 6.69998 44.5319 6.99998C47.5659 7.79998 49.5234 9.89998 49.5234 13.3C49.5234 15.1 48.9362 16.6 47.8596 17.6C47.3702 18 46.783 18.5 45.8042 18.9Z" fill="#002882"/>
</svg>
